<svg width="94" height="94" viewBox="0 0 94 94" fill="none" xmlns="http://www.w3.org/2000/svg">
    <circle cx="47.2036" cy="47.0767" r="45.5064" stroke="url(#paint0_linear_4078_1118)" stroke-width="1.98718"/>
    <path d="M42.6599 35.3228C42.6701 35.3288 42.6837 35.3435 42.7078 35.3804C42.8042 35.5297 42.8693 35.6871 42.8679 35.8442C42.8647 36.0846 42.7041 36.3069 42.5095 36.5229C42.4713 36.5651 42.4338 36.6052 42.3953 36.6411L42.2761 36.7358C42.1796 36.7971 41.9747 36.8706 41.7781 36.8901C41.6807 36.8998 41.5948 36.8953 41.53 36.8755C41.4675 36.8563 41.4329 36.8262 41.4158 36.7876C41.4108 36.7759 41.4065 36.7554 41.406 36.7222C41.4056 36.6891 41.409 36.6505 41.4148 36.6069C41.4177 36.5855 41.4212 36.5639 41.4246 36.5415C41.4279 36.5193 41.4313 36.4957 41.4343 36.4731C41.4402 36.4295 41.445 36.3812 41.4431 36.3364V36.3354C41.4368 36.1927 41.4076 36.055 41.3835 35.9312C41.3589 35.8039 41.3391 35.6872 41.3425 35.5679C41.3445 35.5035 41.3492 35.465 41.363 35.439L41.364 35.437C41.3826 35.4011 41.4189 35.373 41.4822 35.354C41.5467 35.3347 41.6258 35.3296 41.7068 35.3286C41.9995 35.3249 42.2921 35.3208 42.5847 35.3169C42.6299 35.3169 42.6484 35.3183 42.6599 35.3228Z" fill="url(#paint1_linear_4078_1118)" stroke="url(#paint2_linear_4078_1118)" stroke-width="0.237872"/>
    <path d="M54.1127 35.5225C54.1229 35.5285 54.1363 35.5432 54.1605 35.5801C54.257 35.7295 54.3222 35.8868 54.3207 36.0439C54.3174 36.2841 54.1578 36.5067 53.9633 36.7227C53.9249 36.7648 53.8866 36.8049 53.848 36.8408L53.7289 36.9355C53.6324 36.9968 53.4274 37.0703 53.2308 37.0898C53.1334 37.0995 53.0475 37.095 52.9828 37.0752C52.9202 37.0561 52.8857 37.0259 52.8685 36.9873C52.8636 36.9757 52.8592 36.9551 52.8588 36.9219C52.8583 36.8888 52.8617 36.8502 52.8676 36.8066C52.8704 36.7852 52.8739 36.7636 52.8773 36.7412C52.8807 36.719 52.884 36.6954 52.8871 36.6729C52.893 36.6291 52.8978 36.5801 52.8959 36.5352C52.8895 36.3924 52.8603 36.2547 52.8363 36.1309C52.8117 36.0039 52.7919 35.8876 52.7953 35.7686C52.7974 35.7031 52.8027 35.6649 52.8168 35.6387V35.6367C52.8354 35.6008 52.8725 35.5727 52.9359 35.5537C52.9681 35.5441 53.0037 35.5381 53.0414 35.5342L53.1595 35.5283C53.4523 35.5244 53.7447 35.5203 54.0375 35.5166C54.0826 35.5166 54.1011 35.518 54.1127 35.5225Z" fill="url(#paint3_linear_4078_1118)" stroke="url(#paint4_linear_4078_1118)" stroke-width="0.237872"/>
    <path opacity="0.23" d="M46.9102 15.9507C50.1025 15.9435 53.2328 16.2386 56.0068 17.814C57.2483 18.5169 58.4113 19.4124 59.2588 20.52C60.1588 21.6931 60.5227 23.14 60.8057 24.5747C61.1107 26.1252 61.2832 27.7043 61.291 29.2847C61.2986 30.6738 61.1921 32.2653 60.4365 33.4546C60.0831 34.0108 59.5938 34.1481 59.1504 34.0308C58.7538 33.9257 58.3814 33.6131 58.1699 33.1782L58.0898 32.9849L57.9053 32.4312C57.7296 31.8775 57.5747 31.323 57.4053 30.7661C57.1801 30.0261 56.9306 29.2868 56.5781 28.563C56.2589 27.9082 55.8848 27.1715 55.415 26.5083C54.9452 25.845 54.375 25.2478 53.6602 24.8794C53.3392 24.7137 53.0261 24.5328 52.7129 24.3511C52.4005 24.1698 52.0875 23.9876 51.7705 23.8228C51.1649 23.5078 50.5366 23.253 49.8467 23.1792C49.6833 21.5691 49.4109 19.9989 49.3535 18.397C49.3287 17.7304 48.7679 17.4066 48.25 17.4058C47.9892 17.4054 47.7241 17.4857 47.5254 17.6528C47.3239 17.8226 47.1977 18.0768 47.209 18.4048V18.4058C47.2665 20.023 47.5458 21.6362 47.7051 23.228C46.5933 23.3295 45.4704 23.4849 44.4873 23.4478C43.6755 23.4174 42.8367 23.753 42.0615 24.1929C41.2854 24.6333 40.5548 25.1896 39.9629 25.6138C37.472 27.3979 35.9509 30.1267 35.832 33.1021C35.8134 33.5612 35.4664 33.8175 35.0742 33.8589C34.6755 33.9008 34.2888 33.7165 34.1904 33.3491L34.1816 33.314L34.1543 33.2896L33.9541 33.1011C33.0036 32.1329 32.7748 30.8229 32.8867 29.439C33.0063 27.9612 33.513 26.4242 33.916 25.1753C34.8204 22.3748 36.0783 19.5734 38.6309 17.8403C40.9926 16.2344 44.0615 15.958 46.9102 15.9507Z" fill="url(#paint5_linear_4078_1118)" stroke="url(#paint6_linear_4078_1118)" stroke-width="0.237872"/>
    <path d="M51.3495 64.2635C52.4673 62.8833 53.95 62.0203 55.6809 61.7387C56.2698 61.6439 56.0186 60.7288 55.4358 60.8238C53.5674 61.1268 51.9024 62.0999 50.6949 63.5934C50.3151 64.0615 50.9698 64.7348 51.3495 64.2635Z" fill="url(#paint7_linear_4078_1118)" stroke="url(#paint8_linear_4078_1118)" stroke-width="0.34511"/>
    <path d="M46.0284 63.5934C44.8209 62.1031 43.1559 61.1298 41.2875 60.8238C40.7047 60.7288 40.4535 61.6439 41.0424 61.7387C42.7733 62.0203 44.256 62.8803 45.3738 64.2635C45.7535 64.7348 46.4053 64.0615 46.0284 63.5934Z" fill="url(#paint9_linear_4078_1118)" stroke="url(#paint10_linear_4078_1118)" stroke-width="0.34511"/>
    <path d="M35.8296 35.4204C35.7489 38.2022 36.2361 41.249 36.7592 43.9666C36.8848 44.6225 37.7876 44.3068 37.662 43.651C37.157 41.0207 36.6785 38.1079 36.7592 35.4204C36.7772 34.7511 35.8504 34.7511 35.8296 35.4204Z" fill="url(#paint11_linear_4078_1118)" stroke="url(#paint12_linear_4078_1118)" stroke-width="0.34511"/>
    <path d="M36.7963 43.9385C37.9112 46.8244 39.5076 49.5327 42.189 51.1363C44.0034 52.2227 46.9778 53.4714 49.0911 53.0827C50.789 52.7706 52.517 51.5189 53.871 50.4845C55.1654 49.496 56.3432 48.3453 57.2937 47.0049C59.6254 43.7212 60.0707 39.7794 60.2859 35.8439C60.3189 35.235 59.3922 35.235 59.3593 35.8439C59.171 39.2868 58.8452 42.7572 57.0096 45.7501C56.0741 47.2741 54.8095 48.587 53.4048 49.6643C52.1581 50.6222 50.535 51.8035 48.9924 52.1095C47.1482 52.4737 44.3979 51.3261 42.7869 50.3927C40.255 48.9267 38.7363 46.3897 37.6901 43.6874C37.4748 43.1243 36.5751 43.3692 36.7963 43.9385Z" fill="url(#paint13_linear_4078_1118)" stroke="url(#paint14_linear_4078_1118)" stroke-width="0.34511"/>
    <path d="M60.2771 34.7948C62.773 35.7709 62.3487 41.9373 59.3084 41.4998C58.7257 41.4173 58.4717 42.3292 59.0635 42.4149C63.3439 43.0331 64.1841 35.3087 60.5252 33.8797C59.9662 33.6624 59.724 34.5805 60.2771 34.7948Z" fill="url(#paint15_linear_4078_1118)" stroke="url(#paint16_linear_4078_1118)" stroke-width="0.34511"/>
    <path d="M34.6567 33.8727C31.5659 34.7479 31.8229 40.8869 34.8272 41.6949C35.404 41.8509 35.6523 40.9358 35.0723 40.7798C32.9857 40.2198 32.7376 35.3999 34.902 34.7878C35.4758 34.6256 35.2337 33.7105 34.6567 33.8727Z" fill="url(#paint17_linear_4078_1118)" stroke="url(#paint18_linear_4078_1118)" stroke-width="0.34511"/>
    <path d="M60.1153 38.989C60.2647 38.3127 60.6383 37.7464 61.2122 37.3761C61.7174 37.0517 61.2512 36.2287 60.743 36.556C59.9717 37.0517 59.4217 37.823 59.2184 38.7381C59.09 39.3317 59.9837 39.5857 60.1153 38.989Z" fill="url(#paint19_linear_4078_1118)" stroke="url(#paint20_linear_4078_1118)" stroke-width="0.34511"/>
    <path d="M36.7481 37.9485C36.485 36.9355 35.8364 36.0816 34.9396 35.5768C34.4166 35.2829 33.9472 36.1031 34.4702 36.3968C35.1669 36.7887 35.648 37.416 35.8543 38.2023C36.0069 38.7901 36.9006 38.5391 36.7481 37.9485Z" fill="url(#paint21_linear_4078_1118)" stroke="url(#paint22_linear_4078_1118)" stroke-width="0.34511"/>
    <path d="M46.2912 41.4595C47.1143 41.974 48.1488 41.976 48.9758 41.4693C49.4864 41.1569 49.0185 40.351 48.506 40.6655C47.9509 41.0053 47.3141 40.9995 46.7628 40.6559C46.2504 40.3356 45.7826 41.1413 46.2912 41.4595Z" fill="url(#paint23_linear_4078_1118)" stroke="url(#paint24_linear_4078_1118)" stroke-width="0.34511"/>
    <path d="M51.7811 36.5504C52.94 35.0362 54.9024 35.5681 56.2574 36.4786C56.7563 36.8144 57.2241 36.0067 56.7272 35.6748C54.8714 34.4267 52.4527 34.151 50.9755 36.0806C50.6105 36.5561 51.42 37.022 51.7811 36.5504Z" fill="url(#paint25_linear_4078_1118)" stroke="url(#paint26_linear_4078_1118)" stroke-width="0.34511"/>
    <path d="M50.7927 33.6127C52.2485 32.5664 54.18 32.087 55.6669 33.3702C56.1192 33.7602 56.7812 33.1041 56.325 32.7121C54.5332 31.1649 52.1496 31.4949 50.3229 32.8091C49.8396 33.1546 50.3053 33.9623 50.7927 33.6127Z" fill="url(#paint27_linear_4078_1118)" stroke="url(#paint28_linear_4078_1118)" stroke-width="0.34511"/>
    <path d="M52.0123 35.5538C51.9425 36.54 51.9327 37.7727 53.1306 38.0191C54.6058 38.3221 54.932 36.2041 54.765 35.1792C54.6698 34.589 53.771 34.8395 53.8662 35.4276C53.9263 35.8004 53.8644 37.2485 53.2547 37.0912C52.6956 36.9476 52.917 35.9518 52.9461 35.5538C52.9869 34.956 52.0552 34.9579 52.0123 35.5538Z" fill="url(#paint29_linear_4078_1118)" stroke="url(#paint30_linear_4078_1118)" stroke-width="0.34511"/>
    <path d="M44.4291 35.888C42.9518 33.9586 40.5351 34.2343 38.6773 35.4825C38.1823 35.8144 38.6482 36.6219 39.1471 36.286C40.5019 35.3756 42.4646 34.8436 43.6235 36.3578C43.9845 36.8276 44.794 36.3656 44.4291 35.888Z" fill="url(#paint31_linear_4078_1118)" stroke="url(#paint32_linear_4078_1118)" stroke-width="0.34511"/>
    <path d="M45.0821 32.6086C43.2553 31.2965 40.8717 30.9646 39.0799 32.5116C38.6257 32.9038 39.2875 33.5599 39.738 33.1697C41.2211 31.8885 43.1564 32.3659 44.6124 33.4124C45.0996 33.7636 45.5655 32.9561 45.0821 32.6086Z" fill="url(#paint33_linear_4078_1118)" stroke="url(#paint34_linear_4078_1118)" stroke-width="0.34511"/>
    <path d="M42.4626 35.3535C42.4919 35.7515 42.7131 36.7473 42.154 36.8911C41.5445 37.0464 41.4805 35.6001 41.5427 35.2273C41.6377 34.6412 40.7408 34.3887 40.6437 34.9789C40.4769 36.0038 40.8011 38.1218 42.2783 37.819C43.476 37.5742 43.4663 36.3417 43.3964 35.3535C43.3519 34.7596 42.4199 34.7538 42.4626 35.3535Z" fill="url(#paint35_linear_4078_1118)" stroke="url(#paint36_linear_4078_1118)" stroke-width="0.34511"/>
    <path d="M59.4859 34.2692C59.418 31.5431 58.6938 28.7705 56.8284 26.6404C55.1124 24.6822 52.4608 23.4791 49.7721 23.7439C49.1821 23.8012 49.1762 24.6914 49.7721 24.6322C52.2413 24.3897 54.5999 25.4668 56.1703 27.2678C57.8671 29.2129 58.494 31.793 58.5562 34.2692C58.5697 34.8394 59.5013 34.8412 59.4859 34.2692Z" fill="url(#paint37_linear_4078_1118)" stroke="url(#paint38_linear_4078_1118)" stroke-width="0.34511"/>
    <path d="M47.7476 18.6442C47.969 20.4041 48.0523 22.1644 48.002 23.9374C47.9844 24.5092 48.9182 24.5092 48.9336 23.9374C48.9843 22.1662 48.9008 20.4041 48.6794 18.6442C48.6097 18.0852 47.6777 18.0778 47.7476 18.6442Z" fill="url(#paint39_linear_4078_1118)" stroke="url(#paint40_linear_4078_1118)" stroke-width="0.34511"/>
    <path d="M61.5476 35.2609C64.9215 29.2383 62.2968 20.3249 56.0735 16.9195C54.1459 15.8645 51.9504 15.4259 49.7393 15.5203C49.1415 15.5462 49.1394 16.4346 49.7393 16.4087C54.5477 16.2032 58.4727 18.8942 60.517 22.9457C62.3358 26.5492 62.7648 31.2002 60.742 34.813C60.4606 35.3164 61.2662 35.7661 61.5476 35.2609Z" fill="url(#paint41_linear_4078_1118)" stroke="url(#paint42_linear_4078_1118)" stroke-width="0.34511"/>
    <path d="M48.1368 14.9231C45.5433 13.7812 42.018 14.8898 39.6615 16.0595C35.8313 17.9621 33.0963 21.3934 32.2267 25.4319C31.5199 28.7133 31.9549 32.1004 32.877 35.302C33.0362 35.8537 33.9348 35.6186 33.7757 35.0653C32.4013 30.2939 32.209 24.9248 35.3519 20.7271C37.3591 18.0491 40.5389 16.1779 43.9224 15.5616C45.0891 15.3488 46.5487 15.197 47.6668 15.6894C48.2086 15.9281 48.6821 15.1618 48.1368 14.9231Z" fill="url(#paint43_linear_4078_1118)" stroke="url(#paint44_linear_4078_1118)" stroke-width="0.34511"/>
    <path d="M46.9732 23.399C40.8372 23.4619 37.3216 28.8032 35.1242 33.5671C34.8854 34.0855 35.6872 34.5388 35.9278 34.015C37.9797 29.5695 41.1944 24.3465 46.9732 24.2873C47.5731 24.2799 47.5731 23.3916 46.9732 23.399Z" fill="url(#paint45_linear_4078_1118)" stroke="url(#paint46_linear_4078_1118)" stroke-width="0.34511"/>
    <path d="M43.3173 45.638C46.1449 46.7481 49.1792 46.8323 51.9354 45.4721C52.5095 45.1888 52.0069 44.3288 51.4326 44.6122C48.9113 45.8575 46.1475 45.6838 43.5828 44.6784C42.9855 44.4437 42.7278 45.4057 43.3173 45.638Z" fill="url(#paint47_linear_4078_1118)" stroke="url(#paint48_linear_4078_1118)" stroke-width="0.34511"/>
    <g opacity="0.23">
        <g opacity="0.23">
            <mask id="path-26-inside-1_4078_1118" fill="white">
                <path d="M46.9455 48.334C45.8736 47.9997 44.937 47.1321 44.4342 45.999C44.3091 45.7157 44.2071 45.3992 44.2607 45.0878C44.3271 44.7 44.6207 44.4141 44.9216 44.2176C45.8812 43.5822 47.0399 43.5057 48.15 43.4571C48.4561 43.4445 48.7651 43.4317 49.0636 43.5031C49.579 43.6282 50.0206 43.9905 50.4468 44.3427C50.5871 44.4601 50.7351 44.5852 50.8142 44.7637C50.8652 44.8787 50.8832 45.0088 50.8984 45.1364C50.9468 45.5702 50.952 46.0346 50.7734 46.4226C50.5641 46.8846 50.1405 47.1575 49.7399 47.4076C49.4056 47.6143 49.066 47.8236 48.6961 47.9155C48.497 47.9639 48.2929 47.9767 48.0912 47.9845C47.2874 48.0149 46.4785 47.9513 45.6847 47.7982"/>
            </mask>
            <path d="M46.9455 48.334C45.8736 47.9997 44.937 47.1321 44.4342 45.999C44.3091 45.7157 44.2071 45.3992 44.2607 45.0878C44.3271 44.7 44.6207 44.4141 44.9216 44.2176C45.8812 43.5822 47.0399 43.5057 48.15 43.4571C48.4561 43.4445 48.7651 43.4317 49.0636 43.5031C49.579 43.6282 50.0206 43.9905 50.4468 44.3427C50.5871 44.4601 50.7351 44.5852 50.8142 44.7637C50.8652 44.8787 50.8832 45.0088 50.8984 45.1364C50.9468 45.5702 50.952 46.0346 50.7734 46.4226C50.5641 46.8846 50.1405 47.1575 49.7399 47.4076C49.4056 47.6143 49.066 47.8236 48.6961 47.9155C48.497 47.9639 48.2929 47.9767 48.0912 47.9845C47.2874 48.0149 46.4785 47.9513 45.6847 47.7982" fill="url(#paint49_linear_4078_1118)"/>
            <path d="M44.4342 45.999L44.2166 46.0951L44.2168 46.0955L44.4342 45.999ZM44.2607 45.0878L44.4951 45.1282L44.4952 45.128L44.2607 45.0878ZM44.9216 44.2176L45.0517 44.4168L45.0529 44.416L44.9216 44.2176ZM48.15 43.4571L48.1402 43.2194L48.1396 43.2195L48.15 43.4571ZM49.0636 43.5031L49.1197 43.272L49.119 43.2718L49.0636 43.5031ZM50.4468 44.3427L50.5995 44.1603L50.5983 44.1593L50.4468 44.3427ZM50.8142 44.7637L50.5967 44.86L50.5967 44.8601L50.8142 44.7637ZM50.8984 45.1364L51.1348 45.11L51.1346 45.1083L50.8984 45.1364ZM50.7734 46.4226L50.5573 46.3231L50.5567 46.3244L50.7734 46.4226ZM49.7399 47.4076L49.865 47.61L49.8659 47.6094L49.7399 47.4076ZM48.6961 47.9155L48.7523 48.1466L48.7534 48.1463L48.6961 47.9155ZM48.0912 47.9845L48.1002 48.2222L48.1004 48.2222L48.0912 47.9845ZM46.9455 48.334L47.0163 48.1069C46.0166 47.7951 45.1297 46.9798 44.6516 45.9025L44.4342 45.999L44.2168 46.0955C44.7444 47.2844 45.7306 48.2043 46.8746 48.5611L46.9455 48.334ZM44.4342 45.999L44.6518 45.903C44.5304 45.6279 44.4541 45.3666 44.4951 45.1282L44.2607 45.0878L44.0263 45.0474C43.9601 45.4317 44.0879 45.8035 44.2166 46.0951L44.4342 45.999ZM44.2607 45.0878L44.4952 45.128C44.5449 44.8379 44.7706 44.6003 45.0516 44.4168L44.9216 44.2176L44.7916 44.0185C44.4707 44.2279 44.1094 44.5622 44.0263 45.0477L44.2607 45.0878ZM44.9216 44.2176L45.0529 44.416C45.9499 43.8219 47.0428 43.7437 48.1604 43.6947L48.15 43.4571L48.1396 43.2195C47.037 43.2677 45.8125 43.3424 44.7903 44.0193L44.9216 44.2176ZM48.15 43.4571L48.1598 43.6948C48.4719 43.6819 48.7473 43.672 49.0083 43.7345L49.0636 43.5031L49.119 43.2718C48.7829 43.1914 48.4404 43.2071 48.1402 43.2194L48.15 43.4571ZM49.0636 43.5031L49.0075 43.7343C49.4602 43.8441 49.8597 44.1661 50.2953 44.5261L50.4468 44.3427L50.5983 44.1593C50.1815 43.8149 49.6979 43.4122 49.1197 43.272L49.0636 43.5031ZM50.4468 44.3427L50.2941 44.5251C50.4408 44.6479 50.5435 44.7399 50.5967 44.86L50.8142 44.7637L51.0317 44.6674C50.9268 44.4305 50.7333 44.2723 50.5995 44.1603L50.4468 44.3427ZM50.8142 44.7637L50.5967 44.8601C50.6313 44.9381 50.6467 45.0342 50.6622 45.1646L50.8984 45.1364L51.1346 45.1083C51.1197 44.9833 51.0991 44.8193 51.0316 44.6672L50.8142 44.7637ZM50.8984 45.1364L50.662 45.1628C50.7095 45.5885 50.7073 45.9974 50.5573 46.3231L50.7734 46.4226L50.9894 46.5221C51.1968 46.0719 51.1842 45.5519 51.1348 45.11L50.8984 45.1364ZM50.7734 46.4226L50.5567 46.3244C50.3814 46.7114 50.0229 46.9505 49.6139 47.2059L49.7399 47.4076L49.8659 47.6094C50.2581 47.3645 50.7468 47.0578 50.99 46.5208L50.7734 46.4226ZM49.7399 47.4076L49.6148 47.2053C49.2742 47.4159 48.9663 47.6033 48.6387 47.6846L48.6961 47.9155L48.7534 48.1463C49.1658 48.0439 49.537 47.8127 49.865 47.61L49.7399 47.4076ZM48.6961 47.9155L48.6398 47.6843C48.4657 47.7267 48.2821 47.739 48.082 47.7468L48.0912 47.9845L48.1004 48.2222C48.3036 48.2143 48.5283 48.2011 48.7523 48.1466L48.6961 47.9155ZM48.0912 47.9845L48.0822 47.7468C47.2969 47.7765 46.5061 47.7143 45.7298 47.5646L45.6847 47.7982L45.6397 48.0318C46.4508 48.1882 47.2779 48.2533 48.1002 48.2222L48.0912 47.9845Z" fill="url(#paint50_linear_4078_1118)" mask="url(#path-26-inside-1_4078_1118)"/>
        </g>
        <path opacity="0.23" d="M46.9455 48.334C45.8736 47.9997 44.937 47.1321 44.4342 45.999C44.3091 45.7157 44.2071 45.3992 44.2607 45.0878C44.3271 44.7 44.6207 44.4141 44.9216 44.2176C45.8812 43.5822 47.0399 43.5057 48.15 43.4571C48.4561 43.4445 48.7651 43.4317 49.0636 43.5031C49.579 43.6282 50.0206 43.9905 50.4468 44.3427C50.5871 44.4601 50.7351 44.5852 50.8142 44.7637C50.8652 44.8787 50.8832 45.0088 50.8984 45.1364C50.9468 45.5702 50.952 46.0346 50.7734 46.4226C50.5641 46.8846 50.1405 47.1575 49.7399 47.4076C49.4056 47.6143 49.066 47.8236 48.6961 47.9155C48.497 47.9639 48.2929 47.9767 48.0912 47.9845C47.2874 48.0149 46.4785 47.9513 45.6847 47.7982" stroke="url(#paint51_linear_4078_1118)" stroke-width="0.34511"/>
    </g>
    <path d="M41.1069 21.4922C37.8368 23.4554 35.4613 26.1039 34.2738 29.1469C34.095 29.6046 35.0306 29.7796 35.2095 29.3248C36.3209 26.4805 38.5483 23.9581 41.6079 22.1192C42.0923 21.8277 41.5973 21.1959 41.1069 21.4922Z" fill="url(#paint52_linear_4078_1118)" stroke="url(#paint53_linear_4078_1118)" stroke-width="0.34511"/>
    <path d="M60.4547 33.7712C60.822 31.0267 61.2768 27.6123 59.3091 25.1443C58.9895 24.7448 58.1657 25.1109 58.4872 25.5118C60.3495 27.8478 59.8493 31.1725 59.5017 33.7712C59.4383 34.2374 60.3912 34.2345 60.4547 33.7712Z" fill="url(#paint54_linear_4078_1118)" stroke="url(#paint55_linear_4078_1118)" stroke-width="0.34511"/>
    <path fill-rule="evenodd" clip-rule="evenodd" d="M59.9812 72.1646C56.6257 71.8794 52.3748 71.7308 48.5725 71.8235C47.4594 71.8506 46.2711 71.8697 45.0524 71.8894C42.0975 71.9371 38.965 71.9876 36.302 72.1614C34.42 72.2844 32.8032 72.4674 31.6657 72.746C31.0933 72.8863 30.6762 73.0431 30.4124 73.2073C30.1441 73.3745 30.1237 73.4882 30.1237 73.53C30.1237 73.778 29.9227 73.979 29.6748 73.979C29.4268 73.979 29.2258 73.778 29.2258 73.53C29.2258 73.0331 29.5587 72.6811 29.9377 72.4449C30.3213 72.2061 30.8463 72.0223 31.4519 71.8738C32.67 71.5753 34.3521 71.3888 36.2435 71.2654C38.9298 71.0901 42.0999 71.0389 45.0641 70.991C46.2764 70.9715 47.4544 70.9524 48.5506 70.9257C52.387 70.8322 56.6704 70.9819 60.0573 71.2697C61.7492 71.4137 63.2274 71.5927 64.3175 71.7953C64.8607 71.8963 65.3218 72.0056 65.6693 72.1241C65.8424 72.1831 66.0016 72.2494 66.1333 72.3254C66.2528 72.3943 66.4092 72.5047 66.4985 72.6785C66.6118 72.8989 66.5248 73.1696 66.3042 73.2828C66.0968 73.3895 65.845 73.319 65.7216 73.1268C65.7142 73.1214 65.7023 73.1134 65.6843 73.103C65.6229 73.0676 65.5238 73.0234 65.3793 72.9741C65.0917 72.8759 64.6794 72.7759 64.1534 72.6781C63.1049 72.4833 61.66 72.3072 59.9812 72.1646Z" fill="url(#paint56_linear_4078_1118)" stroke="url(#paint57_linear_4078_1118)" stroke-width="0.34511" stroke-linecap="round"/>
    <path d="M41.7219 50.0229C41.7266 51.3011 41.6684 52.6258 41.3059 53.8911L41.2268 54.1509C40.5136 56.3611 38.7974 58.2216 36.6506 59.1089H36.6497C36.5479 59.1509 36.3625 59.1993 36.1448 59.2505C35.9161 59.3043 35.6209 59.3676 35.2795 59.439L33.7795 59.7456C33.4605 59.8102 33.1277 59.8768 32.7893 59.9458C30.9253 60.3259 28.8827 60.7597 27.7971 61.105C24.399 62.186 23.0206 64.3486 21.5129 66.7095C21.3584 66.9517 21.2011 67.1952 21.0413 67.4409L20.4885 67.0786C20.6448 66.8381 20.8004 66.5969 20.9543 66.355C22.4535 63.9996 23.9585 61.6386 27.5793 60.481H27.5803L27.5979 60.4751C28.7246 60.1166 30.8063 59.6768 32.6575 59.2993C32.9994 59.2296 33.3339 59.1619 33.6536 59.0972C34.2045 58.9857 34.7127 58.8827 35.1438 58.7925C35.4839 58.7214 35.7736 58.6589 35.9944 58.6069C36.1042 58.5811 36.195 58.558 36.2659 58.5386C36.2719 58.537 36.2778 58.5352 36.2834 58.5337L36.4133 58.8462L36.5227 58.8013L36.6331 58.7554L36.5071 58.4497C38.4236 57.619 39.9575 55.936 40.5989 53.9478C40.9984 52.7086 41.0665 51.3773 41.0618 50.0278L41.7219 50.0229Z" fill="url(#paint58_linear_4078_1118)" stroke="url(#paint59_linear_4078_1118)" stroke-width="0.237872"/>
    <path d="M36.3528 58.3886L36.8595 58.581L36.3435 58.3919C36.3374 58.3941 36.3292 58.3969 36.3187 58.4003C36.2975 58.4069 36.2699 58.4151 36.2353 58.4244C36.1661 58.4433 36.0763 58.4658 35.9667 58.4915C35.7474 58.5431 35.4598 58.6053 35.1199 58.6763C34.6891 58.7665 34.181 58.8691 33.6296 58.9806C33.3099 59.0454 32.9756 59.1129 32.6334 59.1827C30.7844 59.5597 28.6955 60.0013 27.5615 60.3622C23.8835 61.5318 22.3564 63.9308 20.8542 66.2909C20.6787 66.5666 20.5037 66.842 20.3254 67.1145L21.0771 67.6058C21.26 67.3261 21.4376 67.0481 21.6129 66.7733C23.1204 64.4127 24.4793 62.2847 27.8335 61.2179C28.9117 60.875 30.9465 60.4432 32.8129 60.0627C33.1513 59.9937 33.484 59.9263 33.8031 59.8618C34.3569 59.7499 34.8703 59.646 35.3036 59.5554C35.6453 59.484 35.9416 59.42 36.1719 59.3658C36.3875 59.3152 36.5832 59.2651 36.6955 59.2187C38.8747 58.3181 40.6163 56.4311 41.3403 54.1876C41.7919 52.7867 41.8505 51.308 41.8413 49.9038L40.9432 49.9097C40.9523 51.298 40.8907 52.6552 40.4855 53.9117C39.8426 55.9046 38.2882 57.5887 36.3528 58.3886ZM36.3528 58.3886L36.5231 58.801" stroke="url(#paint60_linear_4078_1118)" stroke-width="0.34511" stroke-miterlimit="10"/>
    <path d="M54.7046 49.7441C54.7002 51.1133 54.7743 52.7135 55.1733 53.9512C55.8269 55.9767 57.4058 57.6863 59.3726 58.5L59.3804 58.5029H59.3794V58.5039L59.3833 58.5049L59.396 58.5107H59.3999C59.4054 58.5125 59.4111 58.5139 59.4165 58.5156V58.5166C59.4403 58.5243 59.4705 58.5324 59.5054 58.542C59.5765 58.5614 59.6685 58.5844 59.7788 58.6104C59.9995 58.6621 60.2884 58.7248 60.6284 58.7959C61.0594 58.886 61.5677 58.9891 62.1187 59.1006C62.4383 59.1651 62.7726 59.2322 63.1147 59.3018C64.966 59.6794 67.0485 60.1202 68.1753 60.4785C71.8085 61.6343 73.3161 63.9981 74.8179 66.3574C74.9717 66.5994 75.1256 66.8417 75.2817 67.082L74.729 67.4434C74.5696 67.1981 74.4138 66.9538 74.2593 66.7119C72.7517 64.3509 71.3733 62.1882 67.9751 61.1074C66.8895 60.7622 64.8469 60.3293 62.9829 59.9492C62.6443 59.8802 62.3119 59.8126 61.9927 59.748C61.4389 59.6359 60.9255 59.5328 60.4927 59.4424L59.6274 59.2529C59.4098 59.2018 59.2237 59.1534 59.1216 59.1113C56.975 58.2242 55.2587 56.3643 54.5454 54.1543C54.1118 52.8094 54.0398 51.1163 54.0444 49.7393L54.7046 49.7441Z" fill="url(#paint61_linear_4078_1118)" stroke="url(#paint62_linear_4078_1118)" stroke-width="0.237872"/>
    <path d="M67.9388 61.2208C71.293 62.2875 72.6517 64.4155 74.1592 66.7763C74.3347 67.0511 74.5123 67.329 74.6951 67.6088L75.4469 67.1173C75.2687 66.8448 75.0934 66.5696 74.9181 66.2939C73.4158 63.9336 71.8888 61.5348 68.211 60.3649C67.0768 60.0043 64.9878 59.5627 63.1389 59.1855C62.7965 59.1159 62.4624 59.0482 62.1425 58.9836C61.5913 58.8721 61.0831 58.7693 60.6524 58.6793C60.3125 58.6082 60.0249 58.5459 59.8056 58.4945C59.696 58.4687 59.6062 58.4463 59.537 58.4273C59.5025 58.4179 59.4748 58.4099 59.4537 58.403C59.4431 58.3997 59.4349 58.3971 59.4288 58.3949L59.4219 58.3923C59.4212 58.3921 59.4204 58.3919 59.4201 58.3917C59.4197 58.3915 59.4195 58.3915 59.4195 58.3915C57.4841 57.5915 55.9297 55.9075 55.2866 53.9146C54.8823 52.6608 54.814 51.02 54.8231 49.6259L53.9251 49.6201C53.916 51.0182 53.9795 52.7869 54.432 54.1903C55.156 56.4339 56.8975 58.3208 59.0766 59.2213V59.2215C59.1893 59.2678 59.3848 59.3181 59.6002 59.3688C59.8307 59.4228 60.1268 59.487 60.4687 59.5584C60.902 59.6489 61.4154 59.7527 61.969 59.8647C62.2883 59.9293 62.6208 59.9965 62.9594 60.0655C64.8258 60.446 66.8606 60.878 67.9388 61.2208ZM67.9388 61.2208L68.0748 60.7928" stroke="url(#paint63_linear_4078_1118)" stroke-width="0.34511" stroke-miterlimit="10"/>
    <path d="M67.3132 43.0376C67.405 42.7995 67.6437 42.7254 67.8513 42.7817C67.954 42.8096 68.0366 42.8671 68.0818 42.9399C68.1246 43.009 68.1415 43.1043 68.0935 43.229C66.6679 46.9348 64.0032 49.9732 60.4802 51.8159C60.2544 51.933 60.039 51.8283 59.9314 51.645C59.878 51.554 59.8578 51.4519 59.8757 51.3628C59.8931 51.2773 59.9477 51.1913 60.0662 51.1294C63.3906 49.3897 65.9656 46.5475 67.3132 43.0376Z" fill="url(#paint64_linear_4078_1118)" stroke="url(#paint65_linear_4078_1118)" stroke-width="0.237872"/>
    <path d="M67.847 42.0127C68.0875 41.9328 68.3012 41.9187 68.4818 42.0312L68.557 42.0879C68.7401 42.247 68.8742 42.5446 68.9867 42.8896C69.042 43.0591 69.0905 43.2332 69.1371 43.3994C69.1832 43.564 69.2286 43.7226 69.2767 43.8545C69.5219 44.5269 69.7709 45.2002 69.8627 45.8936L69.892 46.1924C69.9001 46.3258 69.8551 46.4151 69.7914 46.4727C69.7248 46.5327 69.6275 46.5665 69.5219 46.5664C69.3354 46.5661 69.157 46.4641 69.1049 46.2676L69.0902 46.1777C69.0623 45.741 68.9366 45.3121 68.7992 44.9033L68.6615 44.501C68.639 44.4351 68.6064 44.3146 68.5648 44.1621C68.5238 44.0117 68.4743 43.8342 68.4213 43.6611C68.3685 43.4888 68.3103 43.3172 68.2494 43.1787C68.2189 43.1095 68.1861 43.0449 68.1517 42.9922C68.1291 42.9575 68.1001 42.9243 68.0677 42.8955C68.0592 42.8657 68.0525 42.8395 68.0443 42.8193C68.0394 42.8071 68.0304 42.7871 68.017 42.7695C68.0109 42.7616 67.9951 42.7421 67.9681 42.7295C67.9328 42.713 67.887 42.7125 67.848 42.7383C67.819 42.7576 67.8057 42.7837 67.8011 42.7939C67.7956 42.8066 67.7931 42.8191 67.7914 42.8271C67.788 42.8435 67.7864 42.8611 67.7855 42.877C67.7848 42.8905 67.7856 42.9058 67.7855 42.9229C67.6817 42.968 67.5775 43.0141 67.473 43.0615L67.4662 43.0645L67.4594 43.0684C67.3415 43.1405 67.201 43.2015 67.0502 43.2598L66.598 43.4326C66.1778 43.6103 65.7559 43.7868 65.3353 43.9658L64.0775 44.5137C63.8445 44.6194 63.621 44.505 63.5121 44.3203C63.4582 44.2288 63.4398 44.1297 63.4584 44.0469C63.4716 43.9884 63.505 43.9296 63.5717 43.8809L63.6508 43.8359C64.7787 43.3324 65.9102 42.878 67.0453 42.3818C67.1657 42.3297 67.3017 42.2577 67.4349 42.1914C67.5714 42.1234 67.7102 42.0582 67.847 42.0127Z" fill="url(#paint66_linear_4078_1118)" stroke="url(#paint67_linear_4078_1118)" stroke-width="0.237872"/>
    <path d="M27.7385 42.7817C27.9462 42.7253 28.1858 42.7993 28.2776 43.0376C29.6254 46.5473 32.1996 49.3897 35.5237 51.1294C35.6423 51.1913 35.6967 51.2773 35.7141 51.3628C35.7321 51.452 35.7119 51.5539 35.6584 51.645C35.5507 51.8283 35.3354 51.9334 35.1096 51.8159C31.5865 49.9732 28.9217 46.9348 27.4963 43.229V43.228C27.4486 43.1035 27.4663 43.0089 27.509 42.9399C27.5542 42.8673 27.6361 42.8097 27.7385 42.7817Z" fill="url(#paint68_linear_4078_1118)" stroke="url(#paint69_linear_4078_1118)" stroke-width="0.237872"/>
    <path d="M27.0295 42.0879C27.2251 41.9166 27.4646 41.9214 27.7395 42.0127C27.8764 42.0582 28.0151 42.1235 28.1516 42.1914L28.5413 42.3818C29.3926 42.7539 30.2419 43.1023 31.0891 43.4658L31.9358 43.8359C32.0566 43.8905 32.1105 43.9688 32.1282 44.0469C32.1468 44.1297 32.1283 44.2288 32.0745 44.3203C31.9791 44.482 31.7962 44.5895 31.5959 44.543L31.509 44.5137C30.6754 44.1403 29.8294 43.7881 28.9885 43.4326L28.5364 43.2598C28.3854 43.2014 28.2441 43.1406 28.1262 43.0684L28.1204 43.0645L28.1135 43.0615L27.801 42.9229C27.8009 42.9058 27.8018 42.8905 27.801 42.877C27.8001 42.8611 27.7986 42.8434 27.7952 42.8271C27.7935 42.8191 27.791 42.8066 27.7854 42.7939C27.7809 42.7837 27.7676 42.7576 27.7385 42.7383C27.6996 42.7125 27.6538 42.7129 27.6184 42.7295C27.5914 42.7422 27.5757 42.7616 27.5696 42.7695C27.5561 42.7872 27.5472 42.8071 27.5422 42.8193C27.5341 42.8395 27.5264 42.8656 27.5178 42.8955C27.4858 42.9242 27.4574 42.9577 27.4348 42.9922C27.4004 43.0449 27.3676 43.1095 27.3372 43.1787C27.2762 43.3173 27.2172 43.4887 27.1643 43.6611C27.1113 43.8342 27.0627 44.0118 27.0217 44.1621C26.9801 44.3146 26.9475 44.4351 26.925 44.501C26.7669 44.961 26.5858 45.4539 26.5178 45.96L26.4954 46.1777C26.4797 46.4331 26.2769 46.5662 26.0637 46.5664C25.9581 46.5664 25.8607 46.5328 25.7942 46.4727C25.7465 46.4295 25.7096 46.3682 25.6975 46.2842L25.6946 46.1924C25.7438 45.3927 26.0295 44.6231 26.3098 43.8545C26.3579 43.7226 26.4033 43.564 26.4495 43.3994C26.4961 43.2332 26.5446 43.0591 26.5999 42.8896C26.6983 42.5877 26.8133 42.3225 26.9631 42.1543L27.0295 42.0879Z" fill="url(#paint70_linear_4078_1118)" stroke="url(#paint71_linear_4078_1118)" stroke-width="0.237872"/>
    <path d="M46.9188 92.3375C72.0029 92.3375 92.3376 72.0029 92.3376 46.9187C92.3376 21.8348 72.0029 1.5 46.9188 1.5C21.8346 1.5 1.5 21.8348 1.5 46.9187C1.5 72.0029 21.8346 92.3375 46.9188 92.3375Z" stroke="url(#paint72_linear_4078_1118)" stroke-width="3" stroke-miterlimit="10"/>
    <path opacity="0.23" d="M37.0913 44.4951C37.1125 44.511 37.1443 44.5465 37.1831 44.6152C37.2211 44.6826 37.2619 44.7752 37.3062 44.8975L37.3599 45.0449L37.3765 45.0322C37.3918 45.1221 37.4054 45.2456 37.4194 45.3818C37.4333 45.5171 37.4486 45.6628 37.4683 45.7861C37.4781 45.8479 37.4895 45.9074 37.5034 45.958C37.5165 46.0057 37.5347 46.0576 37.563 46.0977C37.5776 46.1183 37.6006 46.1439 37.6343 46.1602C37.6716 46.1781 37.7134 46.1809 37.7524 46.168C37.7876 46.1564 37.8142 46.1342 37.8335 46.1143C37.8533 46.0937 37.8713 46.0692 37.8872 46.043C37.8999 46.022 37.911 45.9966 37.9243 45.9688C38.0759 46.5627 38.4934 47.0194 38.8999 47.4668C39.2121 47.8104 39.5206 48.1508 39.7368 48.5557C39.9301 48.9168 40.2628 49.2639 40.5835 49.6006C40.8467 49.8769 41.104 50.149 41.2974 50.4287C41.4903 50.7078 41.6102 50.9832 41.6108 51.2666V51.2676C41.615 52.8773 41.4029 54.525 40.5962 55.8711C40.1865 56.5547 39.5917 57.143 38.9097 57.5215L38.9419 57.6123C37.2069 58.1558 35.4592 58.6532 33.6968 59.0967C33.0142 59.2681 32.3127 59.4112 31.7212 59.1621L31.605 59.1064L31.5151 59.0732C31.4205 59.0499 31.3113 59.0552 31.2026 59.0723C31.053 59.0958 30.8792 59.1464 30.6938 59.2129C30.3227 59.346 29.8845 59.5488 29.4614 59.7441C28.9903 59.9617 28.5405 60.1695 28.2046 60.2754C28.0343 60.3291 27.9094 60.3507 27.8315 60.3438C27.7942 60.3404 27.7798 60.3315 27.7759 60.3281C27.7747 60.3271 27.768 60.3222 27.7661 60.2988C27.7636 60.2677 27.7706 60.2157 27.7944 60.1396C27.8177 60.0655 27.8542 59.9765 27.9038 59.874C28.0032 59.6687 28.1499 59.4184 28.3267 59.1396C28.68 58.5825 29.1482 57.9223 29.5913 57.2979C29.9149 56.8419 30.2257 56.4042 30.4653 56.043C30.5851 55.8625 30.6884 55.6994 30.7671 55.5615C30.8442 55.4265 30.9034 55.3063 30.9282 55.2148C31.1352 54.4485 31.3579 53.6769 31.6235 52.9277C31.801 53.0462 31.9468 53.1476 32.0444 53.2246C32.554 53.6269 33.3038 54.006 34.0845 54.2842C34.8651 54.5623 35.6902 54.7441 36.3511 54.7441C36.4353 54.7442 36.5241 54.7485 36.6177 54.7529C36.7937 54.7615 36.9884 54.7719 37.1724 54.749C37.3581 54.7259 37.5434 54.6683 37.6987 54.5352C37.9744 54.299 38.1509 53.8879 38.1646 53.5352C38.1987 52.6483 38.209 51.9033 37.7788 51.0879C37.1376 49.873 36.1252 48.8761 35.0786 47.9883C35.1918 47.8992 35.3061 47.8108 35.4204 47.7227C35.6932 47.5124 35.911 47.159 36.0933 46.7754C36.2768 46.389 36.4318 45.9546 36.5688 45.5693C36.6557 45.3253 36.7355 45.1017 36.812 44.918C36.8899 44.7308 36.9585 44.5992 37.02 44.5293C37.0505 44.4947 37.0691 44.4874 37.0737 44.4863H37.0747C37.076 44.4866 37.0819 44.4881 37.0913 44.4951Z" fill="url(#paint73_linear_4078_1118)" stroke="url(#paint74_linear_4078_1118)" stroke-width="0.237872"/>
    <path opacity="0.23" d="M58.4055 43.6455C58.4875 43.6451 58.5849 43.6741 58.7004 43.7422C58.8401 43.8245 58.9932 43.955 59.1575 44.1221C59.4862 44.4563 59.8402 44.9182 60.1985 45.3867C60.6634 45.9946 61.1415 46.62 61.5627 46.9404C61.6019 46.9702 61.6408 47.0004 61.6799 47.0303C61.6141 47.0815 61.5482 47.1331 61.4827 47.1855C60.1205 48.2751 58.6438 49.4968 57.804 51.0879C57.3738 51.9034 57.3841 52.6482 57.4182 53.5352C57.4319 53.888 57.6077 54.299 57.8831 54.5352C58.0383 54.6683 58.2237 54.7259 58.4094 54.749C58.5914 54.7717 58.7838 54.7615 58.9583 54.7529V54.7539L58.9641 54.7529C59.0583 54.7484 59.1472 54.7441 59.2317 54.7441C59.8925 54.7441 60.7167 54.5622 61.4973 54.2842C62.2779 54.0061 63.0268 53.6268 63.5364 53.2246L63.5374 53.2256C63.8596 52.9713 64.6817 52.4593 65.4231 51.998C65.4496 51.9815 65.4759 51.9646 65.5022 51.9482C65.9122 52.9663 66.2291 54.0373 66.5198 55.0996C66.5468 55.1979 66.6115 55.3276 66.6965 55.4746C66.7832 55.6243 66.8965 55.8017 67.0286 55.998C67.2927 56.3909 67.6355 56.867 67.9924 57.3633C68.4812 58.0429 68.998 58.7614 69.3879 59.3682C69.5829 59.6716 69.7448 59.944 69.8547 60.168C69.9096 60.2798 69.95 60.3776 69.9758 60.459C70.0023 60.5424 70.01 60.6002 70.0071 60.6357C70.0049 60.6625 69.9974 60.6704 69.9934 60.6738C69.9865 60.6797 69.9678 60.6905 69.925 60.6943C69.8363 60.7022 69.6962 60.6777 69.5081 60.6191C69.1366 60.5036 68.6397 60.2767 68.1204 60.04C67.6536 59.8275 67.1706 59.6076 66.762 59.4629C66.5579 59.3906 66.3672 59.336 66.2034 59.3105C66.0443 59.2858 65.888 59.2851 65.7688 59.3467C65.0856 59.701 64.2537 59.5358 63.4514 59.3369C61.5066 58.8541 59.5779 58.3125 57.6633 57.7207L57.6995 57.6211C56.945 57.208 56.2881 56.566 55.8352 55.8203C54.9439 54.3531 54.7095 52.5582 54.7141 50.8057C54.7165 49.69 54.8199 48.5558 55.3362 47.6045C55.5701 47.1722 56.0724 46.6013 56.6301 45.9678C57.2887 45.2197 58.017 44.3889 58.4055 43.6455Z" fill="url(#paint75_linear_4078_1118)" stroke="url(#paint76_linear_4078_1118)" stroke-width="0.237872"/>
    <path d="M66.097 51.5786C67.7777 53.6992 69.3146 55.9388 70.0082 58.8599C70.0931 59.2176 69.9381 59.4878 69.7191 59.6089L69.6215 59.6519C69.4883 59.6957 69.3422 59.6886 69.2172 59.6187C69.123 59.5659 69.0419 59.4776 68.9867 59.3511L68.9408 59.2124L68.8041 58.6851C68.088 56.1307 66.7036 54.0924 65.1801 52.1519C65.263 52.1002 65.3462 52.0496 65.4281 51.9985C65.6674 51.8495 65.8969 51.705 66.097 51.5786ZM59.558 42.0435C59.6916 41.9998 59.8404 42.0065 59.9711 42.0737C60.102 42.1411 60.2139 42.269 60.2738 42.4663C60.7395 44.0067 61.4411 45.354 62.2601 46.606C61.999 46.7887 61.7414 46.9822 61.4867 47.186C61.4536 47.2124 61.4202 47.2386 61.3871 47.2651C60.4847 45.9245 59.7084 44.4804 59.2064 42.8198C59.146 42.6206 59.1668 42.4484 59.2367 42.3149C59.3062 42.1817 59.4246 42.0873 59.558 42.0435Z" fill="url(#paint77_linear_4078_1118)" stroke="url(#paint78_linear_4078_1118)" stroke-width="0.237872"/>
    <path d="M30.9269 52.4766C31.241 52.6748 31.5325 52.8639 31.757 53.0176C30.4363 54.7769 29.278 56.6554 28.7267 59.0098C28.6827 59.1969 28.5889 59.319 28.4747 59.3838C28.3608 59.4484 28.2278 59.4556 28.1066 59.415C27.8635 59.3336 27.6668 59.0622 27.755 58.6855C28.3322 56.2223 29.5523 54.2851 30.9269 52.4766ZM36.8663 43.2422C36.9856 43.1803 37.121 43.1745 37.2423 43.2148C37.486 43.2958 37.6728 43.5625 37.5626 43.9307C37.0756 45.5632 36.3032 46.9677 35.4113 48.2725C35.1597 48.0507 34.9034 47.8362 34.6476 47.627C35.4511 46.415 36.1419 45.1099 36.5909 43.6045C36.6454 43.4228 36.747 43.3044 36.8663 43.2422Z" fill="url(#paint79_linear_4078_1118)" stroke="url(#paint80_linear_4078_1118)" stroke-width="0.237872"/>
    <defs>
        <linearGradient id="paint0_linear_4078_1118" x1="-26.1446" y1="46.6225" x2="116.123" y2="46.6225" gradientUnits="userSpaceOnUse">
            <stop stop-color="#DCC2EC"/>
            <stop offset="0.501875" stop-color="#93819E"/>
            <stop offset="0.830053" stop-color="#DCC3ED"/>
        </linearGradient>
        <linearGradient id="paint1_linear_4078_1118" x1="40.7144" y1="36.0971" x2="43.4115" y2="36.0971" gradientUnits="userSpaceOnUse">
            <stop stop-color="#DCC2EC"/>
            <stop offset="0.501875" stop-color="#93819E"/>
            <stop offset="0.830053" stop-color="#DCC3ED"/>
        </linearGradient>
        <linearGradient id="paint2_linear_4078_1118" x1="40.7144" y1="36.0971" x2="43.4115" y2="36.0971" gradientUnits="userSpaceOnUse">
            <stop stop-color="#DCC2EC"/>
            <stop offset="0.501875" stop-color="#93819E"/>
            <stop offset="0.830053" stop-color="#DCC3ED"/>
        </linearGradient>
        <linearGradient id="paint3_linear_4078_1118" x1="52.1672" y1="36.2968" x2="54.8643" y2="36.2968" gradientUnits="userSpaceOnUse">
            <stop stop-color="#DCC2EC"/>
            <stop offset="0.501875" stop-color="#93819E"/>
            <stop offset="0.830053" stop-color="#DCC3ED"/>
        </linearGradient>
        <linearGradient id="paint4_linear_4078_1118" x1="52.1672" y1="36.2968" x2="54.8643" y2="36.2968" gradientUnits="userSpaceOnUse">
            <stop stop-color="#DCC2EC"/>
            <stop offset="0.501875" stop-color="#93819E"/>
            <stop offset="0.830053" stop-color="#DCC3ED"/>
        </linearGradient>
        <linearGradient id="paint5_linear_4078_1118" x1="24.466" y1="24.9205" x2="68.3212" y2="24.9205" gradientUnits="userSpaceOnUse">
            <stop stop-color="#DCC2EC"/>
            <stop offset="0.501875" stop-color="#93819E"/>
            <stop offset="0.830053" stop-color="#DCC3ED"/>
        </linearGradient>
        <linearGradient id="paint6_linear_4078_1118" x1="24.466" y1="24.9205" x2="68.3212" y2="24.9205" gradientUnits="userSpaceOnUse">
            <stop stop-color="#DCC2EC"/>
            <stop offset="0.501875" stop-color="#93819E"/>
            <stop offset="0.830053" stop-color="#DCC3ED"/>
        </linearGradient>
        <linearGradient id="paint7_linear_4078_1118" x1="49.0108" y1="62.6027" x2="57.3275" y2="62.6027" gradientUnits="userSpaceOnUse">
            <stop stop-color="#DCC2EC"/>
            <stop offset="0.501875" stop-color="#93819E"/>
            <stop offset="0.830053" stop-color="#DCC3ED"/>
        </linearGradient>
        <linearGradient id="paint8_linear_4078_1118" x1="49.0108" y1="62.6027" x2="57.3275" y2="62.6027" gradientUnits="userSpaceOnUse">
            <stop stop-color="#DCC2EC"/>
            <stop offset="0.501875" stop-color="#93819E"/>
            <stop offset="0.830053" stop-color="#DCC3ED"/>
        </linearGradient>
        <linearGradient id="paint9_linear_4078_1118" x1="39.1373" y1="62.6027" x2="47.4521" y2="62.6027" gradientUnits="userSpaceOnUse">
            <stop stop-color="#DCC2EC"/>
            <stop offset="0.501875" stop-color="#93819E"/>
            <stop offset="0.830053" stop-color="#DCC3ED"/>
        </linearGradient>
        <linearGradient id="paint10_linear_4078_1118" x1="39.1373" y1="62.6027" x2="47.4521" y2="62.6027" gradientUnits="userSpaceOnUse">
            <stop stop-color="#DCC2EC"/>
            <stop offset="0.501875" stop-color="#93819E"/>
            <stop offset="0.830053" stop-color="#DCC3ED"/>
        </linearGradient>
        <linearGradient id="paint11_linear_4078_1118" x1="35.2858" y1="39.5774" x2="38.1207" y2="39.5774" gradientUnits="userSpaceOnUse">
            <stop stop-color="#DCC2EC"/>
            <stop offset="0.501875" stop-color="#93819E"/>
            <stop offset="0.830053" stop-color="#DCC3ED"/>
        </linearGradient>
        <linearGradient id="paint12_linear_4078_1118" x1="35.2858" y1="39.5774" x2="38.1207" y2="39.5774" gradientUnits="userSpaceOnUse">
            <stop stop-color="#DCC2EC"/>
            <stop offset="0.501875" stop-color="#93819E"/>
            <stop offset="0.830053" stop-color="#DCC3ED"/>
        </linearGradient>
        <linearGradient id="paint13_linear_4078_1118" x1="29.9701" y1="44.1845" x2="65.958" y2="44.1845" gradientUnits="userSpaceOnUse">
            <stop stop-color="#DCC2EC"/>
            <stop offset="0.501875" stop-color="#93819E"/>
            <stop offset="0.830053" stop-color="#DCC3ED"/>
        </linearGradient>
        <linearGradient id="paint14_linear_4078_1118" x1="29.9701" y1="44.1845" x2="65.958" y2="44.1845" gradientUnits="userSpaceOnUse">
            <stop stop-color="#DCC2EC"/>
            <stop offset="0.501875" stop-color="#93819E"/>
            <stop offset="0.830053" stop-color="#DCC3ED"/>
        </linearGradient>
        <linearGradient id="paint15_linear_4078_1118" x1="57.5404" y1="38.1064" x2="63.824" y2="38.1064" gradientUnits="userSpaceOnUse">
            <stop stop-color="#DCC2EC"/>
            <stop offset="0.501875" stop-color="#93819E"/>
            <stop offset="0.830053" stop-color="#DCC3ED"/>
        </linearGradient>
        <linearGradient id="paint16_linear_4078_1118" x1="57.5404" y1="38.1064" x2="63.824" y2="38.1064" gradientUnits="userSpaceOnUse">
            <stop stop-color="#DCC2EC"/>
            <stop offset="0.501875" stop-color="#93819E"/>
            <stop offset="0.830053" stop-color="#DCC3ED"/>
        </linearGradient>
        <linearGradient id="paint17_linear_4078_1118" x1="31.6021" y1="37.7447" x2="36.1137" y2="37.7447" gradientUnits="userSpaceOnUse">
            <stop stop-color="#DCC2EC"/>
            <stop offset="0.501875" stop-color="#93819E"/>
            <stop offset="0.830053" stop-color="#DCC3ED"/>
        </linearGradient>
        <linearGradient id="paint18_linear_4078_1118" x1="31.6021" y1="37.7447" x2="36.1137" y2="37.7447" gradientUnits="userSpaceOnUse">
            <stop stop-color="#DCC2EC"/>
            <stop offset="0.501875" stop-color="#93819E"/>
            <stop offset="0.830053" stop-color="#DCC3ED"/>
        </linearGradient>
        <linearGradient id="paint19_linear_4078_1118" x1="58.5638" y1="37.891" x2="61.9659" y2="37.891" gradientUnits="userSpaceOnUse">
            <stop stop-color="#DCC2EC"/>
            <stop offset="0.501875" stop-color="#93819E"/>
            <stop offset="0.830053" stop-color="#DCC3ED"/>
        </linearGradient>
        <linearGradient id="paint20_linear_4078_1118" x1="58.5638" y1="37.891" x2="61.9659" y2="37.891" gradientUnits="userSpaceOnUse">
            <stop stop-color="#DCC2EC"/>
            <stop offset="0.501875" stop-color="#93819E"/>
            <stop offset="0.830053" stop-color="#DCC3ED"/>
        </linearGradient>
        <linearGradient id="paint21_linear_4078_1118" x1="33.5134" y1="37.0108" x2="37.3739" y2="37.0108" gradientUnits="userSpaceOnUse">
            <stop stop-color="#DCC2EC"/>
            <stop offset="0.501875" stop-color="#93819E"/>
            <stop offset="0.830053" stop-color="#DCC3ED"/>
        </linearGradient>
        <linearGradient id="paint22_linear_4078_1118" x1="33.5134" y1="37.0108" x2="37.3739" y2="37.0108" gradientUnits="userSpaceOnUse">
            <stop stop-color="#DCC2EC"/>
            <stop offset="0.501875" stop-color="#93819E"/>
            <stop offset="0.830053" stop-color="#DCC3ED"/>
        </linearGradient>
        <linearGradient id="paint23_linear_4078_1118" x1="45.1699" y1="41.2085" x2="49.9496" y2="41.2085" gradientUnits="userSpaceOnUse">
            <stop stop-color="#DCC2EC"/>
            <stop offset="0.501875" stop-color="#93819E"/>
            <stop offset="0.830053" stop-color="#DCC3ED"/>
        </linearGradient>
        <linearGradient id="paint24_linear_4078_1118" x1="45.1699" y1="41.2085" x2="49.9496" y2="41.2085" gradientUnits="userSpaceOnUse">
            <stop stop-color="#DCC2EC"/>
            <stop offset="0.501875" stop-color="#93819E"/>
            <stop offset="0.830053" stop-color="#DCC3ED"/>
        </linearGradient>
        <linearGradient id="paint25_linear_4078_1118" x1="49.1347" y1="35.7061" x2="58.3991" y2="35.7061" gradientUnits="userSpaceOnUse">
            <stop stop-color="#DCC2EC"/>
            <stop offset="0.501875" stop-color="#93819E"/>
            <stop offset="0.830053" stop-color="#DCC3ED"/>
        </linearGradient>
        <linearGradient id="paint26_linear_4078_1118" x1="49.1347" y1="35.7061" x2="58.3991" y2="35.7061" gradientUnits="userSpaceOnUse">
            <stop stop-color="#DCC2EC"/>
            <stop offset="0.501875" stop-color="#93819E"/>
            <stop offset="0.830053" stop-color="#DCC3ED"/>
        </linearGradient>
        <linearGradient id="paint27_linear_4078_1118" x1="48.2832" y1="32.6803" x2="58.0117" y2="32.6803" gradientUnits="userSpaceOnUse">
            <stop stop-color="#DCC2EC"/>
            <stop offset="0.501875" stop-color="#93819E"/>
            <stop offset="0.830053" stop-color="#DCC3ED"/>
        </linearGradient>
        <linearGradient id="paint28_linear_4078_1118" x1="48.2832" y1="32.6803" x2="58.0117" y2="32.6803" gradientUnits="userSpaceOnUse">
            <stop stop-color="#DCC2EC"/>
            <stop offset="0.501875" stop-color="#93819E"/>
            <stop offset="0.830053" stop-color="#DCC3ED"/>
        </linearGradient>
        <linearGradient id="paint29_linear_4078_1118" x1="51.1733" y1="36.4297" x2="55.4839" y2="36.4297" gradientUnits="userSpaceOnUse">
            <stop stop-color="#DCC2EC"/>
            <stop offset="0.501875" stop-color="#93819E"/>
            <stop offset="0.830053" stop-color="#DCC3ED"/>
        </linearGradient>
        <linearGradient id="paint30_linear_4078_1118" x1="51.1733" y1="36.4297" x2="55.4839" y2="36.4297" gradientUnits="userSpaceOnUse">
            <stop stop-color="#DCC2EC"/>
            <stop offset="0.501875" stop-color="#93819E"/>
            <stop offset="0.830053" stop-color="#DCC3ED"/>
        </linearGradient>
        <linearGradient id="paint31_linear_4078_1118" x1="36.7181" y1="35.5134" x2="45.9812" y2="35.5134" gradientUnits="userSpaceOnUse">
            <stop stop-color="#DCC2EC"/>
            <stop offset="0.501875" stop-color="#93819E"/>
            <stop offset="0.830053" stop-color="#DCC3ED"/>
        </linearGradient>
        <linearGradient id="paint32_linear_4078_1118" x1="36.7181" y1="35.5134" x2="45.9812" y2="35.5134" gradientUnits="userSpaceOnUse">
            <stop stop-color="#DCC2EC"/>
            <stop offset="0.501875" stop-color="#93819E"/>
            <stop offset="0.830053" stop-color="#DCC3ED"/>
        </linearGradient>
        <linearGradient id="paint33_linear_4078_1118" x1="37.0917" y1="32.4806" x2="46.8188" y2="32.4806" gradientUnits="userSpaceOnUse">
            <stop stop-color="#DCC2EC"/>
            <stop offset="0.501875" stop-color="#93819E"/>
            <stop offset="0.830053" stop-color="#DCC3ED"/>
        </linearGradient>
        <linearGradient id="paint34_linear_4078_1118" x1="37.0917" y1="32.4806" x2="46.8188" y2="32.4806" gradientUnits="userSpaceOnUse">
            <stop stop-color="#DCC2EC"/>
            <stop offset="0.501875" stop-color="#93819E"/>
            <stop offset="0.830053" stop-color="#DCC3ED"/>
        </linearGradient>
        <linearGradient id="paint35_linear_4078_1118" x1="39.7905" y1="36.2298" x2="44.1013" y2="36.2298" gradientUnits="userSpaceOnUse">
            <stop stop-color="#DCC2EC"/>
            <stop offset="0.501875" stop-color="#93819E"/>
            <stop offset="0.830053" stop-color="#DCC3ED"/>
        </linearGradient>
        <linearGradient id="paint36_linear_4078_1118" x1="39.7905" y1="36.2298" x2="44.1013" y2="36.2298" gradientUnits="userSpaceOnUse">
            <stop stop-color="#DCC2EC"/>
            <stop offset="0.501875" stop-color="#93819E"/>
            <stop offset="0.830053" stop-color="#DCC3ED"/>
        </linearGradient>
        <linearGradient id="paint37_linear_4078_1118" x1="46.3947" y1="29.1489" x2="61.9351" y2="29.1489" gradientUnits="userSpaceOnUse">
            <stop stop-color="#DCC2EC"/>
            <stop offset="0.501875" stop-color="#93819E"/>
            <stop offset="0.830053" stop-color="#DCC3ED"/>
        </linearGradient>
        <linearGradient id="paint38_linear_4078_1118" x1="46.3947" y1="29.1489" x2="61.9351" y2="29.1489" gradientUnits="userSpaceOnUse">
            <stop stop-color="#DCC2EC"/>
            <stop offset="0.501875" stop-color="#93819E"/>
            <stop offset="0.830053" stop-color="#DCC3ED"/>
        </linearGradient>
        <linearGradient id="paint39_linear_4078_1118" x1="47.3963" y1="21.2642" x2="49.2382" y2="21.2642" gradientUnits="userSpaceOnUse">
            <stop stop-color="#DCC2EC"/>
            <stop offset="0.501875" stop-color="#93819E"/>
            <stop offset="0.830053" stop-color="#DCC3ED"/>
        </linearGradient>
        <linearGradient id="paint40_linear_4078_1118" x1="47.3963" y1="21.2642" x2="49.2382" y2="21.2642" gradientUnits="userSpaceOnUse">
            <stop stop-color="#DCC2EC"/>
            <stop offset="0.501875" stop-color="#93819E"/>
            <stop offset="0.830053" stop-color="#DCC3ED"/>
        </linearGradient>
        <linearGradient id="paint41_linear_4078_1118" x1="45.3238" y1="25.3975" x2="66.3414" y2="25.3975" gradientUnits="userSpaceOnUse">
            <stop stop-color="#DCC2EC"/>
            <stop offset="0.501875" stop-color="#93819E"/>
            <stop offset="0.830053" stop-color="#DCC3ED"/>
        </linearGradient>
        <linearGradient id="paint42_linear_4078_1118" x1="45.3238" y1="25.3975" x2="66.3414" y2="25.3975" gradientUnits="userSpaceOnUse">
            <stop stop-color="#DCC2EC"/>
            <stop offset="0.501875" stop-color="#93819E"/>
            <stop offset="0.830053" stop-color="#DCC3ED"/>
        </linearGradient>
        <linearGradient id="paint43_linear_4078_1118" x1="27.1119" y1="24.9267" x2="52.3568" y2="24.9267" gradientUnits="userSpaceOnUse">
            <stop stop-color="#DCC2EC"/>
            <stop offset="0.501875" stop-color="#93819E"/>
            <stop offset="0.830053" stop-color="#DCC3ED"/>
        </linearGradient>
        <linearGradient id="paint44_linear_4078_1118" x1="27.1119" y1="24.9267" x2="52.3568" y2="24.9267" gradientUnits="userSpaceOnUse">
            <stop stop-color="#DCC2EC"/>
            <stop offset="0.501875" stop-color="#93819E"/>
            <stop offset="0.830053" stop-color="#DCC3ED"/>
        </linearGradient>
        <linearGradient id="paint45_linear_4078_1118" x1="31.5171" y1="28.7703" x2="50.3986" y2="28.7703" gradientUnits="userSpaceOnUse">
            <stop stop-color="#DCC2EC"/>
            <stop offset="0.501875" stop-color="#93819E"/>
            <stop offset="0.830053" stop-color="#DCC3ED"/>
        </linearGradient>
        <linearGradient id="paint46_linear_4078_1118" x1="31.5171" y1="28.7703" x2="50.3986" y2="28.7703" gradientUnits="userSpaceOnUse">
            <stop stop-color="#DCC2EC"/>
            <stop offset="0.501875" stop-color="#93819E"/>
            <stop offset="0.830053" stop-color="#DCC3ED"/>
        </linearGradient>
        <linearGradient id="paint47_linear_4078_1118" x1="40.3267" y1="45.5093" x2="54.4079" y2="45.5093" gradientUnits="userSpaceOnUse">
            <stop stop-color="#DCC2EC"/>
            <stop offset="0.501875" stop-color="#93819E"/>
            <stop offset="0.830053" stop-color="#DCC3ED"/>
        </linearGradient>
        <linearGradient id="paint48_linear_4078_1118" x1="40.3267" y1="45.5093" x2="54.4079" y2="45.5093" gradientUnits="userSpaceOnUse">
            <stop stop-color="#DCC2EC"/>
            <stop offset="0.501875" stop-color="#93819E"/>
            <stop offset="0.830053" stop-color="#DCC3ED"/>
        </linearGradient>
        <linearGradient id="paint49_linear_4078_1118" x1="42.3173" y1="45.8668" x2="52.538" y2="45.8668" gradientUnits="userSpaceOnUse">
            <stop stop-color="#DCC2EC"/>
            <stop offset="0.501875" stop-color="#93819E"/>
            <stop offset="0.830053" stop-color="#DCC3ED"/>
        </linearGradient>
        <linearGradient id="paint50_linear_4078_1118" x1="42.3173" y1="45.8668" x2="52.538" y2="45.8668" gradientUnits="userSpaceOnUse">
            <stop stop-color="#DCC2EC"/>
            <stop offset="0.501875" stop-color="#93819E"/>
            <stop offset="0.830053" stop-color="#DCC3ED"/>
        </linearGradient>
        <linearGradient id="paint51_linear_4078_1118" x1="42.3173" y1="45.8668" x2="52.538" y2="45.8668" gradientUnits="userSpaceOnUse">
            <stop stop-color="#DCC2EC"/>
            <stop offset="0.501875" stop-color="#93819E"/>
            <stop offset="0.830053" stop-color="#DCC3ED"/>
        </linearGradient>
        <linearGradient id="paint52_linear_4078_1118" x1="32.0702" y1="25.4629" x2="43.6275" y2="25.4629" gradientUnits="userSpaceOnUse">
            <stop stop-color="#DCC2EC"/>
            <stop offset="0.501875" stop-color="#93819E"/>
            <stop offset="0.830053" stop-color="#DCC3ED"/>
        </linearGradient>
        <linearGradient id="paint53_linear_4078_1118" x1="32.0702" y1="25.4629" x2="43.6275" y2="25.4629" gradientUnits="userSpaceOnUse">
            <stop stop-color="#DCC2EC"/>
            <stop offset="0.501875" stop-color="#93819E"/>
            <stop offset="0.830053" stop-color="#DCC3ED"/>
        </linearGradient>
        <linearGradient id="paint54_linear_4078_1118" x1="57.7317" y1="29.501" x2="61.3477" y2="29.501" gradientUnits="userSpaceOnUse">
            <stop stop-color="#DCC2EC"/>
            <stop offset="0.501875" stop-color="#93819E"/>
            <stop offset="0.830053" stop-color="#DCC3ED"/>
        </linearGradient>
        <linearGradient id="paint55_linear_4078_1118" x1="57.7317" y1="29.501" x2="61.3477" y2="29.501" gradientUnits="userSpaceOnUse">
            <stop stop-color="#DCC2EC"/>
            <stop offset="0.501875" stop-color="#93819E"/>
            <stop offset="0.830053" stop-color="#DCC3ED"/>
        </linearGradient>
        <linearGradient id="paint56_linear_4078_1118" x1="18.4512" y1="72.4234" x2="75.5456" y2="72.4234" gradientUnits="userSpaceOnUse">
            <stop stop-color="#DCC2EC"/>
            <stop offset="0.501875" stop-color="#93819E"/>
            <stop offset="0.830053" stop-color="#DCC3ED"/>
        </linearGradient>
        <linearGradient id="paint57_linear_4078_1118" x1="18.4512" y1="72.4234" x2="75.5456" y2="72.4234" gradientUnits="userSpaceOnUse">
            <stop stop-color="#DCC2EC"/>
            <stop offset="0.501875" stop-color="#93819E"/>
            <stop offset="0.830053" stop-color="#DCC3ED"/>
        </linearGradient>
        <linearGradient id="paint58_linear_4078_1118" x1="14.1138" y1="58.6684" x2="47.0292" y2="58.6684" gradientUnits="userSpaceOnUse">
            <stop stop-color="#DCC2EC"/>
            <stop offset="0.501875" stop-color="#93819E"/>
            <stop offset="0.830053" stop-color="#DCC3ED"/>
        </linearGradient>
        <linearGradient id="paint59_linear_4078_1118" x1="14.1138" y1="58.6684" x2="47.0292" y2="58.6684" gradientUnits="userSpaceOnUse">
            <stop stop-color="#DCC2EC"/>
            <stop offset="0.501875" stop-color="#93819E"/>
            <stop offset="0.830053" stop-color="#DCC3ED"/>
        </linearGradient>
        <linearGradient id="paint60_linear_4078_1118" x1="14.1138" y1="58.6684" x2="47.0292" y2="58.6684" gradientUnits="userSpaceOnUse">
            <stop stop-color="#DCC2EC"/>
            <stop offset="0.501875" stop-color="#93819E"/>
            <stop offset="0.830053" stop-color="#DCC3ED"/>
        </linearGradient>
        <linearGradient id="paint61_linear_4078_1118" x1="47.711" y1="58.5266" x2="80.6353" y2="58.5266" gradientUnits="userSpaceOnUse">
            <stop stop-color="#DCC2EC"/>
            <stop offset="0.501875" stop-color="#93819E"/>
            <stop offset="0.830053" stop-color="#DCC3ED"/>
        </linearGradient>
        <linearGradient id="paint62_linear_4078_1118" x1="47.711" y1="58.5266" x2="80.6353" y2="58.5266" gradientUnits="userSpaceOnUse">
            <stop stop-color="#DCC2EC"/>
            <stop offset="0.501875" stop-color="#93819E"/>
            <stop offset="0.830053" stop-color="#DCC3ED"/>
        </linearGradient>
        <linearGradient id="paint63_linear_4078_1118" x1="47.711" y1="58.5266" x2="80.6353" y2="58.5266" gradientUnits="userSpaceOnUse">
            <stop stop-color="#DCC2EC"/>
            <stop offset="0.501875" stop-color="#93819E"/>
            <stop offset="0.830053" stop-color="#DCC3ED"/>
        </linearGradient>
        <linearGradient id="paint64_linear_4078_1118" x1="57.2995" y1="47.2694" x2="70.2886" y2="47.2694" gradientUnits="userSpaceOnUse">
            <stop stop-color="#DCC2EC"/>
            <stop offset="0.501875" stop-color="#93819E"/>
            <stop offset="0.830053" stop-color="#DCC3ED"/>
        </linearGradient>
        <linearGradient id="paint65_linear_4078_1118" x1="57.2995" y1="47.2694" x2="70.2886" y2="47.2694" gradientUnits="userSpaceOnUse">
            <stop stop-color="#DCC2EC"/>
            <stop offset="0.501875" stop-color="#93819E"/>
            <stop offset="0.830053" stop-color="#DCC3ED"/>
        </linearGradient>
        <linearGradient id="paint66_linear_4078_1118" x1="61.404" y1="44.2346" x2="71.6224" y2="44.2346" gradientUnits="userSpaceOnUse">
            <stop stop-color="#DCC2EC"/>
            <stop offset="0.501875" stop-color="#93819E"/>
            <stop offset="0.830053" stop-color="#DCC3ED"/>
        </linearGradient>
        <linearGradient id="paint67_linear_4078_1118" x1="61.404" y1="44.2346" x2="71.6224" y2="44.2346" gradientUnits="userSpaceOnUse">
            <stop stop-color="#DCC2EC"/>
            <stop offset="0.501875" stop-color="#93819E"/>
            <stop offset="0.830053" stop-color="#DCC3ED"/>
        </linearGradient>
        <linearGradient id="paint68_linear_4078_1118" x1="24.8976" y1="47.2694" x2="37.8866" y2="47.2694" gradientUnits="userSpaceOnUse">
            <stop stop-color="#DCC2EC"/>
            <stop offset="0.501875" stop-color="#93819E"/>
            <stop offset="0.830053" stop-color="#DCC3ED"/>
        </linearGradient>
        <linearGradient id="paint69_linear_4078_1118" x1="24.8976" y1="47.2694" x2="37.8866" y2="47.2694" gradientUnits="userSpaceOnUse">
            <stop stop-color="#DCC2EC"/>
            <stop offset="0.501875" stop-color="#93819E"/>
            <stop offset="0.830053" stop-color="#DCC3ED"/>
        </linearGradient>
        <linearGradient id="paint70_linear_4078_1118" x1="23.6461" y1="44.2346" x2="33.8642" y2="44.2346" gradientUnits="userSpaceOnUse">
            <stop stop-color="#DCC2EC"/>
            <stop offset="0.501875" stop-color="#93819E"/>
            <stop offset="0.830053" stop-color="#DCC3ED"/>
        </linearGradient>
        <linearGradient id="paint71_linear_4078_1118" x1="23.6461" y1="44.2346" x2="33.8642" y2="44.2346" gradientUnits="userSpaceOnUse">
            <stop stop-color="#DCC2EC"/>
            <stop offset="0.501875" stop-color="#93819E"/>
            <stop offset="0.830053" stop-color="#DCC3ED"/>
        </linearGradient>
        <linearGradient id="paint72_linear_4078_1118" x1="-24.7239" y1="46.4752" x2="114.236" y2="46.4752" gradientUnits="userSpaceOnUse">
            <stop stop-color="#DCC2EC"/>
            <stop offset="0.501875" stop-color="#93819E"/>
            <stop offset="0.830053" stop-color="#DCC3ED"/>
        </linearGradient>
        <linearGradient id="paint73_linear_4078_1118" x1="23.5813" y1="52.337" x2="45.1253" y2="52.337" gradientUnits="userSpaceOnUse">
            <stop stop-color="#DCC2EC"/>
            <stop offset="0.501875" stop-color="#93819E"/>
            <stop offset="0.830053" stop-color="#DCC3ED"/>
        </linearGradient>
        <linearGradient id="paint74_linear_4078_1118" x1="23.5813" y1="52.337" x2="45.1253" y2="52.337" gradientUnits="userSpaceOnUse">
            <stop stop-color="#DCC2EC"/>
            <stop offset="0.501875" stop-color="#93819E"/>
            <stop offset="0.830053" stop-color="#DCC3ED"/>
        </linearGradient>
        <linearGradient id="paint75_linear_4078_1118" x1="50.1111" y1="51.6468" x2="73.8712" y2="51.6468" gradientUnits="userSpaceOnUse">
            <stop stop-color="#DCC2EC"/>
            <stop offset="0.501875" stop-color="#93819E"/>
            <stop offset="0.830053" stop-color="#DCC3ED"/>
        </linearGradient>
        <linearGradient id="paint76_linear_4078_1118" x1="50.1111" y1="51.6468" x2="73.8712" y2="51.6468" gradientUnits="userSpaceOnUse">
            <stop stop-color="#DCC2EC"/>
            <stop offset="0.501875" stop-color="#93819E"/>
            <stop offset="0.830053" stop-color="#DCC3ED"/>
        </linearGradient>
        <linearGradient id="paint77_linear_4078_1118" x1="55.8481" y1="50.7601" x2="72.8262" y2="50.7601" gradientUnits="userSpaceOnUse">
            <stop stop-color="#DCC2EC"/>
            <stop offset="0.501875" stop-color="#93819E"/>
            <stop offset="0.830053" stop-color="#DCC3ED"/>
        </linearGradient>
        <linearGradient id="paint78_linear_4078_1118" x1="55.8481" y1="50.7601" x2="72.8262" y2="50.7601" gradientUnits="userSpaceOnUse">
            <stop stop-color="#DCC2EC"/>
            <stop offset="0.501875" stop-color="#93819E"/>
            <stop offset="0.830053" stop-color="#DCC3ED"/>
        </linearGradient>
        <linearGradient id="paint79_linear_4078_1118" x1="24.6988" y1="51.2342" x2="40.1482" y2="51.2342" gradientUnits="userSpaceOnUse">
            <stop stop-color="#DCC2EC"/>
            <stop offset="0.501875" stop-color="#93819E"/>
            <stop offset="0.830053" stop-color="#DCC3ED"/>
        </linearGradient>
        <linearGradient id="paint80_linear_4078_1118" x1="24.6988" y1="51.2342" x2="40.1482" y2="51.2342" gradientUnits="userSpaceOnUse">
            <stop stop-color="#DCC2EC"/>
            <stop offset="0.501875" stop-color="#93819E"/>
            <stop offset="0.830053" stop-color="#DCC3ED"/>
        </linearGradient>
    </defs>
</svg>
