<svg width="89" height="89" viewBox="0 0 89 89" fill="none" xmlns="http://www.w3.org/2000/svg">
    <path d="M44.0928 0.740234C68.0305 0.740234 87.4453 20.2965 87.4453 44.4316C87.4453 68.567 68.0304 88.123 44.0928 88.123C20.1553 88.1229 0.740249 68.5669 0.740234 44.4316C0.740234 20.2966 20.1552 0.740417 44.0928 0.740234Z" fill="white" stroke="#E0B370" stroke-width="1.48106"/>
    <path d="M56.0869 23.3206C56.6822 23.014 57.3899 23.0141 57.9854 23.3196L58.1113 23.3889L58.7207 23.7512C61.7841 25.5394 65.081 27.0147 68.3838 28.0754C69.2299 28.3472 69.8232 29.1341 69.8232 30.0422V35.801C69.8232 42.8639 66.7685 47.564 64.1953 50.2581C62.74 51.7818 61.2314 52.8856 59.9883 53.6135C59.3671 53.9773 58.8014 54.2522 58.332 54.4407C57.9168 54.6074 57.4346 54.7658 57.0371 54.7659C56.6395 54.7659 56.1565 54.6074 55.7412 54.4407C55.2719 54.2522 54.707 53.9771 54.0859 53.6135C52.8428 52.8857 51.3342 51.7816 49.8789 50.2581H49.8779C47.3049 47.564 44.251 42.8639 44.251 35.801V30.0432C44.251 29.1343 44.8452 28.3469 45.6934 28.0764L46.3643 27.8567C49.706 26.7367 52.8667 25.266 55.9619 23.3909L56.0869 23.3206Z" fill="white" stroke="white" stroke-width="2.22158" stroke-linecap="round" stroke-linejoin="round"/>
    <path d="M65.3537 39.6909C65.3537 51.4711 60.2749 59.2615 56.0139 63.7226C51.1777 68.7862 46.007 71.0344 44.8578 71.0344C43.7086 71.0344 38.5375 68.7862 33.7012 63.7226C29.4404 59.2614 24.3613 51.4711 24.3613 39.6909V29.583C24.3613 28.8524 24.84 28.2093 25.5361 27.9874C31.9898 25.9295 38.0559 23.1618 43.9805 19.5727C44.5196 19.2461 45.1962 19.2457 45.7359 19.5714C51.5391 23.0739 57.8499 25.9521 64.1811 27.9855C64.8761 28.2088 65.3537 28.8512 65.3537 29.5812V39.6909Z" fill="white"/>
    <path d="M65.3537 39.6909C65.3537 51.4711 60.2749 59.2615 56.0139 63.7226C51.1777 68.7862 46.007 71.0344 44.8578 71.0344C43.7086 71.0344 38.5375 68.7862 33.7012 63.7226C29.4404 59.2614 24.3613 51.4711 24.3613 39.6909V29.583C24.3613 28.8524 24.84 28.2093 25.5361 27.9874C31.9898 25.9295 38.0559 23.1618 43.9805 19.5727C44.5196 19.2461 45.1962 19.2457 45.7359 19.5714C51.5391 23.0739 57.8499 25.9521 64.1811 27.9855C64.8761 28.2088 65.3537 28.8512 65.3537 29.5812V39.6909Z" fill="#F8EEDE"/>
    <path d="M65.3537 39.6909C65.3537 51.4711 60.2749 59.2615 56.0139 63.7226C51.1777 68.7862 46.007 71.0344 44.8578 71.0344C43.7086 71.0344 38.5375 68.7862 33.7012 63.7226C29.4404 59.2614 24.3613 51.4711 24.3613 39.6909V29.583C24.3613 28.8524 24.84 28.2093 25.5361 27.9874C31.9898 25.9295 38.0559 23.1618 43.9805 19.5727C44.5196 19.2461 45.1962 19.2457 45.7359 19.5714C51.5391 23.0739 57.8499 25.9521 64.1811 27.9855C64.8761 28.2088 65.3537 28.8512 65.3537 29.5812V39.6909Z" stroke="#E0B370" stroke-width="1.48" stroke-linecap="round" stroke-linejoin="round"/>
    <path d="M49.0958 41.0588C49.0958 41.2024 49.2122 41.3188 49.3558 41.3188H57.8993C58.0429 41.3188 58.1593 41.4353 58.1593 41.5788V48.927C58.1593 49.0706 58.0429 49.187 57.8993 49.187H49.3558C49.2122 49.187 49.0958 49.3034 49.0958 49.447V57.9934C49.0958 58.137 48.9794 58.2534 48.8358 58.2534H41.4877C41.3441 58.2534 41.2277 58.137 41.2277 57.9934V49.447C41.2277 49.3034 41.1113 49.187 40.9677 49.187H32.4193C32.2757 49.187 32.1593 49.0706 32.1593 48.927V41.5788C32.1593 41.4353 32.2757 41.3188 32.4193 41.3188H40.9677C41.1113 41.3188 41.2277 41.2024 41.2277 41.0588V32.5134C41.2277 32.3698 41.3441 32.2534 41.4877 32.2534H48.8358C48.9794 32.2534 49.0958 32.3698 49.0958 32.5134V41.0588Z" fill="white"/>
    <path d="M49.3558 41.3188V42.0588H57.8993V41.3188V40.5788H49.3558V41.3188ZM58.1593 41.5788H57.4193V48.927H58.1593H58.8993V41.5788H58.1593ZM57.8993 49.187V48.447H49.3558V49.187V49.927H57.8993V49.187ZM49.0958 49.447H48.3558V57.9934H49.0958H49.8358V49.447H49.0958ZM48.8358 58.2534V57.5134H41.4877V58.2534V58.9934H48.8358V58.2534ZM41.2277 57.9934H41.9677V49.447H41.2277H40.4877V57.9934H41.2277ZM40.9677 49.187V48.447H32.4193V49.187V49.927H40.9677V49.187ZM32.1593 48.927H32.8993V41.5788H32.1593H31.4193V48.927H32.1593ZM32.4193 41.3188V42.0588H40.9677V41.3188V40.5788H32.4193V41.3188ZM41.2277 41.0588H41.9677V32.5134H41.2277H40.4877V41.0588H41.2277ZM41.4877 32.2534V32.9934H48.8358V32.2534V31.5134H41.4877V32.2534ZM49.0958 32.5134H48.3558V41.0588H49.0958H49.8358V32.5134H49.0958ZM48.8358 32.2534V32.9934C48.5707 32.9934 48.3558 32.7785 48.3558 32.5134H49.0958H49.8358C49.8358 31.9611 49.3881 31.5134 48.8358 31.5134V32.2534ZM41.2277 32.5134H41.9677C41.9677 32.7785 41.7528 32.9934 41.4877 32.9934V32.2534V31.5134C40.9354 31.5134 40.4877 31.9611 40.4877 32.5134H41.2277ZM40.9677 41.3188V42.0588C41.5199 42.0588 41.9677 41.6111 41.9677 41.0588H41.2277H40.4877C40.4877 40.7937 40.7026 40.5788 40.9677 40.5788V41.3188ZM32.1593 41.5788H32.8993C32.8993 41.8439 32.6844 42.0588 32.4193 42.0588V41.3188V40.5788C31.867 40.5788 31.4193 41.0266 31.4193 41.5788H32.1593ZM32.4193 49.187V48.447C32.6844 48.447 32.8993 48.6619 32.8993 48.927H32.1593H31.4193C31.4193 49.4793 31.867 49.927 32.4193 49.927V49.187ZM41.2277 49.447H41.9677C41.9677 48.8947 41.5199 48.447 40.9677 48.447V49.187V49.927C40.7026 49.927 40.4877 49.7121 40.4877 49.447H41.2277ZM41.4877 58.2534V57.5134C41.7528 57.5134 41.9677 57.7283 41.9677 57.9934H41.2277H40.4877C40.4877 58.5457 40.9354 58.9934 41.4877 58.9934V58.2534ZM49.0958 57.9934H48.3558C48.3558 57.7283 48.5707 57.5134 48.8358 57.5134V58.2534V58.9934C49.3881 58.9934 49.8358 58.5457 49.8358 57.9934H49.0958ZM49.3558 49.187V48.447C48.8035 48.447 48.3558 48.8947 48.3558 49.447H49.0958H49.8358C49.8358 49.7121 49.6209 49.927 49.3558 49.927V49.187ZM58.1593 48.927H57.4193C57.4193 48.6619 57.6342 48.447 57.8993 48.447V49.187V49.927C58.4516 49.927 58.8993 49.4793 58.8993 48.927H58.1593ZM57.8993 41.3188V42.0588C57.6342 42.0588 57.4193 41.8439 57.4193 41.5788H58.1593H58.8993C58.8993 41.0266 58.4516 40.5788 57.8993 40.5788V41.3188ZM49.3558 41.3188V40.5788C49.6209 40.5788 49.8358 40.7938 49.8358 41.0588H49.0958H48.3558C48.3558 41.6111 48.8035 42.0588 49.3558 42.0588V41.3188Z" fill="#E0B370"/>
</svg>
