<svg width="90" height="90" viewBox="0 0 90 90" fill="none" xmlns="http://www.w3.org/2000/svg">
    <circle cx="44.793" cy="45.4304" r="44.4317" fill="white"/>
    <circle cx="44.793" cy="45.3474" r="43.6911" stroke="#E0B370" stroke-width="1.48106"/>
    <path d="M45.8928 68.3774C45.1202 68.4087 43.5749 68.3774 42.6113 68.0431C41.527 67.6669 40.1571 65.7628 40.371 64.6608C40.7423 62.7429 44.0579 62.3832 45.502 62.4759C46.946 62.5685 48.2487 62.932 49.2963 63.7057C49.688 63.9947 49.8886 64.275 49.9451 64.7236C50.1157 66.0916 49.572 66.9226 48.273 67.6381C47.5074 68.0598 46.7967 68.3481 45.8928 68.3774Z" fill="#F8EEDE"/>
    <path d="M37.5002 67C40.5002 64.5 41.85 65.4247 45.1629 65.4247C47.8132 65.4247 51.0002 66 53.5002 63" stroke="#E0B370" stroke-width="1.18484" stroke-linecap="round"/>
    <path d="M41.8311 67.6462C42.5326 68.0165 43.4095 68.3868 45.1634 68.3868C46.5665 68.3868 47.9696 67.8931 48.4958 67.6462" stroke="#E0B370" stroke-width="1.18484" stroke-linecap="round"/>
    <path d="M42.5703 58.0193C43.116 58.3896 43.798 58.7598 45.1622 58.7598C46.2535 58.7598 47.3448 58.2661 47.754 58.0193" stroke="#E0B370" stroke-width="1.18484" stroke-linecap="round"/>
    <path d="M41.3702 8.84717C42.3674 8.32563 43.4353 7.8586 44.5736 7.71253C46.8803 7.41988 49.1365 8.48124 50.9702 9.78043C52.4104 10.8057 53.8004 12.215 53.6697 13.8711C53.6494 14.1274 53.5892 14.3927 53.4281 14.5941C53.045 15.0701 52.2898 15.0885 51.655 15.0607C49.5598 14.9784 47.4747 14.8961 45.3893 14.8229C43.566 14.7496 41.2592 15.0148 39.5064 14.5756C38.1669 14.2461 37.9048 12.8372 38.2879 11.7025C38.5697 10.8512 40.2519 8.84717 41.3702 8.84717Z" fill="#F8EEDE"/>
    <path d="M23.7262 31.6389C24.2329 30.3501 23.277 28.6959 24.2038 27.6353C24.8825 26.8585 27.3668 26.5752 27.7204 25.6247C28.0357 24.7836 27.9593 23.842 28.2078 22.9829C28.7523 21.1184 28.8671 19.3544 30.6348 18.4127C33.1098 17.0876 37.4383 16.4201 40.1711 15.6799C42.9043 14.9394 45.8759 14.7842 48.5515 15.7075C49.7171 16.1093 50.8066 16.7037 51.8768 17.2979C53.6827 18.2939 55.4795 19.2901 57.2855 20.2865C59.3589 21.4292 61.4802 22.6174 62.9805 24.3998C63.869 25.4508 64.5094 26.7032 64.8438 28.0104C65.073 28.9152 65.1591 29.8474 65.2546 30.7707C65.4173 32.5438 65.5892 34.3079 65.7516 36.081C65.9425 38.1195 66.1338 40.1485 66.2579 42.187C66.2962 42.8082 66.239 43.5763 65.6561 43.8504C65.4363 43.951 65.1785 43.9602 64.93 43.9418C63.0761 43.8321 61.4517 42.6714 60.2477 41.3095C59.0435 39.9474 58.1357 38.3753 56.9605 36.9951C54.5809 34.2165 51.2271 32.3886 47.9208 30.6701C46.8889 30.1306 45.8377 29.5913 44.691 29.3262C42.7702 28.8786 40.7543 29.2349 38.8528 29.7284C35.7375 30.5328 32.4888 31.8309 30.4439 34.3262C28.915 36.2 25.9237 44.0698 23.1148 40.176C21.9012 38.5309 23.019 33.4304 23.7262 31.6389Z" fill="#F8EEDE"/>
    <path d="M24.9525 39.0013C26.7098 34.4021 30.8542 30.6087 36.5924 30.6039C37.6516 30.6033 37.6531 29.1377 36.5924 29.1387C30.1044 29.1441 25.3583 33.3964 23.3652 38.6119C23.0234 39.5063 24.6126 39.8906 24.9525 39.0013Z" fill="#E0B370"/>
    <path d="M41.1599 29.3293C39.4281 27.6654 39.2177 25.69 40.6123 23.7376C41.4522 22.5617 42.7789 21.3577 44.2396 20.9984C45.2074 20.7604 44.7973 19.2998 43.8273 19.5381C41.7522 20.0485 39.8494 21.8424 38.8549 23.6363C37.5114 26.0611 38.0936 28.5081 40.0628 30.4C40.7749 31.0843 41.8728 30.0145 41.1599 29.3293Z" fill="#E0B370"/>
    <path d="M42.6044 29.639C41.945 24.9609 47.918 21.6091 51.6553 21.028C52.6058 20.8802 52.2021 19.3749 51.2568 19.5221C46.535 20.2557 40.3666 24.4301 41.1593 30.0542C41.2991 31.0453 42.7432 30.624 42.6044 29.639Z" fill="#E0B370"/>
    <path d="M45.2959 30.182C48.3846 26.5283 53.6739 25.6503 58.1377 26.5054C62.475 27.3364 66.9044 30.1111 67.0015 35.0702C67.0205 36.0463 68.5088 36.0495 68.4899 35.0702C68.2632 23.4929 50.4605 21.7543 44.2433 29.1082C43.6207 29.845 44.6692 30.9237 45.2959 30.182Z" fill="#E0B370"/>
    <path d="M52.4185 31.6969C59.7167 29.8901 67.5943 37.7768 68.4183 44.6871C68.536 45.6723 70.0824 45.6842 69.9633 44.6871C69.0174 36.7563 60.3715 28.1205 52.0079 30.1909C51.0423 30.4298 51.4511 31.9362 52.4185 31.6969Z" fill="#E0B370"/>
    <path d="M21.9005 46.4506C19.6385 41.1222 19.5826 35.2342 23.1863 30.6015C26.0537 26.9154 29.9939 24.9513 34.4646 24.7885C35.3975 24.7542 35.4015 23.1809 34.4646 23.2152C29.4158 23.3991 24.8911 25.7067 21.7704 30.0079C18.0318 35.1599 18.1979 41.4784 20.6457 47.2448C21.0356 48.1638 22.2888 47.365 21.9005 46.4506Z" fill="#E0B370"/>
    <path d="M24.2872 28.2956C23.5535 25.9416 25.5415 23.1461 27.0658 21.391C28.1069 20.1925 29.3526 19.1916 30.7154 18.3763C33.6753 16.6048 37.1223 15.6695 40.5428 15.3254C47.4016 14.6353 55.1116 15.9938 60.6833 20.2368C63.6579 22.5015 65.7116 25.6133 66.2514 29.3242C66.3928 30.2966 67.8792 29.8833 67.739 28.9169C66.6289 21.2898 59.6233 16.6591 52.633 14.7822C45.2358 12.7957 36.2971 13.0781 29.6579 17.2232C28.0415 18.2319 26.5834 19.4846 25.4162 20.9893C23.7538 23.1326 21.9325 25.9199 22.7997 28.7029C23.0925 29.6424 24.5821 29.2415 24.2872 28.2956Z" fill="#E0B370"/>
    <path d="M33.7429 71.3489C35.339 76.3182 33.7429 80.5793 32.9448 83.9378" stroke="#E0B370" stroke-width="1.48106" stroke-linecap="round"/>
    <path d="M51.6955 51.1225C53.5563 48.6914 56.6864 49.5914 58.8645 51.0314C59.751 51.6169 60.576 50.1921 59.6954 49.6101C56.6303 47.5838 52.7035 47.1186 50.274 50.2916C49.6304 51.1322 51.0595 51.953 51.6955 51.1225Z" fill="#E0B370"/>
    <path d="M50.076 46.3379C52.4241 44.6625 55.5043 43.8885 57.8995 45.9351C58.7009 46.6197 59.8705 45.4606 59.0636 44.7709C56.1107 42.2482 52.2574 42.7674 49.245 44.9165C48.3902 45.5268 49.2113 46.9549 50.076 46.3379Z" fill="#E0B370"/>
    <path d="M52.7952 49.0211C52.7585 49.5631 52.7028 50.1068 52.7379 50.6487C52.8311 52.1077 53.8091 52.2372 54.0791 52.2954C54.3491 52.3536 54.651 52.3164 54.8657 52.1423C54.9569 52.068 55.0281 51.9728 55.0947 51.8757C55.74 50.936 55.9906 49.734 55.7743 48.615" fill="#E0B370"/>
    <path d="M52.3139 49.4285C52.2118 50.8558 52.1013 52.7446 53.874 53.0947C55.945 53.5029 56.3271 50.3008 56.1014 48.9127C56.0167 48.3913 55.2233 48.6124 55.3077 49.1316C55.4405 49.9477 55.2596 52.6742 53.8917 52.2541C52.758 51.9061 53.0727 50.3265 53.1368 49.4285C53.1747 48.9 52.3515 48.9021 52.3139 49.4285Z" fill="#E0B370"/>
    <path d="M39.5001 49C37.0711 45.827 32.2366 48.5515 29.1694 50.579C28.2895 51.1606 29.1129 52.5866 30.0002 52C32.1754 50.5626 36.2165 47.3981 38.0787 49.831C38.7139 50.6606 40.1441 49.8419 39.5001 49Z" fill="#E0B370"/>
    <path d="M40.8386 44.3012C37.8279 42.1531 33.9729 41.6334 31.0204 44.1557C30.2141 44.8449 31.3827 46.0043 32.1841 45.3198C34.5752 43.2772 37.6609 44.0481 40.0078 45.7226C40.8715 46.3389 41.6944 44.912 40.8386 44.3012Z" fill="#E0B370"/>
    <path d="M37.1869 49.0211C37.2236 49.5632 37.2793 50.1073 37.2443 50.6488C37.1511 52.1077 36.1729 52.2372 35.9031 52.2958C35.6331 52.3536 35.3311 52.3165 35.1168 52.1423C35.0253 52.068 34.9541 51.9728 34.8874 51.8762C34.242 50.9364 33.9915 49.7339 34.2079 48.615" fill="#E0B370"/>
    <path d="M36.8464 48.8139C36.9105 49.7119 37.2252 51.2914 36.0915 51.6395C34.7236 52.0595 34.5427 49.3332 34.6755 48.517C34.7598 47.9986 33.9669 47.7759 33.8822 48.2981C33.6557 49.6883 34.0374 52.8888 36.1092 52.48C37.8819 52.1304 37.7713 50.2417 37.6693 48.8139C37.6317 48.2888 36.8085 48.2846 36.8464 48.8139Z" fill="#E0B370"/>
    <path d="M35.9618 14.7641C34.8875 9.86526 40.7686 7.25382 44.6814 6.9134C47.5883 6.66051 50.2529 7.42729 52.6037 9.16467C54.7617 10.7593 57.0694 13.5223 55.3928 16.2378C54.9111 17.0175 56.1364 17.7322 56.616 16.9553C58.3379 14.1666 56.912 11.1923 54.7456 9.12103C52.1672 6.65595 48.7881 5.28676 45.2263 5.45592C40.1722 5.69581 33.2498 9.00675 34.5954 15.1418C34.7914 16.0349 36.1577 15.6571 35.9618 14.7641Z" fill="#E0B370"/>
    <path d="M23.5484 46.8994C26.6858 46.3861 28.3869 43.3395 29.7901 40.862C30.6904 39.2725 31.6057 37.6915 32.5357 36.119C33.7136 34.1277 34.8097 32.3093 37.3818 32.1507C38.3721 32.0898 38.3792 30.5601 37.3818 30.6217C33.8875 30.8372 32.4604 33.2001 30.8496 35.9374C29.8654 37.6104 28.9006 39.2944 27.9479 40.9855C26.8862 42.8695 25.4745 45.0423 23.1367 45.4249C22.1549 45.5855 22.5714 47.0593 23.5484 46.8994Z" fill="#E0B370"/>
    <path d="M56.9991 38.0288C58.9563 39.3602 60.5299 41.598 61.9166 43.4309C62.8205 44.6255 63.5567 46.1817 65.0222 46.831C65.9686 47.2504 66.799 45.9112 65.8462 45.4889C64.1928 44.7565 63.0661 42.2606 61.9601 40.9174C60.7275 39.4202 59.4609 37.8007 57.8231 36.687C56.967 36.1045 56.1505 37.4517 56.9991 38.0288Z" fill="#E0B370"/>
    <circle cx="32.981" cy="55.0574" r="0.740528" fill="#E0B370"/>
    <circle cx="37.3895" cy="58.0054" r="0.740528" fill="#E0B370"/>
    <circle cx="30.3539" cy="56.1682" r="1.11079" fill="#E0B370"/>
    <circle cx="33.6856" cy="60.241" r="0.740528" fill="#E0B370"/>
    <circle cx="0.740528" cy="0.740528" r="0.740528" transform="matrix(-1 0 0 1 35.9048 37.2847)" fill="#E0B370"/>
    <circle cx="0.740528" cy="0.740528" r="0.740528" transform="matrix(-1 0 0 1 38.1264 34.3225)" fill="#E0B370"/>
    <path d="M27.0192 47.6519C27.0192 67.6461 38.4974 75.7919 45.1622 75.7919C51.8269 75.7919 64.7861 62.8327 64.7861 48.7626" stroke="#E0B370" stroke-width="1.48106" stroke-linecap="round"/>
    <path d="M56.6411 71.3489C55.6537 74.905 55.6537 81.1222 56.6411 84.6784" stroke="#E0B370" stroke-width="1.48106" stroke-linecap="round"/>
    <path d="M25.5384 47.2817C22.947 46.9115 20.7249 55.0573 26.2794 58.0194" stroke="#E0B370" stroke-width="1.48106" stroke-linecap="round"/>
    <path d="M65.5279 47.2817C68.1193 46.9115 70.3414 55.0573 64.7869 58.0194" stroke="#E0B370" stroke-width="1.48106" stroke-linecap="round"/>
    <line x1="44.75" y1="2" x2="44.75" y2="89" stroke="#E0B370" stroke-width="1.5"/>
</svg>
