<svg width="89" height="89" viewBox="0 0 89 89" fill="none" xmlns="http://www.w3.org/2000/svg">
    <path d="M44.5 89C19.9624 89 0 69.0376 0 44.5C0 19.9624 19.9624 0 44.5 0C69.0376 0 89 19.9624 89 44.5C89 69.0376 69.0376 89 44.5 89ZM44.5 2.78125C21.4956 2.78125 2.78125 21.4956 2.78125 44.5C2.78125 67.5044 21.4956 86.2188 44.5 86.2188C67.5044 86.2188 86.2188 67.5044 86.2188 44.5C86.2188 21.4956 67.5044 2.78125 44.5 2.78125Z" fill="url(#paint0_linear_4078_1098)"/>
    <path d="M87.6094 45.8906H1.39062V48.6719H87.6094V45.8906Z" fill="url(#paint1_linear_4078_1098)"/>
    <path d="M72.3195 59.7974C68.5753 59.7974 66.684 59.0395 64.8518 58.3059C63.1935 57.6419 61.6221 57.0161 58.4167 57.0161C55.2113 57.0161 53.6399 57.6419 51.9781 58.3059C50.146 59.0395 48.2547 59.7974 44.5105 59.7974C40.7662 59.7974 38.875 59.0395 37.0428 58.3059C35.3845 57.6419 33.8131 57.0161 30.6077 57.0161C27.4023 57.0161 25.8274 57.6419 24.1691 58.3059C22.337 59.0395 20.4422 59.7974 16.698 59.7974C12.9537 59.7974 11.0555 59.0395 9.22337 58.3059C7.56157 57.6419 5.99366 57.0161 2.78479 57.0161V54.2349C6.52905 54.2349 8.42377 54.9928 10.2559 55.7263C11.9177 56.3903 13.4856 57.0161 16.698 57.0161C19.9103 57.0161 21.4783 56.3903 23.1366 55.7263C24.9687 54.9928 26.8635 54.2349 30.6077 54.2349C34.352 54.2349 36.2432 54.9928 38.0754 55.7263C39.7337 56.3903 41.3051 57.0161 44.5105 57.0161C47.7159 57.0161 49.2873 56.3903 50.9491 55.7263C52.7812 54.9928 54.6725 54.2349 58.4202 54.2349C62.1679 54.2349 64.0557 54.9928 65.8879 55.7263C67.5462 56.3903 69.1141 57.0161 72.323 57.0161C75.5318 57.0161 77.0963 56.3903 78.7581 55.7263C80.5902 54.9928 82.4815 54.2349 86.2223 54.2349V57.0161C83.0169 57.0161 81.449 57.6419 79.7906 58.3059C77.9585 59.0395 76.0672 59.7974 72.323 59.7974H72.3195Z" fill="url(#paint2_linear_4078_1098)"/>
    <path d="M45.8906 66.7505H43.1094C42.3411 66.7505 41.7188 66.1282 41.7188 65.3599C41.7188 64.5915 42.3411 63.9692 43.1094 63.9692H45.8906C46.6589 63.9692 47.2812 64.5915 47.2812 65.3599C47.2812 66.1282 46.6589 66.7505 45.8906 66.7505Z" fill="url(#paint3_linear_4078_1098)"/>
    <path d="M52.8437 73.7031H50.0624C49.2941 73.7031 48.6718 73.0808 48.6718 72.3125C48.6718 71.5442 49.2941 70.9219 50.0624 70.9219H52.8437C53.612 70.9219 54.2343 71.5442 54.2343 72.3125C54.2343 73.0808 53.612 73.7031 52.8437 73.7031Z" fill="url(#paint4_linear_4078_1098)"/>
    <path d="M59.7969 80.6562H57.0156C56.2473 80.6562 55.625 80.0339 55.625 79.2656C55.625 78.4973 56.2473 77.875 57.0156 77.875H59.7969C60.5652 77.875 61.1875 78.4973 61.1875 79.2656C61.1875 80.0339 60.5652 80.6562 59.7969 80.6562Z" fill="url(#paint5_linear_4078_1098)"/>
    <path d="M45.8906 80.6562H43.1094C42.3411 80.6562 41.7188 80.0339 41.7188 79.2656C41.7188 78.4973 42.3411 77.875 43.1094 77.875H45.8906C46.6589 77.875 47.2812 78.4973 47.2812 79.2656C47.2812 80.0339 46.6589 80.6562 45.8906 80.6562Z" fill="url(#paint6_linear_4078_1098)"/>
    <path d="M31.9843 80.6562H29.2031C28.4347 80.6562 27.8124 80.0339 27.8124 79.2656C27.8124 78.4973 28.4347 77.875 29.2031 77.875H31.9843C32.7526 77.875 33.3749 78.4973 33.3749 79.2656C33.3749 80.0339 32.7526 80.6562 31.9843 80.6562Z" fill="url(#paint7_linear_4078_1098)"/>
    <path d="M38.9375 73.7031H36.1562C35.3879 73.7031 34.7656 73.0808 34.7656 72.3125C34.7656 71.5442 35.3879 70.9219 36.1562 70.9219H38.9375C39.7058 70.9219 40.3281 71.5442 40.3281 72.3125C40.3281 73.0808 39.7058 73.7031 38.9375 73.7031Z" fill="url(#paint8_linear_4078_1098)"/>
    <path d="M25.0312 73.7031H22.25C21.4817 73.7031 20.8594 73.0808 20.8594 72.3125C20.8594 71.5442 21.4817 70.9219 22.25 70.9219H25.0312C25.7996 70.9219 26.4219 71.5442 26.4219 72.3125C26.4219 73.0808 25.7996 73.7031 25.0312 73.7031Z" fill="url(#paint9_linear_4078_1098)"/>
    <path d="M66.75 73.7031H63.9688C63.2004 73.7031 62.5781 73.0808 62.5781 72.3125C62.5781 71.5442 63.2004 70.9219 63.9688 70.9219H66.75C67.5183 70.9219 68.1406 71.5442 68.1406 72.3125C68.1406 73.0808 67.5183 73.7031 66.75 73.7031Z" fill="url(#paint10_linear_4078_1098)"/>
    <path d="M59.7969 66.7505H57.0156C56.2473 66.7505 55.625 66.1282 55.625 65.3599C55.625 64.5915 56.2473 63.9692 57.0156 63.9692H59.7969C60.5652 63.9692 61.1875 64.5915 61.1875 65.3599C61.1875 66.1282 60.5652 66.7505 59.7969 66.7505Z" fill="url(#paint11_linear_4078_1098)"/>
    <path d="M73.7031 66.7505H70.9219C70.1536 66.7505 69.5312 66.1282 69.5312 65.3599C69.5312 64.5915 70.1536 63.9692 70.9219 63.9692H73.7031C74.4714 63.9692 75.0938 64.5915 75.0938 65.3599C75.0938 66.1282 74.4714 66.7505 73.7031 66.7505Z" fill="url(#paint12_linear_4078_1098)"/>
    <path d="M31.9843 66.7505H29.2031C28.4347 66.7505 27.8124 66.1282 27.8124 65.3599C27.8124 64.5915 28.4347 63.9692 29.2031 63.9692H31.9843C32.7526 63.9692 33.3749 64.5915 33.3749 65.3599C33.3749 66.1282 32.7526 66.7505 31.9843 66.7505Z" fill="url(#paint13_linear_4078_1098)"/>
    <path d="M18.0781 66.7505H15.2969C14.5286 66.7505 13.9062 66.1282 13.9062 65.3599C13.9062 64.5915 14.5286 63.9692 15.2969 63.9692H18.0781C18.8464 63.9692 19.4688 64.5915 19.4688 65.3599C19.4688 66.1282 18.8464 66.7505 18.0781 66.7505Z" fill="url(#paint14_linear_4078_1098)"/>
    <path d="M27.8124 41.7192H22.2499C21.4816 41.7192 20.8593 41.0969 20.8593 40.3286V37.5474H18.0781C17.3097 37.5474 16.6874 36.9251 16.6874 36.1567V30.5942C16.6874 29.8259 17.3097 29.2036 18.0781 29.2036H20.8593V26.4224C20.8593 25.654 21.4816 25.0317 22.2499 25.0317H27.8124C28.5808 25.0317 29.2031 25.654 29.2031 26.4224V29.2036H31.9843C32.7526 29.2036 33.3749 29.8259 33.3749 30.5942V36.1567C33.3749 36.9251 32.7526 37.5474 31.9843 37.5474H29.2031V40.3286C29.2031 41.0969 28.5808 41.7192 27.8124 41.7192ZM23.6406 38.938H26.4218V36.1567C26.4218 35.3884 27.0441 34.7661 27.8124 34.7661H30.5937V31.9849H27.8124C27.0441 31.9849 26.4218 31.3626 26.4218 30.5942V27.813H23.6406V30.5942C23.6406 31.3626 23.0183 31.9849 22.2499 31.9849H19.4687V34.7661H22.2499C23.0183 34.7661 23.6406 35.3884 23.6406 36.1567V38.938Z" fill="url(#paint15_linear_4078_1098)"/>
    <path d="M59.7969 36.1562H51.4531C50.6848 36.1562 50.0625 35.5339 50.0625 34.7656V30.5938H45.8906C45.1223 30.5938 44.5 29.9714 44.5 29.2031V20.8594C44.5 20.0911 45.1223 19.4688 45.8906 19.4688H50.0625V15.2969C50.0625 14.5286 50.6848 13.9062 51.4531 13.9062H59.7969C60.5652 13.9062 61.1875 14.5286 61.1875 15.2969V19.4688H65.3594C66.1277 19.4688 66.75 20.0911 66.75 20.8594V29.2031C66.75 29.9714 66.1277 30.5938 65.3594 30.5938H61.1875V34.7656C61.1875 35.5339 60.5652 36.1562 59.7969 36.1562ZM52.8438 33.375H58.4062V29.2031C58.4062 28.4348 59.0286 27.8125 59.7969 27.8125H63.9688V22.25H59.7969C59.0286 22.25 58.4062 21.6277 58.4062 20.8594V16.6875H52.8438V20.8594C52.8438 21.6277 52.2214 22.25 51.4531 22.25H47.2812V27.8125H51.4531C52.2214 27.8125 52.8438 28.4348 52.8438 29.2031V33.375Z" fill="url(#paint16_linear_4078_1098)"/>
    <defs>
        <linearGradient id="paint0_linear_4078_1098" x1="-25.6935" y1="44.0654" x2="110.455" y2="44.0654" gradientUnits="userSpaceOnUse">
            <stop stop-color="#DCC2EC"/>
            <stop offset="0.501875" stop-color="#93819E"/>
            <stop offset="0.830053" stop-color="#DCC3ED"/>
        </linearGradient>
        <linearGradient id="paint1_linear_4078_1098" x1="-23.4999" y1="47.2677" x2="108.394" y2="47.2677" gradientUnits="userSpaceOnUse">
            <stop stop-color="#DCC2EC"/>
            <stop offset="0.501875" stop-color="#93819E"/>
            <stop offset="0.830053" stop-color="#DCC3ED"/>
        </linearGradient>
        <linearGradient id="paint2_linear_4078_1098" x1="-21.3028" y1="56.989" x2="106.337" y2="56.989" gradientUnits="userSpaceOnUse">
            <stop stop-color="#DCC2EC"/>
            <stop offset="0.501875" stop-color="#93819E"/>
            <stop offset="0.830053" stop-color="#DCC3ED"/>
        </linearGradient>
        <linearGradient id="paint3_linear_4078_1098" x1="40.1129" y1="65.3463" x2="48.6222" y2="65.3463" gradientUnits="userSpaceOnUse">
            <stop stop-color="#DCC2EC"/>
            <stop offset="0.501875" stop-color="#93819E"/>
            <stop offset="0.830053" stop-color="#DCC3ED"/>
        </linearGradient>
        <linearGradient id="paint4_linear_4078_1098" x1="47.066" y1="72.2989" x2="55.5753" y2="72.2989" gradientUnits="userSpaceOnUse">
            <stop stop-color="#DCC2EC"/>
            <stop offset="0.501875" stop-color="#93819E"/>
            <stop offset="0.830053" stop-color="#DCC3ED"/>
        </linearGradient>
        <linearGradient id="paint5_linear_4078_1098" x1="54.0192" y1="79.252" x2="62.5285" y2="79.252" gradientUnits="userSpaceOnUse">
            <stop stop-color="#DCC2EC"/>
            <stop offset="0.501875" stop-color="#93819E"/>
            <stop offset="0.830053" stop-color="#DCC3ED"/>
        </linearGradient>
        <linearGradient id="paint6_linear_4078_1098" x1="40.1129" y1="79.252" x2="48.6222" y2="79.252" gradientUnits="userSpaceOnUse">
            <stop stop-color="#DCC2EC"/>
            <stop offset="0.501875" stop-color="#93819E"/>
            <stop offset="0.830053" stop-color="#DCC3ED"/>
        </linearGradient>
        <linearGradient id="paint7_linear_4078_1098" x1="26.2066" y1="79.252" x2="34.7159" y2="79.252" gradientUnits="userSpaceOnUse">
            <stop stop-color="#DCC2EC"/>
            <stop offset="0.501875" stop-color="#93819E"/>
            <stop offset="0.830053" stop-color="#DCC3ED"/>
        </linearGradient>
        <linearGradient id="paint8_linear_4078_1098" x1="33.1598" y1="72.2989" x2="41.6691" y2="72.2989" gradientUnits="userSpaceOnUse">
            <stop stop-color="#DCC2EC"/>
            <stop offset="0.501875" stop-color="#93819E"/>
            <stop offset="0.830053" stop-color="#DCC3ED"/>
        </linearGradient>
        <linearGradient id="paint9_linear_4078_1098" x1="19.2535" y1="72.2989" x2="27.7628" y2="72.2989" gradientUnits="userSpaceOnUse">
            <stop stop-color="#DCC2EC"/>
            <stop offset="0.501875" stop-color="#93819E"/>
            <stop offset="0.830053" stop-color="#DCC3ED"/>
        </linearGradient>
        <linearGradient id="paint10_linear_4078_1098" x1="60.9723" y1="72.2989" x2="69.4816" y2="72.2989" gradientUnits="userSpaceOnUse">
            <stop stop-color="#DCC2EC"/>
            <stop offset="0.501875" stop-color="#93819E"/>
            <stop offset="0.830053" stop-color="#DCC3ED"/>
        </linearGradient>
        <linearGradient id="paint11_linear_4078_1098" x1="54.0192" y1="65.3463" x2="62.5285" y2="65.3463" gradientUnits="userSpaceOnUse">
            <stop stop-color="#DCC2EC"/>
            <stop offset="0.501875" stop-color="#93819E"/>
            <stop offset="0.830053" stop-color="#DCC3ED"/>
        </linearGradient>
        <linearGradient id="paint12_linear_4078_1098" x1="67.9254" y1="65.3463" x2="76.4347" y2="65.3463" gradientUnits="userSpaceOnUse">
            <stop stop-color="#DCC2EC"/>
            <stop offset="0.501875" stop-color="#93819E"/>
            <stop offset="0.830053" stop-color="#DCC3ED"/>
        </linearGradient>
        <linearGradient id="paint13_linear_4078_1098" x1="26.2066" y1="65.3463" x2="34.7159" y2="65.3463" gradientUnits="userSpaceOnUse">
            <stop stop-color="#DCC2EC"/>
            <stop offset="0.501875" stop-color="#93819E"/>
            <stop offset="0.830053" stop-color="#DCC3ED"/>
        </linearGradient>
        <linearGradient id="paint14_linear_4078_1098" x1="12.3004" y1="65.3463" x2="20.8097" y2="65.3463" gradientUnits="userSpaceOnUse">
            <stop stop-color="#DCC2EC"/>
            <stop offset="0.501875" stop-color="#93819E"/>
            <stop offset="0.830053" stop-color="#DCC3ED"/>
        </linearGradient>
        <linearGradient id="paint15_linear_4078_1098" x1="11.8699" y1="33.294" x2="37.3978" y2="33.294" gradientUnits="userSpaceOnUse">
            <stop stop-color="#DCC2EC"/>
            <stop offset="0.501875" stop-color="#93819E"/>
            <stop offset="0.830053" stop-color="#DCC3ED"/>
        </linearGradient>
        <linearGradient id="paint16_linear_4078_1098" x1="38.0766" y1="24.9226" x2="72.1138" y2="24.9226" gradientUnits="userSpaceOnUse">
            <stop stop-color="#DCC2EC"/>
            <stop offset="0.501875" stop-color="#93819E"/>
            <stop offset="0.830053" stop-color="#DCC3ED"/>
        </linearGradient>
    </defs>
</svg>
