<svg width="89" height="90" viewBox="0 0 89 90" fill="none" xmlns="http://www.w3.org/2000/svg">
    <circle cx="44.4317" cy="44.4317" r="44.4317" fill="white"/>
    <circle cx="44.4317" cy="44.6485" r="43.6911" stroke="#E0B370" stroke-width="1.48106"/>
    <path d="M45.5317 67.3787C44.7591 67.41 43.2138 67.3787 42.2502 67.0443C41.1659 66.6681 39.796 64.764 40.01 63.662C40.3813 61.7441 43.6969 61.3844 45.1409 61.4771C46.5849 61.5697 47.8876 61.9332 48.9353 62.7069C49.3269 62.996 49.5276 63.2762 49.584 63.7249C49.7546 65.0928 49.2109 65.9239 47.9119 66.6394C47.1463 67.0611 46.4356 67.3493 45.5317 67.3787Z" fill="#F8EEDE"/>
    <path d="M38.5054 62.9448C39.8305 63.6854 41.487 64.4259 44.7999 64.4259C47.4502 64.4259 50.1005 63.4385 51.0943 62.9448" stroke="#E0B370" stroke-width="1.18484" stroke-linecap="round"/>
    <path d="M41.4664 66.6475C42.168 67.0177 43.0449 67.388 44.7988 67.388C46.2019 67.388 47.605 66.8943 48.1312 66.6475" stroke="#E0B370" stroke-width="1.18484" stroke-linecap="round"/>
    <path d="M42.2094 57.0205C42.755 57.3908 43.4371 57.761 44.8012 57.761C45.8925 57.761 46.9838 57.2674 47.393 57.0205" stroke="#E0B370" stroke-width="1.18484" stroke-linecap="round"/>
    <path d="M77.0001 42C76.9999 43.4795 77 43.1154 77 44.4795C76.9999 46.4795 76.9999 46.4795 76.9999 47.4795" stroke="#E0B370" stroke-width="1.18484" stroke-linecap="round"/>
    <path d="M79.9999 44.9795C78.3798 44.9795 78.7786 44.9795 77.2849 44.9795C75.0949 44.9795 75.0949 44.9795 73.9999 44.9795" stroke="#E0B370" stroke-width="1.18484" stroke-linecap="round"/>
    <path d="M71.3576 33C71.3574 34.1626 71.3575 33.8765 71.3575 34.9485C71.3574 36.5202 71.3574 36.5202 71.3574 37.306" stroke="#E0B370" stroke-width="0.931095" stroke-linecap="round"/>
    <path d="M73.7148 35.3413C72.4418 35.3413 72.7551 35.3413 71.5813 35.3413C69.8603 35.3413 69.8603 35.3413 68.9998 35.3413" stroke="#E0B370" stroke-width="0.931095" stroke-linecap="round"/>
    <path d="M79.2624 36C79.2623 36.6226 79.2624 36.4694 79.2624 37.0435C79.2623 37.8851 79.2623 37.8851 79.2623 38.306" stroke="#E0B370" stroke-width="0.49863" stroke-linecap="round"/>
    <path d="M80.525 37.2539C79.8433 37.2539 80.011 37.2539 79.3824 37.2539C78.4608 37.2539 78.4608 37.2539 78 37.2539" stroke="#E0B370" stroke-width="0.49863" stroke-linecap="round"/>
    <path d="M74.6425 52C74.6423 52.81 74.6424 52.6107 74.6424 53.3575C74.6423 54.4525 74.6423 54.4525 74.6423 55" stroke="#E0B370" stroke-width="0.648697" stroke-linecap="round"/>
    <path d="M76.2849 53.6313C75.398 53.6313 75.6162 53.6313 74.7984 53.6313C73.5994 53.6313 73.5994 53.6313 72.9999 53.6313" stroke="#E0B370" stroke-width="0.648697" stroke-linecap="round"/>
    <path d="M41.0091 7.84839C42.0064 7.32685 43.0742 6.85983 44.2125 6.71375C46.5192 6.4211 48.7754 7.48246 50.6091 8.78165C52.0493 9.80695 53.4394 11.2163 53.3086 12.8724C53.2883 13.1287 53.2282 13.3939 53.067 13.5953C52.6839 14.0713 51.9287 14.0897 51.2939 14.0619C49.1987 13.9796 47.1136 13.8974 45.0282 13.8241C43.2049 13.7508 40.8981 14.016 39.1453 13.5768C37.8058 13.2473 37.5437 11.8384 37.9268 10.7038C38.2086 9.85244 39.8908 7.84839 41.0091 7.84839Z" fill="#F8EEDE"/>
    <path d="M23.3652 30.6399C23.8718 29.3511 22.916 27.6968 23.8428 26.6363C24.5215 25.8594 27.0058 25.5761 27.3594 24.6257C27.6747 23.7846 27.5982 22.843 27.8467 21.9839C28.3912 20.1193 28.5061 18.3554 30.2738 17.4137C32.7488 16.0886 37.0773 15.421 39.8101 14.6809C42.5432 13.9404 45.5149 13.7852 48.1904 14.7084C49.3561 15.1103 50.4456 15.7047 51.5158 16.2988C53.3217 17.2948 55.1185 18.2911 56.9245 19.2874C58.9979 20.4302 61.1192 21.6184 62.6195 23.4007C63.508 24.4518 64.1484 25.7042 64.4827 27.0113C64.7119 27.9162 64.7981 28.8484 64.8935 29.7717C65.0562 31.5448 65.2282 33.3088 65.3906 35.082C65.5815 37.1205 65.7728 39.1495 65.8969 41.188C65.9352 41.8092 65.8779 42.5773 65.2951 42.8514C65.0753 42.9519 64.8175 42.9612 64.569 42.9428C62.7151 42.833 61.0907 41.6724 59.8867 40.3105C58.6825 38.9484 57.7747 37.3763 56.5994 35.9961C54.2199 33.2175 50.866 31.3896 47.5597 29.6711C46.5278 29.1316 45.4767 28.5922 44.3299 28.3272C42.4092 27.8796 40.3933 28.2359 38.4918 28.7294C35.3765 29.5338 32.1277 30.8318 30.0829 33.3271C28.554 35.2009 25.5627 43.0708 22.7538 39.177C21.5402 37.5319 22.6579 32.4314 23.3652 30.6399Z" fill="#F8EEDE"/>
    <path d="M24.5894 38.0028C26.3467 33.4035 30.4911 29.6102 36.2293 29.6054C37.2885 29.6047 37.29 28.1392 36.2293 28.1401C29.7413 28.1456 24.9952 32.3979 23.0021 37.6133C22.6603 38.5078 24.2495 38.8921 24.5894 38.0028Z" fill="#E0B370"/>
    <path d="M40.7988 28.3305C39.067 26.6666 38.8566 24.6912 40.2512 22.7388C41.0912 21.5629 42.4179 20.3589 43.8785 19.9996C44.8464 19.7617 44.4362 18.3011 43.4662 18.5394C41.3911 19.0497 39.4883 20.8436 38.4938 22.6375C37.1503 25.0623 37.7325 27.5093 39.7017 29.4013C40.4138 30.0855 41.5117 29.0157 40.7988 28.3305Z" fill="#E0B370"/>
    <path d="M42.2414 28.6403C41.5819 23.9622 47.555 20.6103 51.2923 20.0293C52.2428 19.8814 51.839 18.3761 50.8937 18.5233C46.172 19.2569 40.0036 23.4313 40.7963 29.0554C40.9361 30.0465 42.3802 29.6252 42.2414 28.6403Z" fill="#E0B370"/>
    <path d="M44.9312 29.1832C48.0199 25.5295 53.3092 24.6515 57.773 25.5067C62.1103 26.3376 66.5397 29.1123 66.6368 34.0714C66.6558 35.0475 68.1442 35.0507 68.1252 34.0714C67.8985 22.4941 50.0958 20.7556 43.8786 28.1094C43.2561 28.8462 44.3045 29.9249 44.9312 29.1832Z" fill="#E0B370"/>
    <path d="M52.0574 30.6981C59.3556 28.8913 67.2333 36.7781 68.0572 43.6884C68.1749 44.6735 69.7214 44.6854 69.6022 43.6884C68.6564 35.7575 60.0104 27.1217 51.6468 29.1921C50.6812 29.4311 51.09 30.9374 52.0574 30.6981Z" fill="#E0B370"/>
    <path d="M21.5375 45.4518C19.2755 40.1234 19.2196 34.2354 22.8233 29.6028C25.6906 25.9166 29.6308 23.9525 34.1015 23.7897C35.0344 23.7555 35.0385 22.1821 34.1015 22.2164C29.0528 22.4003 24.528 24.7079 21.4074 29.0091C17.6688 34.1611 17.8349 40.4796 20.2827 46.2461C20.6726 47.165 21.9258 46.3663 21.5375 45.4518Z" fill="#E0B370"/>
    <path d="M23.9262 27.2968C23.1925 24.9428 25.1805 22.1473 26.7047 20.3922C27.7459 19.1937 28.9915 18.1928 30.3544 17.3775C33.3143 15.606 36.7613 14.6707 40.1818 14.3266C47.0406 13.6365 54.7505 14.9951 60.3223 19.2381C63.2968 21.5027 65.3505 24.6146 65.8904 28.3254C66.0318 29.2979 67.5182 28.8845 67.3779 27.9181C66.2679 20.291 59.2622 15.6603 52.272 13.7834C44.8747 11.7969 35.9361 12.0793 29.2969 16.2244C27.6805 17.2331 26.2224 18.4858 25.0552 19.9905C23.3928 22.1339 21.5715 24.9211 22.4387 27.7042C22.7315 28.6436 24.2211 28.2428 23.9262 27.2968Z" fill="#E0B370"/>
    <path d="M33.3782 70.3501C34.9743 75.3194 33.3782 79.5805 32.5801 82.9391" stroke="#E0B370" stroke-width="1.48106" stroke-linecap="round"/>
    <path d="M51.3344 47.7396C53.1953 50.1707 56.3253 49.2706 58.5034 47.8307C59.3899 47.2452 60.215 48.6699 59.3343 49.252C56.2692 51.2783 52.3424 51.7435 49.913 48.5704C49.2694 47.7298 50.6984 46.9091 51.3344 47.7396Z" fill="#E0B370"/>
    <path d="M49.7114 45.3388C52.0595 43.6635 55.1397 42.8895 57.535 44.936C58.3364 45.6206 59.506 44.4616 58.6991 43.7719C55.7462 41.2492 51.8929 41.7684 48.8805 43.9175C48.0256 44.5278 48.8468 45.9559 49.7114 45.3388Z" fill="#E0B370"/>
    <path d="M39.4164 48.8044C36.9873 51.9773 33.0622 51.5134 29.9951 49.486C29.1152 48.9043 29.9386 47.4783 30.8259 48.0649C33.0011 49.5024 36.1328 50.4063 37.9949 47.9734C38.6301 47.1438 40.0604 47.9625 39.4164 48.8044Z" fill="#E0B370"/>
    <path d="M40.4776 43.3024C37.4669 41.1544 33.6119 40.6347 30.6594 43.1569C29.853 43.8461 31.0217 45.0055 31.8231 44.321C34.2142 42.2784 37.2999 43.0493 39.6467 44.7238C40.5105 45.3401 41.3334 43.9132 40.4776 43.3024Z" fill="#E0B370"/>
    <path d="M35.5987 13.7653C34.5244 8.86648 40.4055 6.25505 44.3183 5.91462C47.2252 5.66174 49.8898 6.42851 52.2406 8.16589C54.3986 9.76055 56.7063 12.5235 55.0297 15.239C54.548 16.0187 55.7733 16.7334 56.2529 15.9565C57.9748 13.1678 56.5489 10.1935 54.3825 8.12225C51.8041 5.65717 48.425 4.28798 44.8632 4.45714C39.8091 4.69703 32.8867 8.00797 34.2323 14.1431C34.4283 15.0361 35.7946 14.6584 35.5987 13.7653Z" fill="#E0B370"/>
    <path d="M23.1874 45.9006C26.3248 45.3874 28.0259 42.3408 29.4291 39.8632C30.3294 38.2737 31.2447 36.6927 32.1747 35.1202C33.3526 33.129 34.4487 31.3105 37.0208 31.1519C38.0111 31.091 38.0182 29.5613 37.0208 29.6229C33.5265 29.8384 32.0994 32.2013 30.4886 34.9386C29.5043 36.6117 28.5395 38.2957 27.5869 39.9867C26.5252 41.8707 25.1135 44.0436 22.7757 44.4261C21.7939 44.5868 22.2104 46.0605 23.1874 45.9006Z" fill="#E0B370"/>
    <path d="M56.636 37.03C58.5932 38.3614 60.1668 40.5992 61.5536 42.4321C62.4574 43.6267 63.1936 45.1829 64.6591 45.8322C65.6055 46.2517 66.4359 44.9124 65.4831 44.4901C63.8298 43.7577 62.703 41.2618 61.597 39.9186C60.3644 38.4214 59.0978 36.8019 57.46 35.6882C56.6039 35.1058 55.7874 36.4529 56.636 37.03Z" fill="#E0B370"/>
    <path d="M26.6582 46.6531C26.6582 66.6473 38.1364 74.7931 44.8011 74.7931C51.4659 74.7931 64.4251 61.8339 64.4251 47.7639" stroke="#E0B370" stroke-width="1.48106" stroke-linecap="round"/>
    <path d="M56.278 70.3501C55.2906 73.9062 55.2906 80.1234 56.278 83.6796" stroke="#E0B370" stroke-width="1.48106" stroke-linecap="round"/>
    <path d="M25.1754 46.283C22.5841 45.9127 20.362 54.0585 25.9165 57.0206" stroke="#E0B370" stroke-width="1.48106" stroke-linecap="round"/>
    <path d="M65.165 46.283C67.7564 45.9127 69.9784 54.0585 64.424 57.0206" stroke="#E0B370" stroke-width="1.48106" stroke-linecap="round"/>
    <path d="M29.7241 52.3067C30.9593 50.65 33.018 52.3067 35.0767 51.644C37.6618 50.8119 39.6057 52.6299 39.6057 54.626C39.6057 55.9513 37.1353 56.2826 33.8415 56.9453C30.5476 57.6079 28.4889 53.9633 29.7241 52.3067Z" fill="#FFE4E4"/>
    <path d="M59.4841 52.7063C58.2489 51.0497 56.1902 52.7063 54.1316 52.0437C51.5465 51.2116 49.6025 53.0296 49.6025 55.0256C49.6025 56.3509 52.0729 56.6823 55.3668 57.3449C58.6606 58.0076 60.7193 54.363 59.4841 52.7063Z" fill="#FFE4E4"/>
</svg>
