<svg width="89" height="89" viewBox="0 0 89 89" fill="none" xmlns="http://www.w3.org/2000/svg">
    <path d="M44.5 89C19.9624 89 0 69.0376 0 44.5C0 19.9624 19.9624 0 44.5 0C69.0376 0 89 19.9624 89 44.5C89 69.0376 69.0376 89 44.5 89ZM44.5 2.78125C21.4956 2.78125 2.78125 21.4956 2.78125 44.5C2.78125 67.5044 21.4956 86.2188 44.5 86.2188C67.5044 86.2188 86.2188 67.5044 86.2188 44.5C86.2188 21.4956 67.5044 2.78125 44.5 2.78125Z" fill="url(#paint0_linear_4078_1074)"/>
    <path d="M87.6094 45.8901H1.39067V48.6714H87.6094V45.8901Z" fill="url(#paint1_linear_4078_1074)"/>
    <path d="M72.3195 59.7974C68.5752 59.7974 66.684 59.0395 64.8518 58.3059C63.1935 57.6419 61.6221 57.0161 58.4167 57.0161C55.2113 57.0161 53.6399 57.6419 51.9781 58.3059C50.146 59.0395 48.2547 59.7974 44.5105 59.7974C40.7662 59.7974 38.875 59.0395 37.0428 58.3059C35.3845 57.6419 33.8131 57.0161 30.6077 57.0161C27.4023 57.0161 25.8274 57.6419 24.1691 58.3059C22.337 59.0395 20.4422 59.7974 16.698 59.7974C12.9537 59.7974 11.0555 59.0395 9.22336 58.3059C7.56156 57.6419 5.99363 57.0161 2.78476 57.0161V54.2349C6.52902 54.2349 8.42374 54.9928 10.2559 55.7263C11.9177 56.3903 13.4856 57.0161 16.698 57.0161C19.9103 57.0161 21.4783 56.3903 23.1366 55.7263C24.9687 54.9928 26.8634 54.2349 30.6077 54.2349C34.352 54.2349 36.2432 54.9928 38.0753 55.7263C39.7337 56.3903 41.3051 57.0161 44.5105 57.0161C47.7159 57.0161 49.2873 56.3903 50.9491 55.7263C52.7812 54.9928 54.6725 54.2349 58.4202 54.2349C62.1679 54.2349 64.0557 54.9928 65.8878 55.7263C67.5462 56.3903 69.1141 57.0161 72.323 57.0161C75.5318 57.0161 77.0963 56.3903 78.7581 55.7263C80.5902 54.9928 82.4815 54.2349 86.2223 54.2349V57.0161C83.0169 57.0161 81.4489 57.6419 79.7906 58.3059C77.9585 59.0395 76.0672 59.7974 72.323 59.7974H72.3195Z" fill="url(#paint2_linear_4078_1074)"/>
    <path d="M45.8907 66.7505H43.1094C42.3411 66.7505 41.7188 66.1282 41.7188 65.3599C41.7188 64.5915 42.3411 63.9692 43.1094 63.9692H45.8907C46.659 63.9692 47.2813 64.5915 47.2813 65.3599C47.2813 66.1282 46.659 66.7505 45.8907 66.7505Z" fill="url(#paint3_linear_4078_1074)"/>
    <path d="M52.8438 73.7031H50.0625C49.2942 73.7031 48.6719 73.0808 48.6719 72.3125C48.6719 71.5442 49.2942 70.9219 50.0625 70.9219H52.8438C53.6121 70.9219 54.2344 71.5442 54.2344 72.3125C54.2344 73.0808 53.6121 73.7031 52.8438 73.7031Z" fill="url(#paint4_linear_4078_1074)"/>
    <path d="M59.7969 80.6562H57.0157C56.2473 80.6562 55.625 80.0339 55.625 79.2656C55.625 78.4973 56.2473 77.875 57.0157 77.875H59.7969C60.5652 77.875 61.1875 78.4973 61.1875 79.2656C61.1875 80.0339 60.5652 80.6562 59.7969 80.6562Z" fill="url(#paint5_linear_4078_1074)"/>
    <path d="M45.8907 80.6562H43.1094C42.3411 80.6562 41.7188 80.0339 41.7188 79.2656C41.7188 78.4973 42.3411 77.875 43.1094 77.875H45.8907C46.659 77.875 47.2813 78.4973 47.2813 79.2656C47.2813 80.0339 46.659 80.6562 45.8907 80.6562Z" fill="url(#paint6_linear_4078_1074)"/>
    <path d="M31.9844 80.6562H29.2032C28.4348 80.6562 27.8125 80.0339 27.8125 79.2656C27.8125 78.4973 28.4348 77.875 29.2032 77.875H31.9844C32.7527 77.875 33.375 78.4973 33.375 79.2656C33.375 80.0339 32.7527 80.6562 31.9844 80.6562Z" fill="url(#paint7_linear_4078_1074)"/>
    <path d="M38.9375 73.7031H36.1563C35.388 73.7031 34.7657 73.0808 34.7657 72.3125C34.7657 71.5442 35.388 70.9219 36.1563 70.9219H38.9375C39.7059 70.9219 40.3282 71.5442 40.3282 72.3125C40.3282 73.0808 39.7059 73.7031 38.9375 73.7031Z" fill="url(#paint8_linear_4078_1074)"/>
    <path d="M25.0313 73.7031H22.25C21.4817 73.7031 20.8594 73.0808 20.8594 72.3125C20.8594 71.5442 21.4817 70.9219 22.25 70.9219H25.0313C25.7996 70.9219 26.4219 71.5442 26.4219 72.3125C26.4219 73.0808 25.7996 73.7031 25.0313 73.7031Z" fill="url(#paint9_linear_4078_1074)"/>
    <path d="M66.75 73.7031H63.9688C63.2005 73.7031 62.5782 73.0808 62.5782 72.3125C62.5782 71.5442 63.2005 70.9219 63.9688 70.9219H66.75C67.5184 70.9219 68.1407 71.5442 68.1407 72.3125C68.1407 73.0808 67.5184 73.7031 66.75 73.7031Z" fill="url(#paint10_linear_4078_1074)"/>
    <path d="M59.7969 66.7505H57.0157C56.2473 66.7505 55.625 66.1282 55.625 65.3599C55.625 64.5915 56.2473 63.9692 57.0157 63.9692H59.7969C60.5652 63.9692 61.1875 64.5915 61.1875 65.3599C61.1875 66.1282 60.5652 66.7505 59.7969 66.7505Z" fill="url(#paint11_linear_4078_1074)"/>
    <path d="M73.7032 66.7505H70.9219C70.1536 66.7505 69.5313 66.1282 69.5313 65.3599C69.5313 64.5915 70.1536 63.9692 70.9219 63.9692H73.7032C74.4715 63.9692 75.0938 64.5915 75.0938 65.3599C75.0938 66.1282 74.4715 66.7505 73.7032 66.7505Z" fill="url(#paint12_linear_4078_1074)"/>
    <path d="M31.9844 66.7505H29.2032C28.4348 66.7505 27.8125 66.1282 27.8125 65.3599C27.8125 64.5915 28.4348 63.9692 29.2032 63.9692H31.9844C32.7527 63.9692 33.375 64.5915 33.375 65.3599C33.375 66.1282 32.7527 66.7505 31.9844 66.7505Z" fill="url(#paint13_linear_4078_1074)"/>
    <path d="M18.0782 66.7505H15.2969C14.5286 66.7505 13.9063 66.1282 13.9063 65.3599C13.9063 64.5915 14.5286 63.9692 15.2969 63.9692H18.0782C18.8465 63.9692 19.4688 64.5915 19.4688 65.3599C19.4688 66.1282 18.8465 66.7505 18.0782 66.7505Z" fill="url(#paint14_linear_4078_1074)"/>
    <path d="M31.9844 41.7188C25.8518 41.7188 20.8594 36.7264 20.8594 30.5938C20.8594 25.2329 29.2657 12.5156 31.9844 12.5156C34.7031 12.5156 43.1094 25.2329 43.1094 30.5938C43.1094 36.7264 38.1171 41.7188 31.9844 41.7188ZM31.9844 15.5194C29.8985 17.4106 23.6407 26.3106 23.6407 30.5938C23.6407 35.1932 27.3849 38.9375 31.9844 38.9375C36.5839 38.9375 40.3282 35.1932 40.3282 30.5938C40.3282 26.3106 34.0704 17.4106 31.9844 15.5194Z" fill="url(#paint15_linear_4078_1074)"/>
    <path d="M59.7969 43.1094C55.1974 43.1094 51.4532 39.3651 51.4532 34.7656C51.4532 30.9901 57.0817 20.8594 59.7969 20.8594C62.5121 20.8594 68.1407 30.9901 68.1407 34.7656C68.1407 39.3651 64.3964 43.1094 59.7969 43.1094ZM59.7969 23.8631C58.2116 25.4102 54.2344 31.7723 54.2344 34.7691C54.2344 37.7659 56.7306 40.3316 59.7969 40.3316C62.8632 40.3316 65.3594 37.8354 65.3594 34.7691C65.3594 31.7028 61.3822 25.4137 59.7969 23.8631Z" fill="url(#paint16_linear_4078_1074)"/>
    <path d="M31.9844 36.1562C31.2161 36.1562 30.5938 35.5339 30.5938 34.7656C30.5938 33.9973 31.2161 33.375 31.9844 33.375C33.5176 33.375 34.7657 32.1269 34.7657 30.5938C34.7657 29.8254 35.388 29.2031 36.1563 29.2031C36.9246 29.2031 37.5469 29.8254 37.5469 30.5938C37.5469 33.6601 35.0507 36.1562 31.9844 36.1562Z" fill="url(#paint17_linear_4078_1074)"/>
    <path d="M59.7969 38.938C59.0286 38.938 58.4063 38.3157 58.4063 37.5474C58.4063 36.779 59.0286 36.1567 59.7969 36.1567C60.5652 36.1567 61.1875 35.5344 61.1875 34.7661C61.1875 33.9978 61.8098 33.3755 62.5782 33.3755C63.3465 33.3755 63.9688 33.9978 63.9688 34.7661C63.9688 37.0676 62.0984 38.938 59.7969 38.938Z" fill="url(#paint18_linear_4078_1074)"/>
    <defs>
        <linearGradient id="paint0_linear_4078_1074" x1="-25.6935" y1="44.0654" x2="110.455" y2="44.0654" gradientUnits="userSpaceOnUse">
            <stop stop-color="#DCC2EC"/>
            <stop offset="0.501875" stop-color="#93819E"/>
            <stop offset="0.830053" stop-color="#DCC3ED"/>
        </linearGradient>
        <linearGradient id="paint1_linear_4078_1074" x1="-23.4999" y1="47.2672" x2="108.394" y2="47.2672" gradientUnits="userSpaceOnUse">
            <stop stop-color="#DCC2EC"/>
            <stop offset="0.501875" stop-color="#93819E"/>
            <stop offset="0.830053" stop-color="#DCC3ED"/>
        </linearGradient>
        <linearGradient id="paint2_linear_4078_1074" x1="-21.3029" y1="56.989" x2="106.337" y2="56.989" gradientUnits="userSpaceOnUse">
            <stop stop-color="#DCC2EC"/>
            <stop offset="0.501875" stop-color="#93819E"/>
            <stop offset="0.830053" stop-color="#DCC3ED"/>
        </linearGradient>
        <linearGradient id="paint3_linear_4078_1074" x1="40.1129" y1="65.3463" x2="48.6222" y2="65.3463" gradientUnits="userSpaceOnUse">
            <stop stop-color="#DCC2EC"/>
            <stop offset="0.501875" stop-color="#93819E"/>
            <stop offset="0.830053" stop-color="#DCC3ED"/>
        </linearGradient>
        <linearGradient id="paint4_linear_4078_1074" x1="47.0661" y1="72.2989" x2="55.5754" y2="72.2989" gradientUnits="userSpaceOnUse">
            <stop stop-color="#DCC2EC"/>
            <stop offset="0.501875" stop-color="#93819E"/>
            <stop offset="0.830053" stop-color="#DCC3ED"/>
        </linearGradient>
        <linearGradient id="paint5_linear_4078_1074" x1="54.0192" y1="79.252" x2="62.5285" y2="79.252" gradientUnits="userSpaceOnUse">
            <stop stop-color="#DCC2EC"/>
            <stop offset="0.501875" stop-color="#93819E"/>
            <stop offset="0.830053" stop-color="#DCC3ED"/>
        </linearGradient>
        <linearGradient id="paint6_linear_4078_1074" x1="40.1129" y1="79.252" x2="48.6222" y2="79.252" gradientUnits="userSpaceOnUse">
            <stop stop-color="#DCC2EC"/>
            <stop offset="0.501875" stop-color="#93819E"/>
            <stop offset="0.830053" stop-color="#DCC3ED"/>
        </linearGradient>
        <linearGradient id="paint7_linear_4078_1074" x1="26.2067" y1="79.252" x2="34.716" y2="79.252" gradientUnits="userSpaceOnUse">
            <stop stop-color="#DCC2EC"/>
            <stop offset="0.501875" stop-color="#93819E"/>
            <stop offset="0.830053" stop-color="#DCC3ED"/>
        </linearGradient>
        <linearGradient id="paint8_linear_4078_1074" x1="33.1598" y1="72.2989" x2="41.6691" y2="72.2989" gradientUnits="userSpaceOnUse">
            <stop stop-color="#DCC2EC"/>
            <stop offset="0.501875" stop-color="#93819E"/>
            <stop offset="0.830053" stop-color="#DCC3ED"/>
        </linearGradient>
        <linearGradient id="paint9_linear_4078_1074" x1="19.2536" y1="72.2989" x2="27.7629" y2="72.2989" gradientUnits="userSpaceOnUse">
            <stop stop-color="#DCC2EC"/>
            <stop offset="0.501875" stop-color="#93819E"/>
            <stop offset="0.830053" stop-color="#DCC3ED"/>
        </linearGradient>
        <linearGradient id="paint10_linear_4078_1074" x1="60.9723" y1="72.2989" x2="69.4816" y2="72.2989" gradientUnits="userSpaceOnUse">
            <stop stop-color="#DCC2EC"/>
            <stop offset="0.501875" stop-color="#93819E"/>
            <stop offset="0.830053" stop-color="#DCC3ED"/>
        </linearGradient>
        <linearGradient id="paint11_linear_4078_1074" x1="54.0192" y1="65.3463" x2="62.5285" y2="65.3463" gradientUnits="userSpaceOnUse">
            <stop stop-color="#DCC2EC"/>
            <stop offset="0.501875" stop-color="#93819E"/>
            <stop offset="0.830053" stop-color="#DCC3ED"/>
        </linearGradient>
        <linearGradient id="paint12_linear_4078_1074" x1="67.9254" y1="65.3463" x2="76.4347" y2="65.3463" gradientUnits="userSpaceOnUse">
            <stop stop-color="#DCC2EC"/>
            <stop offset="0.501875" stop-color="#93819E"/>
            <stop offset="0.830053" stop-color="#DCC3ED"/>
        </linearGradient>
        <linearGradient id="paint13_linear_4078_1074" x1="26.2067" y1="65.3463" x2="34.716" y2="65.3463" gradientUnits="userSpaceOnUse">
            <stop stop-color="#DCC2EC"/>
            <stop offset="0.501875" stop-color="#93819E"/>
            <stop offset="0.830053" stop-color="#DCC3ED"/>
        </linearGradient>
        <linearGradient id="paint14_linear_4078_1074" x1="12.3004" y1="65.3463" x2="20.8097" y2="65.3463" gradientUnits="userSpaceOnUse">
            <stop stop-color="#DCC2EC"/>
            <stop offset="0.501875" stop-color="#93819E"/>
            <stop offset="0.830053" stop-color="#DCC3ED"/>
        </linearGradient>
        <linearGradient id="paint15_linear_4078_1074" x1="14.4361" y1="26.9746" x2="48.4733" y2="26.9746" gradientUnits="userSpaceOnUse">
            <stop stop-color="#DCC2EC"/>
            <stop offset="0.501875" stop-color="#93819E"/>
            <stop offset="0.830053" stop-color="#DCC3ED"/>
        </linearGradient>
        <linearGradient id="paint16_linear_4078_1074" x1="46.6356" y1="31.8757" x2="72.1635" y2="31.8757" gradientUnits="userSpaceOnUse">
            <stop stop-color="#DCC2EC"/>
            <stop offset="0.501875" stop-color="#93819E"/>
            <stop offset="0.830053" stop-color="#DCC3ED"/>
        </linearGradient>
        <linearGradient id="paint17_linear_4078_1074" x1="28.5865" y1="32.6457" x2="39.2231" y2="32.6457" gradientUnits="userSpaceOnUse">
            <stop stop-color="#DCC2EC"/>
            <stop offset="0.501875" stop-color="#93819E"/>
            <stop offset="0.830053" stop-color="#DCC3ED"/>
        </linearGradient>
        <linearGradient id="paint18_linear_4078_1074" x1="56.8004" y1="36.1296" x2="65.3097" y2="36.1296" gradientUnits="userSpaceOnUse">
            <stop stop-color="#DCC2EC"/>
            <stop offset="0.501875" stop-color="#93819E"/>
            <stop offset="0.830053" stop-color="#DCC3ED"/>
        </linearGradient>
    </defs>
</svg>
