<svg width="151" height="150" viewBox="0 0 151 150" fill="none" xmlns="http://www.w3.org/2000/svg">
<rect width="150" height="150" transform="translate(0.291504)" fill="white"/>
<path d="M75.2915 106.751C94.4838 106.751 110.042 91.1923 110.042 72C110.042 52.8078 94.4838 37.2494 75.2915 37.2494C56.0993 37.2494 40.5409 52.8078 40.5409 72C40.5409 91.1923 56.0993 106.751 75.2915 106.751Z" stroke="#221D1E" stroke-width="1.3" stroke-miterlimit="10"/>
<path d="M74.4375 51.3884C73.3283 52.5045 73.3456 53.9821 74.1082 54.8938C74.4895 55.3654 75.0615 55.6955 75.6854 55.8684C76.4654 56.1042 77.4186 56.1042 78.0599 55.6169C78.3199 55.4125 78.5105 55.161 78.6492 54.8781C79.1518 53.9192 79.1518 52.7717 78.6318 51.8128C78.1119 50.8696 76.1707 49.8165 74.4375 51.3884Z" stroke="#221D1E" stroke-width="1.3" stroke-miterlimit="10"/>
<path d="M66.0994 65.8498C67.9484 65.0368 75.4493 59.8045 77.1016 64.1057C78.9374 68.8922 68.8138 84.2874 70.8727 89.8737C72.4987 94.2798 81.7568 91.7751 83.6976 89.8081" stroke="#221D1E" stroke-width="1.3" stroke-miterlimit="10"/>
</svg>
