<?xml version="1.0" encoding="utf-8"?>
<!-- Generator: Adobe Illustrator 25.4.1, SVG Export Plug-In . SVG Version: 6.00 Build 0)  -->
<svg version="1.1" id="Слой_1" xmlns="http://www.w3.org/2000/svg" xmlns:xlink="http://www.w3.org/1999/xlink" x="0px" y="0px"
	 viewBox="0 0 151 150" style="enable-background:new 0 0 151 150;" xml:space="preserve">
<style type="text/css">
	.st0{fill:none;}
	.st1{fill:#FFFFFF;}
	.st2{fill:none;stroke:#221D1E;}
	.st3{fill:none;stroke:#221D1E;stroke-width:0.6;stroke-dasharray:1.2,1.2;}
	.st4{clip-path:url(#SVGID_00000150068478207481291280000012440202494886344872_);}
	.st5{fill:none;stroke:#221D1E;stroke-width:0.5;stroke-dasharray:1.22,1.22;}
	.st6{fill:none;stroke:#292929;stroke-width:0.5;stroke-dasharray:1.22,1.22;}
	.st7{fill:none;stroke:#292929;stroke-width:0.5;}
	.st8{fill:none;stroke:#292929;stroke-width:0.5;stroke-dasharray:0.22,1.22;}
</style>
<rect x="0.3" y="0" class="st0" width="150" height="150"/>
<rect x="0.3" y="0" class="st1" width="150" height="150"/>
<path class="st2" d="M63.1,92.5c1.5-1.3,3-2.8,6.6-3.5c3.2-0.6,12.6-2.9,19.7-4.2c12.6-2.4,16.4-5.8,21.9-7.7
	c2.7-0.9,4.9-0.3,7.7,0.8c2.8,1.1,6.4,1.8,7.1,4.2c0.7,2.4-1.9,6.9-1.9,6.9s-0.9,6-8.3,10.1c-7.4,4.1-20.3,6.4-20.3,6.4l-13,4.4
	l-6.2,3.1l-8.7,1.3l-2.9,2.7l-3.1-1.5l-2.2-5 M112.7,82.1c-0.6,0.5-2.4,2-3.3,2.7 M109.4,84.8c-3.1,2.2-11.1,7.4-19,9.1
	s-16,3.5-20.1,5.5c-7.4,3.7-11.6,3.2-13.9,0.6c-3.3-3.8-16-25.6-19.8-32.8c-4.5-5.8-6.8-10.8-7.7-13c-1.3-2.6-0.1-14.2,0.9-15.8
	c1.2-1.1,6.8-4.4,17-4.4c7.1,0,36.4-9.1,41.1-8.3c3.7,0.7,8.4,7.3,10.5,10.6c0.6,1.6,4.1,7.3,10.5,14.6C115.3,58.2,126,70,129,76.6
	c3,6.6,0.9,11.1-1.6,15.8c-1.4,2.8-3.4,5.4-5.8,7.7c-2.3,2.2-5.8,3.7-5.8,3.7l-47.2,17.1c-15.8,9-22.4-2.2-22.4-2.2L39.2,104
	l-8.5-15L23,74.3c-1.4-2.7-2.3-5.7-2.2-8.8c0.1-5.1,1-11.5,3.8-13.5c1.9-1.5,3.7-0.1,3.9,0.2 M109.4,84.8c0,0,7.3,0.4,7.4,1.6
	c0.1,1.2-2.2,3.8-7.4,7.1c-5.1,3.2-33.9,11.1-40.3,12.9c-6.4,1.8-9.7,4.2-9.7,4.2 M60.5,113.9c-6.3,0-1.2-3.3-1.2-3.3"/>
<path class="st3" d="M123.2,69.9c-8.7-1.7-20,4.2-29.2,7.3c-9.1,3.1-25,4.4-25,4.4s-7.7-0.4-11.8,5.9C53.3,93.9,55.8,99,55.8,99
	 M32.2,39.7C39,50.3,47.9,72,57.4,81.6 M24.8,56.9c6.8,10.6,19.4,33.2,27,44.3"/>
<path class="st3" d="M46.4,118.9c0,0-1.2-4.6,0.9-9.3c2.1-4.7,5.8-5.8,7.9-5.8c2.1,0,4.8-0.3,7.1-1.7"/>
<g>
	<defs>
		<rect id="SVGID_1_" x="-169.8" y="0" width="150" height="150"/>
	</defs>
	<clipPath id="SVGID_00000173857372798917651740000016199710486428038046_">
		<use xlink:href="#SVGID_1_"  style="overflow:visible;"/>
	</clipPath>
	<g style="clip-path:url(#SVGID_00000173857372798917651740000016199710486428038046_);">
		<rect x="-169.8" y="0" class="st1" width="150" height="150"/>
		<path class="st5" d="M-128.9,52.2c4-2,14.1-2.8,18.5-2c5.5,1,30-10,41.5-8.5"/>
		<path class="st6" d="M-120.9,68.2c11-3,18.5-2,23-2c6.7,0,31.5-10.4,41.5-10.4 M-120.4,34.2c2.3,2.8,8,10.6,12,19s15,21.8,19,26.5
			 M-97.9,28.7c5.5,3.5,12.1,13,14.5,19.5c3.7,10,13,20,18,24.5 M-121.9,69.7c-1.7,2.7-4.2,9.5-1,15.5 M-130.9,52.2
			c-1.3,2.2-3.7,8.3-2.5,15.5 M-125.4,90.2c-2.3,0-6.7,2.8-5.5,14 M-136.9,71.7c-1.3,1.3-4,6-4,14 M-134.9,71.2
			c0.8,0,2.7,0.1,3.5,0.5 M-122.9,90.2h2.5"/>
		<path class="st2" d="M-107,92.5c1.5-1.3,3-2.8,6.6-3.5c3.2-0.6,12.6-2.9,19.7-4.2c12.6-2.4,16.4-5.8,21.9-7.7
			c2.7-0.9,4.9-0.3,7.7,0.8c2.8,1.1,6.4,1.8,7.1,4.2C-43.4,84.6-46,89-46,89s-0.9,6-8.3,10.1c-7.4,4.1-20.3,6.4-20.3,6.4l-13,4.4
			l-6.2,3.1l-8.7,1.3l-2.9,2.7l-3.1-1.5l-2.2-5 M-57.4,82.1c-0.6,0.5-2.4,2-3.3,2.7 M-60.7,84.8c-3.1,2.2-11.1,7.4-19,9.1
			s-16,3.5-20.1,5.5c-7.4,3.7-11.6,3.2-13.9,0.6c-3.3-3.8-16-25.6-19.8-32.8c-4.5-5.8-6.8-10.8-7.7-13c-1.3-2.6-0.1-14.2,0.9-15.8
			c1.2-1.1,6.8-4.4,17-4.4c7.1,0,36.4-9.1,41.1-8.3c3.7,0.7,8.4,7.3,10.5,10.6c0.6,1.6,4.1,7.3,10.5,14.6
			c6.4,7.3,17.1,19.1,20.1,25.7c3,6.6,0.9,11.1-1.6,15.8c-1.4,2.8-3.4,5.4-5.8,7.7c-2.3,2.2-5.8,3.7-5.8,3.7l-47.2,17.1
			c-15.8,9-22.4-2.2-22.4-2.2l-7.1-14.6l-8.5-15l-7.7-14.7c-1.4-2.7-2.3-5.7-2.2-8.8c0.1-5.1,1-11.5,3.8-13.5
			c1.9-1.5,3.7-0.1,3.9,0.2 M-60.7,84.8c0,0,7.3,0.4,7.4,1.6c0.1,1.2-2.2,3.8-7.4,7.1c-5.1,3.2-33.9,11.1-40.3,12.9
			c-6.4,1.8-9.7,4.2-9.7,4.2 M-109.6,113.9c-6.3,0-1.2-3.3-1.2-3.3"/>
		<path class="st3" d="M-46.8,69.9c-8.7-1.7-20,4.2-29.2,7.3c-9.1,3.1-25,4.4-25,4.4s-7.7-0.4-11.8,5.9c-4.1,6.3-1.6,11.4-1.6,11.4
			 M-137.9,39.7c6.8,10.6,15.8,32.3,25.2,41.9 M-145.3,56.9c6.8,10.6,19.4,33.2,27,44.3"/>
		<path class="st3" d="M-123.7,118.9c0,0-1.2-4.6,0.9-9.3c2.1-4.7,5.8-5.8,7.9-5.8c2.1,0,4.8-0.3,7.1-1.7"/>
	</g>
</g>
<path class="st6" d="M67.1,63"/>
<g>
	<path class="st7" d="M57.3,48.6c0,0,4.3,8.2,7.9,14c1.6,2.6,3,4.7,3.9,5.4c0,0,2.9-0.5,6.4-1.4c3.3-0.8,7.2-1.8,9.9-3
		c5.3-2.3,11.6-3,11.6-3s-7-8.1-11.2-19.5c0,0-8.6,2.8-12.6,4.5C69.1,47.4,62.9,49.2,57.3,48.6z"/>
	<g>
		<path class="st8" d="M57.6,48.8c0,0,8.8,4.2,20.7,6.2c8.8,1.5,18.5,5.5,18.5,5.5"/>
		<path class="st8" d="M65,48.2c0,0,8,2.5,13.1,3.4c6,1.1,15.6,4.5,15.6,4.5"/>
		<path class="st8" d="M70.9,46.6c0,0,5.8,1.4,10.3,2.1c4.6,0.7,9,2,9,2"/>
		<path class="st8" d="M77.4,44.2c0,0,4.2,1.2,5.9,1.4c1.7,0.1,4.8,0.9,4.8,0.9"/>
		<path class="st8" d="M60.4,54.4c0,0,6.7,2.4,11.1,3.4c4.4,1,14.4,3.1,18.4,4.4"/>
		<path class="st8" d="M63.2,59.2c0,0,6.7,1.9,10.2,2.6s10,2.7,10,2.7"/>
		<path class="st8" d="M65.4,63c0,0,4.7,0.5,12,3.1"/>
	</g>
	<g>
		<path class="st8" d="M85.7,41.5c0,0-3,7.4-9.1,14.4c-4.5,5.2-8.1,12.8-8.1,12.8"/>
		<path class="st8" d="M78.5,43.8c0,0-3.8,6.5-6.4,9.5c-3,3.6-6.5,9.9-6.5,9.9"/>
		<path class="st8" d="M71.1,46.5c0,0-1.7,3.7-4.1,6.4c-2.4,2.6-4.3,5.7-4.3,5.7"/>
		<path class="st8" d="M65,48.2c0,0-1.6,2.7-2.5,3.5s-2.1,2.6-2.1,2.6"/>
		<path class="st8" d="M88.4,47.3c-3.2,5.4-2.5,4.4-5.1,7.9c-2.1,2.8-7,8.9-8.7,11.8"/>
		<path class="st8" d="M90.5,51c0,0-3.9,6.2-5.6,8.3c-1.7,2.2-4.4,6.1-4.4,6.1"/>
		<path class="st8" d="M93.3,55.6c-1.7,2.8-1.9,3.1-5.7,7.3"/>
	</g>
</g>
</svg>
