<svg width="151" height="150" viewBox="0 0 151 150" fill="none" xmlns="http://www.w3.org/2000/svg">
<g clip-path="url(#clip0)">
<rect width="150" height="150" transform="translate(0.306152)" fill="white"/>
<path d="M41.2253 52.1597C45.2253 50.1596 55.3253 49.3596 59.7253 50.1596C65.2253 51.1596 89.7253 40.1597 101.225 41.6597" stroke="#221D1E" stroke-width="0.5" stroke-dasharray="1.22 1.22"/>
<path d="M49.2253 68.1598C60.2253 65.1597 67.7253 66.1597 72.2253 66.1597C78.8961 66.1597 103.725 55.8006 113.725 55.8006M49.7253 34.1597C52.0586 36.9931 57.7253 44.7597 61.7253 53.1597C65.7253 61.5597 76.7253 74.9931 80.7253 79.6597M72.2253 28.6597C77.7253 32.1597 84.3253 41.647 86.7253 48.1597C90.4104 58.1597 99.7253 68.1598 104.725 72.6597M48.2253 69.6597C46.5586 72.3264 44.0253 79.1597 47.2253 85.1597M39.2253 52.1597C37.892 54.3264 35.5253 60.4597 36.7253 67.6597M44.7253 90.1597C42.392 90.1597 38.0253 92.9597 39.2253 104.16M33.2253 71.6597C31.892 72.9931 29.2253 77.6597 29.2253 85.6597M35.2253 71.1597C36.0587 71.1597 37.9253 71.2597 38.7253 71.6597M47.2253 90.1597H49.7253" stroke="#292929" stroke-width="0.5" stroke-dasharray="1.22 1.22"/>
<path d="M63.0884 92.4963C64.6242 91.1565 66.062 89.6534 69.6709 89.0292C72.9111 88.4687 82.2598 86.1455 89.3461 84.8095C101.976 82.4283 105.711 78.9675 111.239 77.1136C113.976 76.1959 116.162 76.8209 118.933 77.9479C121.704 79.0749 125.328 79.709 126.005 82.137C126.681 84.5651 124.143 89.0292 124.143 89.0292C124.143 89.0292 123.253 95.0406 115.827 99.1083C108.402 103.176 95.5037 105.521 95.5037 105.521L82.4805 109.948L76.2669 113.055L67.6102 114.394L64.6978 117.125L61.6034 115.668L59.3589 110.622M112.68 82.137C112.12 82.5939 110.324 84.1369 109.381 84.8095M109.381 84.8095C106.235 87.0534 98.2436 92.2065 90.338 93.8808C82.4324 95.5551 74.3006 97.3452 70.2304 99.3803C62.7831 103.104 58.6156 102.608 56.3542 99.9598C53.0965 96.1446 40.3472 74.3464 36.5743 67.2049C32.0527 61.4478 29.7995 56.4289 28.8648 54.1723C27.6123 51.5894 28.8082 39.9549 29.7995 38.3689C30.9863 37.3171 36.5743 33.9801 46.7918 33.9802C53.8611 33.9802 83.2382 24.891 87.9255 25.7122C91.6753 26.3691 96.3709 33.0428 98.4238 36.3275C99.0642 37.9698 102.484 43.6473 108.904 50.9381C115.324 58.2288 126.022 70.0216 129.035 76.619C132.049 83.2165 129.889 87.6753 127.464 92.4217C126.034 95.2212 124.077 97.7732 121.676 100.08C119.345 102.32 115.827 103.775 115.827 103.775L68.6587 120.831C52.8926 129.857 46.2502 118.623 46.2502 118.623L39.1885 104.028L30.6829 89.0292L22.981 74.3183C21.5588 71.6018 20.6659 68.6168 20.7433 65.5515C20.8728 60.4276 21.7373 54.0972 24.497 52.0275C26.436 50.5732 28.1693 51.9046 28.4365 52.2748M109.381 84.8095C109.381 84.8095 116.662 85.166 116.767 86.4132C116.873 87.6605 114.521 90.2588 109.381 93.4927C104.242 96.7267 75.5107 104.62 69.0695 106.425C62.6283 108.231 59.3589 110.622 59.3589 110.622M60.539 113.906C54.2698 113.906 59.3589 110.622 59.3589 110.622" stroke="#221D1E"/>
<path d="M123.248 69.9457C114.528 68.2847 103.213 74.1215 94.0831 77.2417C84.9536 80.3619 69.1118 81.6287 69.1118 81.6287C69.1118 81.6287 61.4289 81.2287 57.3508 87.549C53.2728 93.8694 55.7507 98.9897 55.7507 98.9897M32.1773 39.7273C38.9507 50.2959 47.942 72.0093 57.3508 81.6287M24.7622 56.9451C31.5355 67.5138 44.1438 90.113 51.7766 101.261" stroke="#221D1E" stroke-width="0.6" stroke-dasharray="1.2 1.2"/>
<path d="M46.4115 118.869C46.4115 118.869 45.2346 114.272 47.3329 109.561C49.4313 104.85 53.1497 103.798 55.2791 103.798C57.4084 103.798 60.0394 103.477 62.3512 102.139" stroke="#221D1E" stroke-width="0.6" stroke-dasharray="1.2 1.2"/>
</g>
<defs>
<clipPath id="clip0">
<rect width="150" height="150" fill="white" transform="translate(0.306152)"/>
</clipPath>
</defs>
</svg>
