<svg width="699" height="373" viewbox="0 0 699 373" fill="none" xmlns="http://www.w3.org/2000/svg">
<path d="M15.5353 107.259C-0.0647125 118.959 0.635288 137.459 2.53529 153.059C4.43529 168.659 49.8353 280.859 49.8353 280.859L70.2353 329.459C70.2353 329.459 83.2353 368.159 123.035 371.059C155.135 373.959 191.735 346.359 209.235 338.559C209.235 338.559 272.235 309.159 365.735 287.059C472.052 261.897 546.718 261.166 587.665 260.766C587.889 260.763 588.113 260.761 588.335 260.759C680.835 259.859 685.035 268.259 692.835 242.659C695.935 232.459 703.435 219.659 689.835 202.159C687.335 198.959 684.635 195.659 681.835 192.259" fill="#CCDEF5"/>
<path d="M15.5353 107.259C-0.0647125 118.959 0.635288 137.459 2.53529 153.059C4.43529 168.659 49.8353 280.859 49.8353 280.859L70.2353 329.459C70.2353 329.459 83.2353 368.159 123.035 371.059C155.135 373.959 191.735 346.359 209.235 338.559C209.235 338.559 272.235 309.159 365.735 287.059C472.052 261.897 546.718 261.166 587.665 260.766L588.335 260.759C680.835 259.859 685.035 268.259 692.835 242.659C695.935 232.459 703.435 219.659 689.835 202.159C687.335 198.959 684.635 195.659 681.835 192.259C661.453 168.994 616.582 110.143 600.155 60.8633C579.622 -0.736488 539.377 -11.4138 475.313 16.5115C411.249 44.4367 308.583 59.2206 178.813 71.5406C74.9963 81.3966 26.7043 99.4595 15.5353 107.259Z" fill="#CCDEF5"/>
<path d="M10.5249 134.919C8.38636 125.89 8.48084 117.212 8.79539 114.001C7.44381 115.462 4.46231 119.728 3.34897 125.099C0.467073 136.037 2.53021 151.98 3.92202 158.584L15.3022 192.315L35.279 243.977L53.1271 288.679C57.3571 299.349 67.3891 323.802 73.6769 336.246C79.9647 348.691 89.8876 357.806 94.063 360.808C97.7473 363.291 108.456 368.782 121.818 370.878C135.179 372.974 156.149 366.184 164.964 362.527L203.69 341.241L250.691 321.755L306.766 303.17L372.346 285.486C397.453 280.737 447.766 271.191 448.159 270.994C448.552 270.798 493.898 265.564 516.522 262.971L583.166 260.515C607.264 260.897 658.635 261.546 671.342 261.088C684.049 260.629 688.753 254.893 689.518 252.082L693.202 242.994L697.705 226.21C697.104 228.421 694.626 234.332 689.518 240.292C683.295 247.039 653.046 246.91 638.699 246.002C621.599 245.554 581.09 244.927 555.855 246.002C524.312 247.347 489.712 250.159 463.426 253.949C437.628 256.517 410.364 262.874 363.294 272.655C316.223 282.436 283.335 296.252 250.691 306.277C224.576 314.298 194.461 330.622 182.668 337.781C173.122 342.943 150.122 353.417 134.497 354.024C114.965 354.783 108.741 350.988 97.66 343.196C88.7949 336.962 81.9909 323.698 79.697 317.845L72.7653 302.156L54.9771 260.737C47.7493 242.343 32.0472 202.335 27.0613 189.454C20.8289 173.354 13.198 146.206 10.5249 134.919Z" fill="#BDD5F2"/>
<path d="M588.335 260.759C680.835 259.859 685.035 268.259 692.835 242.659C695.935 232.459 703.435 219.659 689.835 202.159C687.335 198.959 684.635 195.659 681.835 192.259C661.453 168.994 616.582 110.143 600.155 60.8633C579.622 -0.736488 539.377 -11.4138 475.313 16.5115C411.249 44.4367 308.583 59.2206 178.813 71.5406C74.9963 81.3966 26.7043 99.4595 15.5353 107.259C-0.0647125 118.959 0.635288 137.459 2.53529 153.059C4.43529 168.659 49.8353 280.859 49.8353 280.859L70.2353 329.459C70.2353 329.459 83.2353 368.159 123.035 371.059C155.135 373.959 191.735 346.359 209.235 338.559C209.235 338.559 272.235 309.159 365.735 287.059C472.052 261.897 546.718 261.166 587.665 260.766M588.335 260.759L587.665 260.766M588.335 260.759C588.113 260.761 587.889 260.763 587.665 260.766" stroke="#9D9D9D" stroke-width="2.27" stroke-miterlimit="10"/>
<path d="M10.2354 112.059C8.71035 114.722 7.83514 117.758 8.54512 124.059C14.0736 173.128 79.3353 317.159 79.3353 317.159C79.3353 317.159 90.1353 351.959 126.035 353.959C157.435 356.859 197.435 328.059 214.535 320.459C214.535 320.459 273.735 293.459 365.235 271.859C469.835 247.159 543.035 245.959 583.035 245.559C673.435 244.659 688.935 252.659 696.635 227.659" stroke="#9D9D9D" stroke-width="1.42" stroke-miterlimit="10"/>
</svg>
