<svg width="184" height="228" viewBox="0 0 184 228" fill="none" xmlns="http://www.w3.org/2000/svg">
<path d="M66.755 4.11932C66.4532 4.21453 67.0567 4.01804 66.755 4.11932V4.11932ZM66.755 4.11932C66.7081 4.13148 66.81 4.09907 66.755 4.11932V4.11932Z" fill="#877F75"/>
<path d="M92.5424 159.107H92.3467C83.4478 159.107 74.8649 157.769 66.757 155.32C58.0395 152.272 49.9601 146.19 44.9571 138.578C36.7004 126.469 29.2102 103.067 28.8922 79.7589V79.6893C29.2062 56.3857 36.7024 32.9776 44.9571 20.8645C49.952 13.2602 58.0354 7.15557 66.757 4.11347C74.8669 1.64624 83.6333 0.349205 92.5424 0.349205C101.441 0.349205 110.214 1.64624 118.324 4.11347C127.047 7.14944 135.129 13.2582 140.14 20.8624C148.386 32.9776 155.871 56.3877 156.18 79.6873V79.7568C155.871 103.071 148.386 126.469 140.14 138.576C135.129 146.19 126.852 152.299 118.14 155.331C109.899 157.843 101.333 159.114 92.7198 159.103L92.5424 159.107ZM151.279 79.7303C151.571 62.1732 146.234 40.8642 141.094 29.5346C135.402 16.5622 126.709 8.69197 113.947 5.18343C106.917 3.39622 99.6921 2.5 92.4405 2.51571C85.0298 2.51571 77.7659 3.4179 70.8935 5.18547C58.1333 8.69606 49.4362 16.5662 43.7523 29.5366C38.6107 40.8683 33.2795 62.1773 33.5629 79.7323C33.2774 97.2852 38.6107 118.594 43.7523 129.932C49.4362 142.896 58.1353 150.767 70.8935 154.269C77.9353 156.066 85.1744 156.969 92.4405 156.955C99.8552 156.955 107.07 156.041 113.947 154.269C126.713 150.764 135.406 142.894 141.094 129.932C146.234 118.59 151.571 97.2812 151.279 79.7303ZM101.295 43.5892C100.434 42.151 101.14 43.4317 100.255 41.7603L101.295 43.5892Z" fill="#877F75"/>
<path d="M94.5813 152.804C94.514 149.592 97.6516 147.968 99.6291 145.844C100.153 145.327 100.359 144.304 99.9879 143.463C99.7474 142.935 99.413 142.667 98.9604 142.567C98.2734 142.407 97.6964 142.51 97.25 142.89C96.6384 143.459 96.4671 144.212 96.4997 145.008L94.3 145.139C94.1206 143.915 94.4121 142.735 95.1603 141.814C96.1919 140.722 97.7291 140.419 99.2194 140.511C100.408 140.711 101.806 141.438 102.3 142.686C102.934 144.042 102.726 145.791 101.715 146.945C100.416 148.324 98.7362 149.083 97.6557 150.638L103.197 150.314C103.24 150.981 103.285 151.669 103.321 152.305L94.5813 152.804ZM74.9323 138.913L74.8956 139.02L71.2892 150.122L68.9916 149.359L71.4625 141.779L71.5032 141.65C70.5838 141.325 69.4747 141.01 68.5797 140.697L69.0466 139.253C70.2066 139.553 71.4054 139.756 72.4288 138.909C72.7937 138.61 72.8569 138.547 73.0588 138.322L74.9323 138.913ZM118.742 145.073C118.444 143.976 117.851 143.101 116.642 142.737L115.935 142.598C116.656 142.086 117.315 141.053 117.08 140.053C116.913 138.905 116.104 138.183 115.058 137.79C114.153 137.504 113.095 137.555 112.088 137.829C111.072 138.062 110.128 138.514 109.443 139.191C108.722 140.016 108.316 141.037 108.716 142.137C108.954 143.125 110.022 143.725 110.885 143.856L110.342 144.308C109.423 145.204 109.305 146.243 109.551 147.358C109.806 148.575 110.799 149.543 111.99 149.899C112.897 150.118 113.973 150.104 115.04 149.856C116.102 149.588 117.06 149.109 117.747 148.471C118.646 147.589 119.072 146.294 118.742 145.073ZM111.136 141.902C110.844 141.432 110.844 140.613 111.348 140.128C111.641 139.83 112.043 139.609 112.495 139.502C112.93 139.384 113.407 139.375 113.812 139.523C114.455 139.721 114.828 140.441 114.815 141C114.809 141.194 114.764 141.385 114.682 141.561C114.6 141.737 114.483 141.894 114.338 142.023C114.026 142.291 113.652 142.475 113.25 142.559C112.832 142.671 112.414 142.688 112.039 142.6C111.848 142.553 111.669 142.467 111.514 142.346C111.358 142.226 111.229 142.075 111.136 141.902ZM115.977 147.25C115.676 147.589 115.154 147.864 114.583 147.984C114.01 148.144 113.429 148.152 113.013 147.968C112.748 147.878 112.508 147.726 112.312 147.525C112.117 147.324 111.972 147.078 111.89 146.81C111.676 146.055 111.89 145.239 112.534 144.795C112.822 144.6 113.227 144.412 113.655 144.283C114.1 144.208 114.552 144.177 114.877 144.224C115.672 144.322 116.238 144.926 116.397 145.693C116.457 145.967 116.449 146.252 116.376 146.523C116.303 146.793 116.166 147.043 115.977 147.25ZM88.8566 149.234C88.8995 148.113 88.5896 147.084 87.5335 146.393L86.9117 146.037C87.7476 145.765 88.6895 144.977 88.7527 143.948C88.9341 142.796 88.3592 141.867 87.4989 141.178C86.7119 140.638 85.6967 140.374 84.6467 140.327C83.609 140.243 82.5673 140.388 81.7192 140.83C80.7773 141.405 80.0923 142.272 80.1371 143.426C80.0882 144.455 80.918 145.353 81.7192 145.72L81.0566 145.992C79.9088 146.564 79.4847 147.536 79.4032 148.655C79.2829 149.924 79.9496 151.129 80.9832 151.816C81.7559 152.323 82.8078 152.626 83.9006 152.704C84.977 152.771 86.0575 152.577 86.9015 152.18C88.0208 151.618 88.8036 150.494 88.8566 149.234ZM82.5306 143.94C82.4103 143.404 82.659 142.618 83.2726 142.313C83.6151 142.109 84.0942 142.021 84.5407 142.058C84.9994 142.086 85.454 142.221 85.7884 142.469C86.3613 142.849 86.4938 143.655 86.3103 144.175C86.186 144.594 85.8944 144.83 85.554 145.018C85.1726 145.172 84.761 145.235 84.3511 145.204C83.9436 145.189 83.5464 145.072 83.1952 144.864C83.0247 144.767 82.877 144.634 82.7623 144.475C82.6477 144.315 82.5686 144.133 82.5306 143.94ZM85.556 150.49C85.1768 150.726 84.5957 150.832 84.0106 150.793C83.4317 150.75 82.8771 150.582 82.5183 150.323C82.2961 150.15 82.1169 149.928 81.9952 149.674C81.8734 149.421 81.8124 149.142 81.817 148.86C81.8292 148.064 82.2778 147.373 83.026 147.133C83.3542 147.035 83.7884 146.965 84.2451 146.994C84.6936 147.035 85.1381 147.137 85.4316 147.278C86.1554 147.616 86.5142 148.363 86.4347 149.152C86.3898 149.654 86.0738 150.165 85.556 150.49ZM140.919 36.6703L130.153 41.3204L129.194 39.0782L139.957 34.4138L140.919 36.6703ZM100.371 18.0003L97.6108 5.89536L100.143 6.15518C100.661 9.15227 101.189 12.5442 101.794 15.0667C102.901 12.7161 104.092 9.49392 105.174 6.67072L107.7 6.91826L102.602 18.2233L100.371 18.0003ZM54.5881 24.9192L51.9684 29.6205L49.7605 28.3889L52.7594 22.9962L51.0795 22.0388L46.8819 29.5857L57.1059 35.3221L61.2995 27.7731L59.6095 26.8198L56.6044 32.2207L53.74 30.6106L56.3618 25.9114L54.5881 24.9192ZM48.3885 74.8899C47.8258 73.6215 46.4721 73.1223 45.0715 73.1898C43.8931 73.3412 42.992 74.1391 42.4946 75.3625C42.3131 74.6464 41.6465 73.7545 40.517 73.6154C39.3468 73.4722 38.2133 73.7954 37.6527 74.7897C36.8841 75.7798 37.2225 80.1578 37.143 82.6742L48.7778 82.6639L48.7819 81.817C48.7147 77.1607 48.9899 76.6002 48.3885 74.8899ZM41.777 80.2131H38.8922C38.9799 77.5249 38.5477 76.0765 40.1847 75.9046C41.1592 75.8351 41.4181 76.0417 41.6485 76.6411C41.834 77.2405 41.777 77.8788 41.777 80.2131ZM46.835 80.211L43.5404 80.2131C43.5996 77.6047 43.1898 76.056 44.7412 75.7573C45.2896 75.61 45.9461 75.6673 46.3498 76.0744C47.0083 76.725 46.8085 77.7908 46.835 80.211ZM141.007 43.2046L142.872 42.7156L145.237 51.9115L143.369 52.3923L142.495 48.9942L133.084 51.4307L132.491 49.0453L141.889 46.6129L141.007 43.2046ZM81.8884 18.6714C83.1952 18.4688 84.4143 17.9287 85.2441 16.9529C85.9515 16.1469 86.0534 15.3797 85.9474 14.5204L84.6019 6.09994L82.2186 6.48455L83.5642 14.8887C83.6355 15.5249 83.1992 16.1734 82.6406 16.5008C82.3187 16.7019 81.9556 16.8271 81.5785 16.867C81.2103 16.9421 80.8304 16.9393 80.4633 16.8588C79.8293 16.7299 79.2258 16.3044 79.0852 15.617L77.7294 7.21695L75.3503 7.6036L76.7019 16.0016C76.865 16.8567 77.2034 17.5585 78.1372 18.1006C79.2095 18.7614 80.5469 18.8903 81.8578 18.6632L81.8884 18.6714ZM146.423 59.8615L134.244 57.4106L134.583 59.798L137.235 60.2849L137.816 64.4911L135.406 65.6818L135.724 68.0753L146.766 62.3676L146.423 59.8615ZM139.655 63.5705L139.255 60.6573L144.315 61.4306H144.324L144.315 61.4388L139.655 63.5705ZM144.662 80.0617L144.892 80.0269L145.143 79.9594L145.349 79.8776C146.12 79.4623 146.291 78.4291 146.256 77.5944C146.226 76.7434 145.959 75.8862 145.178 75.5671C144.762 75.4586 144.244 75.4218 143.965 75.8453C142.64 77.8133 143.551 81.9745 140.154 82.7048C138.668 82.9565 137.355 82.3018 136.593 81.1091C135.531 79.229 135.451 76.2626 136.656 74.4194C137.382 73.464 138.366 72.8768 139.555 72.8646L139.714 75.1211C138.966 75.2131 138.25 75.5916 137.916 76.3179C137.427 77.4901 137.535 79.3641 138.409 80.0576C138.719 80.4136 139.455 80.3685 139.83 80.1537C141.2 79.1799 140.915 76.7495 141.608 75.1211C141.818 74.4357 142.466 73.7279 143.094 73.374C144.307 72.8564 145.838 73.0425 146.813 73.9959C148.368 75.477 148.438 78.3739 147.708 80.1312C147.31 81.3505 145.979 82.2323 144.629 82.308L144.478 80.0617H144.662ZM50.3599 62.3082C50.5801 60.9887 50.4475 59.6405 49.7829 58.5747C49.2488 57.6377 48.5516 57.3042 47.6871 57.1283L39.3142 55.8169L38.9309 58.2044L47.3141 59.5423C47.9461 59.6303 48.4231 60.2788 48.5536 60.9028C48.6413 61.2587 48.6413 61.6434 48.576 62.0361C48.5288 62.4141 48.4031 62.7779 48.207 63.1041C47.8849 63.6523 47.2998 64.1044 46.6046 64.0206L38.2317 62.7174L37.8606 65.1007L46.2478 66.4223C47.1061 66.5308 47.8788 66.4203 48.6718 65.7002C49.6321 64.8737 50.1621 63.6339 50.364 62.3266V62.3041H50.3599V62.3082ZM63.3566 12.0573L61.22 13.3707L63.7847 25.5493L65.8499 24.3096L65.2465 21.6787L68.8509 19.4672L70.914 21.2204L72.9589 19.9602L63.3566 12.0573ZM64.7878 19.6636L63.483 14.7127L63.4708 14.6964L63.483 14.7005L63.4789 14.6841L63.4911 14.7107L67.277 18.1436L64.7878 19.6636ZM120.222 15.8891L115.297 13.8065L116.265 11.462L121.926 13.8412L122.687 12.0491L114.75 8.7247L110.218 19.5674L118.163 22.8959L118.917 21.1018L113.231 18.7123L114.495 15.6784L119.462 17.7733L120.222 15.8891ZM48.89 41.9321C48.8859 41.1281 48.8472 40.453 48.1744 39.8147C47.5363 39.1457 46.5129 38.8409 45.5098 38.9104C42.8942 39.3094 42.5537 42.3106 41.1001 47.0773L52.3211 50.4324L53.0306 48.0736L48.5923 46.752L48.4088 46.7008C48.7065 45.6166 49.1469 44.2479 49.367 43.9452C50.1621 42.0917 53.1386 43.9083 54.315 43.7385L54.9979 41.4002C53.0061 41.5086 50.3211 39.7124 48.89 41.9321ZM46.5638 46.1383L43.624 45.2688C44.2703 43.2639 44.5577 41.2406 45.9604 41.3593C46.5332 41.4513 46.9226 41.6089 47.2529 42.0098C47.7952 42.6931 47.0857 44.2009 46.5638 46.1383ZM130.764 18.5363L121.468 25.6619L122.948 27.6074L126.626 24.7944L126.787 24.6758C127.48 25.5514 128.336 26.7195 128.436 27.0673C129.48 28.8165 126.236 30.1483 125.698 31.208L127.178 33.1454C128.252 31.4371 131.298 30.3324 130.336 27.8611C130.988 28.3459 131.561 28.706 132.483 28.5362C133.406 28.4073 134.25 27.7568 134.786 26.8934C135.967 24.5469 133.767 22.495 130.764 18.5363ZM132.524 25.8419C132.124 26.247 131.781 26.4638 131.239 26.4822C130.358 26.5252 129.576 25.0768 128.328 23.5015L130.742 21.6316C131.998 23.3317 133.453 24.7638 132.524 25.8419ZM123.873 35.14C121.404 29.5039 116.483 25.357 110.497 23.6365C104.673 22.0661 98.6694 21.2649 92.6384 21.2532H92.4427C86.3307 21.2532 80.2329 22.1104 74.6 23.6365C68.6062 25.357 63.693 29.508 61.218 35.14C55.8277 46.7172 52.3068 63.3618 52.3068 79.7262C52.3068 96.0966 55.8297 112.737 61.218 124.312C63.695 129.944 68.6083 134.101 74.6 135.82C80.4203 137.382 86.418 138.178 92.4427 138.189H92.6384C98.7606 138.189 104.858 137.338 110.502 135.82C116.483 134.106 121.404 129.948 123.873 124.312C129.253 112.735 132.797 96.0966 132.797 79.7262C132.793 63.3557 129.243 46.7193 123.873 35.14ZM113.513 68.3065C113.688 68.3065 114.469 68.1429 114.491 67.6437V57.3104C115.9 56.981 117.335 56.4941 118.666 56.2179V62.4473C119.476 62.3512 119.892 62.251 120.87 62.0975V70.3073L118.326 70.6899L117.521 74.002H108.453L107.109 71.0561C104.903 70.8494 104.744 70.8494 102.542 70.6899C104.624 67.9996 106.748 65.3176 108.192 62.3757V58.1778L112.291 57.652V67.6089C112.291 67.9546 112.797 68.3065 113.315 68.3065H113.523V68.3106L113.513 68.3065ZM108.192 30.3263C109.217 30.0296 110.605 30.1565 111.462 30.9216C112.622 31.7686 112.956 33.1945 112.681 34.5181C111.874 37.3781 108.679 37.9141 106.098 38.5974L104.687 36.6642C105.201 34.1949 105.478 31.3471 108.192 30.3263ZM100.257 41.7643L101.297 43.5933L98.7056 46.441C98.0063 45.7618 97.9431 45.7066 97.25 44.9721C98.5792 43.5667 98.7056 43.4092 100.257 41.7643ZM68.1231 37.8773V37.861C68.5838 39.2214 69.434 40.1891 70.7836 40.8274C70.6307 40.1011 70.0007 39.4505 69.7948 38.6936C69.2097 37.2063 69.2668 35.0909 70.229 33.798C70.9079 32.7812 71.8906 32.3618 72.969 32.0182C72.5593 33.2436 72.437 34.7022 72.9303 35.9379C73.6459 35.406 73.6744 35.3671 74.2249 34.8352C74.4247 34.6409 74.5205 34.5774 74.6917 34.4363C75.6968 36.5782 76.8242 39.5324 76.1678 42.0262L75.7621 43.0921C75.6071 41.3368 75.3217 40.4918 74.1352 39.8556C73.9803 40.8785 74.6306 41.615 74.7835 42.9489C75.2626 45.0212 74.8875 47.0793 73.6092 48.272H70.3187C67.805 45.5838 67.6297 41.5332 68.1231 37.8773ZM75.6989 51.5064H73.9415L73.179 57.8136C72.4436 57.1468 71.5738 56.6465 70.6286 56.3468C70.1801 53.6647 70.1393 53.4765 69.8927 51.5044H68.1924V49.6325C71.1281 49.6243 72.753 49.6345 75.7009 49.6345L75.6989 51.5064ZM62.9407 76.6002L83.1157 76.5879V82.4737L62.9407 82.488V76.6002ZM70.7428 64.7877C71.5848 64.5627 72.4003 65.0844 73.0465 65.5672C72.9507 68.9878 72.9507 68.9448 72.8773 72.5311H71.0078L70.9976 71.9562C70.9181 69.2455 70.804 67.4657 70.7428 64.7877ZM69.4727 106.354C69.0996 106.35 68.4248 106.299 68.0476 106.176C67.173 105.955 65.9437 105.491 65.2037 104.306L65.065 104.034L64.9345 103.674L64.7714 103.298L64.7083 102.711L64.7144 91.7064C64.6185 90.3234 64.1027 90.2988 62.9733 89.458L63.3709 89.321L67.8173 87.8643C68.4493 88.5517 68.5899 89.4417 68.6491 90.3623V98.9567C68.6409 99.5111 69.122 99.8364 69.7622 99.865C70.5185 99.865 70.8325 99.5745 70.8977 98.973C70.9507 95.1126 70.8345 94.0406 70.8977 90.5403C70.9997 89.3619 72.0435 88.1876 73.0261 87.9175C74.2596 87.3263 75.7458 87.5575 76.8487 88.1058C78.8303 89.0427 78.7284 92.9257 78.71 96.0782C77.9292 95.5668 77.8089 95.4993 77.0383 95.2906C76.3574 95.1494 75.6133 95.2763 75.0934 95.6772C74.4553 96.2664 74.3859 96.8331 74.3737 97.8642C74.3227 101.51 74.7223 104.022 72.8957 105.458C71.7153 106.287 70.6307 106.356 69.4727 106.354ZM75.3829 118.269C74.4206 117.631 74.1964 117.009 73.862 116.129C73.0445 112.391 77.548 111.051 78.6081 107.946C79.4542 102.754 79.6947 97.2914 83.2991 93.2366C83.658 85.614 86.1105 78.871 91.511 73.3269C91.2541 71.6023 90.561 70.115 90.0432 68.5111C89.3378 68.4906 88.8546 68.3495 88.2165 67.7807C87.7865 67.2045 87.517 66.5239 87.4357 65.8086C85.5519 68.1551 83.2237 70.7738 80.6631 72.3511C80.1901 72.6129 79.5969 72.0626 78.7345 71.2606C75.5908 68.7586 75.0587 63.1266 70.2596 63.3721C68.0823 62.6335 68.1863 60.064 67.8336 58.1328C68.6409 57.5374 69.9559 57.5661 70.9222 57.9425C73.917 59.5505 75.9129 62.9363 78.7365 65.199C79.4929 65.8004 80.1718 66.6003 80.867 66.8888C82.7283 65.289 84.2104 63.9162 85.4704 61.4408C86.3409 60.0272 87.7884 59.4278 89.3908 59.4012L90.5304 58.0571L89.9351 54.6897C88.7769 53.2233 87.793 51.6263 87.0035 49.9312C87.4173 48.0061 87.666 45.7557 89.611 44.698C90.8872 43.9001 91.9229 45.7025 92.9626 44.565C93.7189 44.4136 94.3876 44.6162 94.9136 45.0581C95.7046 46.4328 96.6363 47.8056 96.6934 49.4054C96.2143 50.9643 95.462 52.4086 94.7383 53.8652C94.567 54.1803 94.1267 54.2887 93.8229 54.5281C94.0145 55.1786 94.1654 55.9172 94.62 56.4388C95.195 56.5575 95.7556 56.6598 96.4467 56.537C96.9992 54.8349 98.8279 54.0719 100.349 53.6054L103.7 51.4205C103.148 48.8735 104.781 46.6354 103.884 44.1006C101.974 43.1943 101.419 41.034 101.024 39.3319C101.319 38.2824 101.843 37.149 102.591 36.2509L102.708 36.3839C104.534 38.5156 106.218 40.7087 106.799 43.356C107.121 46.7377 107.452 50.2053 107.229 53.7323C105.419 55.5407 103.256 56.6086 101.197 57.9466L99.676 60.8844C99.4783 63.9081 98.6098 66.629 98.147 69.5565C99.4497 73.0957 100.981 77.8072 99.8554 81.0846C98.9727 83.0301 97.1541 84.1021 95.7862 85.1782L92.3612 87.9339C95.7984 91.7309 94.9727 96.0394 95.1093 101.557C95.0849 102.887 97.4579 103.993 96.196 105.511C95.1297 107.214 93.4763 108.586 93.7434 110.818C92.7037 112.602 90.1879 112.979 88.9912 112.962C88.933 112.966 88.8746 112.958 88.8198 112.938C88.7649 112.918 88.7148 112.887 88.6726 112.847C88.6304 112.806 88.597 112.757 88.5747 112.703C88.5523 112.649 88.5414 112.591 88.5427 112.533C88.7894 111.618 89.4968 110.898 89.8699 110.033C91.0931 108.153 90.5345 105.558 92.0554 103.809C90.8036 99.7157 88.9117 95.9166 88.3877 91.5488L88.3572 91.2686C87.3337 93.2755 87.9025 95.2497 88.4408 96.8352C85.0585 101.097 81.4011 105.209 81.4011 110.82C79.9577 113.396 77.9129 115.738 76.8324 118.453C76.4715 118.907 75.7967 118.508 75.3829 118.269ZM97.7719 104.761C99.7637 104.851 101.747 106.497 102.524 108.349C103.315 110.233 102.995 112.704 101.786 114.278C100.257 116.125 98.1653 117.107 95.7026 116.665C94.1613 116.325 92.6405 115.376 91.7516 113.922C93.0136 113.496 94.8158 112.766 95.1705 111.532C95.0828 109.613 96.3896 108.079 97.3723 106.545C97.8595 105.884 97.9187 105.483 97.7719 104.761ZM99.6597 103.063L99.676 85.6856C102.149 85.6447 102.946 85.7183 105.507 85.6733V103.063H99.6597ZM87.0707 129.56C85.4683 130.724 82.8078 130.996 81.0403 130.002C80.0209 129.509 79.1055 128.516 78.5449 127.549C78.129 126.618 77.9578 126.295 77.919 125.337C82.135 125.337 84.9811 125.337 89.4581 125.341C89.4336 126.949 88.5345 128.518 87.0707 129.56ZM94.9727 130H91.0054V122.843L84.8119 122.85V119.971H91.0319L92.9748 117.657C93.9228 118.766 94.0105 118.848 94.9931 119.971H101.201V122.85L94.9707 122.843L94.9727 130ZM107.415 127.549C106.85 128.518 105.945 129.507 104.926 130C103.15 130.996 100.479 130.722 98.8932 129.556C97.4436 128.512 96.5405 126.945 96.512 125.337L108.053 125.335C108 126.295 107.849 126.62 107.415 127.549ZM111.878 91.7064C114.528 94.3475 116.93 96.7431 119.311 99.0876C120.204 100.049 120.895 101.424 120.33 102.69C120.039 103.314 119.672 104 119.254 104.55C119.254 103.314 118.728 102.598 118.024 101.907C114.779 98.7091 109.164 94.2575 108.722 92.3692C108.222 91.1029 108.381 89.5624 108.343 88.0976C109.299 87.3631 110.059 86.7187 111.184 85.8308C111.111 88.0792 110.799 90.3745 111.878 91.7064ZM117.39 85.8186C118.628 86.8394 119.248 87.404 120.42 88.5231C121.088 91.4834 119.331 93.1548 118.002 95.2374L112.771 90.2129V87.2997C113.399 86.6103 113.611 86.3627 114.34 85.6365L115.823 87.4245V92.3631C117.896 91.3545 117.39 88.386 117.39 85.8186ZM116.149 112.305C115.533 112.995 115.313 113.249 114.577 113.969L113.099 112.189V107.23C111.025 108.253 111.527 111.207 111.527 113.774C110.483 112.918 109.473 112.02 108.5 111.084C107.835 108.13 109.59 106.44 110.926 104.362L116.141 109.384L116.149 112.305ZM120.569 111.51C119.633 112.258 118.852 112.893 117.733 113.77C117.808 111.52 118.122 109.233 117.048 107.895C114.576 105.429 112.099 102.97 109.615 100.518C108.73 99.554 108.014 98.1772 108.599 96.9068C108.877 96.2992 109.252 95.6036 109.666 95.0574C109.666 96.293 110.208 96.9947 110.893 97.6965C114.147 100.89 119.755 105.35 120.204 107.236C120.699 108.513 120.544 110.026 120.569 111.51ZM122.591 82.5187L102.416 82.4859V76.5961L122.591 76.5838V82.5187ZM0.746094 169.338V196.232H183.263V169.338H0.746094ZM25.8751 191.439H17.6306V173.98C21.127 173.992 23.1616 173.98 26.0586 173.98C28.7354 173.98 30.8556 175.439 31.0575 178.109C31.2471 179.946 30.6681 181.562 28.45 182.12C30.4071 182.667 31.6609 184.451 31.6732 186.77C31.6895 188.745 30.1543 191.439 25.8751 191.439ZM58.4046 186.734C58.3618 188.039 58.0336 189.137 56.8022 190.154C55.371 191.382 53.424 191.889 51.4669 191.875H51.418C49.4588 191.889 47.524 191.382 46.0888 190.154C44.8513 189.137 44.5231 188.035 44.466 186.734V174.019H48.0623L48.0663 186.734C48.1051 187.771 48.89 188.546 49.8074 188.861C50.3008 189.074 50.8757 189.183 51.4465 189.152C52.0194 189.193 52.5943 189.084 53.0836 188.861C53.9888 188.546 54.8002 187.667 54.8185 186.734L54.8226 174.019H58.4168L58.4046 186.734ZM83.9148 191.453C83.0871 191.435 84.3103 184.506 81.3237 184.326C79.6478 184.217 78.5938 184.283 76.9364 184.309L76.9527 191.453H73.3177V173.96C76.653 173.992 78.5714 174.011 81.5581 174.011C84.2553 174.14 86.9382 175.22 87.1217 178.154C87.3235 181.55 85.4092 182.333 83.6131 182.918C87.768 183.812 86.2349 188.677 87.3419 191.443H83.9169L83.9148 191.453ZM112.481 180.59L112.493 183.612H104.506L104.498 188.501H113.651L113.659 191.406H100.842V173.917H113.659L113.651 176.805L104.514 176.818V180.592L112.481 180.59ZM137.698 191.453L136.44 187.626H130.136L128.887 191.453H125.319L131.41 173.952H135.162L141.257 191.453H137.698ZM166.403 186.707C166.346 188.004 166.019 189.101 164.78 190.124C163.349 191.357 161.412 191.852 159.455 191.84H159.4C157.445 191.852 155.502 191.357 154.071 190.124C152.841 189.101 152.503 188.004 152.452 186.707V173.988H156.06V186.707C156.089 187.744 156.894 188.497 157.785 188.851C158.283 189.06 158.851 189.15 159.44 189.14C160.004 189.163 160.566 189.065 161.088 188.851C161.979 188.501 162.794 187.638 162.806 186.707L162.819 173.988H166.423L166.403 186.707ZM81.5499 176.848C80.5306 176.773 78.6672 176.891 76.9568 176.848V181.374C80.3043 181.378 80.8119 181.366 81.8456 181.269C82.8812 181.167 83.5418 180.22 83.5418 178.933C83.5418 177.646 82.5958 176.957 81.5499 176.848ZM131.111 184.729H135.461L133.284 177.417L131.111 184.729ZM25.6284 180.893C26.8944 180.893 27.6651 180.03 27.6651 178.624C27.6651 177.268 26.6457 176.685 25.4979 176.685H21.2697L21.2717 180.895L25.6284 180.893ZM25.8751 183.714C24.1524 183.602 22.5581 183.61 21.2697 183.61V183.642L21.2554 188.544C24.8456 188.489 24.9679 188.544 26.1972 188.389C27.4469 188.25 28.0341 187.143 28.0341 186.057C28.0361 184.966 27.2268 183.794 25.8751 183.714Z" fill="#877F75"/>
<path d="M72.715 207.929C72.0444 207.943 71.3364 207.959 70.6572 207.951V212.453C73.9823 212.466 74.5001 212.445 75.5378 212.333C76.5674 212.228 77.2523 211.304 77.2401 210.011C77.2259 208.728 76.2799 208.02 75.2544 207.951C74.6396 207.887 73.7191 207.907 72.715 207.929Z" fill="#B6003B"/>
<path d="M136.664 208.502L136.672 208.489H136.664V208.502Z" fill="#B6003B"/>
<path d="M136.664 208.502L136.656 208.515V208.532L134.473 215.858H138.817L136.664 208.532V208.502Z" fill="#B6003B"/>
<path fill-rule="evenodd" clip-rule="evenodd" d="M0.746094 227.388V200.479H183.263V227.388H0.746094ZM152.927 217.093C152.927 219.63 154.97 222.955 160.262 222.955C164.558 222.955 167.575 220.972 167.571 217.073C167.571 213.667 164.055 212.768 161.087 212.008C158.918 211.453 157.041 210.973 157.041 209.645C157.041 208.429 158.026 207.306 160.582 207.306C162.941 207.306 163.801 208.626 163.801 210.044L167.157 209.923C167.157 208.806 166.59 204.459 160.189 204.459C155.585 204.459 153.459 207.147 153.459 210.283C153.459 213.571 156.72 214.348 159.605 215.035C161.893 215.58 163.944 216.069 163.944 217.709C163.944 219.759 161.864 220.166 159.991 220.166C157.563 220.166 156.266 218.362 156.266 216.969L152.927 217.093ZM75.0097 215.393C76.9704 215.511 77.1203 218.54 77.2226 220.607C77.2762 221.688 77.3167 222.507 77.5968 222.507L81.0239 222.505C80.6681 221.62 80.5841 220.523 80.4989 219.41C80.3176 217.042 80.1307 214.601 77.3053 213.982C79.0912 213.409 81.0157 212.64 80.8078 209.238C80.6264 206.298 77.9414 205.209 75.2585 205.074C73.3325 205.074 71.854 205.064 70.1619 205.053C69.2175 205.046 68.2065 205.039 67.014 205.033V222.505H70.6428L70.6225 215.385C71.115 215.381 71.5535 215.372 71.9706 215.362C72.9588 215.34 73.827 215.32 75.0097 215.393ZM53.5382 211.729V214.755L45.5526 214.747V219.64H54.7002L54.7165 222.56H41.9074V205.056H54.7206L54.7002 207.949L45.5607 207.957V211.729H53.5382ZM25.5978 222.556H22.2563L16.3523 205.072L20.1626 205.064C20.3753 205.834 20.5908 206.622 20.8084 207.418L20.8087 207.419C21.8233 211.129 22.8833 215.005 23.924 218.02C25.0149 214.89 26.1192 210.832 27.1618 207L27.1621 206.999C27.3391 206.348 27.5144 205.704 27.6874 205.072L31.4509 205.064L25.5978 222.556ZM97.4925 222.556H93.8249V205.064H97.4925V222.556ZM121.669 208.041H121.674V208.045H121.669V208.041ZM121.669 208.041H116.477V222.556H112.838L112.821 208.041L107.611 208.049V205.193H121.669V208.041ZM141.053 222.556L139.806 218.742H133.504L132.24 222.556H128.668L134.778 205.072H138.523L144.621 222.556H141.053Z" fill="#B6003B"/>
</svg>
