<svg width="150" height="150" viewBox="0 0 150 150" fill="none" xmlns="http://www.w3.org/2000/svg">
<rect width="150" height="150" fill="white"/>
<g style="mix-blend-mode:multiply" opacity="0.1">
<path d="M60.3411 114.186C58.5503 113.928 56.7263 113.647 55.1018 112.814C52.4717 111.472 50.6436 108.806 49.4885 105.974C48.6202 103.839 48.0676 101.48 48.4457 99.1913C48.7739 97.1876 49.7835 95.39 50.7724 93.6449C52.0604 91.3738 53.3443 89.1026 54.6323 86.8315C55.6004 85.1215 56.5809 83.3984 57.8772 81.9515C58.9035 80.8072 60.1126 79.8601 61.3175 78.9262C63.1789 77.4838 65.0527 76.0588 66.9349 74.6558C67.6745 74.1033 68.4265 73.5509 69.2866 73.2615C69.9846 73.0247 70.72 72.9765 71.4512 72.9283C73.9442 72.7573 76.8364 73.4324 79.3293 73.2614C81.0412 73.1474 82.4077 72.1961 84.0239 72.8055C85.2164 73.2571 86.2468 74.0726 87.2481 74.8881C92.1052 78.8386 96.7794 83.0389 101.246 87.4716C103.448 89.6594 105.621 91.9262 107.283 94.592C108.945 97.2577 110.087 100.379 110.025 103.571C110.017 104.067 109.971 104.584 109.73 105.014C109.493 105.43 109.099 105.711 108.708 105.97C105.966 107.776 102.933 109.013 99.9163 110.24C95.99 111.841 92.0595 113.441 88.1331 115.041C86.7703 115.594 85.4033 116.155 83.9657 116.431C81.8551 116.843 79.7195 116.615 77.6212 116.251C76.0008 115.971 74.4095 116.08 72.7725 115.874C68.6218 115.348 64.4794 114.791 60.3411 114.186Z" fill="url(#paint0_linear)"/>
</g>
<path d="M69.3148 72.6384C67.6449 73.0538 66.2191 74.1842 64.9602 75.1775L62.3397 77.25C61.569 77.8623 60.7683 78.496 60.0575 79.2324C59.2397 80.076 58.5503 81.0437 57.8823 81.9771C54.6581 86.4816 51.3225 91.136 48.6464 96.18C47.9228 97.5459 47.1221 99.1558 46.8181 100.941C46.6468 101.948 46.6082 103.365 47.3875 104.41C47.456 104.504 47.5631 104.551 47.6701 104.551C47.7429 104.551 47.8157 104.53 47.88 104.482C48.0341 104.367 48.0684 104.144 47.9527 103.99C47.319 103.142 47.3618 101.93 47.5117 101.061C47.7729 99.5455 48.4023 98.1453 49.2715 96.5097C51.9263 91.5042 55.2447 86.8712 58.4561 82.3839C59.1112 81.4718 59.7877 80.5256 60.567 79.7163C61.2478 79.0141 62.0271 78.3975 62.785 77.7937L65.4012 75.7213C66.6044 74.7708 67.9661 73.6917 69.4861 73.3107C69.6745 73.2636 69.7901 73.0752 69.743 72.8868C69.6916 72.7069 69.5032 72.5913 69.3148 72.6384Z" fill="#221D1E" stroke="#221D1E" stroke-width="0.3"/>
<path d="M119.378 82.7225C119.776 82.063 120.187 81.3822 120.341 80.5773C120.504 79.738 120.461 78.8945 120.419 78.0767C120.149 72.643 119.866 67.0252 117.931 61.8442C117.593 60.9365 117.147 59.9003 116.424 59.0867C116.162 58.7955 115.876 58.5429 115.572 58.316C115.447 56.8259 114.891 55.2844 113.94 53.8201C112.977 52.3343 111.748 51.1011 110.669 50.0649C109.44 48.8788 108.16 47.7227 106.867 46.6223C106.665 46.451 106.46 46.284 106.259 46.1256C106.216 45.4234 105.719 44.8667 105.218 44.4171C101.951 41.4627 98.3757 38.8978 94.582 36.7997C94.3336 36.6627 94.0253 36.4915 93.6828 36.4187C93.3488 36.3459 93.0105 36.3758 92.7193 36.4101C92.2012 36.4658 91.7131 36.5514 91.255 36.6584C91.2378 36.6413 91.225 36.6199 91.2036 36.6071C88.4033 34.7016 85.2261 32.5479 81.6594 32.0212C80.5675 31.8628 79.4628 31.8585 78.3923 31.8542L72.9801 31.8371C72.9758 31.8371 72.9672 31.8371 72.963 31.8371C70.9762 31.8371 66.3775 32.9846 64.3522 33.6269C62.3783 34.2563 61.6375 35.3311 61.2222 36.3459C60.8454 36.3416 60.4471 36.3416 60.0147 36.3502C58.8158 36.3716 55.994 38.0843 54.504 39.3046C53.9773 39.7371 53.3479 40.2124 52.6799 40.7133C50.068 42.6873 47.379 44.7254 47.4689 46.314C47.4261 46.3268 47.379 46.3397 47.3362 46.3525C45.2723 47.0505 43.4397 48.8231 42.1723 51.3409C41.0547 53.5546 40.4938 56.0166 39.95 58.3973C39.9286 58.4873 39.9457 58.5772 39.9885 58.65C39.6331 58.9968 39.3034 59.3522 39.0123 59.7376C38.3828 60.5682 37.8519 61.5787 37.3852 62.8205C35.2871 68.3869 35.9936 75.165 39.1878 80.0891C39.1878 80.0891 39.1921 80.0891 39.1921 80.0934C39.0979 80.2904 39.008 80.4873 38.9395 80.6929C38.7254 81.318 38.6697 82.0031 38.781 82.6497C39.0037 83.9642 39.7616 85.0218 40.451 86.028C40.9862 86.7816 41.5214 87.5438 41.8854 88.3873C41.8297 88.7984 41.8169 89.2094 41.8468 89.6162C41.9025 90.3955 42.1166 91.132 42.3264 91.8428L43.8336 97.0366C43.8379 97.0452 43.8422 97.0538 43.8465 97.0623C43.7565 97.3663 43.6709 97.6703 43.6024 97.9744C42.8702 101.104 43.2984 104.102 44.7799 106.195C45.9274 107.818 47.6444 108.829 49.1559 109.724L54.0801 112.627C55.4374 113.428 56.8376 114.254 58.3405 114.798C60.8154 115.697 63.4316 115.804 65.9621 115.911L82.6528 116.6C83.2822 116.626 83.9159 116.652 84.5582 116.652C85.6971 116.652 86.8404 116.57 87.9665 116.249C89.037 115.95 90.0389 115.444 91.0109 114.956C91.6874 114.618 92.3854 114.267 93.0919 113.993C94.325 113.517 95.6524 113.252 96.9327 112.995C97.5792 112.867 98.2429 112.734 98.898 112.571C103.253 111.509 107.29 109.227 110.583 105.969C110.665 105.891 110.69 105.78 110.682 105.677C110.724 105.699 110.772 105.712 110.819 105.712C110.947 105.712 111.071 105.643 111.131 105.519C111.375 105.039 111.911 104.89 112.531 104.718C112.964 104.598 113.409 104.474 113.803 104.222C114.818 103.566 115.285 102.213 115.195 100.192C115.178 99.8327 115.152 99.473 115.118 99.1133C115.195 99.0962 115.272 99.0619 115.323 98.9892L115.683 94.6944C116.167 94.0564 116.77 93.26 116.929 92.2966C117.036 91.6415 116.929 90.9949 116.826 90.3698L116.809 90.2713C116.719 89.7189 116.595 89.1237 116.458 88.4986C116.158 87.0899 118.5 85.9424 118.552 84.7392C118.573 84.0498 118.967 83.4075 119.378 82.7225ZM110.185 50.5701C111.234 51.5849 112.433 52.7838 113.354 54.2054C114.12 55.3829 114.608 56.6161 114.805 57.815C114.385 57.5709 113.944 57.3526 113.495 57.1428C111.204 56.0637 108.16 54.7492 104.948 54.1926C100.311 53.3876 94.9673 54.4281 90.253 55.3487L89.7949 55.4386C89.7649 54.1027 89.6835 52.7881 89.6065 51.5421C89.5808 51.1054 89.5465 50.6258 89.4908 50.1462C90.6255 49.3712 91.7559 48.6176 92.9377 47.9711C94.1195 47.3159 95.3527 46.7807 96.6372 46.3996C97.682 46.0871 98.7567 45.8944 99.8486 45.7359C100.958 45.646 102.071 45.6332 103.176 45.706C103.608 45.7359 104.109 45.7788 104.563 45.9372C105.222 46.1684 105.796 46.6266 106.421 47.1618C107.702 48.2451 108.969 49.3926 110.185 50.5701ZM92.805 37.1038C93.0533 37.0781 93.3102 37.0524 93.5457 37.1038C93.7684 37.1509 93.9911 37.2665 94.2522 37.412C97.9989 39.4845 101.531 42.015 104.756 44.9352C104.948 45.1065 105.128 45.2906 105.274 45.479C105.115 45.3977 104.957 45.3249 104.794 45.2692C104.259 45.0808 103.702 45.0337 103.223 45.0037C101.63 44.901 100.011 44.9566 98.4228 45.1793C98.3157 45.1964 98.2301 45.2607 98.1744 45.3463C97.5921 45.4405 97.014 45.5604 96.4403 45.7231C95.768 45.9243 95.1129 46.177 94.4749 46.4639C93.8498 46.7764 93.2246 47.0933 92.6508 47.4872C91.4905 48.2408 90.4286 49.1357 89.4908 50.1334C89.4095 49.4825 89.2768 48.8274 89.0241 48.2836C88.7843 47.7698 88.4632 47.4144 88.1763 47.0976L85.9498 44.6355C85.9112 44.5927 85.8684 44.567 85.8256 44.5413C85.6458 44.203 85.4402 43.9461 85.209 43.7706C85.1491 43.7235 85.0891 43.6892 85.0292 43.655C85.0377 43.6421 85.0463 43.6336 85.0549 43.6207C85.9583 41.6982 87.123 39.5658 88.9342 38.3669C89.9576 37.6947 91.225 37.2793 92.805 37.1038ZM85.2604 72.4589C84.905 72.7501 84.5153 72.7115 83.9073 72.6259C83.6633 72.5916 83.4021 72.5574 83.1323 72.5574C83.7703 71.5297 84.1685 70.0996 84.4554 68.8707C85.6586 63.7111 86.1296 58.1062 86.5407 52.3343C86.6862 50.2918 86.7804 48.3136 86.4593 46.5495L87.5041 47.7099C87.7567 47.9925 88.0179 48.2836 88.202 48.6733C88.5702 49.4611 88.643 50.6429 88.703 51.5892C88.8914 54.6122 89.1012 58.0377 88.5617 61.1334C88.4375 61.8571 88.2662 62.5678 88.1035 63.2615C88.0136 63.6469 87.9237 64.028 87.8381 64.4176C87.7267 64.9314 87.624 65.4538 87.5212 65.9762C87.3842 66.6913 87.2386 67.432 87.0673 68.1342C86.8361 69.0805 86.5535 69.9797 86.2195 70.8189C86.0054 71.3627 85.6714 72.1249 85.2604 72.4589ZM66.917 49.2042C67.1054 48.562 67.4822 48.1509 67.859 47.8041C69.075 46.6822 70.381 45.9543 71.6313 45.6974C71.6356 45.6974 71.6399 45.6974 71.6441 45.6931C71.6741 45.7702 71.7041 45.8687 71.7169 45.9115C71.854 46.3354 71.9824 46.7764 72.1066 47.2132L72.2265 47.6285C72.6161 48.9602 72.9116 50.052 73.1556 51.0668C73.511 52.5312 73.7722 53.88 73.9563 55.1817C74.3931 58.2946 74.4316 61.5916 74.4359 64.7088C74.4359 66.931 74.4231 69.1833 74.3888 71.4056C74.3845 71.5982 74.3802 72.0521 74.2775 72.2105C74.2603 72.2362 74.2432 72.2491 74.1576 72.2919C73.0614 72.8186 71.8882 72.9427 70.7707 72.6387C70.6765 72.613 70.655 72.6002 70.6379 72.5831C70.578 72.5103 70.5052 72.2962 70.4624 72.1549L69.9657 70.6134C69.7088 69.8127 69.439 68.9863 69.1949 68.1556C67.9018 63.7882 67.0926 58.8769 66.8528 53.9485C66.8142 53.135 66.7885 52.3171 66.7629 51.4993C66.7414 50.7885 66.7115 49.8936 66.917 49.2042ZM74.8555 55.0575C74.6671 53.7259 74.4016 52.3514 74.0377 50.857C73.7893 49.8294 73.4896 48.7247 73.0957 47.3759L72.9758 46.9605C72.8473 46.511 72.7146 46.0656 72.5733 45.6289C72.5005 45.4105 72.432 45.2307 72.3421 45.0851C72.6333 44.5713 72.9587 44.0189 73.3098 43.7834C73.5881 43.5993 73.9221 43.595 74.2775 43.595L78.6364 43.5693C79.223 43.5651 79.6341 43.5907 79.9894 43.9376C80.1179 44.066 80.2464 44.2416 80.362 44.4557C80.7216 45.1022 80.94 45.9029 81.1498 46.6908C81.3468 47.4915 81.5823 48.3093 81.7536 49.0929C81.9291 49.8808 81.9891 50.6857 82.0276 51.5121L82.1304 53.9999C82.186 55.657 82.2074 57.314 82.1218 58.9668C82.0362 60.6196 81.8349 62.2724 81.4196 63.8824C81.9077 62.2938 82.186 60.641 82.3487 58.9839C82.5114 57.3269 82.5628 55.657 82.5842 53.9956L82.5971 51.4993C82.5971 50.6686 82.5757 49.808 82.4258 48.9644C82.2802 48.1209 82.0876 47.3288 81.9248 46.5067C81.7621 45.7616 81.5951 45.0037 81.2612 44.2501C82.2032 44.1559 83.1537 44.1688 84.0872 44.2972C84.3184 44.3272 84.5068 44.3615 84.6609 44.4814C84.9221 44.6783 85.1705 45.1536 85.3632 45.8173C85.9069 47.6671 85.8042 49.9236 85.6372 52.2615C85.2304 57.9948 84.7637 63.5612 83.5733 68.6566C83.2479 70.0611 82.7041 72.0093 81.7964 72.7543C81.2868 73.174 80.6788 73.174 80.0494 73.1311C78.4351 73.0241 76.8166 72.7072 75.2238 72.1934C75.2751 71.9451 75.288 71.6796 75.2923 71.4141C75.3265 69.1876 75.3437 66.931 75.3394 64.7002C75.3394 61.5659 75.3008 58.2261 74.8555 55.0575ZM53.1081 41.2743C53.7803 40.7647 54.414 40.2894 54.9493 39.8484C56.4736 38.6024 59.1198 37.0695 60.0318 37.0524C60.8925 37.0352 61.6032 37.0481 62.2755 37.0823C63.2218 37.1038 64.1595 37.1851 65.0887 37.3564C66.0135 37.5448 66.9555 37.7589 67.8633 38.0244C68.7753 38.2941 69.6659 38.6281 70.4966 39.0991C71.3273 39.5615 72.0809 40.1653 72.796 40.8033C72.1194 40.1267 71.4044 39.4716 70.5865 38.9492C69.773 38.4226 68.8824 38.0201 67.9703 37.6947C67.054 37.3692 66.1377 37.0995 65.1957 36.8468C64.2494 36.6071 63.2774 36.4658 62.3055 36.3844C62.2969 36.3844 62.2926 36.3844 62.2841 36.3844C62.1856 36.3801 62.0828 36.3758 61.9843 36.3716C62.3697 35.5623 63.0248 34.7916 64.5706 34.2992C66.5017 33.6826 71.0832 32.5436 72.9672 32.5436C72.9715 32.5436 72.9758 32.5436 72.9801 32.5436L78.3923 32.5607C79.4371 32.565 80.5161 32.5693 81.5566 32.7192C84.7894 33.1944 87.7481 35.117 90.3858 36.9025C89.7049 37.1294 89.0884 37.4249 88.5403 37.7889C86.5835 39.082 85.3546 41.3171 84.4126 43.3295C84.3955 43.3681 84.3869 43.4066 84.3869 43.4452C84.327 43.4366 84.267 43.4238 84.2071 43.4152C83.051 43.261 81.882 43.2653 80.7259 43.4152C80.6917 43.3766 80.6617 43.3338 80.6274 43.2996C79.9809 42.6659 79.2016 42.6701 78.6364 42.6744L74.2775 42.7001C73.8493 42.7044 73.3141 42.7044 72.8131 43.0427C72.2522 43.4152 71.8497 44.1345 71.4943 44.7725C71.4857 44.7854 71.4857 44.8025 71.4814 44.8153C71.4729 44.8153 71.4643 44.8153 71.4557 44.8196C70.0427 45.1065 68.5869 45.9115 67.251 47.1447C66.9769 47.3973 66.6815 47.7013 66.4417 48.0952C65.1443 47.4915 61.8687 46.1641 61.1708 45.9586C60.0446 45.6246 58.8886 45.6118 57.7667 45.5989C54.9707 45.5647 52.0847 45.5347 49.2544 45.9372C48.9247 45.9843 48.5608 46.0442 48.1882 46.1256C48.3124 44.9053 51.0528 42.8286 53.1081 41.2743ZM118.218 83.3647C118.051 82.4698 117.708 81.5963 117.237 80.8085C116.522 79.6138 115.537 78.5776 114.445 77.7255C113.354 76.8649 112.172 76.1541 111.003 75.4519C109.838 74.7411 108.661 74.056 107.487 73.3538C105.132 71.9793 102.756 70.6348 100.354 69.3289L99.9043 69.0848C99.7458 68.9992 99.5703 68.9392 99.4119 68.8836C99.0864 68.7765 98.7567 68.678 98.4313 68.5838C97.7762 68.3911 97.1168 68.2113 96.4574 68.0357C95.798 67.8602 95.1386 67.6889 94.4749 67.5262C93.8112 67.3721 93.1518 67.1879 92.4753 67.0895C93.8112 67.3635 95.1172 67.7703 96.4274 68.1428C97.0825 68.3312 97.7377 68.5282 98.3842 68.7337C98.7096 68.8365 99.0351 68.9392 99.3519 69.0548C99.5146 69.1191 99.6645 69.1619 99.8015 69.2518L100.23 69.5344C102.512 71.0373 104.816 72.4974 107.141 73.9276C108.31 74.6298 109.47 75.3491 110.647 76.0385C111.821 76.7407 112.994 77.413 114.077 78.2051C115.16 78.993 116.158 79.9007 116.907 81.0097C117.447 81.789 117.867 82.6582 118.115 83.5831C117.965 83.9385 117.862 84.3067 117.845 84.7007C117.79 85.9938 115.46 87.1841 115.768 88.6356C115.901 89.2522 116.025 89.8388 116.111 90.374L116.128 90.4725C116.222 91.042 116.317 91.6286 116.231 92.1724C116.098 92.9646 115.58 93.6539 115.118 94.262L115.011 98.2184C114.077 91.1277 109.962 84.7949 106.601 79.6224C106.494 79.4597 106.28 79.4126 106.113 79.5196C105.95 79.6267 105.903 79.8408 106.01 80.0078C109.633 85.5827 114.141 92.5193 114.48 100.218C114.531 101.421 114.39 102.993 113.409 103.626C113.105 103.823 112.728 103.926 112.33 104.037C111.649 104.226 110.879 104.44 110.493 105.194C110.459 105.258 110.455 105.326 110.463 105.39C110.335 105.335 110.181 105.361 110.078 105.463C106.879 108.628 102.953 110.85 98.7225 111.882C98.0845 112.036 97.4251 112.169 96.7871 112.297C95.4769 112.558 94.1195 112.832 92.8307 113.329C92.0942 113.616 91.3791 113.971 90.6898 114.322C89.7478 114.793 88.7758 115.286 87.7695 115.568C86.121 116.031 84.3698 115.962 82.6784 115.89L65.9878 115.2C63.5087 115.097 60.9481 114.995 58.576 114.13C57.133 113.603 55.7585 112.794 54.4312 112.015L49.507 109.111C48.0555 108.255 46.407 107.283 45.3451 105.784C44.0006 103.883 43.5981 101.023 44.2746 98.1285C44.4973 97.1822 44.8227 96.2102 45.2723 95.1698C45.799 93.9923 46.3471 92.819 47.0193 91.7229C47.6915 90.6224 48.5137 89.5948 49.597 88.854C48.4537 89.4963 47.5117 90.4683 46.7281 91.5259C45.9403 92.5878 45.2723 93.7268 44.6343 94.8743C44.63 94.8829 44.6258 94.8914 44.6215 94.9043C44.6215 94.9086 44.6215 94.9086 44.6215 94.9128C44.4759 95.2511 44.3474 95.5765 44.2275 95.902L42.9901 91.6458C42.7931 90.9693 42.5876 90.2713 42.5362 89.5648C42.4206 88.0062 43.0115 86.3791 44.3432 84.5851C44.3432 84.5851 44.3432 84.5851 44.3432 84.5808C44.6729 84.1269 44.9897 83.6559 45.3494 83.2149C45.7048 82.7696 46.073 82.3328 46.4541 81.9046C47.2205 81.0525 48.0384 80.2476 48.9076 79.4939C47.9656 80.1576 47.0621 80.8813 46.2058 81.6606C45.7776 82.0502 45.3579 82.4527 44.9512 82.868C44.5401 83.2791 44.1676 83.7287 43.7737 84.1654C43.7651 84.174 43.7565 84.1826 43.7523 84.1911C43.748 84.1954 43.748 84.1997 43.748 84.204C42.7203 85.5956 42.1123 86.9058 41.9025 88.1818C41.2088 86.1907 39.5732 84.5594 39.3077 82.5769C39.2392 82.0074 39.312 81.4336 39.509 80.8941C39.7059 80.3589 40.0185 79.8579 40.391 79.4083C41.1361 78.492 42.1038 77.747 43.0672 76.9891C44.9854 75.469 47.0065 74.0817 49.096 72.8014C51.1898 71.5297 53.3564 70.3651 55.5873 69.316C50.9115 70.9046 46.5312 73.3795 42.6347 76.4367C41.6798 77.2117 40.6736 77.9782 39.8772 78.9973C39.7744 79.1257 39.6759 79.2627 39.586 79.3997C36.6744 74.6854 36.0621 68.3226 38.0403 63.0731C38.4856 61.8956 38.9866 60.945 39.5732 60.1657C40.2155 59.3136 41.029 58.5686 42.0652 57.8921C43.4268 56.9672 44.9683 56.2821 46.5355 55.7041C48.1069 55.1346 49.7383 54.715 51.3953 54.4366C53.0524 54.154 54.7309 54.0085 56.4179 53.9785C57.2615 53.9614 58.105 53.9828 58.9485 54.0042L61.4833 54.0556L58.9528 53.9143C58.1093 53.8672 57.2657 53.8115 56.4179 53.8029C54.7266 53.7729 53.0267 53.8629 51.344 54.0898C49.6612 54.3167 47.9913 54.6807 46.3685 55.2074C44.7499 55.7426 43.1571 56.3806 41.6841 57.3055C41.6798 57.3055 41.6756 57.3097 41.6713 57.314C41.3501 57.5238 41.0547 57.7465 40.7721 57.9692C41.2688 55.8154 41.8169 53.6188 42.8017 51.662C43.9878 49.3113 45.6791 47.6628 47.5674 47.0248C48.1668 46.8235 48.8005 46.7165 49.3443 46.6394C52.1232 46.2326 54.9835 46.2669 57.7496 46.2969C58.82 46.3097 59.929 46.3226 60.961 46.6266C61.5947 46.815 64.8831 48.1466 66.1249 48.7204C66.0992 48.7932 66.0692 48.866 66.0478 48.9473C65.8037 49.7737 65.8337 50.75 65.8551 51.5336C65.8808 52.3557 65.9065 53.1778 65.945 53.9999C66.1891 58.9968 67.0112 63.9851 68.3257 68.4211C68.5741 69.2646 68.8438 70.0953 69.105 70.9003L69.6017 72.4418C69.6831 72.6858 69.773 72.9641 69.9485 73.174C70.1541 73.418 70.4024 73.4865 70.5394 73.5208C71.019 73.6492 71.5071 73.7135 71.9953 73.7135C72.8602 73.7135 73.7251 73.5122 74.5558 73.114C74.6072 73.0883 74.6757 73.0541 74.7528 73.0027C76.4783 73.5764 78.2425 73.9276 79.998 74.0432C80.1607 74.0517 80.3277 74.0603 80.5033 74.0603C81.1113 74.0603 81.7536 73.9533 82.3445 73.4865C82.4515 73.5465 82.58 73.5636 82.7084 73.5208C83.0253 73.4137 83.3978 73.4651 83.7917 73.5208C84.0272 73.555 84.2841 73.5893 84.5539 73.5893C84.9607 73.5893 85.3888 73.4994 85.7913 73.1954C85.7871 73.2981 85.8256 73.4052 85.9155 73.4737C89.1098 76.1027 92.304 78.8217 95.4083 81.5578C98.427 84.2168 101.6 87.0942 104.293 90.4298C107.23 94.0736 109.222 97.8416 110.206 101.627C110.249 101.785 110.39 101.888 110.545 101.888C110.575 101.888 110.605 101.884 110.635 101.875C110.823 101.828 110.934 101.635 110.887 101.447C109.877 97.5633 107.843 93.7054 104.841 89.9845C102.118 86.6061 98.9194 83.7073 95.8751 81.0268C92.7664 78.2865 89.5636 75.5632 86.3651 72.9299C86.3009 72.8785 86.2281 72.8571 86.151 72.8571C86.5535 72.3904 86.8447 71.7481 87.0802 71.1529C87.427 70.2794 87.7225 69.3331 87.9665 68.3483C88.1421 67.6247 88.2876 66.8754 88.4289 66.1517C88.5274 65.6379 88.6302 65.1198 88.7415 64.6146C88.8272 64.2335 88.9171 63.8524 89.007 63.4713C89.174 62.7691 89.3453 62.0412 89.478 61.2919C89.7692 59.6219 89.8462 57.875 89.8334 56.1494L90.4157 56.038C95.0701 55.1303 100.345 54.1027 104.858 54.8862C107.988 55.43 110.977 56.7189 113.229 57.7807C113.829 58.0634 114.407 58.3502 114.934 58.7056C114.934 58.7185 114.934 58.727 114.938 58.7399C114.942 58.9283 115.101 59.0781 115.289 59.0781C115.293 59.0781 115.297 59.0781 115.302 59.0781C115.34 59.0781 115.375 59.0653 115.409 59.0525C115.597 59.2066 115.777 59.3736 115.94 59.5577C116.586 60.2856 116.997 61.249 117.314 62.0926C119.211 67.1708 119.489 72.7329 119.755 78.1152C119.793 78.8902 119.832 79.6952 119.691 80.4488C119.562 81.1296 119.181 81.7548 118.813 82.3585C118.582 82.6839 118.38 83.0179 118.218 83.3647Z" fill="#221D1E" stroke="#221D1E" stroke-width="0.33"/>
<path d="M50.9247 101.363C53.1961 103.139 56.3553 104.007 59.5209 103.8C60.4472 103.74 61.377 103.629 62.3068 103.68C63.2322 103.732 64.0725 104.022 64.9266 104.284C66.5377 104.778 68.2422 105.015 69.9654 105.083C73.5346 105.223 77.0799 104.689 80.6332 104.51C82.5108 104.416 84.3956 104.474 86.2711 104.342C88.0586 104.214 89.832 103.946 91.5689 103.58C95.0859 102.839 98.4558 101.712 101.784 100.546C102.199 100.401 102.613 100.256 103.026 100.109C103.279 100.02 103.161 99.6868 102.904 99.7771C99.6204 100.935 96.3218 102.091 92.8845 102.923C91.1701 103.337 89.4225 103.671 87.6493 103.869C85.8011 104.075 83.9521 104.075 82.0936 104.114C78.5644 104.187 75.0725 104.716 71.5427 104.757C69.8168 104.777 68.0843 104.671 66.4165 104.31C65.5564 104.124 64.7495 103.837 63.9103 103.605C63.0697 103.372 62.216 103.297 61.3268 103.331C60.4245 103.366 59.5296 103.482 58.6255 103.492C57.8484 103.499 57.0744 103.434 56.3165 103.302C54.7919 103.034 53.3333 102.498 52.1029 101.728C51.796 101.535 51.5048 101.329 51.2264 101.112C51.0271 100.956 50.7254 101.207 50.9247 101.363Z" fill="#221D1E" stroke="#221D1E" stroke-width="0.4"/>
<path d="M58.3935 103.929C58.4365 105.335 57.9155 106.713 57.4982 108.069C57.4314 108.287 57.8504 108.372 57.9172 108.154C58.3441 106.769 58.8703 105.36 58.8253 103.921C58.8198 103.698 58.3866 103.706 58.3935 103.929Z" fill="#221D1E" stroke="#221D1E" stroke-width="0.4"/>
<path d="M56.4042 110.342C56.4013 110.182 56.3983 110.021 56.3954 109.862C56.3938 109.772 56.2925 109.685 56.1757 109.692C56.0588 109.699 55.9604 109.773 55.9622 109.87C55.9651 110.029 55.968 110.19 55.971 110.35C55.9726 110.44 56.0738 110.526 56.1907 110.519C56.3091 110.513 56.4059 110.439 56.4042 110.342Z" fill="#221D1E" stroke="#221D1E" stroke-width="0.4"/>
<path d="M52.0381 102.222C52.483 102.298 52.7332 102.791 52.4338 103.086C52.3216 103.196 52.1685 103.275 52.0329 103.364C51.8959 103.455 51.7793 103.556 51.6818 103.675C51.4895 103.907 51.3979 104.189 51.4087 104.466C51.4185 104.689 51.8518 104.681 51.8419 104.458C51.8292 104.158 51.9743 103.872 52.2522 103.668C52.5259 103.467 52.8411 103.325 52.9527 103.023C53.1275 102.553 52.7518 101.99 52.1461 101.887C51.8751 101.84 51.7657 102.176 52.0381 102.222Z" fill="#221D1E" stroke="#221D1E" stroke-width="0.4"/>
<path d="M68.6248 104.77C68.6348 105.318 68.6448 105.866 68.6547 106.415C68.6588 106.638 69.092 106.63 69.088 106.407C69.078 105.859 69.068 105.31 69.058 104.762C69.0539 104.539 68.6207 104.547 68.6248 104.77Z" fill="#221D1E" stroke="#221D1E" stroke-width="0.4"/>
<path d="M66.1089 114.475C67.2465 114.436 67.8272 113.564 68.0875 112.786C68.4109 111.825 68.5936 110.83 68.6738 109.841C68.6914 109.618 68.2582 109.627 68.2406 109.849C68.1688 110.746 67.9987 111.636 67.73 112.51C67.5255 113.176 67.1305 114.093 66.1026 114.128C65.824 114.138 65.8289 114.485 66.1089 114.475Z" fill="#221D1E" stroke="#221D1E" stroke-width="0.4"/>
<path d="M69.5242 114.414C69.4946 114.378 69.468 114.341 69.4427 114.302C69.4338 114.288 69.4248 114.274 69.4159 114.259C69.4055 114.241 69.404 114.239 69.413 114.256C69.407 114.245 69.4025 114.236 69.398 114.226C69.362 114.152 69.3331 114.078 69.313 114C69.3083 113.982 69.3036 113.964 69.3004 113.944C69.3083 113.982 69.297 113.916 69.2954 113.909C69.2904 113.871 69.2882 113.833 69.2861 113.796C69.2854 113.758 69.2862 113.72 69.2898 113.683C69.2897 113.676 69.2986 113.61 69.2935 113.648C69.2975 113.626 69.3014 113.605 69.3054 113.583C69.3254 113.493 69.2715 113.391 69.1498 113.372C69.0426 113.354 68.9062 113.402 68.8849 113.498C68.8022 113.878 68.8903 114.273 69.1519 114.597C69.2125 114.673 69.3504 114.708 69.4491 114.654C69.5464 114.601 69.5892 114.496 69.5242 114.414Z" fill="#221D1E" stroke="#221D1E" stroke-width="0.4"/>
<path d="M76.442 104.808C77.1792 105.072 77.4305 105.779 77.6862 106.338C78.0338 107.1 78.3586 107.88 78.4082 108.699C78.4224 108.923 78.8556 108.915 78.8414 108.692C78.7877 107.804 78.4357 106.961 78.0552 106.136C77.7725 105.521 77.4616 104.793 76.6561 104.504C76.4031 104.414 76.1876 104.717 76.442 104.808Z" fill="#221D1E" stroke="#221D1E" stroke-width="0.4"/>
<path d="M78.6166 104.913C78.6527 104.675 78.941 104.562 79.2184 104.565C79.5811 104.569 79.8729 104.809 80.0861 105.017C80.3715 105.295 80.6211 105.6 80.885 105.891C81.1843 106.222 81.4836 106.554 81.7829 106.885C81.945 107.064 82.3173 106.883 82.1537 106.703C81.7999 106.312 81.4475 105.92 81.0937 105.53C80.7944 105.197 80.5131 104.824 80.131 104.546C79.8075 104.31 79.4033 104.167 78.9611 104.24C78.5939 104.3 78.2453 104.517 78.1976 104.829C78.1834 104.923 78.2298 105.014 78.3531 105.04C78.4546 105.061 78.6024 105.007 78.6166 104.913Z" fill="#221D1E" stroke="#221D1E" stroke-width="0.4"/>
<path d="M92.863 112.216C92.8883 111.543 92.8933 110.869 92.8796 110.195C92.8681 109.642 92.8806 109.058 92.4274 108.607C92.2538 108.434 91.9536 108.686 92.1257 108.858C92.5259 109.257 92.4422 109.896 92.4495 110.375C92.4593 110.991 92.4517 111.607 92.4297 112.223C92.4208 112.448 92.854 112.439 92.863 112.216Z" fill="#221D1E" stroke="#221D1E" stroke-width="0.4"/>
<path d="M96.0407 111.724C95.601 111.059 95.223 110.371 94.9067 109.663C94.8134 109.454 94.3962 109.551 94.4911 109.763C94.8194 110.5 95.2124 111.216 95.6699 111.906C95.8006 112.103 96.1714 111.92 96.0407 111.724Z" fill="#221D1E" stroke="#221D1E" stroke-width="0.4"/>
<path d="M92.6395 103.122C94.0831 104.18 94.3578 105.857 95.279 107.178C95.414 107.373 95.7863 107.191 95.6498 106.997C94.705 105.643 94.4229 103.957 92.9412 102.871C92.7362 102.721 92.4331 102.972 92.6395 103.122Z" fill="#221D1E" stroke="#221D1E" stroke-width="0.4"/>
<path d="M99.6134 102.7C100.095 101.836 100.639 100.862 101.775 100.44C102.949 100.004 104.096 100.586 104.997 101.157C105.213 101.294 105.516 101.044 105.298 100.906C104.506 100.404 103.571 99.8855 102.506 99.9384C101.487 99.9894 100.653 100.55 100.099 101.202C99.7468 101.616 99.4908 102.075 99.2362 102.531C99.1229 102.735 99.4987 102.905 99.6134 102.7Z" fill="#221D1E" stroke="#221D1E" stroke-width="0.4"/>
<path d="M101.489 109.57C101.958 109.786 102.518 109.738 102.987 109.541C103.514 109.318 103.844 108.915 104.052 108.481C104.289 107.991 104.388 107.458 104.52 106.945C104.671 106.362 104.822 105.778 104.973 105.194C105.018 105.025 105.061 104.855 105.106 104.686C105.134 104.578 105.153 104.426 105.274 104.355C105.512 104.214 105.909 104.432 106.101 104.537C106.332 104.663 106.543 104.358 106.314 104.234C105.899 104.009 105.224 103.793 104.863 104.208C104.678 104.421 104.654 104.723 104.591 104.97C104.515 105.262 104.44 105.554 104.364 105.845C104.216 106.421 104.069 106.996 103.916 107.572C103.792 108.04 103.651 108.551 103.256 108.928C102.891 109.278 102.232 109.512 101.702 109.268C101.462 109.156 101.249 109.459 101.489 109.57Z" fill="#221D1E" stroke="#221D1E" stroke-width="0.4"/>
<defs>
<linearGradient id="paint0_linear" x1="79.1762" y1="109.632" x2="61.298" y2="58.1445" gradientUnits="userSpaceOnUse">
<stop offset="0.1676" stop-color="white"/>
<stop offset="1" stop-color="#BFBFBF"/>
</linearGradient>
</defs>
</svg>
