<svg width="127" height="127" viewBox="0 0 127 127" fill="none" xmlns="http://www.w3.org/2000/svg">
<mask id="mask0_371_1803" style="mask-type:luminance" maskUnits="userSpaceOnUse" x="0" y="0" width="127" height="127">
<path d="M126.303 0.135742H0.435547V126.003H126.303V0.135742Z" fill="white"/>
</mask>
<g mask="url(#mask0_371_1803)">
<path d="M55.7535 47.0568C55.7561 46.9724 55.7613 46.8828 55.8009 46.8093C55.9061 46.6064 56.18 46.5775 56.4065 46.5747C56.8043 46.5697 57.202 46.5644 57.5998 46.5591C57.6576 46.5591 57.7183 46.5591 57.7709 46.5827C57.8288 46.6117 57.8684 46.6671 57.9026 46.7197C58.042 46.9357 58.1475 47.1806 58.145 47.4386C58.1397 47.8311 57.8814 48.1735 57.6181 48.4657C57.5129 48.5818 57.3996 48.6976 57.268 48.7819C56.9571 48.9795 56.0564 49.2086 55.8668 48.7819C55.7903 48.6082 55.8983 48.2945 55.8905 48.1103C55.8746 47.7521 55.743 47.4203 55.7535 47.0568Z" fill="#E0B370"/>
<path d="M71.2926 47.3203C71.2954 47.236 71.3004 47.1466 71.3402 47.0729C71.4454 46.87 71.7193 46.841 71.9458 46.8385C72.3436 46.8332 72.7411 46.8277 73.1391 46.8226C73.1967 46.8226 73.2574 46.8226 73.31 46.8463C73.3679 46.8752 73.4074 46.9306 73.4419 46.9832C73.5814 47.1992 73.6868 47.4442 73.6841 47.7022C73.6788 48.0946 73.4208 48.437 73.1572 48.7295C73.052 48.8453 72.9387 48.9611 72.807 49.0454C72.4961 49.2431 71.5954 49.4721 71.4059 49.0454C71.3293 48.8717 71.4376 48.5581 71.4295 48.3738C71.4137 48.0156 71.282 47.6838 71.2926 47.3203Z" fill="#E0B370"/>
<path opacity="0.23" d="M82.4836 32.1134C82.0995 30.1655 81.6008 28.1685 80.3544 26.5443C79.1874 25.0191 77.5914 23.7911 75.8947 22.8305C72.093 20.6714 67.81 20.2721 63.4716 20.2819C59.604 20.2919 55.3973 20.6649 52.1494 22.8733C48.6387 25.2567 46.9178 29.1027 45.6886 32.9089C44.5979 36.2892 42.9153 41.3269 46.0592 44.0899C46.3812 45.295 48.5451 45.1696 48.604 43.7204C48.7631 39.7357 50.7991 36.078 54.1404 33.6848C55.7572 32.526 58.0667 30.6972 60.1787 30.7762C61.5743 30.8291 63.1806 30.5983 64.7285 30.4628C64.5138 28.2312 64.1191 26.0129 64.0393 23.7681C63.9839 22.1802 66.567 22.1867 66.6259 23.7681C66.7054 25.9898 67.0933 28.1849 67.3113 30.3969C69.226 30.5519 70.7981 31.7932 72.557 32.701C74.4336 33.6681 75.5795 35.8502 76.4453 37.6262C77.3905 39.5673 77.7852 41.5975 78.4881 43.6081C79.0248 45.1497 80.9291 45.9022 81.9608 44.2782C83.0135 42.6211 83.1555 40.4192 83.1452 38.5342C83.1346 36.3786 82.8992 34.2262 82.4836 32.1134Z" fill="#E0B370"/>
<path d="M69.4957 85.9884C71.0124 84.1158 73.024 82.9449 75.3724 82.5628C76.1714 82.4342 75.8306 81.1926 75.0399 81.3215C72.5049 81.7326 70.2458 83.0529 68.6076 85.0791C68.0923 85.7143 68.9806 86.6278 69.4957 85.9884Z" fill="#E0B370" stroke="#E0B370" stroke-width="0.365221"/>
<path d="M62.2715 85.0791C60.6332 83.0572 58.3741 81.7366 55.8392 81.3215C55.0485 81.1926 54.7076 82.4342 55.5066 82.5628C57.855 82.9449 59.8667 84.1117 61.3834 85.9884C61.8984 86.6278 62.7827 85.7143 62.2715 85.0791Z" fill="#E0B370" stroke="#E0B370" stroke-width="0.365221"/>
<path d="M48.4338 46.8564C48.3243 50.6307 48.9854 54.7644 49.695 58.4515C49.8654 59.3414 51.0904 58.9132 50.9199 58.0233C50.2347 54.4548 49.5855 50.5028 49.695 46.8564C49.7194 45.9484 48.462 45.9484 48.4338 46.8564Z" fill="#E0B370" stroke="#E0B370" stroke-width="0.365221"/>
<path d="M49.7502 58.4125C51.2629 62.3279 53.4288 66.0025 57.0669 68.1782C59.5286 69.6522 63.5641 71.3463 66.4314 70.8189C68.735 70.3955 71.0794 68.6973 72.9166 67.2939C74.6727 65.9527 76.2707 64.3914 77.5603 62.5729C80.7238 58.1177 81.328 52.7696 81.62 47.4301C81.6648 46.6039 80.4074 46.6039 80.3628 47.4301C80.1073 52.1012 79.6653 56.8097 77.1749 60.8704C75.9056 62.9381 74.1898 64.7194 72.2839 66.181C70.5925 67.4807 68.3904 69.0835 66.2975 69.4986C63.7952 69.9927 60.0638 68.4358 57.878 67.1693C54.4428 65.1803 52.3824 61.7381 50.9628 58.0719C50.6708 57.3079 49.4502 57.6402 49.7502 58.4125Z" fill="#E0B370" stroke="#E0B370" stroke-width="0.365221"/>
<path d="M81.6101 46.0066C84.9964 47.3309 84.4207 55.6973 80.2958 55.1037C79.5051 54.9917 79.1605 56.229 79.9635 56.3453C85.771 57.1841 86.9109 46.7039 81.9467 44.765C81.1882 44.4702 80.8597 45.7158 81.6101 46.0066Z" fill="#E0B370" stroke="#E0B370" stroke-width="0.365221"/>
<path d="M46.8447 44.7576C42.6513 45.945 42.9999 54.2741 47.076 55.3704C47.8586 55.5821 48.1955 54.3406 47.4085 54.1289C44.5775 53.3692 44.241 46.8296 47.1774 45.9991C47.9561 45.7791 47.6275 44.5376 46.8447 44.7576Z" fill="#E0B370" stroke="#E0B370" stroke-width="0.365221"/>
<path d="M81.3834 51.6987C81.586 50.7812 82.093 50.0129 82.8716 49.5104C83.5571 49.0704 82.9245 47.9537 82.235 48.3977C81.1885 49.0704 80.4424 50.1168 80.1665 51.3584C79.9923 52.1637 81.2049 52.5083 81.3834 51.6987Z" fill="#E0B370" stroke="#E0B370" stroke-width="0.365221"/>
<path d="M49.6854 50.287C49.3284 48.9125 48.4484 47.754 47.2318 47.0691C46.5221 46.6703 45.8852 47.7832 46.5949 48.1817C47.5401 48.7134 48.1929 49.5645 48.4728 50.6313C48.6797 51.4288 49.8923 51.0882 49.6854 50.287Z" fill="#E0B370" stroke="#E0B370" stroke-width="0.365221"/>
<path d="M62.6315 55.052C63.7482 55.7501 65.1519 55.7529 66.2739 55.0654C66.9666 54.6415 66.3318 53.5482 65.6365 53.9749C64.8833 54.4358 64.0193 54.428 63.2714 53.9618C62.5761 53.5273 61.9415 54.6203 62.6315 55.052Z" fill="#E0B370" stroke="#E0B370" stroke-width="0.365221"/>
<path d="M70.0846 48.3926C71.6569 46.3382 74.3195 47.0599 76.1579 48.2951C76.8349 48.7508 77.4695 47.655 76.7953 47.2046C74.2775 45.5112 70.9959 45.1371 68.9916 47.7552C68.4964 48.4004 69.5947 49.0325 70.0846 48.3926Z" fill="#E0B370" stroke="#E0B370" stroke-width="0.365221"/>
<path d="M68.7381 44.3998C70.7132 42.9802 73.3338 42.3298 75.3512 44.0707C75.9649 44.5999 76.8631 43.7098 76.2441 43.1778C73.8131 41.0786 70.5791 41.5265 68.1007 43.3095C67.445 43.7782 68.0768 44.874 68.7381 44.3998Z" fill="#E0B370" stroke="#E0B370" stroke-width="0.365221"/>
<path d="M70.392 47.0334C70.2973 48.3713 70.284 50.0438 71.9092 50.3781C73.9107 50.7892 74.3533 47.9157 74.1267 46.5251C73.9976 45.7243 72.7782 46.0642 72.9073 46.8622C72.9889 47.3679 72.9048 49.3327 72.0776 49.1192C71.3191 48.9244 71.6195 47.5733 71.659 47.0334C71.7144 46.2223 70.4501 46.2248 70.392 47.0334Z" fill="#E0B370" stroke="#E0B370" stroke-width="0.365221"/>
<path d="M60.1019 47.4908C58.0976 44.873 54.8188 45.2471 52.2982 46.9405C51.6265 47.3908 52.2586 48.4864 52.9356 48.0308C54.7737 46.7955 57.4366 46.0738 59.0089 48.1282C59.4988 48.7656 60.5971 48.1388 60.1019 47.4908Z" fill="#E0B370" stroke="#E0B370" stroke-width="0.365221"/>
<path d="M60.9912 43.0426C58.5126 41.2623 55.2786 40.812 52.8476 42.9109C52.2314 43.4431 53.1293 44.3332 53.7405 43.8038C55.7526 42.0656 58.3784 42.7133 60.3538 44.1331C61.0149 44.6096 61.647 43.5141 60.9912 43.0426Z" fill="#E0B370" stroke="#E0B370" stroke-width="0.365221"/>
<path d="M57.4367 46.7693C57.4764 47.3092 57.7765 48.6603 57.018 48.8554C56.1911 49.0661 56.1042 47.1038 56.1886 46.5981C56.3175 45.8028 55.1006 45.4602 54.9689 46.261C54.7426 47.6516 55.1824 50.5251 57.1867 50.1143C58.8116 49.7823 58.7986 48.11 58.7036 46.7693C58.6432 45.9635 57.3788 45.9557 57.4367 46.7693Z" fill="#E0B370" stroke="#E0B370" stroke-width="0.365221"/>
<path d="M80.5395 45.2974C80.4474 41.5986 79.4649 37.837 76.9339 34.9468C74.6057 32.29 71.0081 30.6578 67.3602 31.017C66.5597 31.0948 66.5517 32.3026 67.3602 32.2223C70.7103 31.8933 73.9104 33.3546 76.041 35.7982C78.3431 38.4371 79.1938 41.9377 79.2781 45.2974C79.2965 46.0709 80.5604 46.0734 80.5395 45.2974Z" fill="#E0B370" stroke="#E0B370" stroke-width="0.365221"/>
<path d="M64.6125 24.0915C64.9128 26.4793 65.0258 28.8675 64.9576 31.2731C64.9337 32.0489 66.2007 32.0489 66.2216 31.2731C66.2903 28.87 66.177 26.4793 65.8767 24.0915C65.7821 23.3331 64.5176 23.323 64.6125 24.0915Z" fill="#E0B370" stroke="#E0B370" stroke-width="0.365221"/>
<path d="M83.3326 46.6434C87.9101 38.4721 84.3491 26.3788 75.9055 21.7585C73.2902 20.3271 70.3114 19.732 67.3115 19.8601C66.5004 19.8952 66.4976 21.1005 67.3115 21.0654C73.8354 20.7867 79.1606 24.4377 81.9342 29.9345C84.402 34.8237 84.984 41.1339 82.2396 46.0357C81.8577 46.7186 82.9507 47.3288 83.3326 46.6434Z" fill="#E0B370" stroke="#E0B370" stroke-width="0.365221"/>
<path d="M65.1362 19.0486C61.6175 17.4992 56.8345 19.0033 53.6373 20.5903C48.4407 23.1718 44.7299 27.8272 43.55 33.3064C42.5912 37.7586 43.1812 42.354 44.4324 46.6979C44.6483 47.4463 45.8675 47.1274 45.6518 46.3767C43.7869 39.9031 43.5261 32.6184 47.7902 26.9232C50.5135 23.2898 54.8277 20.7511 59.4183 19.9148C61.0012 19.6261 62.9816 19.4201 64.4986 20.0882C65.2336 20.412 65.8761 19.3724 65.1362 19.0486Z" fill="#E0B370" stroke="#E0B370" stroke-width="0.365221"/>
<path d="M63.5538 30.5423C55.2287 30.6276 50.4588 37.8746 47.4775 44.3381C47.1536 45.0414 48.2413 45.6564 48.5678 44.9458C51.3517 38.9142 55.7133 31.8279 63.5538 31.7476C64.3676 31.7375 64.3676 30.5322 63.5538 30.5423Z" fill="#E0B370" stroke="#E0B370" stroke-width="0.365221"/>
<path d="M58.5967 60.7165C62.4331 62.2227 66.55 62.3369 70.2895 60.4915C71.0683 60.1071 70.3864 58.9403 69.6073 59.3247C66.1865 61.0143 62.4366 60.7787 58.9569 59.4146C58.1466 59.0961 57.7969 60.4014 58.5967 60.7165Z" fill="#E0B370" stroke="#E0B370" stroke-width="0.365221"/>
<g opacity="0.23">
<path opacity="0.23" d="M63.515 64.3738C62.0607 63.9202 60.7899 62.7431 60.1077 61.2058C59.9381 60.8214 59.7996 60.3919 59.8724 59.9695C59.9625 59.4434 60.3607 59.0554 60.769 58.7889C62.071 57.9267 63.6431 57.823 65.1492 57.757C65.5646 57.7399 65.9837 57.7225 66.3888 57.8194C67.0881 57.9891 67.6872 58.4807 68.2654 58.9585C68.4557 59.1179 68.6566 59.2875 68.7639 59.5297C68.8331 59.6858 68.8575 59.8623 68.8782 60.0354C68.9439 60.624 68.9509 61.2541 68.7085 61.7805C68.4245 62.4073 67.8498 62.7776 67.3063 63.1169C66.8527 63.3974 66.392 63.6813 65.8901 63.8059C65.62 63.8716 65.3431 63.889 65.0694 63.8996C63.9789 63.9408 62.8814 63.8545 61.8044 63.6468" fill="#E0B370"/>
<path opacity="0.23" d="M63.515 64.3738C62.0607 63.9202 60.7899 62.7431 60.1077 61.2058C59.9381 60.8214 59.7996 60.3919 59.8724 59.9695C59.9625 59.4434 60.3607 59.0554 60.769 58.7889C62.071 57.9267 63.6431 57.823 65.1492 57.757C65.5646 57.7399 65.9837 57.7225 66.3888 57.8194C67.0881 57.9891 67.6872 58.4807 68.2654 58.9585C68.4557 59.1179 68.6566 59.2875 68.7639 59.5297C68.8331 59.6858 68.8575 59.8623 68.8782 60.0354C68.9439 60.624 68.9509 61.2541 68.7085 61.7805C68.4245 62.4073 67.8498 62.7776 67.3063 63.1169C66.8527 63.3974 66.392 63.6813 65.8901 63.8059C65.62 63.8716 65.3431 63.889 65.0694 63.8996C63.9789 63.9408 62.8814 63.8545 61.8044 63.6468" stroke="#E0B370" stroke-width="0.365221"/>
</g>
<path d="M55.6023 27.964C51.1655 30.6276 47.9426 34.2209 46.3315 38.3495C46.0888 38.9706 47.3583 39.208 47.6009 38.591C49.1088 34.7319 52.1309 31.3095 56.282 28.8146C56.9393 28.4191 56.2677 27.562 55.6023 27.964Z" fill="#E0B370" stroke="#E0B370" stroke-width="0.365221"/>
<path d="M81.8536 44.6183C82.352 40.8946 82.969 36.2622 80.2994 32.9136C79.8656 32.3716 78.7479 32.8683 79.1842 33.4123C81.7108 36.5816 81.0322 41.0925 80.5607 44.6183C80.4746 45.2509 81.7675 45.2468 81.8536 44.6183Z" fill="#E0B370" stroke="#E0B370" stroke-width="0.365221"/>
<path fill-rule="evenodd" clip-rule="evenodd" d="M81.2062 96.7077C76.6536 96.3208 70.8861 96.1192 65.7273 96.2451C64.2172 96.2818 62.6048 96.3077 60.9514 96.3344C56.9423 96.3991 52.6923 96.4676 49.0792 96.7035C46.5258 96.8704 44.3322 97.1186 42.7888 97.4967C42.0122 97.687 41.4463 97.8997 41.0884 98.1225C40.7243 98.3493 40.6967 98.5036 40.6967 98.5603C40.6967 98.8968 40.424 99.1695 40.0877 99.1695C39.7511 99.1695 39.4785 98.8968 39.4785 98.5603C39.4785 97.8861 39.9301 97.4086 40.4444 97.0881C40.9648 96.7641 41.6772 96.5147 42.4988 96.3133C44.1515 95.9082 46.4337 95.6552 48.9999 95.4878C52.6445 95.25 56.9456 95.1805 60.9673 95.1155C62.6121 95.0891 64.2104 95.0632 65.6976 95.0269C70.9027 94.9 76.7143 95.1032 81.3094 95.4936C83.605 95.689 85.6106 95.9319 87.0895 96.2068C87.8266 96.3437 88.4521 96.492 88.9236 96.6529C89.1585 96.7329 89.3745 96.8228 89.5532 96.926C89.7153 97.0194 89.9275 97.1692 90.0486 97.4051C90.2024 97.7041 90.0844 98.0714 89.7851 98.2249C89.5036 98.3697 89.162 98.274 88.9946 98.0132C88.9845 98.0059 88.9684 97.9951 88.944 97.981C88.8607 97.9329 88.7263 97.873 88.5302 97.8061C88.14 97.6729 87.5806 97.5372 86.867 97.4045C85.4444 97.1402 83.4839 96.9013 81.2062 96.7077Z" fill="#E0B370" stroke="#E0B370" stroke-width="0.365221" stroke-linecap="round"/>
<path fill-rule="evenodd" clip-rule="evenodd" d="M56.5942 66.5085C56.6068 68.4137 56.5275 70.4197 55.9145 72.3203V72.3206C54.9322 75.3646 52.5695 77.9244 49.6128 79.1463L49.6126 79.1466C49.4603 79.2095 49.1947 79.2775 48.9022 79.3462C48.5898 79.4197 48.1878 79.5066 47.7241 79.6035C47.1363 79.7263 46.4397 79.8673 45.6883 80.0191C45.2553 80.1067 44.804 80.1981 44.3448 80.2917C41.8126 80.8081 39.0518 81.3938 37.589 81.859C33.0382 83.3065 31.1945 86.1936 29.1491 89.3965C28.9112 89.7693 28.6703 90.1464 28.4221 90.526L27.4023 89.8594C27.6443 89.4896 27.8816 89.116 28.1198 88.742C30.1578 85.5399 32.2296 82.285 37.2197 80.698H37.22C38.7586 80.2084 41.5926 79.6093 44.1014 79.0978C44.5656 79.0031 45.0192 78.9115 45.4529 78.8236C46.2011 78.6723 46.8903 78.5331 47.4749 78.4108C47.936 78.3144 48.3262 78.23 48.6238 78.1601C48.7726 78.1251 48.8944 78.0946 48.9883 78.0689C49.0351 78.0563 49.0726 78.0453 49.1013 78.0362C49.1157 78.0317 49.1267 78.0279 49.135 78.0249L49.1444 78.0216C49.1466 78.0206 49.1476 78.0203 49.1476 78.0203C51.7735 76.9351 53.8825 74.6501 54.7548 71.9463C55.3045 70.2415 55.3881 68.4001 55.3758 66.5166L56.5942 66.5085ZM49.1476 78.0203H49.1474L49.3787 78.5799L49.1476 78.0203Z" fill="#E0B370"/>
<path d="M49.1476 78.0203L49.8351 78.2814L49.1351 78.0249C49.1267 78.0279 49.1157 78.0317 49.1013 78.0362C49.0726 78.0453 49.0351 78.0563 48.9883 78.0689C48.8944 78.0946 48.7726 78.1251 48.6238 78.1601C48.3262 78.23 47.936 78.3144 47.4749 78.4108C46.8903 78.5331 46.2011 78.6723 45.4529 78.8236C45.0192 78.9115 44.5656 79.0031 44.1014 79.0978C41.5926 79.6093 38.7586 80.2084 37.22 80.698C32.2298 82.285 30.1578 85.5399 28.1198 88.742C27.8816 89.116 27.6443 89.4896 27.4023 89.8594L28.4221 90.526C28.6703 90.1464 28.9112 89.7693 29.1491 89.3965C31.1945 86.1936 33.0382 83.3065 37.589 81.859C39.0518 81.3938 41.8126 80.8081 44.3448 80.2917C44.804 80.1981 45.2553 80.1067 45.6883 80.0191C46.4397 79.8673 47.1363 79.7263 47.7241 79.6035C48.1878 79.5066 48.5898 79.4197 48.9022 79.3462C49.1947 79.2775 49.4603 79.2095 49.6126 79.1466C52.5692 77.9247 54.9322 75.3646 55.9145 72.3206C56.5272 70.42 56.6068 68.4137 56.5942 66.5085L55.3758 66.5166C55.3881 68.4001 55.3045 70.2415 54.7548 71.9463C53.8825 74.6501 51.7735 76.9351 49.1476 78.0203ZM49.1476 78.0203L49.3787 78.5799" stroke="#E0B370" stroke-width="0.365221" stroke-miterlimit="10"/>
<path fill-rule="evenodd" clip-rule="evenodd" d="M74.2087 66.1271C74.1964 68.0186 74.289 70.2447 74.8375 71.9459C75.7101 74.6498 77.8191 76.9345 80.4449 78.02C80.4449 78.02 80.4452 78.02 80.4457 78.0202C80.4462 78.0205 80.4472 78.0207 80.4482 78.021L80.4575 78.0245C80.4658 78.0275 80.4769 78.0311 80.4912 78.0356C80.5199 78.0449 80.5575 78.0557 80.6043 78.0686C80.6982 78.0942 80.82 78.1247 80.9688 78.1597C81.2663 78.2294 81.6565 78.314 82.1177 78.4104C82.702 78.5325 83.3915 78.672 84.1394 78.8233C84.5734 78.9109 85.0267 79.0028 85.4912 79.0972C87.9997 79.6089 90.834 80.2081 92.3728 80.6974C97.3627 82.2846 99.4345 85.5393 101.473 88.7416C101.711 89.1157 101.949 89.489 102.19 89.8588L101.17 90.5256C100.922 90.146 100.681 89.7689 100.443 89.3961C98.3979 86.193 96.5544 83.3059 92.0036 81.8587C90.5407 81.3935 87.78 80.8074 85.2478 80.2911C84.7883 80.1975 84.3372 80.1064 83.904 80.0188C83.1528 79.8667 82.4563 79.726 81.8685 79.6031C81.4045 79.5062 81.0028 79.4191 80.6901 79.3459C80.3979 79.2771 80.1325 79.2089 79.9797 79.146V79.1457C77.0231 77.9241 74.6603 75.3639 73.6781 72.32C73.0641 70.4159 72.978 68.0161 72.9903 66.1193L74.2087 66.1271Z" fill="#E0B370"/>
<path d="M92.0036 81.8587C96.5544 83.3059 98.3979 86.193 100.443 89.3961C100.681 89.7689 100.922 90.146 101.17 90.5256L102.19 89.8588C101.949 89.489 101.711 89.1157 101.473 88.7416C99.4345 85.5393 97.3627 82.2846 92.3728 80.6974C90.834 80.2081 87.9997 79.6089 85.4912 79.0972C85.0267 79.0028 84.5734 78.9109 84.1394 78.8233C83.3915 78.672 82.702 78.5325 82.1177 78.4104C81.6565 78.314 81.2663 78.2294 80.9688 78.1597C80.82 78.1247 80.6982 78.0942 80.6043 78.0686C80.5575 78.0557 80.5199 78.0449 80.4912 78.0356C80.4769 78.0311 80.4658 78.0275 80.4575 78.0245L80.4482 78.021C80.4472 78.0207 80.4462 78.0205 80.4457 78.0202C80.4452 78.02 80.4449 78.02 80.4449 78.02C77.8191 76.9345 75.7101 74.6498 74.8375 71.9459C74.289 70.2447 74.1964 68.0186 74.2087 66.1271L72.9903 66.1193C72.978 68.0161 73.0641 70.4159 73.6781 72.32C74.6603 75.3639 77.0231 77.9241 79.9797 79.1457V79.146C80.1325 79.2089 80.3979 79.2771 80.6901 79.3459C81.0028 79.4191 81.4045 79.5062 81.8685 79.6031C82.4563 79.726 83.1528 79.8667 83.904 80.0188C84.3372 80.1064 84.7883 80.1975 85.2478 80.2911C87.78 80.8074 90.5407 81.3935 92.0036 81.8587ZM92.0036 81.8587L92.1881 81.2779" stroke="#E0B370" stroke-width="0.365221" stroke-miterlimit="10"/>
<path d="M81.2463 68.0328C85.7229 65.6901 89.1881 61.863 91.0021 57.1385C91.325 56.2999 92.6889 56.6655 92.3627 57.5136C90.4148 62.5774 86.7734 66.7311 81.9578 69.2499C81.155 69.6675 80.4405 68.4537 81.2463 68.0328Z" fill="#E0B370"/>
<path d="M86.1177 58.13C87.6447 57.4483 89.1947 56.825 90.7247 56.1562C91.3578 55.882 92.2877 55.2066 92.9468 55.7841C93.5177 56.2803 93.7168 57.5591 93.968 58.2476C94.3464 59.2852 94.7444 60.3521 94.8131 61.4647C94.8685 62.3717 93.459 62.3685 93.4034 61.4647C93.3546 60.7012 93.0772 59.9541 92.8292 59.2329C92.6988 58.8512 92.3529 57.2754 92.0365 57.0926C91.971 56.8479 91.9451 56.8673 91.9549 57.1447C91.782 57.2198 91.609 57.2948 91.4361 57.3733C91.0902 57.5853 90.6268 57.7192 90.2451 57.8791C89.1033 58.3619 87.9579 58.8382 86.8291 59.3439C86.01 59.7157 85.2923 58.5021 86.1177 58.13Z" fill="#E0B370"/>
<path d="M48.0949 68.0328C43.6185 65.6901 40.1534 61.863 38.3392 57.1385C38.0162 56.2999 36.6523 56.6655 36.9788 57.5136C38.9265 62.5774 42.5678 66.7311 47.3837 69.2499C48.1863 69.6675 48.9009 68.4537 48.0949 68.0328Z" fill="#E0B370"/>
<path d="M43.2212 58.13C41.6941 57.4483 40.1445 56.825 38.6142 56.1562C37.9813 55.882 37.0512 55.2066 36.3921 55.7841C35.8212 56.2803 35.6221 57.5591 35.3708 58.2476C34.9925 59.2852 34.5945 60.3521 34.526 61.4647C34.4704 62.3717 35.8798 62.3685 35.9352 61.4647C35.9843 60.7012 36.2617 59.9541 36.5097 59.2329C36.6401 58.8512 36.986 57.2754 37.3026 57.0926C37.3678 56.8479 37.3938 56.8673 37.3842 57.1447C37.5571 57.2198 37.7301 57.2948 37.9028 57.3733C38.2487 57.5853 38.7121 57.7192 39.0937 57.8791C40.2359 58.3619 41.381 58.8382 42.51 59.3439C43.3289 59.7157 44.0466 58.5021 43.2212 58.13Z" fill="#E0B370"/>
<path d="M63.4838 124.08C97.517 124.08 125.106 96.4909 125.106 62.4577C125.106 28.4248 97.517 0.835327 63.4838 0.835327C29.4506 0.835327 1.86133 28.4248 1.86133 62.4577C1.86133 96.4909 29.4506 124.08 63.4838 124.08Z" stroke="#E0B370" stroke-width="1.31111" stroke-miterlimit="10"/>
<path opacity="0.23" fill-rule="evenodd" clip-rule="evenodd" d="M52.6993 76.985C53.6511 76.4569 54.4788 75.6385 55.0485 74.6877C56.1657 72.8236 56.4542 70.553 56.4484 68.3583C56.4469 67.4961 55.7191 66.7324 55.009 65.9867C54.5692 65.5251 54.136 65.0704 53.8862 64.6037C53.5819 64.0338 53.1492 63.5578 52.7278 63.0941C52.0176 62.3124 51.3397 61.5665 51.3646 60.4682C50.9258 61.966 50.8367 61.0976 50.7607 60.3572C50.7199 59.9607 50.6829 59.601 50.5981 59.6614C50.1042 58.296 49.7633 59.2536 49.2936 60.5735C48.9205 61.6222 48.4659 62.8997 47.7885 63.4218C47.5816 63.5814 47.3746 63.7418 47.17 63.9047C48.6396 65.1381 50.0586 66.5124 50.9442 68.1904C51.5061 69.255 51.4953 70.2257 51.449 71.4292C51.4321 71.8688 51.2098 72.3823 50.874 72.67C50.5168 72.9764 50.004 72.9512 49.5204 72.9276C49.3938 72.9215 49.2689 72.9155 49.1496 72.9155C47.4066 72.9155 44.7536 71.9513 43.4073 70.8885C43.2384 70.7553 42.9723 70.5721 42.6524 70.3621C42.2584 71.4456 41.9359 72.5648 41.6369 73.6722C41.5258 74.0828 40.7271 75.2083 39.8478 76.4471C38.6465 78.14 37.2947 80.0448 37.342 80.6258C37.3851 81.154 38.5994 80.5934 39.8702 80.0066C41.0224 79.4747 42.2211 78.9214 42.6355 79.1383C43.5319 79.6093 44.6096 79.384 45.5881 79.1383C48.3796 78.436 51.1456 77.64 53.8862 76.7534L52.6993 76.985Z" fill="#E0B370"/>
<path opacity="0.23" fill-rule="evenodd" clip-rule="evenodd" d="M78.0355 77.1206C76.9857 76.5459 76.0732 75.6552 75.4446 74.6203C74.2124 72.5919 73.8942 70.1208 73.9005 67.7324C73.9038 66.2134 74.044 64.6404 74.7647 63.3125C75.0929 62.7058 75.7895 61.9146 76.5404 61.0617C77.464 60.0125 78.4697 58.8704 78.9729 57.8634C79.6851 57.7373 80.6631 59.0159 81.6315 60.2821C82.2684 61.1148 82.9012 61.942 83.4513 62.3604C83.5603 62.4432 83.669 62.5263 83.7775 62.6096C83.633 62.7196 83.4893 62.8321 83.3458 62.9469C81.4943 64.4279 79.5179 66.0657 78.3965 68.1903C77.8348 69.2549 77.8454 70.2256 77.8917 71.4291C77.9086 71.8686 78.1311 72.3822 78.4667 72.6699C78.8239 72.9763 79.3369 72.9511 79.8203 72.9274H79.8205C79.9471 72.9214 80.0717 72.9151 80.1911 72.9151C81.9341 72.9151 84.5874 71.9512 85.9334 70.8884C86.3797 70.5362 87.5057 69.8356 88.5064 69.2131C88.5977 69.1562 88.6884 69.0998 88.7772 69.0444C89.3726 70.4876 89.8239 72.0114 90.2355 73.5155C90.3581 73.9621 91.2389 75.1867 92.2084 76.5348C93.5335 78.3772 95.0245 80.4503 94.9721 81.0829C94.9248 81.6573 93.5856 81.0474 92.1839 80.4087C90.9132 79.83 89.5913 79.2276 89.1344 79.4637C88.1456 79.9765 86.9574 79.7313 85.878 79.4637C82.7995 78.6994 79.749 77.8335 76.7265 76.8686L78.0355 77.1206ZM79.2982 56.7638C79.2886 57.1009 79.1688 57.472 78.9729 57.8634C78.7167 57.909 78.4949 58.1365 78.3204 58.6123C78.156 58.4973 78.662 57.7363 79.0165 57.2031C79.1408 57.0161 79.2466 56.857 79.2982 56.7638ZM79.2982 56.7638C79.2989 56.7379 79.2989 56.7125 79.2984 56.6871C79.3457 56.6566 79.3395 56.6888 79.2982 56.7638Z" fill="#E0B370"/>
<path fill-rule="evenodd" clip-rule="evenodd" d="M81.2625 55.7411C81.4838 55.8549 81.6612 56.0663 81.7536 56.3704V56.3707C82.396 58.4956 83.3705 60.3509 84.5126 62.077C84.1179 62.3479 83.7302 62.6391 83.3456 62.947C83.255 63.0192 83.1643 63.0922 83.0732 63.1652C81.8007 61.2964 80.7021 59.277 79.9968 56.9436C79.9039 56.6373 79.9323 56.3596 80.0489 56.1371C80.1639 55.9166 80.3593 55.7625 80.5778 55.6908C80.7965 55.6193 81.0435 55.6283 81.2625 55.7411ZM88.0188 69.5167C90.2663 72.3654 92.291 75.3414 93.2005 79.1745V79.1748C93.2747 79.4867 93.4379 79.7082 93.6541 79.8293C93.8681 79.9491 94.114 79.9592 94.3328 79.8869C94.7753 79.7404 95.1139 79.2584 94.9631 78.623C94.0015 74.5723 91.8565 71.4825 89.5377 68.5675C89.2402 68.7565 88.882 68.9793 88.5064 69.2132C88.346 69.3131 88.1822 69.4148 88.0188 69.5167Z" fill="#E0B370"/>
<path fill-rule="evenodd" clip-rule="evenodd" d="M50.9415 58.4487C51.1157 57.8667 50.8181 57.4166 50.4038 57.2789C50.2009 57.2115 49.9713 57.2203 49.7676 57.3263C49.562 57.4335 49.3989 57.6316 49.3143 57.9141C48.696 59.9868 47.7382 61.7807 46.6197 63.4499C47.0502 63.8004 47.4814 64.1611 47.9013 64.5364C49.161 62.7154 50.2558 60.7476 50.9415 58.4487ZM43.141 70.6921C42.7934 70.4474 42.2861 70.1217 41.7454 69.7816C39.8385 72.276 38.1267 74.9567 37.3234 78.3851C37.1852 78.9749 37.4949 79.4265 37.9059 79.5642C38.1091 79.6324 38.3382 79.6228 38.5373 79.5098C38.7384 79.3958 38.8885 79.1879 38.9564 78.8984C39.7111 75.6752 41.3122 73.1112 43.141 70.6921Z" fill="#E0B370"/>
</g>
</svg>
