<svg width="127" height="128" viewBox="0 0 127 128" fill="none" xmlns="http://www.w3.org/2000/svg">
<path d="M63.0933 125.55C97.1262 125.55 124.715 97.9613 124.715 63.9281C124.715 29.8949 97.1262 2.30566 63.0933 2.30566C29.0601 2.30566 1.4707 29.8949 1.4707 63.9281C1.4707 97.9613 29.0601 125.55 63.0933 125.55Z" stroke="#E0B370" stroke-width="1.31111" stroke-miterlimit="10"/>
<path d="M42.4655 51.2201C50.4294 51.2201 58.39 51.2201 66.3536 51.2201C67.6236 51.2201 67.6271 49.2448 66.3536 49.2448C58.39 49.2448 50.4294 49.2448 42.4655 49.2448C41.1955 49.2448 41.192 51.2201 42.4655 51.2201Z" fill="#E0B370"/>
<path d="M52.0668 90.0166C51.1104 85.8978 50.3572 80.8324 49.7133 75.9306C49.0694 71.0288 48.4967 66.0732 47.7412 61.2578C48.262 61.7922 48.7967 62.3161 49.1784 61.7293C49.4646 61.2822 49.6801 60.205 50.0909 60.8255C50.2414 61.0587 51.1021 59.0221 51.2557 59.2917C51.5598 59.8317 51.1061 62.1472 51.3367 61.974C52.1888 60.0472 52.3923 61.1843 52.9211 60.7936C54.0607 68.3398 54.7689 76.0439 55.4531 83.5473C55.6439 85.6337 55.8372 87.9227 55.7026 89.1665C55.6011 90.0927 55.3348 90.2142 55.0815 90.3159C53.9243 90.7379 52.7135 91.1104 51.2557 88.3494" fill="#F8EEDE"/>
<path d="M55.2597 90.6135C53.628 86.4881 52.9959 81.3982 52.6611 76.4698C52.326 71.5411 52.2419 66.555 51.5137 61.7179C53.0148 62.2375 54.5649 62.746 56.0164 62.1376C57.1072 61.6746 58.1944 60.5773 59.3071 61.1885C59.7124 61.4181 63.1682 60.7749 63.5705 61.0415C64.3655 61.5749 62.1336 62.4842 62.9452 62.3002C64.8052 61.8846 71.7941 62.7226 73.6542 62.3072C74.6518 69.889 71.6738 80.5559 71.2063 88.1125C71.0784 90.2135 69.5348 91.4309 67.3842 89.6111C66.7219 90.551 65.8129 90.6842 64.9527 90.797C61.0395 91.2692 56.9695 91.6934 53.2209 88.9601" fill="#F8EEDE"/>
<path d="M40.151 45.6978C41.6317 55.4616 42.5052 65.3338 43.5786 75.1467C44.112 80.0406 44.6382 84.9346 45.2242 89.822C45.4276 91.5059 45.375 93.667 46.3608 95.0984C47.2484 96.386 48.5992 96.8104 50.0832 96.8489C57.2014 97.0244 64.3303 96.9788 71.4486 97.0455C72.2803 97.0523 73.1221 97.1017 73.9536 97.0699C76.2376 96.9823 77.6901 95.4387 78.0478 93.2599C78.7285 89.0676 79.2126 84.8364 79.7598 80.6264C80.479 75.0973 81.1771 69.565 81.8684 64.0324C82.2193 61.1976 82.7701 58.3067 82.9068 55.451C82.9664 54.1913 81.0089 54.1948 80.9455 55.451C80.8438 57.5454 80.4476 59.6645 80.1913 61.7449C79.6405 66.197 79.0827 70.6489 78.5145 75.0973C77.9285 79.6759 77.3392 84.2542 76.7146 88.8289C76.5077 90.3481 76.6059 92.9058 75.7218 94.2037C74.9885 95.2806 73.7431 95.1089 72.638 95.0984C65.6705 95.0352 58.703 94.972 51.7355 94.9053C51.0549 94.8985 50.3148 94.9755 49.6376 94.8879C47.2204 94.5685 47.4133 91.7057 47.1855 89.822C46.6415 85.3031 46.1538 80.7739 45.6592 76.2483C44.5297 65.8917 43.6033 55.4754 42.042 45.1752C41.8527 43.9367 39.9617 44.4631 40.151 45.6978Z" fill="#E0B370"/>
<path d="M76.3589 24.9569C76.3521 24.9745 76.3941 24.9253 76.201 25.1464C75.9906 25.3884 75.7696 25.6235 75.5556 25.8655C74.8608 26.6408 74.1733 27.4232 73.5103 28.2232C71.665 30.4508 69.9457 32.805 68.532 35.3344C65.4867 40.783 63.7958 47.568 67.7181 53.0585C70.9562 57.5913 76.8397 58.4894 81.8074 56.4826C83.8527 55.6582 85.8208 54.3776 87.0978 52.5427C88.7819 50.1185 88.7258 46.6768 88.2941 43.8876C87.161 36.6185 82.5301 30.265 77.9131 24.7604C77.0957 23.7851 75.7029 25.1885 76.5167 26.1567C80.155 30.4966 83.6282 35.2398 85.456 40.6566C86.4524 43.6069 87.1296 47.2032 86.0806 50.2449C85.4701 52.0201 83.8072 53.2864 82.2074 54.1319C77.8675 56.4265 72.1104 56.0547 69.1985 51.7289C65.8027 46.6839 67.7425 40.611 70.5458 35.7941C71.9701 33.3523 73.661 31.0754 75.4924 28.9248C76.2607 28.0231 77.5448 27.0408 78.0639 25.9532C78.6114 24.8131 76.9061 23.8097 76.3589 24.9569Z" fill="#E0B370"/>
<path d="M71.4491 43.007C70.6317 45.6872 71.4946 48.6519 73.6804 50.4268C74.6592 51.2198 76.0659 49.8307 75.0768 49.0307C73.4033 47.6764 72.7226 45.6066 73.3539 43.5334C73.726 42.3124 71.8174 41.7896 71.4491 43.007Z" fill="#E0B370"/>
<path d="M42.7158 63.2611L46.114 61.3346C48.2087 60.1472 50.8071 60.3075 52.7399 61.7434C54.5448 63.0842 56.9421 63.3198 58.9733 62.3561L59.9302 61.9023C62.2992 60.7783 65.0731 60.9124 67.3228 62.2597L67.7764 62.5313C70.0916 63.9179 72.9136 64.1699 75.438 63.2158L81.2991 61.0001" stroke="#E0B370" stroke-width="2.09778"/>
<path d="M51.9756 61.7561L53.7473 79.6398" stroke="#E0B370" stroke-width="2.09778" stroke-linecap="round" stroke-linejoin="round"/>
</svg>
