<svg width="127" height="127" viewBox="0 0 127 127" fill="none" xmlns="http://www.w3.org/2000/svg">
<g clip-path="url(#clip0_371_1966)">
<mask id="mask0_371_1966" style="mask-type:luminance" maskUnits="userSpaceOnUse" x="0" y="0" width="127" height="126">
<path d="M126.353 0.03479H0.486328V125.902H126.353V0.03479Z" fill="white"/>
</mask>
<g mask="url(#mask0_371_1966)">
<path d="M63.0541 125.09C97.087 125.09 124.677 97.5008 124.677 63.4676C124.677 29.4346 97.087 1.84521 63.0541 1.84521C29.0209 1.84521 1.43164 29.4346 1.43164 63.4676C1.43164 97.5008 29.0209 125.09 63.0541 125.09Z" stroke="#E0B370" stroke-width="1.59327" stroke-miterlimit="10"/>
</g>
<path opacity="0.23" d="M91.1047 58.5309C91.1047 74.5077 84.2166 85.0734 78.4378 91.1237C71.8788 97.991 64.8661 101.04 63.3076 101.04C61.749 101.04 54.7359 97.991 48.1768 91.1237C42.3982 85.0732 35.5098 74.5077 35.5098 58.5309V45.1288C35.5098 43.9558 36.2782 42.924 37.3948 42.5647C45.9591 39.8091 54.0223 36.1279 61.8983 31.3785C62.7649 30.8559 63.8506 30.8554 64.7182 31.3765C72.4389 36.0133 80.814 39.8354 89.2229 42.5616C90.3376 42.9231 91.1047 43.9541 91.1047 45.126V58.5309Z" fill="#E0B370"/>
<path d="M96.2111 57.1995C96.2111 76.1116 88.0575 88.6183 81.217 95.7801C73.4531 103.909 65.152 107.519 63.3071 107.519C61.4622 107.519 53.1607 103.909 45.3965 95.7801C38.5563 88.6181 30.4023 76.1116 30.4023 57.1995V40.9723C30.4023 39.7994 31.1708 38.767 32.2882 38.4107C42.649 35.1069 52.3875 30.6636 61.8987 24.9017C62.7642 24.3774 63.8503 24.3768 64.7168 24.8997C74.0332 30.5226 84.1644 35.1433 94.3285 38.4077C95.4443 38.7661 96.2111 39.7975 96.2111 40.9694V57.1995Z" stroke="#E0B370" stroke-width="1.59778" stroke-linecap="round" stroke-linejoin="round"/>
<path d="M35.1777 49.2423V44.1657C35.1777 43.5981 35.5378 43.0934 36.0731 42.9043C38.7296 41.966 41.3784 40.942 43.9729 39.8495" stroke="#E0B370" stroke-width="1.59778" stroke-linecap="round" stroke-linejoin="round"/>
<path d="M84.4184 83.6417C82.9344 86.0689 81.1933 88.3932 79.2429 90.5493C77.639 92.3222 75.901 93.9746 74.0771 95.4603" stroke="#E0B370" stroke-width="1.59778" stroke-linecap="round" stroke-linejoin="round"/>
<path d="M72.8031 41.5723C72.359 45.0571 70.3357 45.9959 69.3796 46.0296C67.5868 46.4947 67.2527 46.5301 66.2338 46.6374C65.9677 46.6654 65.7186 46.4096 65.4873 46.0296C64.8329 44.9545 64.3217 42.8853 63.9758 43.4403C63.6257 44.002 64.5894 46.1644 64.8883 47.3867C64.989 47.7985 65.0143 48.1037 64.8883 48.2048C63.1025 49.6389 58.3169 44.7958 57.7289 46.0296C57.419 46.68 63.6183 49.3388 62.9899 50.3856C62.3615 51.4324 62.4881 54.0415 61.6181 54.235C59.7782 54.6443 54.7095 54.235 55.0035 55.1669C55.2975 56.0988 58.5801 55.1669 60.1481 55.1669C61.716 55.1669 62.3529 55.4507 62.9899 57.1517C63.6269 58.8528 65.6786 59.1988 66.2338 60.921C66.7889 62.6431 62.1626 66.7965 63.458 67.2017C64.7533 67.6069 65.6786 64.1626 66.2338 63.0483C66.7889 61.934 67.7142 62.3392 67.7142 63.5548C67.7142 64.7704 65.9562 68.6199 65.6786 70.6459C65.401 72.672 66.3262 72.7733 66.7889 70.6459C67.2515 68.5186 68.8244 63.5548 69.3796 63.5548C69.9349 63.5548 72.8031 63.8587 74.6536 63.0483C76.134 62.4 77.4294 60.8872 77.892 60.2118C81.8706 62.6431 84.0913 63.0483 83.3511 62.3392C82.6108 61.6301 79.3724 59.604 78.6322 59.1988C77.892 58.7936 78.9098 56.1598 79.3724 55.4507C79.8351 54.7416 83.5361 55.1468 83.3511 54.235C83.166 53.3233 81.8706 54.235 80.8528 54.235C79.8351 54.235 78.5397 53.5259 79.3724 52.1077C80.2052 50.6895 84.924 50.3856 84.0913 49.17C83.2585 47.9543 81.0379 49.9804 80.0201 50.3856C79.0023 50.7908 77.9845 50.183 77.4294 49.17C76.8742 48.1569 75.1162 47.2452 73.9134 46.6374C72.7105 46.0296 74.0059 39.3437 73.9134 38.5333C73.8209 37.7229 73.3582 37.2164 72.8031 41.5723Z" fill="white"/>
<path d="M78.6322 59.1988C77.892 58.7936 78.9098 56.1598 79.3724 55.4507C79.8351 54.7416 83.5361 55.1468 83.3511 54.235C83.166 53.3233 81.8706 54.235 80.8528 54.235C79.8351 54.235 78.5397 53.5259 79.3724 52.1077C80.2052 50.6895 84.924 50.3856 84.0913 49.17C83.2585 47.9543 81.0379 49.9804 80.0201 50.3856C79.0023 50.7908 77.9845 50.183 77.4294 49.17C76.8742 48.1569 75.1162 47.2452 73.9134 46.6374C72.7105 46.0296 74.0059 39.3437 73.9134 38.5333C73.8209 37.7229 73.3582 37.2164 72.8031 41.5723C72.359 45.0571 70.3357 45.9959 69.3796 46.0296C67.5868 46.4947 67.2527 46.5301 66.2338 46.6374C65.9677 46.6654 65.7186 46.4096 65.4873 46.0296M78.6322 59.1988C79.3724 59.604 82.6108 61.6301 83.3511 62.3392C84.0913 63.0483 81.8706 62.6431 77.892 60.2118M78.6322 59.1988C78.0137 58.9058 76.7642 58.0862 76.7136 57.1517M77.892 60.2118C77.4294 60.8872 76.134 62.4 74.6536 63.0483C72.8031 63.8587 69.9349 63.5548 69.3796 63.5548C68.8244 63.5548 67.2515 68.5186 66.7889 70.6459C66.3262 72.7733 65.401 72.672 65.6786 70.6459C65.9562 68.6199 67.7142 64.7704 67.7142 63.5548C67.7142 62.3392 66.7889 61.934 66.2338 63.0483C65.6786 64.1626 64.7533 67.6069 63.458 67.2017C62.1626 66.7965 66.7889 62.6431 66.2338 60.921C65.6786 59.1988 63.6269 58.8528 62.9899 57.1517C62.3529 55.4507 61.716 55.1669 60.1481 55.1669C58.5801 55.1669 55.2975 56.0988 55.0035 55.1669C54.7095 54.235 59.7782 54.6443 61.6181 54.235C62.4881 54.0415 62.3615 51.4324 62.9899 50.3856C63.6183 49.3388 57.419 46.68 57.7289 46.0296C58.3169 44.7958 63.1025 49.6389 64.8883 48.2048C65.0143 48.1037 64.989 47.7985 64.8883 47.3866M77.892 60.2118C77.2757 59.8353 75.7144 59.3824 74.6536 59.8352M64.8883 47.3866C64.5894 46.1644 63.6257 44.002 63.9758 43.4403C64.3217 42.8853 64.8329 44.9545 65.4873 46.0296M64.8883 47.3866C65.1404 48.4175 65.8523 50.3856 65.241 51.1249M65.4873 46.0296C65.8572 46.6374 66.501 47.3867 66.8668 47.3867" stroke="#E0B370" stroke-width="1.59778" stroke-linecap="round"/>
<path d="M53.8227 86.4704C53.5839 84.5964 52.4959 84.0916 51.9817 84.0734C51.0176 83.8233 50.8379 83.8043 50.29 83.7466C50.1469 83.7315 50.0129 83.8691 49.8886 84.0734C49.5366 84.6516 49.2617 85.7643 49.0757 85.4659C48.8875 85.1638 49.4057 84.001 49.5664 83.3437C49.6206 83.1222 49.6342 82.9581 49.5664 82.9037C48.6061 82.1325 46.0326 84.7369 45.7164 84.0734C45.5497 83.7237 48.8835 82.2939 48.5455 81.731C48.2076 81.168 48.2757 79.7649 47.8078 79.6609C46.8184 79.4408 44.0926 79.6609 44.2507 79.1597C44.4088 78.6586 46.1741 79.1597 47.0173 79.1597C47.8605 79.1597 48.203 79.0071 48.5455 78.0924C48.8881 77.1776 49.9914 76.9915 50.29 76.0654C50.5885 75.1393 48.1007 72.9058 48.7973 72.6879C49.4939 72.47 49.9914 74.3222 50.29 74.9214C50.5885 75.5207 51.0861 75.3027 51.0861 74.649C51.0861 73.9953 50.1407 71.9252 49.9914 70.8357C49.8422 69.7461 50.3397 69.6917 50.5885 70.8357C50.8373 71.9797 51.6832 74.649 51.9817 74.649C52.2803 74.649 53.8227 74.4856 54.8179 74.9214C55.614 75.2701 56.3106 76.0836 56.5594 76.4468C58.6989 75.1393 59.8931 74.9214 59.4951 75.3027C59.097 75.6841 57.3555 76.7736 56.9574 76.9915C56.5594 77.2094 57.1067 78.6258 57.3555 79.0071C57.6043 79.3885 59.5946 79.1706 59.4951 79.6609C59.3955 80.1512 58.6989 79.6609 58.1516 79.6609C57.6043 79.6609 56.9077 80.0422 57.3555 80.8049C57.8033 81.5675 60.3409 81.731 59.8931 82.3847C59.4453 83.0384 58.2511 81.9489 57.7038 81.731C57.1565 81.5131 56.6091 81.8399 56.3106 82.3847C56.012 82.9295 55.0667 83.4197 54.4198 83.7466C53.773 84.0735 54.4696 87.6689 54.4198 88.1047C54.3701 88.5405 54.1213 88.8129 53.8227 86.4704Z" fill="white"/>
<path d="M56.9574 76.9915C56.5594 77.2094 57.1067 78.6258 57.3555 79.0071C57.6043 79.3885 59.5946 79.1706 59.4951 79.6609C59.3955 80.1512 58.6989 79.6609 58.1516 79.6609C57.6043 79.6609 56.9077 80.0422 57.3555 80.8049C57.8033 81.5675 60.3409 81.731 59.8931 82.3847C59.4453 83.0384 58.2511 81.9489 57.7038 81.731C57.1565 81.5131 56.6091 81.8399 56.3106 82.3847C56.012 82.9295 55.0667 83.4197 54.4198 83.7466C53.773 84.0735 54.4696 87.6689 54.4198 88.1047C54.3701 88.5405 54.1213 88.8129 53.8227 86.4704C53.5839 84.5964 52.4959 84.0916 51.9817 84.0734C51.0176 83.8233 50.8379 83.8043 50.29 83.7466C50.1469 83.7315 50.0129 83.8691 49.8886 84.0734M56.9574 76.9915C57.3555 76.7736 59.097 75.6841 59.4951 75.3027C59.8931 74.9214 58.6989 75.1393 56.5594 76.4468M56.9574 76.9915C56.6248 77.1491 55.9528 77.5899 55.9257 78.0924M56.5594 76.4468C56.3106 76.0836 55.614 75.2701 54.8179 74.9214C53.8227 74.4856 52.2803 74.649 51.9817 74.649C51.6832 74.649 50.8373 71.9797 50.5885 70.8357C50.3397 69.6917 49.8422 69.7461 49.9914 70.8357C50.1407 71.9252 51.0861 73.9953 51.0861 74.649C51.0861 75.3027 50.5885 75.5207 50.29 74.9214C49.9914 74.3222 49.4939 72.47 48.7973 72.6879C48.1007 72.9058 50.5885 75.1393 50.29 76.0654C49.9914 76.9915 48.8881 77.1776 48.5455 78.0924C48.203 79.0071 47.8605 79.1597 47.0173 79.1597C46.1741 79.1597 44.4088 78.6586 44.2507 79.1597C44.0926 79.6609 46.8184 79.4408 47.8078 79.6609C48.2757 79.7649 48.2076 81.168 48.5455 81.731C48.8835 82.2939 45.5497 83.7237 45.7164 84.0734C46.0326 84.7369 48.6061 82.1325 49.5664 82.9037C49.6342 82.9581 49.6206 83.1222 49.5664 83.3437M56.5594 76.4468C56.228 76.6493 55.3883 76.8928 54.8179 76.6493M49.5664 83.3437C49.4057 84.001 48.8875 85.1638 49.0757 85.4659C49.2617 85.7643 49.5366 84.6516 49.8886 84.0734M49.5664 83.3437C49.702 82.7893 50.0849 81.731 49.7561 81.3334M49.8886 84.0734C50.0875 83.7466 50.4337 83.3437 50.6304 83.3437" stroke="#E0B370" stroke-width="1.59778" stroke-linecap="round"/>
</g>
<defs>
<clipPath id="clip0_371_1966">
<rect width="126.119" height="126.119" fill="white" transform="translate(0.24707)"/>
</clipPath>
</defs>
</svg>
