<svg width="127" height="127" viewBox="0 0 127 127" fill="none" xmlns="http://www.w3.org/2000/svg">
<mask id="mask0_371_1861" style="mask-type:luminance" maskUnits="userSpaceOnUse" x="0" y="0" width="127" height="126">
<path d="M126.106 0.0456543H0.239258V125.913H126.106V0.0456543Z" fill="white"/>
</mask>
<g mask="url(#mask0_371_1861)">
<path d="M62.807 125.101C96.84 125.101 124.43 97.5116 124.43 63.4784C124.43 29.4455 96.84 1.85608 62.807 1.85608C28.7738 1.85608 1.18457 29.4455 1.18457 63.4784C1.18457 97.5116 28.7738 125.101 62.807 125.101Z" stroke="#E0B370" stroke-width="1.59327" stroke-miterlimit="10"/>
<path d="M39.5271 55.6384C39.3892 59.7212 39.76 63.7477 40.6264 67.7357C40.855 68.792 42.4802 68.3436 42.2476 67.2874C41.4111 63.4373 41.0705 59.5705 41.2084 55.6384C41.2472 54.5564 39.5616 54.5564 39.5271 55.6384Z" fill="#E0B370"/>
<path d="M43.7394 75.5991C47.2574 78.936 50.9262 82.3677 55.4745 84.2346C57.5956 85.1053 59.9712 85.7737 62.2431 85.1184C64.3902 84.4931 66.4725 83.1395 68.3046 81.8849C72.1547 79.2507 75.4743 75.7715 77.3756 71.4689C79.4708 66.7353 79.7769 61.4843 80.0614 56.3882C80.1218 55.3063 78.4405 55.3106 78.3801 56.3882C78.1301 60.8892 77.8972 65.5325 76.2547 69.7833C74.6335 73.9824 71.6373 77.4226 68.0116 80.0354C66.4637 81.1475 64.7998 82.1693 63.0708 82.9671C60.4928 84.161 57.9664 83.5403 55.4788 82.4065C51.4264 80.557 48.1239 77.4314 44.9294 74.4006C44.1447 73.6678 42.9548 74.8532 43.7394 75.5991Z" fill="#E0B370"/>
<path d="M56.6618 65.7643C58.0458 66.6268 59.7918 66.6311 61.1799 65.7817C62.1025 65.2168 61.2577 63.7598 60.3305 64.3287C59.4296 64.8805 58.4035 64.8722 57.5111 64.3116C56.5928 63.7381 55.7434 65.1911 56.6618 65.7643Z" fill="#E0B370"/>
<path d="M51.6519 72.4476C56.4288 74.323 61.5546 74.4653 66.2109 72.1674C67.1808 71.6889 66.3315 70.2359 65.3616 70.7144C61.102 72.8184 56.4328 72.5251 52.1002 70.8267C51.0915 70.43 50.656 72.0552 51.6519 72.4476Z" fill="#E0B370"/>
<path d="M71.292 77.8536C70.8694 81.3371 70.4598 84.8636 70.9039 88.3688C71.2963 91.4727 72.5895 94.025 73.8957 96.8185C74.3529 97.7972 75.8056 96.9436 75.3487 95.9694C73.9262 92.9299 72.6499 90.2439 72.4387 86.8297C72.2531 83.829 72.6111 80.8283 72.9734 77.8536C73.1025 76.7802 71.4212 76.7888 71.292 77.8536Z" fill="#E0B370"/>
<path d="M46.313 78.1685C46.4897 80.0523 46.3777 81.8977 45.951 83.7384C45.7051 84.7904 47.3305 85.243 47.572 84.1868C48.0334 82.1993 48.1842 80.199 47.9944 78.1685C47.8952 77.0992 46.2138 77.0863 46.313 78.1685Z" fill="#E0B370"/>
<path d="M65.865 56.9274C67.7664 54.4441 70.9654 55.3624 73.194 56.8325C74.0995 57.4319 74.9446 55.9746 74.0433 55.3798C70.9093 53.3103 66.8956 52.8317 64.4123 56.0781C63.7527 56.936 65.214 57.7768 65.865 56.9274Z" fill="#E0B370"/>
<path d="M64.1965 52.0684C66.5978 50.3569 69.745 49.5637 72.1936 51.6546C73.013 52.3529 74.2069 51.1718 73.3838 50.4646C70.3657 47.8866 66.4253 48.417 63.3471 50.6157C62.4719 51.2407 63.3126 52.7021 64.1965 52.0684Z" fill="#E0B370"/>
<path d="M66.952 55.2293C66.9133 55.7811 66.8571 56.3372 66.8916 56.8932C66.9865 58.385 67.9867 58.5187 68.2628 58.5748C68.5387 58.635 68.8491 58.5962 69.0646 58.4195C69.1595 58.342 69.2327 58.2471 69.2974 58.1479C69.957 57.1865 70.2112 55.9578 69.9915 54.8154" fill="#E0B370"/>
<path d="M66.5327 55.2288C66.4292 56.6858 66.3172 58.6174 68.1279 58.9751C70.2448 59.3932 70.637 56.1212 70.4044 54.7026C70.318 54.1682 69.5074 54.3965 69.5938 54.9269C69.7272 55.7589 69.5462 58.5484 68.1453 58.1172C66.9853 57.7592 67.3088 56.1468 67.3735 55.2288C67.4123 54.6898 66.5717 54.6941 66.5327 55.2288Z" fill="#E0B370"/>
<path d="M53.6678 55.7539C51.1845 52.5118 47.1749 52.9861 44.0365 55.0553C43.1353 55.6504 43.9804 57.1077 44.8858 56.5084C47.1104 55.0382 50.3092 54.1156 52.2148 56.6033C52.8615 57.4526 54.3231 56.6161 53.6678 55.7539Z" fill="#E0B370"/>
<path d="M54.729 50.2968C51.6508 48.1024 47.7104 47.5678 44.6924 50.1458C43.8689 50.8484 45.0632 52.034 45.8823 51.3357C48.3269 49.2491 51.4784 50.038 53.8796 51.7496C54.7635 52.3792 55.604 50.9219 54.729 50.2968Z" fill="#E0B370"/>
<path d="M51.1275 54.9102C51.1662 55.4622 51.2224 56.0183 51.1879 56.5744C51.093 58.0662 50.0928 58.1999 49.8169 58.2557C49.5408 58.3162 49.2307 58.2774 49.0149 58.1007C48.92 58.0231 48.8468 57.928 48.7821 57.829C48.1225 56.8674 47.8683 55.639 48.088 54.4963" fill="#E0B370"/>
<path d="M50.7034 54.9098C50.7679 55.8281 51.0914 57.4404 49.9316 57.7984C48.5348 58.2296 48.3495 55.4402 48.4831 54.6082C48.5692 54.0778 47.7587 53.8492 47.6726 54.3839C47.4397 55.8067 47.8319 59.0745 49.9487 58.6563C51.7595 58.2986 51.6474 56.3671 51.544 54.9098C51.5052 54.3708 50.6644 54.3665 50.7034 54.9098Z" fill="#E0B370"/>
<path d="M79.953 54.7757C84.0228 56.2803 83.2684 66.1744 78.3968 65.4416C77.3362 65.282 76.8791 66.9032 77.9485 67.0625C85.0919 68.1317 86.5623 55.4309 80.4016 53.1502C79.3798 52.7754 78.9443 54.4006 79.953 54.7757Z" fill="#E0B370"/>
<path d="M79.7691 61.4842C80.0105 60.4105 80.6142 59.5138 81.5453 58.9275C82.4594 58.3541 81.6143 56.8968 80.6962 57.4745C79.4071 58.2851 78.4802 59.544 78.1439 61.0356C77.9111 62.0918 79.532 62.5404 79.7691 61.4842Z" fill="#E0B370"/>
<path d="M38.8851 67.6239C39.6438 67.8696 40.4242 67.8565 41.2043 67.7057C41.6529 67.6196 41.9072 67.0849 41.7906 66.6711C41.6615 66.2053 41.2043 65.9984 40.7563 66.0848C40.2689 66.1794 39.8034 66.1537 39.3335 66.0027C38.2988 65.6664 37.8548 67.2918 38.8851 67.6239Z" fill="#E0B370"/>
<path d="M38.7516 53.7969C34.1861 55.4483 34.3326 61.0786 35.9667 64.8035C36.4019 65.7908 37.8506 64.9372 37.4194 63.9541C36.2597 61.3114 35.7811 56.6511 39.1956 55.4181C40.2089 55.0516 39.7734 53.4261 38.7516 53.7969Z" fill="#E0B370"/>
<path d="M41.0007 61.6825C40.6644 60.1907 39.7418 58.932 38.4487 58.1214C37.5303 57.5437 36.6853 58.9965 37.5993 59.5742C38.5348 60.1605 39.1341 61.0617 39.3756 62.1308C39.617 63.1828 41.2379 62.7387 41.0007 61.6825Z" fill="#E0B370"/>
<path d="M27.1886 77.88C26.0334 74.3751 25.365 70.7708 24.7054 67.1451C24.4339 67.4988 24.1665 67.8565 23.8949 68.2099C27.1584 68.003 28.3181 73.7931 28.9779 76.1426C29.5771 78.2637 31.3749 80.6265 32.8753 82.2129C33.6209 83.0018 34.8066 81.8119 34.065 81.0229C32.8536 79.7381 31.6811 77.9405 30.8403 76.3754C30.6119 75.9445 30.8058 76.4056 30.6205 75.7934C30.4136 75.1122 30.2668 74.4139 30.0556 73.7327C29.1891 70.9606 27.5121 66.3003 23.8906 66.5286C23.3129 66.5674 22.9766 67.0331 23.0802 67.5934C23.7398 71.2191 24.4079 74.8232 25.5634 78.3284C25.904 79.3502 27.5292 78.9104 27.1886 77.88Z" fill="#E0B370"/>
<path d="M32.7555 78.9877C32.6694 77.3366 32.7513 75.6681 32.7815 74.0169C32.7857 73.7063 32.7946 73.3916 32.7988 73.0812C32.8074 72.5941 32.8202 72.87 32.721 73.0943C32.8721 72.7407 33.1696 72.3872 33.372 72.068C34.2732 70.654 35.1785 69.24 36.0968 67.8346C36.5192 67.1922 37.6231 65.1572 38.0067 64.9762C37.6661 64.9331 37.3255 64.8901 36.9892 64.8425C38.7438 66.261 37.4159 69.9469 36.5927 71.5638C36.1011 72.5252 37.5541 73.3788 38.0455 72.4131C39.2138 70.1239 40.6927 65.6833 38.1791 63.6525C37.8645 63.3983 37.5282 63.3467 37.1616 63.5191C36.3125 63.9242 35.5709 65.5841 35.0878 66.3126C34.0447 67.8948 33.0229 69.49 32.0013 71.0895C30.5526 73.366 30.932 76.3404 31.0742 78.9877C31.1303 80.0611 32.8159 80.0696 32.7555 78.9877Z" fill="#E0B370"/>
<path d="M36.8723 80.0346C36.6913 78.3966 36.7817 76.7324 36.8851 75.0941C36.9196 74.5338 37.0231 73.9558 37.0145 73.3954C37.0102 73.0246 36.6913 73.848 36.8809 73.7232C37.0145 73.6368 37.1137 73.4989 37.2474 73.4082C39.4201 71.9512 41.511 69.8258 43.3477 67.9632C42.9079 67.9074 42.4681 67.8512 42.0286 67.7953C42.425 68.403 42.714 69.2264 42.382 69.9595C41.9422 70.938 43.3907 71.7959 43.8348 70.8086C44.4168 69.5154 44.2574 68.1445 43.4813 66.9503C43.1881 66.5019 42.5544 66.3811 42.162 66.7821C41.1402 67.8167 40.0323 68.7695 38.9373 69.7266C37.9543 70.5888 36.5488 71.451 35.7471 72.4902C35.2728 73.1067 35.303 73.6628 35.2426 74.4517C35.1089 76.3055 34.9798 78.1894 35.1864 80.0392C35.3073 81.0997 36.9929 81.1083 36.8723 80.0346Z" fill="#E0B370"/>
<path d="M40.9807 81.0181C40.7955 79.7809 40.8257 78.4832 40.7912 77.2373C40.7738 76.6724 40.83 76.069 40.7479 75.5084C40.6359 74.728 40.7393 75.1248 40.58 75.3662C41.7224 73.6761 43.408 71.236 45.1454 70.141C44.7316 69.9728 44.322 69.8046 43.9079 69.6365C44.3263 71.5076 43.7657 73.3357 42.9639 75.0213C42.6706 75.6378 42.3648 76.0733 42.3431 76.7457C42.3044 78.0736 42.5845 80.0739 43.3304 81.1863C44.5418 82.9884 46.3137 84.562 47.8141 86.114C49.1979 87.5411 50.5819 89.0973 52.1985 90.2701C53.0778 90.908 53.9186 89.4467 53.0479 88.8171C51.4914 87.6876 50.1592 86.1228 48.8273 84.743C47.5424 83.4151 45.4171 81.7683 44.5805 80.0784C44.3004 79.5135 44.3004 78.6556 44.2055 78.0134C44.1408 77.5691 43.9857 77.039 44.0028 76.5863C43.9683 76.2802 43.9598 76.3276 43.9729 76.7286C44.0632 76.5604 44.1496 76.388 44.24 76.2198C45.5721 74.2925 46.029 71.4215 45.5291 69.1881C45.4125 68.6665 44.7359 68.4078 44.2918 68.6839C43.1751 69.3822 42.3215 70.5634 41.4895 71.5595C40.8126 72.3698 39.7606 73.3226 39.2951 74.2883C38.8898 75.1205 39.0708 76.0819 39.0968 77.0088C39.1355 78.4874 39.1313 79.9963 39.3553 81.4622C39.5194 82.5313 41.1403 82.0787 40.9807 81.0181Z" fill="#E0B370"/>
<path d="M26.5352 80.5736C29.5185 85.7427 34.4163 90.6404 39.1627 94.1755C40.3267 95.042 41.7797 96.206 43.2154 96.5811C43.9698 96.7795 43.6078 96.4474 43.8535 97.0942C44.0516 97.6072 44.1249 98.198 44.2457 98.7324C44.9742 101.996 44.5921 100.087 45.0188 103.403C45.1525 104.463 46.8381 104.476 46.7001 103.403C46.282 100.139 46.6989 102.117 46.0048 98.9049C45.8108 98.0082 45.7289 96.7191 45.2416 95.9173C44.6724 94.9861 43.2068 94.779 42.2799 94.2402C38.8913 92.2785 36.0155 89.3944 33.3902 86.5274C31.4629 84.4279 29.4282 82.2076 27.9925 79.7245C27.4493 78.7845 25.9922 79.6339 26.5352 80.5736Z" fill="#E0B370"/>
<path d="M50.2418 88.6757C52.2466 90.5683 52.781 92.4092 53.7381 94.819C55.3333 98.8284 55.0088 97.9811 56.4314 102.064C56.7848 103.081 58.4103 102.642 58.0523 101.616C56.5736 97.3646 56.7302 98.0742 55.1521 93.8708C54.1952 91.327 53.4924 89.4256 51.4274 87.4812C50.6428 86.7442 49.4528 87.9298 50.2418 88.6757Z" fill="#E0B370"/>
<path d="M78.6526 52.9691C78.4112 43.9629 72.8756 33.6161 62.4769 34.5991C61.4078 34.698 61.3993 36.3839 62.4769 36.2804C71.9316 35.388 76.7515 44.8208 76.9713 52.9691C76.9972 54.0468 78.6828 54.0511 78.6526 52.9691Z" fill="#E0B370"/>
<path d="M59.054 25.7919C59.4159 28.8528 59.5582 31.9139 59.4764 34.9963C59.4462 36.0783 61.1318 36.0783 61.1577 34.9963C61.2395 31.9139 61.1016 28.8528 60.735 25.7919C60.6102 24.727 58.9246 24.7183 59.054 25.7919Z" fill="#E0B370"/>
<path d="M82.0582 54.7286C89.5682 40.5578 79.312 19.5966 62.4249 20.2993C61.347 20.3425 61.3385 22.028 62.4249 21.9807C70.3661 21.6487 76.8631 26.2746 80.2346 33.3149C83.2396 39.5833 83.9379 47.598 80.6097 53.8793C80.0967 54.8321 81.5494 55.6857 82.0582 54.7286Z" fill="#E0B370"/>
<path d="M59.9807 19.9625C55.6909 18.0052 49.9529 19.8461 46.0339 21.8508C39.6101 25.1359 34.9971 31.1198 33.5184 38.1903C32.3156 43.9414 33.0484 49.8649 34.579 55.4738C34.8637 56.5173 36.4889 56.0732 36.1999 55.0255C33.9582 46.8127 33.596 37.604 38.679 30.3351C41.9727 25.6232 47.2367 22.3293 52.8584 21.2213C54.8073 20.8377 57.2559 20.5574 59.1356 21.411C60.1101 21.8594 60.9635 20.4108 59.9807 19.9625Z" fill="#E0B370"/>
<path d="M48.1126 30.5719C42.7882 34.5815 38.9211 39.9792 36.8775 46.3251C36.5454 47.36 38.1709 47.7995 38.4986 46.7735C40.3955 40.8801 44.0126 35.7498 48.962 32.0249C49.8199 31.3825 48.9791 29.9211 48.1126 30.5719Z" fill="#E0B370"/>
<path d="M57.8264 33.9874C47.6088 34.1684 41.8058 43.3472 38.1242 51.7022C37.693 52.6852 39.1414 53.5431 39.5769 52.5516C42.9915 44.7999 48.2512 35.8369 57.8264 35.6688C58.9041 35.6514 58.9084 33.9701 57.8264 33.9874Z" fill="#E0B370"/>
<path d="M98.6349 98.603C99.8377 91.3256 95.6342 84.083 91.4912 78.4396C89.3441 75.5165 86.973 72.7444 84.3734 70.2137C82.8386 68.7176 81.1313 66.9804 79.1612 66.049C78.1868 65.5878 77.3331 67.0406 78.3119 67.502C80.1052 68.3514 81.6315 69.899 83.0369 71.2612C85.4641 73.6066 87.7016 76.1632 89.7235 78.8663C93.677 84.1431 98.1521 91.2395 97.0094 98.1547C96.837 99.2109 98.4579 99.6678 98.6349 98.603Z" fill="#E0B370"/>
<path d="M93.1379 92.2148C88.68 88.5244 85.1492 84.006 82.6444 78.7938C82.1744 77.8196 80.7259 78.669 81.1917 79.6432C83.7523 84.9762 87.3954 89.6322 91.948 93.4045C92.7757 94.09 93.9742 92.9088 93.1379 92.2148Z" fill="#E0B370"/>
<path d="M86.6678 92.1709C83.9647 92.076 80.8346 90.912 78.9638 88.9548C77.3169 87.2344 76.2908 85.0144 75.2947 82.8802C74.8336 81.9014 73.3848 82.7553 73.842 83.7295C75.075 86.3594 76.4029 89.1013 78.6879 90.9898C80.7959 92.7358 83.9561 93.7574 86.6678 93.8523C87.75 93.891 87.75 92.2097 86.6678 92.1709Z" fill="#E0B370"/>
<path d="M101.262 75.5092C104.25 75.1125 105.331 72.8793 105.616 70.1201C105.094 70.2623 104.573 70.4045 104.047 70.5425C105.103 72.7414 105.97 75.1125 108.755 75.2202C109.837 75.259 109.837 73.5776 108.755 73.5389C106.823 73.4656 106.207 71.1678 105.5 69.6977C105.099 68.8654 104.008 69.383 103.931 70.1201C103.754 71.8359 103.219 73.5648 101.257 73.8233C100.201 73.9656 100.188 75.6514 101.262 75.5092Z" fill="#E0B370"/>
<path d="M101.436 75.7286C102.906 76.121 103.837 77.2203 104.074 78.7078C104.208 79.5227 105.549 79.5011 105.695 78.7078C105.889 77.673 106.79 75.2243 108.127 75.315C109.209 75.3839 109.204 73.7024 108.127 73.6334C105.881 73.4869 104.423 76.3926 104.074 78.2638C104.613 78.2638 105.156 78.2638 105.695 78.2638C105.363 76.2202 103.867 74.6378 101.88 74.1119C100.836 73.8275 100.388 75.4484 101.436 75.7286Z" fill="#E0B370"/>
<path d="M91.344 51.6718C93.9177 51.3785 96.2589 50.249 97.8627 48.1667C99.5611 45.9552 99.8974 43.1959 100.169 40.5056C99.6475 40.6481 99.1259 40.7903 98.5997 40.9283C100.725 45.3472 102.562 51.0337 108.369 51.0208C109.451 51.0165 109.456 49.3352 108.369 49.3395C103.415 49.3523 101.838 43.791 100.053 40.0789C99.656 39.2512 98.561 39.76 98.4834 40.5013C98.0263 44.9978 96.4786 49.3996 91.3397 49.9862C90.2792 50.111 90.2663 51.7967 91.344 51.6718Z" fill="#E0B370"/>
<path d="M92.0325 52.2067C95.6842 53.1293 98.2234 56.0049 98.7752 59.7167C98.8961 60.5316 100.258 60.5102 100.396 59.7167C100.896 56.8802 103.397 50.8917 106.949 51.2194C108.027 51.3186 108.018 49.6373 106.949 49.5381C102.418 49.1154 99.4176 55.6039 98.7752 59.2686C99.3142 59.2686 99.8572 59.2686 100.396 59.2686C99.7625 55.0133 96.6327 51.629 92.4766 50.5813C91.4289 50.3185 90.9805 51.9394 92.0325 52.2067Z" fill="#E0B370"/>
<path d="M80.6 53.6757C81.1951 47.8083 81.9062 40.6515 78.7331 35.3618C78.177 34.4349 76.72 35.2797 77.2803 36.2112C80.2679 41.1905 79.4747 48.1444 78.9186 53.6757C78.8109 54.7536 80.4922 54.7448 80.6 53.6757Z" fill="#E0B370"/>
<path opacity="0.23" d="M82.094 37.233C81.6152 34.6892 80.9944 32.081 79.4425 29.9599C77.9895 27.9682 76.0023 26.3644 73.8895 25.1099C69.1559 22.2903 63.8229 21.7686 58.4209 21.7816C53.6055 21.7944 48.3672 22.2817 44.3233 25.1659C39.9517 28.2786 37.8092 33.3012 36.2787 38.2719C34.9206 42.6866 32.8254 49.2654 36.7398 52.874C37.1408 54.4476 39.8354 54.2837 39.9087 52.3912C40.107 47.1876 42.642 42.4107 46.8024 39.2852C48.8158 37.7717 51.6913 35.3833 54.3209 35.487C56.0584 35.556 58.0589 35.2541 59.986 35.0774C59.7186 32.1631 59.2272 29.2659 59.1281 26.3342C59.0591 24.2605 62.2752 24.2692 62.3485 26.3342C62.4477 29.2357 62.9305 32.1027 63.2021 34.9911C65.5863 35.1937 67.5435 36.8146 69.7336 38.0003C72.0702 39.2635 73.4973 42.1131 74.5752 44.4326C75.7521 46.9676 76.2435 49.6191 77.1187 52.2447C77.7871 54.258 80.1582 55.2408 81.443 53.1197C82.7536 50.9555 82.9303 48.08 82.9172 45.6183C82.9043 42.8029 82.6113 39.992 82.094 37.233Z" fill="#E0B370"/>
<path opacity="0.23" d="M82.4726 95.8744C79.2823 96.3791 76.0705 94.3829 74.3677 91.6365C72.6645 88.8905 72.225 85.5447 72.2335 82.3115C72.2378 80.2551 72.4319 78.1254 73.4278 76.3275C74.6736 74.0727 77.1655 72.2665 77.1053 69.6883C77.4844 69.4511 77.9718 69.7099 78.3426 69.9642C80.7394 71.611 83.1021 73.3009 85.4345 75.0386C86.6717 75.9612 87.9047 76.9009 88.9738 78.0131C92.1167 81.2811 93.5911 85.7733 94.8113 90.1407C95.2123 91.572 95.596 93.0421 95.4708 94.5251C95.3457 96.0083 94.6172 97.5215 93.2896 98.1939C91.9227 98.8882 90.2801 98.5561 88.7886 98.1939C84.5332 97.1593 80.317 95.9867 76.1394 94.6804" fill="#E0B370"/>
<path opacity="0.23" d="M57.7709 77C55.9604 76.4354 54.378 74.9695 53.5287 73.0553C53.3175 72.5768 53.145 72.0424 53.2356 71.5162C53.3477 70.861 53.8436 70.3781 54.3523 70.0461C55.9733 68.9727 57.9305 68.8433 59.8059 68.7615C60.3232 68.7399 60.8448 68.7182 61.3493 68.839C62.22 69.0502 62.9659 69.6625 63.6859 70.2576C63.923 70.4557 64.1732 70.6671 64.3067 70.9687C64.393 71.1628 64.4232 71.3826 64.4491 71.5983C64.531 72.3311 64.5395 73.1158 64.2377 73.771C63.8843 74.5514 63.1686 75.0128 62.4919 75.4352C61.927 75.7844 61.3536 76.1378 60.7285 76.2931C60.3922 76.375 60.0473 76.3966 59.7067 76.4094C58.3486 76.4613 56.9822 76.3536 55.6415 76.0948" fill="#E0B370"/>
</g>
</svg>
