<svg width="150" height="151" viewBox="0 0 150 151" fill="none" xmlns="http://www.w3.org/2000/svg">
<rect width="150" height="150" transform="translate(0 0.276611)" fill="white"/>
<path d="M29.2627 76.1943V103.13L75.9559 116.421L120.737 103.13V76.1943L75.9559 88.8589L29.2627 76.1943Z" stroke="#221D1E" stroke-width="1.3" stroke-miterlimit="10"/>
<path d="M31.2473 74.5782L46.0136 69.9119" stroke="#221D1E" stroke-width="1.3" stroke-miterlimit="10"/>
<path d="M75.9558 88.8588V116.421" stroke="#221D1E" stroke-width="1.3" stroke-miterlimit="10"/>
<path d="M101.41 81.832V108.868" stroke="#221D1E" stroke-width="1.3" stroke-miterlimit="10"/>
<path d="M51.2301 108.868V82.1497L61.7358 47.7875L84.7501 38.7453" stroke="#221D1E" stroke-width="1.3" stroke-miterlimit="10"/>
<path d="M35.2621 99.2992L41.8714 101.342V93.5525L35.2621 91.2828V96.8389" stroke="#221D1E" stroke-width="1.3" stroke-miterlimit="10"/>
<path d="M116.777 88.8588L108.738 91.2828" stroke="#221D1E" stroke-width="1.3" stroke-miterlimit="10"/>
<path d="M116.586 96.7117L108.538 99.1357" stroke="#221D1E" stroke-width="1.3" stroke-miterlimit="10"/>
<path d="M48.9541 70.9288L75.9558 78.7091L103.212 69.912V44.2288L74.9999 35.8493L48.9541 44.2288V70.9288Z" stroke="#221D1E" stroke-width="1.3" stroke-miterlimit="10"/>
<path d="M48.9541 44.2288L76.0833 51.773L103.212 44.2288" stroke="#221D1E" stroke-width="1.3" stroke-miterlimit="10"/>
<path d="M75.9558 78.709V52.9714" stroke="#221D1E" stroke-width="1.3" stroke-miterlimit="10"/>
<path d="M101.41 81.8321L89.6479 48.0055L64.2302 39.3173" stroke="#221D1E" stroke-width="1.3" stroke-miterlimit="10"/>
<path d="M71.8774 72.2452L61.9178 69.1312" stroke="#221D1E" stroke-width="1.3" stroke-miterlimit="10"/>
<path d="M71.8774 65.8448L65.8781 64.2288" stroke="#221D1E" stroke-width="1.3" stroke-miterlimit="10"/>
<path d="M120.737 76.1942L105.252 72.2451" stroke="#221D1E" stroke-width="1.3" stroke-miterlimit="10"/>
</svg>
