<?xml version="1.0" encoding="utf-8"?>
<!-- Generator: Adobe Illustrator 25.0.0, SVG Export Plug-In . SVG Version: 6.00 Build 0)  -->
<svg version="1.1" id="Слой_1" xmlns="http://www.w3.org/2000/svg" xmlns:xlink="http://www.w3.org/1999/xlink" x="0px" y="0px"
	 viewBox="0 0 241 56" style="enable-background:new 0 0 241 56;" xml:space="preserve">
<style type="text/css">
	.st0{fill-rule:evenodd;clip-rule:evenodd;fill:#4F6FC1;}
	.st1{fill:none;stroke:#4F6FC1;stroke-width:2.145;}
	.st2{fill:#4F6FC1;}
</style>
<g>
	<g>
		<path class="st0" d="M26.7,29.7l9.7,9.7l1.5-1.5l-9.7-9.7l9.7-9.7L36.4,17l-9.7,9.7L17.1,17l-1.5,1.5l9.7,9.7l-9.7,9.7l1.5,1.5
			L26.7,29.7z"/>
	</g>
	<g>
		<g>
			<path class="st1" d="M26.7,53c13.7,0,24.8-11.1,24.8-24.8S40.4,3.4,26.7,3.4S1.9,14.5,1.9,28.2S13,53,26.7,53z"/>
		</g>
	</g>
</g>
<g>
	<path class="st2" d="M70.6,18.2c-0.6-0.9-0.8-2-0.8-3.1c0-1.1,0.3-2.2,0.8-3.1c0.6-0.9,1.3-1.7,2.3-2.2c1-0.5,2-0.8,3.2-0.8
		s2.2,0.3,3.2,0.8c1,0.5,1.7,1.3,2.3,2.2c0.6,0.9,0.9,2,0.9,3.1c0,1.1-0.3,2.2-0.9,3.1s-1.3,1.7-2.3,2.2s-2,0.8-3.2,0.8
		s-2.2-0.3-3.2-0.8C72,19.9,71.2,19.1,70.6,18.2z M79.4,17.1c0.3-0.6,0.5-1.3,0.5-2c0-0.7-0.2-1.4-0.5-2s-0.8-1.1-1.4-1.4
		c-0.6-0.3-1.2-0.5-2-0.5c-0.7,0-1.4,0.2-2,0.5s-1,0.8-1.4,1.4s-0.5,1.3-0.5,2c0,0.8,0.2,1.4,0.5,2s0.8,1.1,1.4,1.4s1.2,0.5,2,0.5
		c0.7,0,1.4-0.2,2-0.5C78.7,18.1,79.1,17.7,79.4,17.1z"/>
	<path class="st2" d="M88.7,16.8h-1.8V21h-2.4V9.1H89c0.8,0,1.6,0.2,2.2,0.5c0.6,0.3,1.2,0.8,1.5,1.4c0.4,0.6,0.5,1.3,0.5,2
		s-0.2,1.4-0.6,2c-0.4,0.6-0.9,1-1.5,1.4l3.4,4.7h-2.7L88.7,16.8z M89,14.7c0.6,0,1-0.2,1.3-0.5c0.3-0.3,0.5-0.7,0.5-1.2
		c0-0.5-0.2-0.9-0.5-1.2c-0.3-0.3-0.8-0.5-1.3-0.5h-2v3.4H89z"/>
	<path class="st2" d="M94.4,11.3V9.1h10v2.2h-3.8V21h-2.4v-9.7H94.4z"/>
	<path class="st2" d="M108.5,9.1v4.6h5.3V9.1h2.4V21h-2.4v-5.1h-5.3V21h-2.4V9.1H108.5z"/>
	<path class="st2" d="M119.1,18.2c-0.6-0.9-0.8-2-0.8-3.1c0-1.1,0.3-2.2,0.8-3.1c0.6-0.9,1.3-1.7,2.3-2.2c1-0.5,2-0.8,3.2-0.8
		s2.2,0.3,3.2,0.8c1,0.5,1.7,1.3,2.3,2.2c0.6,0.9,0.9,2,0.9,3.1c0,1.1-0.3,2.2-0.9,3.1s-1.3,1.7-2.3,2.2c-1,0.5-2,0.8-3.2,0.8
		s-2.2-0.3-3.2-0.8C120.4,19.9,119.6,19.1,119.1,18.2z M127.9,17.1c0.3-0.6,0.5-1.3,0.5-2c0-0.7-0.2-1.4-0.5-2s-0.8-1.1-1.4-1.4
		s-1.2-0.5-2-0.5c-0.7,0-1.4,0.2-2,0.5s-1,0.8-1.4,1.4c-0.3,0.6-0.5,1.3-0.5,2c0,0.8,0.2,1.4,0.5,2c0.3,0.6,0.8,1.1,1.4,1.4
		s1.2,0.5,2,0.5c0.7,0,1.4-0.2,2-0.5S127.5,17.7,127.9,17.1z"/>
	<path class="st2" d="M137.4,9.1c0.8,0,1.6,0.2,2.2,0.5c0.6,0.3,1.2,0.8,1.5,1.4c0.4,0.6,0.5,1.3,0.5,2s-0.2,1.4-0.5,2
		c-0.4,0.6-0.9,1-1.5,1.4c-0.6,0.3-1.4,0.5-2.2,0.5h-2V21h-2.4V9.1H137.4z M138.7,14.2c0.3-0.3,0.5-0.7,0.5-1.3
		c0-0.5-0.2-0.9-0.5-1.2c-0.3-0.3-0.8-0.5-1.3-0.5h-2v3.4h2C138,14.7,138.4,14.5,138.7,14.2z"/>
	<path class="st2" d="M145.8,19.5l-0.7,1.5h-2.6l5.3-12.1h0.8l5.3,12.1h-2.6l-0.7-1.5H145.8z M146.6,17.5h3.2l-1.6-4L146.6,17.5z"/>
	<path class="st2" d="M163.5,9.1v2.2h-5.6v2.4h4.1v2.1h-4.1v3h5.8V21h-8.2V9.1H163.5z"/>
	<path class="st2" d="M169.7,9.1c1.3,0,2.4,0.2,3.4,0.7c1,0.5,1.7,1.2,2.3,2.1c0.5,0.9,0.8,1.9,0.8,3.1c0,1.2-0.3,2.2-0.8,3.1
		c-0.5,0.9-1.3,1.6-2.3,2.1c-1,0.5-2.1,0.8-3.4,0.8h-3.9V9.1H169.7z M171.8,18.3c0.6-0.3,1.1-0.8,1.4-1.3s0.5-1.2,0.5-2
		c0-1.2-0.4-2.1-1.1-2.7s-1.7-1-2.9-1h-1.4v7.5h1.4C170.5,18.8,171.2,18.6,171.8,18.3z"/>
	<path class="st2" d="M180.7,9.1V21h-2.4V9.1H180.7z"/>
	<path class="st2" d="M183.5,18.2c-0.6-0.9-0.8-2-0.8-3.1c0-1.1,0.3-2.2,0.8-3.1c0.6-0.9,1.3-1.7,2.3-2.2c1-0.5,2-0.8,3.2-0.8
		c1.1,0,2.2,0.3,3.1,0.8c0.9,0.5,1.6,1.2,2.2,2.2l-1.8,1.3c-0.8-1.3-2-2-3.4-2c-0.7,0-1.4,0.2-2,0.5s-1,0.8-1.4,1.4s-0.5,1.3-0.5,2
		s0.2,1.4,0.5,2c0.3,0.6,0.8,1,1.4,1.4s1.2,0.5,2,0.5c1.4,0,2.6-0.7,3.4-2l1.8,1.3c-0.5,0.9-1.2,1.6-2.2,2.2c-0.9,0.5-2,0.8-3.1,0.8
		c-1.2,0-2.2-0.3-3.2-0.8C184.9,19.9,184.1,19.1,183.5,18.2z"/>
	<path class="st2" d="M74.9,33.1c0.8,0,1.6,0.2,2.2,0.5c0.6,0.3,1.2,0.8,1.5,1.4s0.5,1.3,0.5,2c0,0.8-0.2,1.4-0.5,2s-0.9,1-1.5,1.4
		c-0.6,0.3-1.4,0.5-2.2,0.5h-2V45h-2.4V33.1H74.9z M76.3,38.2c0.3-0.3,0.5-0.7,0.5-1.3c0-0.5-0.2-0.9-0.5-1.2
		c-0.3-0.3-0.8-0.5-1.3-0.5h-2v3.4h2C75.5,38.7,76,38.5,76.3,38.2z"/>
	<path class="st2" d="M83.6,33.1V45h-2.4V33.1H83.6z"/>
	<path class="st2" d="M88.8,33.1v9.7H94V45h-7.6V33.1H88.8z"/>
	<path class="st2" d="M98.2,33.1v9.7h5.2V45h-7.6V33.1H98.2z"/>
	<path class="st2" d="M105.1,42.2c-0.6-0.9-0.8-2-0.8-3.1c0-1.1,0.3-2.2,0.8-3.1s1.3-1.7,2.3-2.2c1-0.5,2-0.8,3.2-0.8
		s2.2,0.3,3.2,0.8c1,0.5,1.7,1.3,2.3,2.2s0.9,2,0.9,3.1c0,1.1-0.3,2.2-0.9,3.1c-0.6,0.9-1.3,1.7-2.3,2.2c-1,0.5-2,0.8-3.2,0.8
		s-2.2-0.3-3.2-0.8C106.4,43.9,105.6,43.1,105.1,42.2z M113.9,41.1c0.3-0.6,0.5-1.3,0.5-2c0-0.7-0.2-1.4-0.5-2
		c-0.3-0.6-0.8-1.1-1.4-1.4s-1.2-0.5-2-0.5c-0.7,0-1.4,0.2-2,0.5s-1,0.8-1.4,1.4c-0.3,0.6-0.5,1.3-0.5,2c0,0.8,0.2,1.4,0.5,2
		c0.3,0.6,0.8,1.1,1.4,1.4s1.2,0.5,2,0.5c0.7,0,1.4-0.2,2-0.5S113.5,41.7,113.9,41.1z"/>
	<path class="st2" d="M130.6,45.2h-0.8l-3.3-7.5l-3.3,7.5h-0.8l-4.8-12.1h2.7l2.6,7l3.1-7.2h0.8l3.1,7.2l2.6-7h2.7L130.6,45.2z"/>
</g>
</svg>
