<?xml version="1.0" encoding="utf-8"?>
<!-- Generator: Adobe Illustrator 25.0.0, SVG Export Plug-In . SVG Version: 6.00 Build 0)  -->
<svg version="1.1" id="Слой_1" xmlns="http://www.w3.org/2000/svg" xmlns:xlink="http://www.w3.org/1999/xlink" x="0px" y="0px"
	 viewBox="0 0 163.7 56" style="enable-background:new 0 0 163.7 56;" xml:space="preserve">
<style type="text/css">
	.st0{opacity:0.9;}
	.st1{fill-rule:evenodd;clip-rule:evenodd;fill:#4F6FC1;}
	.st2{fill:none;stroke:#4F6FC1;stroke-width:2.145;}
	.st3{fill:#4F6FC1;}
</style>
<g class="st0">
	<g>
		<path class="st1" d="M26.7,29.7l9.7,9.7l1.5-1.5l-9.7-9.7l9.7-9.7L36.4,17l-9.7,9.7L17.1,17l-1.5,1.5l9.7,9.7l-9.7,9.7l1.5,1.5
			L26.7,29.7z"/>
	</g>
	<g>
		<g>
			<path class="st2" d="M26.7,53c13.7,0,24.8-11.1,24.8-24.8S40.4,3.4,26.7,3.4S1.9,14.5,1.9,28.2S13,53,26.7,53z"/>
		</g>
	</g>
</g>
<g class="st0">
	<path class="st3" d="M73.9,17.3h-1.8v4.2h-2.4V9.6h4.5c0.8,0,1.6,0.2,2.2,0.5c0.6,0.3,1.2,0.8,1.5,1.4c0.4,0.6,0.5,1.3,0.5,2
		s-0.2,1.4-0.6,2c-0.4,0.6-0.9,1-1.5,1.4l3.4,4.7H77L73.9,17.3z M74.2,15.1c0.6,0,1-0.2,1.3-0.5c0.3-0.3,0.5-0.7,0.5-1.2
		c0-0.5-0.2-0.9-0.5-1.2c-0.3-0.3-0.8-0.5-1.3-0.5h-2v3.4H74.2z"/>
	<path class="st3" d="M89.2,9.6v2.2h-5.6v2.4h4.1v2.1h-4.1v3h5.8v2.2h-8.2V9.6H89.2z"/>
	<path class="st3" d="M91.5,18.7c-0.6-0.9-0.8-2-0.8-3.1c0-1.2,0.3-2.2,0.8-3.1s1.3-1.7,2.3-2.2c1-0.5,2-0.8,3.2-0.8
		c1,0,2,0.2,2.9,0.7c0.9,0.5,1.6,1.1,2.2,1.9l-1.7,1.4c-0.8-1.2-1.9-1.7-3.3-1.7c-0.8,0-1.4,0.2-2,0.5s-1,0.8-1.3,1.4
		c-0.3,0.6-0.5,1.3-0.5,2c0,0.8,0.2,1.5,0.5,2.1s0.8,1.1,1.4,1.4c0.6,0.3,1.3,0.5,2.1,0.5c0.7,0,1.3-0.1,1.8-0.4
		c0.5-0.3,1-0.6,1.3-1.1v-1h-3.3V15h5.7v3.5c-0.5,1-1.3,1.7-2.3,2.3c-1,0.6-2.1,0.9-3.4,0.9c-1.2,0-2.2-0.3-3.2-0.8
		C92.8,20.3,92,19.6,91.5,18.7z"/>
	<path class="st3" d="M105.3,19.3c-0.4-0.8-0.6-1.7-0.6-2.7v-7h2.4v7.1c0,0.9,0.2,1.5,0.7,2c0.5,0.5,1.1,0.7,1.9,0.7
		c0.8,0,1.4-0.2,1.9-0.7s0.7-1.1,0.7-2V9.6h2.4v7c0,1-0.2,2-0.7,2.7c-0.4,0.8-1,1.4-1.8,1.8c-0.8,0.4-1.6,0.6-2.6,0.6
		c-1,0-1.8-0.2-2.6-0.6C106.3,20.7,105.7,20.1,105.3,19.3z"/>
	<path class="st3" d="M119.8,9.6v9.7h5.2v2.2h-7.6V9.6H119.8z"/>
	<path class="st3" d="M128.9,19.9l-0.7,1.5h-2.6L131,9.4h0.8l5.3,12.1h-2.6l-0.7-1.5H128.9z M129.8,17.9h3.2l-1.6-4L129.8,17.9z"/>
	<path class="st3" d="M142.9,17.3h-1.8v4.2h-2.4V9.6h4.5c0.8,0,1.6,0.2,2.2,0.5c0.6,0.3,1.2,0.8,1.5,1.4c0.4,0.6,0.5,1.3,0.5,2
		s-0.2,1.4-0.6,2c-0.4,0.6-0.9,1-1.5,1.4l3.4,4.7H146L142.9,17.3z M143.1,15.1c0.6,0,1-0.2,1.3-0.5s0.5-0.7,0.5-1.2
		c0-0.5-0.2-0.9-0.5-1.2c-0.3-0.3-0.8-0.5-1.3-0.5h-2v3.4H143.1z"/>
	<path class="st3" d="M74.2,33.6c0.8,0,1.6,0.2,2.2,0.5c0.6,0.3,1.2,0.8,1.5,1.4s0.5,1.3,0.5,2c0,0.8-0.2,1.4-0.5,2s-0.9,1-1.5,1.4
		c-0.6,0.3-1.4,0.5-2.2,0.5h-2v4.2h-2.4V33.6H74.2z M75.5,38.7c0.3-0.3,0.5-0.7,0.5-1.3c0-0.5-0.2-0.9-0.5-1.2
		c-0.3-0.3-0.8-0.5-1.3-0.5h-2v3.4h2C74.8,39.2,75.2,39,75.5,38.7z"/>
	<path class="st3" d="M82.9,33.6v11.9h-2.4V33.6H82.9z"/>
	<path class="st3" d="M88,33.6v9.7h5.2v2.2h-7.6V33.6H88z"/>
	<path class="st3" d="M97.4,33.6v9.7h5.2v2.2H95V33.6H97.4z"/>
	<path class="st3" d="M104.3,42.7c-0.6-0.9-0.8-2-0.8-3.1c0-1.1,0.3-2.2,0.8-3.1s1.3-1.7,2.3-2.2c1-0.5,2-0.8,3.2-0.8
		s2.2,0.3,3.2,0.8c1,0.5,1.7,1.3,2.3,2.2s0.9,2,0.9,3.1c0,1.1-0.3,2.2-0.9,3.1c-0.6,0.9-1.3,1.7-2.3,2.2c-1,0.5-2,0.8-3.2,0.8
		s-2.2-0.3-3.2-0.8C105.7,44.3,104.9,43.6,104.3,42.7z M113.1,41.6c0.3-0.6,0.5-1.3,0.5-2c0-0.7-0.2-1.4-0.5-2
		c-0.3-0.6-0.8-1.1-1.4-1.4s-1.2-0.5-2-0.5c-0.7,0-1.4,0.2-2,0.5s-1,0.8-1.4,1.4c-0.3,0.6-0.5,1.3-0.5,2c0,0.8,0.2,1.4,0.5,2
		c0.3,0.6,0.8,1.1,1.4,1.4s1.2,0.5,2,0.5c0.7,0,1.4-0.2,2-0.5S112.8,42.2,113.1,41.6z"/>
	<path class="st3" d="M129.9,45.7h-0.8l-3.3-7.5l-3.3,7.5h-0.8l-4.8-12.1h2.7l2.6,7l3.1-7.2h0.8l3.1,7.2l2.6-7h2.7L129.9,45.7z"/>
</g>
</svg>
