<svg width="103" height="130" viewbox="0 0 103 130" fill="none" xmlns="http://www.w3.org/2000/svg">
<path d="M46.1383 99.4463C47.8103 100.81 49.8783 101.47 52.3423 101.47C54.8063 101.47 56.8303 100.81 58.5023 99.4463C60.1743 98.1263 61.4063 96.2783 62.1983 93.9903C62.9903 91.7023 63.3863 89.1063 63.3863 86.2023C63.3863 81.8023 62.4183 78.2383 60.5703 75.5103C58.7223 72.8263 55.9503 71.4623 52.3423 71.4623C48.6903 71.4623 45.9183 72.8263 44.0703 75.5543C42.1783 78.2823 41.2543 81.8023 41.2543 86.2023C41.2543 89.1063 41.6503 91.7023 42.4423 93.9903C43.2343 96.2783 44.4663 98.1263 46.1383 99.4463ZM57.0503 94.2983C56.0383 96.2343 54.4543 97.2023 52.3423 97.2023C50.1863 97.2023 48.6023 96.2343 47.5903 94.2983C46.5783 92.3623 46.0943 89.6783 46.0943 86.2463C46.0943 79.2503 48.1623 75.7303 52.3423 75.7303C56.4783 75.7303 58.5463 79.2503 58.5463 86.2463C58.5463 89.6783 58.0183 92.3623 57.0503 94.2983Z" fill="url(#paint0_linear)"/>
<path fill-rule="evenodd" clip-rule="evenodd" d="M0.464844 43.9844H102.177V129.603H0.464844V43.9844ZM4.46484 47.9844V125.603H98.1774V47.9844H4.46484Z" fill="url(#paint1_linear)"/>
<path fill-rule="evenodd" clip-rule="evenodd" d="M38.2123 11.3066C34.2262 15.9436 31.625 22.9864 31.625 32.4767H27.625C27.625 22.2712 30.4279 14.226 35.179 8.69906C39.9469 3.15255 46.547 0.300781 53.7658 0.300781C60.9827 0.300781 67.5831 3.14315 72.352 8.68643C77.104 14.21 79.9065 22.2558 79.9065 32.4767H75.9065C75.9065 22.9697 73.305 15.9275 69.3197 11.2951C65.3514 6.68241 59.8814 4.30078 53.7658 4.30078C47.652 4.30078 42.1816 6.68906 38.2123 11.3066Z" fill="url(#paint2_linear)"/>
<defs>
<linearGradient id="paint0_linear" x1="40.4415" y1="114.986" x2="78.5361" y2="110.367" gradientUnits="userSpaceOnUse">
<stop stop-color="#FFE1E7"/>
<stop offset="1" stop-color="#BDC4EA"/>
</linearGradient>
<linearGradient id="paint1_linear" x1="8.17034" y1="129.603" x2="138.179" y2="92.8183" gradientUnits="userSpaceOnUse">
<stop stop-color="#FFE1E7"/>
<stop offset="1" stop-color="#BDC4EA"/>
</linearGradient>
<linearGradient id="paint2_linear" x1="31.5857" y1="32.4767" x2="94.36" y2="8.18323" gradientUnits="userSpaceOnUse">
<stop stop-color="#FFE1E7"/>
<stop offset="1" stop-color="#BDC4EA"/>
</linearGradient>
</defs>
</svg>
