<svg width="150" height="150" viewBox="0 0 150 150" fill="none" xmlns="http://www.w3.org/2000/svg">
<rect width="150" height="150" fill="white"/>
<path d="M110.773 91.6159C116.911 86.4092 120.77 78.8769 120.77 70.4962C120.77 54.7895 107.217 42.0572 90.4975 42.0572C73.7781 42.0572 60.2253 54.7895 60.2253 70.4962C60.2253 86.2029 73.7781 98.9352 90.4975 98.9352C94.9267 98.9352 99.1309 98.0403 102.922 96.4367L115.132 101.943L110.773 91.6159Z" stroke="#221D1E" stroke-width="1.3" stroke-miterlimit="10"/>
<path d="M59.1946 83.6577C55.4807 85.9666 51.0247 87.3107 46.2395 87.3107C42.7976 87.3107 39.5303 86.6154 36.5854 85.3678L27.0991 89.6429L30.4873 81.6183C25.7156 77.576 22.7169 71.7238 22.7169 65.2129C22.7169 53.0096 33.2475 43.1185 46.2362 43.1185C53.3316 43.1185 59.6916 46.0695 64.0032 50.7373" stroke="#221D1E" stroke-width="1.3" stroke-miterlimit="10"/>
<path d="M80.948 63.8056C80.948 58.6222 85.4779 54.4868 90.8305 55.0756C94.9373 55.5281 98.2281 58.8318 98.6345 62.9073C99.0206 66.75 96.9017 70.1502 93.7049 71.7005C92.1972 72.4325 91.3309 74.0328 91.6532 75.663L92.0998 77.922" stroke="#221D1E" stroke-width="1.4" stroke-miterlimit="10" stroke-linecap="round"/>
<path d="M93.833 83.8007L94.011 84.6358" stroke="#221D1E" stroke-width="1.4" stroke-miterlimit="10" stroke-linecap="round"/>
<path d="M36.9514 58.3094L55.9139 62.3384" stroke="#221D1E" stroke-width="1.3" stroke-miterlimit="10" stroke-linecap="round"/>
<path d="M35.8535 63.3865L54.816 67.4154" stroke="#221D1E" stroke-width="1.3" stroke-miterlimit="10" stroke-linecap="round"/>
<path d="M34.7515 68.4635L53.7173 72.4925" stroke="#221D1E" stroke-width="1.3" stroke-miterlimit="10" stroke-linecap="round"/>
</svg>
