<svg width="120" height="120" viewBox="0 0 120 120" fill="none" xmlns="http://www.w3.org/2000/svg">
<path d="M118.086 59.9999C118.086 92.592 91.868 119 59.5428 119C27.2177 119 1 92.592 1 59.9999C1 27.4081 27.2177 1 59.5428 1C91.868 1 118.086 27.4081 118.086 59.9999Z" fill="white" stroke="#E0B370" stroke-width="2"/>
<ellipse cx="38.0367" cy="84.6625" rx="3.58452" ry="2.40803" stroke="#E0B370" stroke-width="2" stroke-linecap="round"/>
<ellipse cx="26.8051" cy="96.7026" rx="2.86762" ry="1.92642" stroke="#E0B370" stroke-width="2" stroke-linecap="round"/>
<ellipse cx="38.0361" cy="106.816" rx="1.67278" ry="0.481605" stroke="#E0B370" stroke-width="2" stroke-linecap="round"/>
<ellipse cx="59.5429" cy="106.816" rx="1.67278" ry="0.481605" stroke="#E0B370" stroke-width="2" stroke-linecap="round"/>
<ellipse cx="81.0507" cy="106.816" rx="1.67278" ry="0.481605" stroke="#E0B370" stroke-width="2" stroke-linecap="round"/>
<ellipse cx="81.0503" cy="84.6624" rx="3.58452" ry="2.40803" stroke="#E0B370" stroke-width="2" stroke-linecap="round"/>
<ellipse cx="70.7748" cy="96.7026" rx="2.86762" ry="1.92642" stroke="#E0B370" stroke-width="2" stroke-linecap="round"/>
<ellipse cx="102.557" cy="84.6625" rx="3.58452" ry="2.40803" stroke="#E0B370" stroke-width="2" stroke-linecap="round"/>
<ellipse cx="92.7592" cy="96.7026" rx="2.86762" ry="1.92642" stroke="#E0B370" stroke-width="2" stroke-linecap="round"/>
<ellipse cx="16.5289" cy="84.6624" rx="3.58452" ry="2.40803" stroke="#E0B370" stroke-width="2" stroke-linecap="round"/>
<ellipse cx="59.5435" cy="84.6625" rx="3.58452" ry="2.40803" stroke="#E0B370" stroke-width="2" stroke-linecap="round"/>
<ellipse cx="48.7895" cy="96.7026" rx="2.86762" ry="1.92642" stroke="#E0B370" stroke-width="2" stroke-linecap="round"/>
<path d="M12.9443 69.5379C14.5012 69.5379 16.6823 70.7863 18.7368 72.2821C22.3666 74.9247 27.2831 75.5116 31.0189 73.0211V73.0211C34.1828 70.9119 38.3046 70.9119 41.4685 73.0211L42.0686 73.4211C45.5958 75.7726 50.191 75.7726 53.7182 73.4211V73.4211C57.2455 71.0697 61.8407 71.0697 65.3679 73.4211V73.4211C68.8952 75.7726 73.4904 75.7726 77.0176 73.4211L77.7446 72.9365C80.8316 70.8785 84.8533 70.8785 87.9404 72.9365V72.9365C91.7109 75.4502 96.6826 74.7182 100.36 72.0703C102.304 70.6703 104.412 69.5379 106.142 69.5379" stroke="#E0B370" stroke-width="2" stroke-linecap="round"/>
<path d="M105.365 49.4448L109.188 45.5919L105.365 41.7391" stroke="#E0B370" stroke-width="2" stroke-linecap="round"/>
<path d="M86.7256 45.5919C90.2472 45.5919 104.118 45.5919 108.95 45.5919" stroke="#E0B370" stroke-width="2" stroke-linecap="round"/>
<path d="M15.0159 49.4448L11.1924 45.5919L15.0159 41.7391" stroke="#E0B370" stroke-width="2" stroke-linecap="round"/>
<path d="M33.6553 45.5919C30.1336 45.5919 16.2625 45.5919 11.4313 45.5919" stroke="#E0B370" stroke-width="2" stroke-linecap="round"/>
<path d="M11.6494 60.7825H27.2961C29.2906 60.7825 31.1987 61.5967 32.5787 63.0367L34.1398 64.6657C36.169 66.7831 39.5535 66.7831 41.5826 64.6657V64.6657C43.6118 62.5483 46.9963 62.5483 49.0255 64.6657V64.6657C51.0547 66.7831 54.4392 66.7831 56.4683 64.6657V64.6657C58.4975 62.5483 61.882 62.5483 63.9112 64.6657V64.6657C65.9404 66.7831 69.3249 66.7831 71.3541 64.6657V64.6657C73.3832 62.5483 76.7677 62.5483 78.7969 64.6657V64.6657C80.8261 66.7831 84.2106 66.7831 86.2398 64.6657L87.8009 63.0367C89.1809 61.5967 91.0889 60.7825 93.0834 60.7825H108.73" stroke="#E0B370" stroke-width="2" stroke-linecap="round"/>
</svg>
