<svg width="125" height="123" viewBox="0 0 125 123" fill="none" xmlns="http://www.w3.org/2000/svg">
<circle cx="60" cy="60" r="60" fill="white"/>
<circle cx="60" cy="60" r="59" stroke="#E0B370" stroke-width="2"/>
<path d="M61.4866 90.9873C60.4433 91.0295 58.3566 90.9873 57.0553 90.5358C55.5911 90.0278 53.7412 87.4565 54.0301 85.9683C54.5315 83.3785 59.0088 82.8928 60.9588 83.0179C62.9088 83.143 64.668 83.6338 66.0827 84.6786C66.6116 85.0689 66.8826 85.4474 66.9588 86.0532C67.1892 87.9005 66.4549 89.0227 64.7008 89.9889C63.6669 90.5584 62.7072 90.9477 61.4866 90.9873Z" fill="#F7EDDE"/>
<path d="M52 85C53.7895 86 56.0263 87 60.5 87C64.0789 87 67.6579 85.6667 69 85" stroke="#E0B370" stroke-width="1.6" stroke-linecap="round"/>
<path d="M56 90C56.9474 90.5 58.1316 91 60.5 91C62.3947 91 64.2895 90.3333 65 90" stroke="#E0B370" stroke-width="1.6" stroke-linecap="round"/>
<path d="M57 77C57.7368 77.5 58.6579 78 60.5 78C61.9737 78 63.4474 77.3333 64 77" stroke="#E0B370" stroke-width="1.6" stroke-linecap="round"/>
<path d="M55.3793 10.5983C56.726 9.89403 58.1679 9.26337 59.7051 9.0661C62.82 8.67091 65.8668 10.1042 68.3431 11.8586C70.2878 13.2431 72.165 15.1463 71.9885 17.3826C71.961 17.7287 71.8798 18.0869 71.6622 18.3589C71.1448 19.0017 70.125 19.0265 69.2677 18.989C66.4384 18.8778 63.6228 18.7668 60.8066 18.6678C58.3445 18.5689 55.2294 18.927 52.8625 18.3339C51.0536 17.889 50.6997 15.9864 51.217 14.4542C51.5976 13.3046 53.8692 10.5983 55.3793 10.5983" fill="#F7EDDE"/>
<path d="M31.5531 41.376C32.2373 39.6356 30.9465 37.4018 32.198 35.9696C33.1145 34.9206 36.4693 34.538 36.9468 33.2545C37.3726 32.1187 37.2693 30.8472 37.6049 29.6871C38.3402 27.1692 38.4953 24.7871 40.8824 23.5155C44.2246 21.7261 50.0698 20.8247 53.7601 19.8252C57.4509 18.8252 61.4638 18.6156 65.0768 19.8624C66.6509 20.405 68.1222 21.2077 69.5673 22.01C72.006 23.355 74.4324 24.7003 76.8712 26.0458C79.6711 27.5889 82.5357 29.1935 84.5616 31.6003C85.7615 33.0197 86.6263 34.7109 87.0778 36.4761C87.3873 37.698 87.5036 38.9568 87.6325 40.2036C87.8522 42.598 88.0844 44.9801 88.3037 47.3746C88.5615 50.1273 88.8198 52.8673 88.9874 55.62C89.0391 56.4589 88.9618 57.4961 88.1748 57.8663C87.8779 58.0021 87.5298 58.0145 87.1942 57.9897C84.6907 57.8415 82.4971 56.2741 80.8713 54.4351C79.2452 52.5957 78.0193 50.4727 76.4322 48.609C73.219 44.8568 68.6899 42.3884 64.2251 40.0677C62.8317 39.3393 61.4122 38.6109 59.8637 38.253C57.2699 37.6485 54.5476 38.1297 51.9799 38.7961C47.773 39.8824 43.3859 41.6352 40.6246 45.0048C38.56 47.5352 34.5206 58.1626 30.7275 52.9044C29.0887 50.6829 30.598 43.7952 31.5531 41.376" fill="#F7EDDE"/>
<path d="M33.2082 51.3184C35.5812 45.1076 41.1777 39.9851 48.9265 39.9786C50.3568 39.9778 50.3589 37.9987 48.9265 38C40.1651 38.0074 33.7561 43.7496 31.0646 50.7925C30.603 52.0004 32.7492 52.5193 33.2082 51.3184Z" fill="#E0B370"/>
<path d="M55.0953 38.2572C52.7567 36.0103 52.4726 33.3427 54.3558 30.7062C55.4901 29.1183 57.2817 27.4925 59.2541 27.0073C60.5611 26.6859 60.0073 24.7135 58.6973 25.0354C55.8951 25.7246 53.3257 28.147 51.9827 30.5695C50.1684 33.8439 50.9547 37.1482 53.6138 39.7031C54.5755 40.6271 56.0581 39.1825 55.0953 38.2572" fill="#E0B370"/>
<path d="M57.0451 38.6755C56.1546 32.3583 64.2206 27.832 69.2673 27.0473C70.5508 26.8476 70.0056 24.8149 68.7291 25.0137C62.353 26.0043 54.0232 31.6414 55.0936 39.2361C55.2824 40.5745 57.2326 40.0055 57.0451 38.6755" fill="#E0B370"/>
<path d="M60.6788 39.4088C64.8498 34.4749 71.9924 33.2893 78.0202 34.444C83.8773 35.5661 89.8587 39.313 89.9899 46.0098C90.0154 47.3279 92.0253 47.3322 91.9998 46.0098C91.6936 30.3759 67.653 28.0282 59.2574 37.9588C58.4167 38.9537 59.8325 40.4104 60.6788 39.4088Z" fill="#E0B370"/>
<path d="M70.2988 41.4544C80.1543 39.0144 90.7921 49.6646 91.9048 58.9962C92.0637 60.3265 94.152 60.3427 93.9912 58.9962C92.7139 48.2865 81.0385 36.6248 69.7444 39.4206C68.4405 39.7433 68.9924 41.7775 70.2988 41.4544" fill="#E0B370"/>
<path d="M29.0868 61.3776C26.0322 54.1823 25.9567 46.2311 30.8231 39.9752C34.6951 34.9976 40.016 32.3452 46.0531 32.1254C47.3129 32.0791 47.3183 29.9545 46.0531 30.0007C39.2354 30.2491 33.1252 33.3652 28.9111 39.1735C23.8625 46.1308 24.0868 54.6632 27.3923 62.4502C27.9189 63.6911 29.6111 62.6125 29.0868 61.3776" fill="#E0B370"/>
<path d="M32.3107 36.8614C31.3198 33.6826 34.0044 29.9076 36.0628 27.5375C37.4687 25.9191 39.1509 24.5675 40.9912 23.4665C44.9883 21.0743 49.643 19.8113 54.262 19.3467C63.5241 18.4147 73.9355 20.2493 81.4595 25.979C85.4763 29.0372 88.2496 33.2394 88.9787 38.2505C89.1696 39.5636 91.1768 39.0055 90.9874 37.7004C89.4884 27.4009 80.028 21.1476 70.5885 18.6131C60.5993 15.9305 48.5287 16.3119 39.5632 21.9094C37.3804 23.2715 35.4114 24.9632 33.8352 26.9951C31.5903 29.8895 29.1309 33.6533 30.3019 37.4115C30.6973 38.6802 32.7089 38.1388 32.3107 36.8614" fill="#E0B370"/>
<path d="M45.0777 95C47.2332 101.711 45.0777 107.465 44 112" stroke="#E0B370" stroke-width="2" stroke-linecap="round"/>
<path d="M69.324 67.6866C71.8368 64.4036 76.0636 65.619 79.0049 67.5635C80.2021 68.3542 81.3162 66.4302 80.1269 65.6442C75.9879 62.9079 70.6852 62.2797 67.4045 66.5646C66.5354 67.6997 68.4651 68.808 69.324 67.6866Z" fill="#E0B370"/>
<path d="M67.134 61.2253C70.3048 58.963 74.4643 57.9178 77.6988 60.6814C78.781 61.6059 80.3604 60.0407 79.2708 59.1094C75.2832 55.7028 70.0798 56.4039 66.0118 59.306C64.8574 60.1301 65.9663 62.0586 67.134 61.2253" fill="#E0B370"/>
<path d="M70.8054 64.8487C70.7558 65.5806 70.6806 66.3148 70.7279 67.0467C70.8538 69.0169 72.1746 69.1917 72.5391 69.2703C72.9037 69.3489 73.3114 69.2987 73.6014 69.0636C73.7244 68.9633 73.8206 68.8346 73.9106 68.7036C74.782 67.4346 75.1204 65.8114 74.8282 64.3003" fill="#E0B370"/>
<path d="M70.1558 65.3989C70.0179 67.3263 69.8687 69.8769 72.2625 70.3496C75.0592 70.9009 75.5752 66.5768 75.2704 64.7023C75.156 63.9983 74.0846 64.2969 74.1986 64.998C74.3779 66.1 74.1336 69.7818 72.2865 69.2145C70.7555 68.7445 71.1805 66.6115 71.267 65.3989C71.3182 64.6852 70.2065 64.6881 70.1558 65.3989Z" fill="#E0B370"/>
<path d="M53.2306 65.7351C49.9504 61.4504 44.65 62.0769 40.5081 64.8148C39.32 65.6002 40.4319 67.5259 41.6301 66.7337C44.5675 64.7926 48.7964 63.5719 51.3111 66.8573C52.1688 67.9776 54.1002 66.872 53.2306 65.7351Z" fill="#E0B370"/>
<path d="M54.6634 58.4751C50.5978 55.5745 45.392 54.8727 41.405 58.2787C40.3161 59.2093 41.8942 60.775 42.9764 59.8507C46.2053 57.0923 50.3722 58.1334 53.5414 60.3946C54.7078 61.2268 55.819 59.3 54.6634 58.4751" fill="#E0B370"/>
<path d="M49.7292 64.8488C49.7787 65.5808 49.8538 66.3155 49.8067 67.0468C49.6808 69.0169 48.3599 69.1917 47.9955 69.2709C47.6309 69.3489 47.2231 69.2989 46.9337 69.0636C46.8102 68.9633 46.7139 68.8347 46.6239 68.7043C45.7524 67.4352 45.4141 65.8114 45.7064 64.3004" fill="#E0B370"/>
<path d="M49.2691 64.5691C49.3556 65.7817 49.7806 67.9147 48.2496 68.3847C46.4025 68.952 46.1582 65.2703 46.3375 64.1681C46.4514 63.4681 45.3807 63.1673 45.2663 63.8726C44.9604 65.7498 45.4758 70.0718 48.2736 69.5198C50.6674 69.0477 50.5181 66.4972 50.3803 64.5691C50.3296 63.86 49.2179 63.8543 49.2691 64.5691Z" fill="#E0B370"/>
<path d="M48.0749 18.5886C46.6242 11.9733 54.566 8.44681 59.8498 7.98711C63.7752 7.64561 67.3735 8.68105 70.548 11.0272C73.4622 13.1806 76.5784 16.9116 74.3144 20.5787C73.6638 21.6315 75.3185 22.5966 75.9662 21.5475C78.2914 17.7817 76.3659 13.7652 73.4404 10.9683C69.9585 7.63945 65.3954 5.79051 60.5856 6.01894C53.7607 6.34288 44.4127 10.8139 46.2298 19.0987C46.4944 20.3046 48.3396 19.7946 48.0749 18.5886Z" fill="#E0B370"/>
<path d="M31.313 61.9836C35.5497 61.2906 37.8469 57.1765 39.7417 53.8308C40.9575 51.6844 42.1934 49.5494 43.4493 47.4259C45.0399 44.737 46.5202 42.2813 49.9934 42.0672C51.3307 41.9849 51.3403 39.9193 49.9934 40.0024C45.2748 40.2935 43.3476 43.4843 41.1725 47.1807C39.8433 49.44 38.5405 51.714 37.254 53.9976C35.8203 56.5417 33.914 59.4759 30.757 59.9926C29.4312 60.2095 29.9936 62.1996 31.313 61.9836" fill="#E0B370"/>
<path d="M76.4835 50.0051C79.1265 51.803 81.2514 54.8249 83.1241 57.3C84.3446 58.9132 85.3387 61.0147 87.3178 61.8915C88.5958 62.4579 89.7172 60.6494 88.4305 60.0791C86.1979 59.0901 84.6763 55.7197 83.1827 53.9058C81.5183 51.884 79.8078 49.6971 77.5962 48.1931C76.4401 47.4066 75.3376 49.2258 76.4835 50.0051" fill="#E0B370"/>
<circle cx="44.0479" cy="73" r="1" fill="#E0B370"/>
<circle cx="50" cy="76.9811" r="1" fill="#E0B370"/>
<circle cx="40.5" cy="74.5" r="1.5" fill="#E0B370"/>
<circle cx="45" cy="80" r="1" fill="#E0B370"/>
<circle cx="1" cy="1" r="1" transform="matrix(-1 0 0 1 77 72)" fill="#E0B370"/>
<circle cx="1" cy="1" r="1" transform="matrix(-1 0 0 1 73 76)" fill="#E0B370"/>
<circle cx="1" cy="1" r="1" transform="matrix(-1 0 0 1 48 49)" fill="#E0B370"/>
<circle cx="1" cy="1" r="1" transform="matrix(-1 0 0 1 51 45)" fill="#E0B370"/>
<circle cx="1" cy="1" r="1" transform="matrix(-1 0 0 1 68 45)" fill="#E0B370"/>
<circle cx="1" cy="1" r="1" transform="matrix(-1 0 0 1 79 77)" fill="#E0B370"/>
<path d="M36 63C36 90 51.5 101 60.5 101C69.5 101 87 83.5 87 64.5" stroke="#E0B370" stroke-width="2" stroke-linecap="round"/>
<path d="M76 95C74.6667 99.8022 74.6667 108.198 76 113" stroke="#E0B370" stroke-width="2" stroke-linecap="round"/>
<path d="M33.9997 62.5C30.5003 62 27.4997 73 35.0003 77" stroke="#E0B370" stroke-width="2" stroke-linecap="round"/>
<path d="M88.0003 62.5C91.4997 62 94.5003 73 86.9997 77" stroke="#E0B370" stroke-width="2" stroke-linecap="round"/>
<path d="M96.0998 115.412L97.1258 114.432L96.0998 115.412C98.0652 117.469 100.102 118.96 101.781 119.943C102.62 120.434 103.383 120.806 104.017 121.061C104.578 121.286 105.23 121.5 105.767 121.5C106.303 121.5 106.955 121.286 107.516 121.061C108.15 120.806 108.913 120.434 109.752 119.943C111.43 118.96 113.468 117.469 115.433 115.412C118.908 111.774 123.033 105.427 123.033 95.8896V88.1129C123.033 86.8866 122.232 85.8243 121.089 85.4573C116.332 83.9294 111.583 81.7641 107.217 79.1289C106.325 78.5903 105.206 78.5907 104.314 79.1311C99.8558 81.8321 95.2972 83.9115 90.4479 85.4578C89.3025 85.823 88.5 86.8869 88.5 88.1143V95.8896C88.5 105.427 92.6251 111.773 96.0998 115.412Z" fill="white" stroke="white" stroke-width="3" stroke-linecap="round" stroke-linejoin="round"/>
<path d="M121.533 95.8896C121.533 104.951 117.626 110.944 114.348 114.376C110.628 118.271 106.651 120 105.767 120C104.883 120 100.905 118.271 97.1846 114.376C93.907 110.944 90 104.951 90 95.8896V88.1143C90 87.5523 90.3682 87.0576 90.9036 86.8869C95.8681 85.3039 100.534 83.1749 105.092 80.414C105.506 80.1628 106.027 80.1625 106.442 80.4131C110.906 83.1073 115.76 85.3213 120.631 86.8855C121.165 87.0572 121.533 87.5514 121.533 88.1129V95.8896Z" fill="white" stroke="#E0B370" stroke-width="2" stroke-linecap="round" stroke-linejoin="round"/>
<path opacity="0.23" d="M101.766 102.097C101.006 101.07 100.418 99.4362 100.578 97.9626C100.737 96.489 101.822 97.7689 102.59 97.1362C103.358 96.5034 103.413 94.3324 104.649 93.9009C105.884 93.4695 107.531 93.6853 108.149 94.1165C108.767 94.5478 109.59 94.5479 110.414 96.489C111.237 98.4302 107.325 96.9205 105.472 97.5675C103.619 98.2146 102.614 102.864 101.766 102.097Z" fill="#E0B370"/>
<path d="M101.763 93.7387C101.834 94.0437 101.852 94.2697 101.763 94.3446C100.501 95.4067 97.1176 91.82 96.702 92.7337C96.2863 93.6475 100.865 95.1844 100.421 95.9597C99.9768 96.735 100.066 98.6673 99.4513 98.8106C98.1506 99.1137 94.5675 98.8106 94.7753 99.5007C94.9831 100.191 97.3037 99.5007 98.4121 99.5007C99.5205 99.5007 99.9708 99.7109 100.421 100.971C100.667 101.66 100.892 102.189 101.1 102.583M101.763 93.7387C101.552 92.8335 100.721 91.0746 101.118 90.816C102.013 90.2342 101.724 91.9375 102.187 92.7337M101.763 93.7387C101.941 94.5022 102.445 95.9597 102.013 96.5073M102.187 92.7337C102.35 93.0151 102.526 93.2046 102.714 93.1838C103.435 93.1044 103.671 93.0781 104.938 92.7337C105.614 92.7087 107.044 92.0135 107.358 89.4327C107.445 88.7244 107.531 86.9988 108.143 87.182C108.698 87.3479 107.293 92.7337 108.143 93.1838C108.994 93.634 110.236 94.3092 110.629 95.0594C111.021 95.8096 111.741 96.2598 112.46 95.9597C113.18 95.6596 115.041 94.0136 115.338 95.0594C115.561 95.842 112.591 96.1848 112.002 97.2351C111.266 98.5497 109.102 98.6066 105.678 98.8106C103.736 98.9263 103.002 103.848 102.178 103.561C101.355 103.273 100.037 106.925 99.7078 106.58C99.404 106.262 100.557 103.948 101.1 102.583M102.187 92.7337C102.448 93.1838 102.903 93.7387 103.162 93.7387M101.355 101.619C101.409 101.733 101.293 102.098 101.1 102.583" stroke="#E0B370" stroke-width="0.924393" stroke-linecap="round"/>
<ellipse cx="106.296" cy="100.587" rx="0.823532" ry="0.862748" stroke="#E0B370" stroke-width="0.924393" stroke-linecap="round"/>
<ellipse cx="110.001" cy="100.156" rx="0.823532" ry="0.862748" stroke="#E0B370" stroke-width="0.924393" stroke-linecap="round"/>
<ellipse cx="110.414" cy="104.47" rx="0.411766" ry="0.431374" stroke="#E0B370" stroke-width="0.924393" stroke-linecap="round"/>
<ellipse cx="112.061" cy="101.881" rx="0.411766" ry="0.431374" stroke="#E0B370" stroke-width="0.924393" stroke-linecap="round"/>
<ellipse cx="108.149" cy="102.96" rx="0.617649" ry="0.647061" stroke="#E0B370" stroke-width="0.924393" stroke-linecap="round"/>
<ellipse cx="115.355" cy="102.744" rx="0.411766" ry="0.431374" stroke="#E0B370" stroke-width="0.924393" stroke-linecap="round"/>
<ellipse cx="106.709" cy="106.626" rx="0.411766" ry="0.431374" stroke="#E0B370" stroke-width="0.924393" stroke-linecap="round"/>
<ellipse cx="111.237" cy="108.352" rx="0.411766" ry="0.431374" stroke="#E0B370" stroke-width="0.924393" stroke-linecap="round"/>
<ellipse cx="104.854" cy="103.823" rx="0.617649" ry="0.647061" stroke="#E0B370" stroke-width="0.924393" stroke-linecap="round"/>
<ellipse cx="102.178" cy="106.195" rx="0.411766" ry="0.431374" stroke="#E0B370" stroke-width="0.924393" stroke-linecap="round"/>
</svg>
