<svg width="123" height="123" viewBox="0 0 123 123" fill="none" xmlns="http://www.w3.org/2000/svg">
<circle cx="60" cy="60" r="60" fill="white"/>
<circle cx="60" cy="60" r="59" stroke="#E0B370" stroke-width="2"/>
<path d="M61.4866 90.9873C60.4433 91.0295 58.3566 90.9873 57.0553 90.5358C55.5911 90.0278 53.7412 87.4565 54.0301 85.9683C54.5315 83.3785 59.0088 82.8928 60.9588 83.0179C62.9088 83.143 64.668 83.6338 66.0827 84.6786C66.6116 85.0689 66.8826 85.4474 66.9588 86.0532C67.1892 87.9005 66.4549 89.0227 64.7008 89.9889C63.6669 90.5584 62.7072 90.9477 61.4866 90.9873Z" fill="#F7EDDE"/>
<path d="M52 85C53.7895 86 56.0263 87 60.5 87C64.0789 87 67.6579 85.6667 69 85" stroke="#E0B370" stroke-width="1.6" stroke-linecap="round"/>
<path d="M56 90C56.9474 90.5 58.1316 91 60.5 91C62.3947 91 64.2895 90.3333 65 90" stroke="#E0B370" stroke-width="1.6" stroke-linecap="round"/>
<path d="M57 77C57.7368 77.5 58.6579 78 60.5 78C61.9737 78 63.4474 77.3333 64 77" stroke="#E0B370" stroke-width="1.6" stroke-linecap="round"/>
<path d="M55.3793 10.5983C56.726 9.89403 58.1679 9.26337 59.7051 9.0661C62.82 8.67091 65.8668 10.1042 68.3431 11.8586C70.2878 13.2431 72.165 15.1463 71.9885 17.3826C71.961 17.7287 71.8798 18.0869 71.6622 18.3589C71.1448 19.0017 70.125 19.0265 69.2677 18.989C66.4384 18.8778 63.6228 18.7668 60.8066 18.6678C58.3445 18.5689 55.2294 18.927 52.8625 18.3339C51.0536 17.889 50.6997 15.9864 51.217 14.4542C51.5976 13.3046 53.8692 10.5983 55.3793 10.5983" fill="#F7EDDE"/>
<path d="M31.5531 41.376C32.2373 39.6356 30.9465 37.4018 32.198 35.9696C33.1145 34.9206 36.4693 34.538 36.9468 33.2545C37.3726 32.1187 37.2693 30.8472 37.6049 29.6871C38.3402 27.1692 38.4953 24.7871 40.8824 23.5155C44.2246 21.7261 50.0698 20.8247 53.7601 19.8252C57.4509 18.8252 61.4638 18.6156 65.0768 19.8624C66.6509 20.405 68.1222 21.2077 69.5673 22.01C72.006 23.355 74.4324 24.7003 76.8712 26.0458C79.6711 27.5889 82.5357 29.1935 84.5616 31.6003C85.7615 33.0197 86.6263 34.7109 87.0778 36.4761C87.3873 37.698 87.5036 38.9568 87.6325 40.2036C87.8522 42.598 88.0844 44.9801 88.3037 47.3746C88.5615 50.1273 88.8198 52.8673 88.9874 55.62C89.0391 56.4589 88.9618 57.4961 88.1748 57.8663C87.8779 58.0021 87.5298 58.0145 87.1942 57.9897C84.6907 57.8415 82.4971 56.2741 80.8713 54.4351C79.2452 52.5957 78.0193 50.4727 76.4322 48.609C73.219 44.8568 68.6899 42.3884 64.2251 40.0677C62.8317 39.3393 61.4122 38.6109 59.8637 38.253C57.2699 37.6485 54.5476 38.1297 51.9799 38.7961C47.773 39.8824 43.3859 41.6352 40.6246 45.0048C38.56 47.5352 34.5206 58.1626 30.7275 52.9044C29.0887 50.6829 30.598 43.7952 31.5531 41.376" fill="#F7EDDE"/>
<path d="M33.2082 51.3184C35.5812 45.1076 41.1777 39.9851 48.9265 39.9786C50.3568 39.9778 50.3589 37.9987 48.9265 38C40.1651 38.0074 33.7561 43.7496 31.0646 50.7925C30.603 52.0004 32.7492 52.5193 33.2082 51.3184Z" fill="#E0B370"/>
<path d="M55.0953 38.2572C52.7567 36.0103 52.4726 33.3427 54.3558 30.7062C55.4901 29.1183 57.2817 27.4925 59.2541 27.0073C60.5611 26.6859 60.0073 24.7135 58.6973 25.0354C55.8951 25.7246 53.3257 28.147 51.9827 30.5695C50.1684 33.8439 50.9547 37.1482 53.6138 39.7031C54.5755 40.6271 56.0581 39.1825 55.0953 38.2572" fill="#E0B370"/>
<path d="M57.0451 38.6755C56.1546 32.3583 64.2206 27.832 69.2673 27.0473C70.5508 26.8476 70.0056 24.8149 68.7291 25.0137C62.353 26.0043 54.0232 31.6414 55.0936 39.2361C55.2824 40.5745 57.2326 40.0055 57.0451 38.6755" fill="#E0B370"/>
<path d="M60.6788 39.4088C64.8498 34.4749 71.9924 33.2893 78.0202 34.444C83.8773 35.5661 89.8587 39.313 89.9899 46.0098C90.0154 47.3279 92.0253 47.3322 91.9998 46.0098C91.6936 30.3759 67.653 28.0282 59.2574 37.9588C58.4167 38.9537 59.8325 40.4104 60.6788 39.4088Z" fill="#E0B370"/>
<path d="M70.2988 41.4544C80.1543 39.0144 90.7921 49.6646 91.9048 58.9962C92.0637 60.3265 94.152 60.3427 93.9912 58.9962C92.7139 48.2865 81.0385 36.6248 69.7444 39.4206C68.4405 39.7433 68.9924 41.7775 70.2988 41.4544" fill="#E0B370"/>
<path d="M29.0868 61.3776C26.0322 54.1823 25.9567 46.2311 30.8231 39.9752C34.6951 34.9976 40.016 32.3452 46.0531 32.1254C47.3129 32.0791 47.3183 29.9545 46.0531 30.0007C39.2354 30.2491 33.1252 33.3652 28.9111 39.1735C23.8625 46.1308 24.0868 54.6632 27.3923 62.4502C27.9189 63.6911 29.6111 62.6125 29.0868 61.3776" fill="#E0B370"/>
<path d="M32.3107 36.8614C31.3198 33.6826 34.0044 29.9076 36.0628 27.5375C37.4687 25.9191 39.1509 24.5675 40.9912 23.4665C44.9883 21.0743 49.643 19.8113 54.262 19.3467C63.5241 18.4147 73.9355 20.2493 81.4595 25.979C85.4763 29.0372 88.2496 33.2394 88.9787 38.2505C89.1696 39.5636 91.1768 39.0055 90.9874 37.7004C89.4884 27.4009 80.028 21.1476 70.5885 18.6131C60.5993 15.9305 48.5287 16.3119 39.5632 21.9094C37.3804 23.2715 35.4114 24.9632 33.8352 26.9951C31.5903 29.8895 29.1309 33.6533 30.3019 37.4115C30.6973 38.6802 32.7089 38.1388 32.3107 36.8614" fill="#E0B370"/>
<path d="M45.0777 95C47.2332 101.711 45.0777 107.465 44 112" stroke="#E0B370" stroke-width="2" stroke-linecap="round"/>
<path d="M69.324 64.4669C71.8368 67.7498 76.0636 66.5344 79.0049 64.5899C80.2021 63.7993 81.3162 65.7233 80.1269 66.5093C75.9879 69.2455 70.6852 69.8738 67.4045 65.5889C66.5354 64.4538 68.4651 63.3455 69.324 64.4669Z" fill="#E0B370"/>
<path d="M67.134 61.2253C70.3048 58.963 74.4643 57.9178 77.6988 60.6814C78.781 61.6059 80.3604 60.0407 79.2708 59.1094C75.2832 55.7028 70.0798 56.4039 66.0118 59.306C64.8574 60.1301 65.9663 62.0586 67.134 61.2253" fill="#E0B370"/>
<path d="M53.2306 65.9052C49.9504 70.1899 44.65 69.5634 40.5081 66.8256C39.32 66.0401 40.4319 64.1145 41.6301 64.9066C44.5675 66.8477 48.7964 68.0684 51.3111 64.783C52.1688 63.6627 54.1002 64.7683 53.2306 65.9052Z" fill="#E0B370"/>
<path d="M54.6634 58.4751C50.5978 55.5745 45.392 54.8727 41.405 58.2787C40.3161 59.2093 41.8942 60.775 42.9764 59.8507C46.2053 57.0923 50.3722 58.1334 53.5414 60.3946C54.7078 61.2268 55.819 59.3 54.6634 58.4751" fill="#E0B370"/>
<path d="M48.0749 18.5886C46.6242 11.9733 54.566 8.44681 59.8498 7.98711C63.7752 7.64561 67.3735 8.68105 70.548 11.0272C73.4622 13.1806 76.5784 16.9116 74.3144 20.5787C73.6638 21.6315 75.3185 22.5966 75.9662 21.5475C78.2914 17.7817 76.3659 13.7652 73.4404 10.9683C69.9585 7.63945 65.3954 5.79051 60.5856 6.01894C53.7607 6.34288 44.4127 10.8139 46.2298 19.0987C46.4944 20.3046 48.3396 19.7946 48.0749 18.5886Z" fill="#E0B370"/>
<path d="M31.313 61.9836C35.5497 61.2906 37.8469 57.1765 39.7417 53.8308C40.9575 51.6844 42.1934 49.5494 43.4493 47.4259C45.0399 44.737 46.5202 42.2813 49.9934 42.0672C51.3307 41.9849 51.3403 39.9193 49.9934 40.0024C45.2748 40.2935 43.3476 43.4843 41.1725 47.1807C39.8433 49.44 38.5405 51.714 37.254 53.9976C35.8203 56.5417 33.914 59.4759 30.757 59.9926C29.4312 60.2095 29.9936 62.1996 31.313 61.9836" fill="#E0B370"/>
<path d="M76.4835 50.0051C79.1265 51.803 81.2514 54.8249 83.1241 57.3C84.3446 58.9132 85.3387 61.0147 87.3178 61.8915C88.5958 62.4579 89.7172 60.6494 88.4305 60.0791C86.1979 59.0901 84.6763 55.7197 83.1827 53.9058C81.5183 51.884 79.8078 49.6971 77.5962 48.1931C76.4401 47.4066 75.3376 49.2258 76.4835 50.0051" fill="#E0B370"/>
<path d="M36 63C36 90 51.5 101 60.5 101C69.5 101 87 83.5 87 64.5" stroke="#E0B370" stroke-width="2" stroke-linecap="round"/>
<path d="M76 95C74.6667 99.8022 74.6667 108.198 76 113" stroke="#E0B370" stroke-width="2" stroke-linecap="round"/>
<path d="M33.9997 62.5C30.5003 62 27.4997 73 35.0003 77" stroke="#E0B370" stroke-width="2" stroke-linecap="round"/>
<path d="M88.0003 62.5C91.4997 62 94.5003 73 86.9997 77" stroke="#E0B370" stroke-width="2" stroke-linecap="round"/>
<path d="M39.4893 71.174C41.1573 68.9369 43.9373 71.174 46.7173 70.2792C50.2082 69.1555 52.8333 71.6106 52.8333 74.306C52.8333 76.0957 49.4973 76.5431 45.0493 77.4379C40.6013 78.3328 37.8213 73.4111 39.4893 71.174Z" fill="#FFE4E4"/>
<path d="M80.3271 71.174C78.6591 68.9369 75.8791 71.174 73.0991 70.2792C69.6082 69.1555 66.9831 71.6106 66.9831 74.306C66.9831 76.0957 70.3191 76.5431 74.7671 77.4379C79.2151 78.3328 81.9951 73.4111 80.3271 71.174Z" fill="#FFE4E4"/>
<path d="M94.0998 115.412L95.1258 114.432L94.0998 115.412C96.0652 117.469 98.1024 118.96 99.7812 119.943C100.62 120.434 101.383 120.806 102.017 121.061C102.578 121.286 103.23 121.5 103.767 121.5C104.303 121.5 104.955 121.286 105.516 121.061C106.15 120.806 106.913 120.434 107.752 119.943C109.43 118.96 111.468 117.469 113.433 115.412C116.908 111.774 121.033 105.427 121.033 95.8896V88.1129C121.033 86.8866 120.232 85.8243 119.089 85.4573C114.332 83.9294 109.583 81.7641 105.217 79.1289C104.325 78.5903 103.206 78.5907 102.314 79.1311C97.8558 81.8321 93.2972 83.9115 88.4479 85.4578C87.3025 85.823 86.5 86.8869 86.5 88.1143V95.8896C86.5 105.427 90.6251 111.773 94.0998 115.412Z" fill="white" stroke="white" stroke-width="3" stroke-linecap="round" stroke-linejoin="round"/>
<path d="M119.533 95.8896C119.533 104.951 115.626 110.944 112.348 114.376C108.628 118.271 104.651 120 103.767 120C102.883 120 98.9048 118.271 95.1846 114.376C91.907 110.944 88 104.951 88 95.8896V88.1143C88 87.5523 88.3682 87.0576 88.9036 86.8869C93.8681 85.3039 98.5343 83.1749 103.092 80.414C103.506 80.1628 104.027 80.1625 104.442 80.4131C108.906 83.1073 113.76 85.3213 118.631 86.8855C119.165 87.0572 119.533 87.5514 119.533 88.1129V95.8896Z" fill="white" stroke="#E0B370" stroke-width="2" stroke-linecap="round" stroke-linejoin="round"/>
<path fill-rule="evenodd" clip-rule="evenodd" d="M107.027 90.3685C107.027 90.258 106.938 90.1685 106.827 90.1685H101.175C101.064 90.1685 100.975 90.258 100.975 90.3685V96.9421C100.975 97.0526 100.885 97.1421 100.775 97.1421L94.2002 97.1421C94.0897 97.1421 94.0002 97.2317 94.0002 97.3421L94.0002 102.995C94.0002 103.105 94.0897 103.195 94.2002 103.195H100.775C100.885 103.195 100.975 103.284 100.975 103.395V109.968C100.975 110.079 101.064 110.168 101.175 110.168H106.827C106.938 110.168 107.027 110.079 107.027 109.968V103.395C107.027 103.284 107.117 103.195 107.227 103.195H113.8C113.911 103.195 114 103.105 114 102.995V97.3421C114 97.2317 113.911 97.1421 113.8 97.1421L107.227 97.1421C107.117 97.1421 107.027 97.0526 107.027 96.9421V90.3685Z" fill="white"/>
<path d="M107.227 97.1421L107.227 96.1421L107.227 97.1421ZM113.8 97.1421L113.8 98.1421L113.8 97.1421ZM94.2 97.1421L94.2 98.1421L94.2 97.1421ZM100.774 97.1421L100.774 96.1421L100.774 97.1421ZM101.174 91.1685H106.827V89.1685H101.174V91.1685ZM101.974 96.9421V90.3685H99.9744V96.9421H101.974ZM94.2 98.1421L100.774 98.1421L100.774 96.1421L94.2 96.1421L94.2 98.1421ZM95 102.995L95 97.3421L93 97.3421L93 102.995L95 102.995ZM100.774 102.195H94.2V104.195H100.774V102.195ZM101.974 109.968V103.395H99.9744V109.968H101.974ZM106.827 109.168H101.174V111.168H106.827V109.168ZM106.027 103.395V109.968H108.027V103.395H106.027ZM113.8 102.195H107.227V104.195H113.8V102.195ZM113 97.3421V102.995H115V97.3421H113ZM107.227 98.1421L113.8 98.1421L113.8 96.1421L107.227 96.1421L107.227 98.1421ZM106.027 90.3685V96.9421H108.027V90.3685H106.027ZM107.227 96.1421C107.669 96.1421 108.027 96.5003 108.027 96.9421H106.027C106.027 97.6049 106.564 98.1421 107.227 98.1421L107.227 96.1421ZM115 97.3421C115 96.6794 114.463 96.1421 113.8 96.1421L113.8 98.1421C113.358 98.1421 113 97.7839 113 97.3421H115ZM113.8 104.195C114.463 104.195 115 103.657 115 102.995H113C113 102.553 113.358 102.195 113.8 102.195V104.195ZM108.027 103.395C108.027 103.837 107.669 104.195 107.227 104.195V102.195C106.564 102.195 106.027 102.732 106.027 103.395H108.027ZM106.827 111.168C107.49 111.168 108.027 110.631 108.027 109.968H106.027C106.027 109.527 106.385 109.168 106.827 109.168V111.168ZM99.9744 109.968C99.9744 110.631 100.512 111.168 101.174 111.168V109.168C101.616 109.168 101.974 109.527 101.974 109.968H99.9744ZM100.774 104.195C100.333 104.195 99.9744 103.837 99.9744 103.395H101.974C101.974 102.732 101.437 102.195 100.774 102.195V104.195ZM93 102.995C93 103.657 93.5373 104.195 94.2 104.195V102.195C94.6418 102.195 95 102.553 95 102.995L93 102.995ZM94.2 96.1421C93.5373 96.1421 93 96.6794 93 97.3421L95 97.3421C95 97.7839 94.6418 98.1421 94.2 98.1421L94.2 96.1421ZM99.9744 96.9421C99.9744 96.5003 100.333 96.1421 100.774 96.1421L100.774 98.1421C101.437 98.1421 101.974 97.6049 101.974 96.9421H99.9744ZM106.827 91.1685C106.385 91.1685 106.027 90.8103 106.027 90.3685H108.027C108.027 89.7057 107.49 89.1685 106.827 89.1685V91.1685ZM101.174 89.1685C100.512 89.1685 99.9744 89.7057 99.9744 90.3685H101.974C101.974 90.8103 101.616 91.1685 101.174 91.1685V89.1685Z" fill="#E0B370"/>
</svg>
