<svg width="34" height="34" viewbox="0 0 34 34" fill="none" xmlns="http://www.w3.org/2000/svg">
<path d="M17.0702 10.8224C13.6633 10.8224 10.8405 13.6108 10.8405 17.0841C10.8405 20.5574 13.6146 23.3459 17.0702 23.3459C20.5257 23.3459 23.2998 20.5085 23.2998 17.0841C23.2998 13.6597 20.477 10.8224 17.0702 10.8224ZM17.0702 21.0956C14.8801 21.0956 13.0793 19.2855 13.0793 17.0841C13.0793 14.8827 14.8801 13.0727 17.0702 13.0727C19.2603 13.0727 21.061 14.8827 21.061 17.0841C21.061 19.2855 19.2603 21.0956 17.0702 21.0956Z" fill="white"/>
<path d="M23.5431 12.089C24.3226 12.089 24.9545 11.4539 24.9545 10.6704C24.9545 9.88684 24.3226 9.25167 23.5431 9.25167C22.7636 9.25167 22.1317 9.88684 22.1317 10.6704C22.1317 11.4539 22.7636 12.089 23.5431 12.089Z" fill="white"/>
<path d="M27.1932 7.00572C25.9278 5.68488 24.127 5 22.0829 5H12.057C7.82282 5 5 7.83736 5 12.0934V22.122C5 24.2256 5.68137 26.0356 7.04411 27.3564C8.35818 28.6284 10.1103 29.2643 12.1057 29.2643H22.0342C24.127 29.2643 25.8791 28.5795 27.1445 27.3564C28.4586 26.0845 29.14 24.2745 29.14 22.1709V12.0934C29.14 10.0388 28.4586 8.27764 27.1932 7.00572ZM26.9985 22.1709C26.9985 23.6874 26.4631 24.9104 25.5871 25.7421C24.7111 26.5737 23.4943 27.014 22.0342 27.014H12.1057C10.6456 27.014 9.4289 26.5737 8.55286 25.7421C7.67681 24.8615 7.23879 23.6385 7.23879 22.122V12.0934C7.23879 10.6258 7.67681 9.4028 8.55286 8.52224C9.38023 7.6906 10.6456 7.25032 12.1057 7.25032H22.1316C23.5917 7.25032 24.8084 7.6906 25.6844 8.57116C26.5118 9.45172 26.9985 10.6747 26.9985 12.0934V22.1709Z" fill="white"/>
</svg>
