<svg width="598" height="213" viewbox="0 0 598 213" fill="none" xmlns="http://www.w3.org/2000/svg">
<path opacity="0.51" d="M594.396 37.4436C591.879 33.9567 577.896 3.94361 536.896 0.443612C511.43 -2.68619 442.396 12.4437 399.396 26.9436C376.896 35.4437 343.396 46.4437 336.396 59.4437C333.09 66.9533 323.548 74.6297 314.896 76.4437C304.028 78.7276 292.896 73.4437 287.396 67.4437C218.295 51.6067 185.397 47.6381 132.897 51.9437C113.414 53.5415 76.3965 60.9437 51.3965 77.4437C51.3965 77.4437 11.3965 99.9437 2.39534 152.444C-1.89147 177.444 -3.10352 193.444 29.3968 210.944C45.4603 215.671 56.8965 208.444 79.8965 198.444C117.397 177.944 169.924 154.99 169.924 154.99C169.924 154.99 229.303 135.844 275.896 124.444C316.309 115.12 374.351 104.938 401.396 100.944C428.442 96.9492 441.896 96.9437 502.896 91.9437C564.396 88.4437 580.396 88.9437 588.396 78.9914C594.747 73.6622 601.179 46.8518 594.396 37.4436Z" fill="url(#paint0_linear)"/>
<defs>
<linearGradient id="paint0_linear" x1="296.31" y1="102.795" x2="279.198" y2="10.5871" gradientUnits="userSpaceOnUse">
<stop stop-color="#8CB5E9" stop-opacity="0.44"/>
<stop offset="0.187" stop-color="#A5C5EE" stop-opacity="0.5506"/>
<stop offset="0.7032" stop-color="#E6EFFA" stop-opacity="0.8559"/>
<stop offset="0.9468" stop-color="white"/>
</linearGradient>
</defs>
</svg>
