<svg width="218" height="199" viewbox="0 0 218 199" fill="none" xmlns="http://www.w3.org/2000/svg">
<path opacity="0.42" d="M46.2746 198.831C46.2746 198.831 61.9289 165.283 90.8809 144.944C110.373 131.25 128.381 127.944 128.381 127.944L162.381 116.944C162.381 116.944 205.381 106.944 215.881 77.4437C221.381 51.9437 207.381 27.4437 181.881 12.4437C163.381 -2.05632 131.275 0.443659 90.8809 0.443659C40.8809 4.94366 21.2393 29.396 12.3809 49.4437C1.86909 73.232 0.380859 94.9437 0.380859 94.9437L46.2746 198.831Z" fill="#E4C5FF"/>
<path opacity="0.67" d="M0.501953 95.3001C0.501953 95.3001 2.15286 58.4245 25.1773 28.1604C34.3457 16.1111 51.8039 8.28968 73.794 3.2559C92.6048 0.401827 101.878 -0.453359 137.57 0.401843C163.883 2.20272 176.839 9.19904 181.392 12.1076C174.388 11.3072 131.75 17.8397 121.663 22.6127C115.566 26.0338 109.366 38.1955 104.255 55.7337C67.8686 57.6741 44.1321 57.7714 28.6701 64.8527C12.3954 70.6491 0.501953 95.3001 0.501953 95.3001Z" fill="url(#paint0_linear)"/>
<path d="M121.662 22.6127C131.75 17.8397 174.388 11.3072 181.391 12.1076C190.579 17.6476 209.857 32.7896 213.468 49.0384C217.981 69.3494 220.238 76.9095 204.779 95.3023C193.157 106.812 157.274 120.616 141.251 124.076L104.255 55.7337C109.365 38.1956 115.565 26.0339 121.662 22.6127Z" fill="#DCC7F0"/>
<defs>
<linearGradient id="paint0_linear" x1="44.3484" y1="-5.35884" x2="115.75" y2="92.7664" gradientUnits="userSpaceOnUse">
<stop offset="0.00558659" stop-color="#D4BEE9"/>
<stop offset="1" stop-color="#EDDCFC"/>
</linearGradient>
</defs>
</svg>
