<svg width="173" height="118" viewbox="0 0 173 118" fill="none" xmlns="http://www.w3.org/2000/svg">
<path opacity="0.42" d="M0.395606 48.4437C0.0622722 37.9437 7.29561 14.9437 38.8956 6.94368C70.4956 -1.05632 102.396 1.94368 114.396 4.44368L129.896 9.44366L139.896 33.4437L142.396 44.9437L143.896 55.9437C144.562 60.9437 146.596 72.2437 149.396 77.4437C152.196 82.6437 166.229 103.61 172.896 113.444C157.562 113.444 123.796 113.644 111.396 114.444C95.8956 115.444 75.3956 119.444 59.3956 115.444C43.3956 111.444 19.3956 103.944 5.89561 76.9437C1.49561 68.1437 0.395606 54.277 0.395606 48.4437Z" fill="#E4C5FF"/>
<path opacity="0.67" d="M143.848 58.9612C143.848 58.9612 143.848 36.4454 129.428 9.12795C120.697 6.00952 113.212 3.39003 95.6241 1.89317C76.8133 -0.960905 55.334 1.89317 33.6382 8.33593C1.81492 20.4377 1.13123 40.8766 0.445755 48.3411C11.4742 41.9375 33.1653 31.0768 43.2531 35.8498C50.3241 39.1954 49.8142 50.5238 59.1118 64.2874C75.0582 56.0643 93.2295 54.8529 108.989 53.9412C134.42 54.9055 143.848 58.9612 143.848 58.9612Z" fill="url(#paint0_linear)"/>
<path d="M43.2536 35.8498C33.1658 31.0768 11.4747 41.9375 0.446251 48.3411C-0.0798798 50.3241 0.446251 63.125 5.76292 76.1428C11.0796 89.1606 23.1547 100.408 41.7962 110.093C54.7931 119.508 87.5493 117.487 102.303 115.3C101.157 114.12 96.3667 109.489 86.369 100.408C76.3714 91.3268 64.0322 72.5438 59.1123 64.2874C49.8147 50.5238 50.3246 39.1954 43.2536 35.8498Z" fill="#D1B7E9"/>
<defs>
<linearGradient id="paint0_linear" x1="102.837" y1="-33.3052" x2="31.4355" y2="64.82" gradientUnits="userSpaceOnUse">
<stop offset="0.00558659" stop-color="#D4BEE9"/>
<stop offset="1" stop-color="#EDDCFC"/>
</linearGradient>
</defs>
</svg>
