<svg width="150" height="150" viewBox="0 0 150 150" fill="none" xmlns="http://www.w3.org/2000/svg">
<rect width="150" height="150" fill="white"/>
<path d="M96.3214 37.4543L41.3447 54.2806L52.8823 69.1116C52.8823 69.1116 72.995 68.9127 79.1386 60.0676L87.4489 75.6185L116.74 68.0213L96.3214 37.4543Z" stroke="#221D1E" stroke-width="1.3" stroke-miterlimit="10"/>
<path d="M43.9639 62.8787L37.7244 65.4568L61.7946 95.6718L113.271 81.0626L106.757 73.1911" stroke="#221D1E" stroke-width="1.3" stroke-miterlimit="10"/>
<path d="M39.7324 73.7415L33.2598 76.4293L58.0518 106.545L111.105 91.9646L106.483 87.2747" stroke="#221D1E" stroke-width="1.3" stroke-miterlimit="10"/>
<path d="M52.4907 69.0306L87.3983 75.782" stroke="#221D1E" stroke-width="1.3" stroke-miterlimit="10"/>
<path d="M53.478 75.3601C54.7967 75.9506 55.7196 73.8892 54.4008 73.2988C53.0891 72.7057 52.1592 74.7697 53.478 75.3601Z" fill="#221D1E"/>
<path d="M67.2247 76.3846C68.5434 76.975 69.4663 74.9137 68.1475 74.3233C66.8309 73.728 65.9059 75.7942 67.2247 76.3846Z" fill="#221D1E"/>
<path d="M59.7939 81.0148C61.1127 81.6052 62.0355 79.5439 60.7168 78.9535C59.4028 78.3652 58.4751 80.4244 59.7939 81.0148Z" fill="#221D1E"/>
<path d="M64.3245 88.7383C65.6433 89.3287 66.5661 87.2674 65.2474 86.6769C63.9286 86.0865 63.0057 88.1478 64.3245 88.7383Z" fill="#221D1E"/>
<path d="M70.2703 82.4887C71.5891 83.0791 72.512 81.0178 71.1932 80.4274C69.8744 79.837 68.9515 81.8983 70.2703 82.4887Z" fill="#221D1E"/>
<path d="M79.1092 79.5421C80.4279 80.1325 81.3508 78.0712 80.032 77.4808C78.7154 76.8855 77.7904 78.9517 79.1092 79.5421Z" fill="#221D1E"/>
<path d="M89.1916 82.1738C90.5103 82.7642 91.4332 80.7029 90.1144 80.1125C88.7956 79.522 87.868 81.5812 89.1916 82.1738Z" fill="#221D1E"/>
<path d="M99.4488 78.8325C100.768 79.4229 101.69 77.3616 100.372 76.7712C99.055 76.1759 98.13 78.2421 99.4488 78.8325Z" fill="#221D1E"/>
<path d="M77.6584 85.7913C78.9772 86.3817 79.9 84.3204 78.5813 83.73C77.2673 83.1417 76.3396 85.2009 77.6584 85.7913Z" fill="#221D1E"/>
</svg>
