<svg width="47" height="28" viewbox="0 0 47 28" fill="none" xmlns="http://www.w3.org/2000/svg">
<mask id="mask0" mask-type="alpha" maskUnits="userSpaceOnUse" x="0" y="0" width="47" height="28">
<rect x="0.598145" y="0.240356" width="46.1381" height="26.97" fill="url(#paint0_linear)"/>
</mask>
<g mask="url(#mask0)">
<path fill-rule="evenodd" clip-rule="evenodd" d="M39.3103 13.6827C39.3103 9.0945 42.4608 5.23634 46.7326 4.12118C45.9207 3.90918 45.0682 3.79626 44.1892 3.79626C38.6857 3.79626 34.2242 8.22249 34.2242 13.6825C34.2242 19.1425 38.6857 23.5688 44.1892 23.5688C45.068 23.5688 45.9202 23.4559 46.732 23.244C42.4605 22.1286 39.3103 18.2706 39.3103 13.6827ZM-24.3787 23.5708C-18.8752 23.5708 -14.4137 19.1445 -14.4137 13.6845C-14.4137 8.22449 -18.8752 3.79827 -24.3787 3.79827C-29.8823 3.79827 -34.3438 8.22449 -34.3438 13.6845C-34.3438 19.1445 -29.8823 23.5708 -24.3787 23.5708ZM4.09212 4.3112C7.19747 5.6282 9.434 9.32654 9.434 13.683C9.434 18.0404 7.19653 21.7394 4.09015 23.0557C3.74039 23.3884 3.07798 23.5688 1.96716 23.5688C-3.53638 23.5688 -7.99787 19.1425 -7.99787 13.6825C-7.99787 8.82395 -4.46516 4.78397 0.19091 3.95286L0.222916 3.9457C0.706661 3.86093 1.20245 3.81078 1.70758 3.79793L1.74346 3.79871C1.81783 3.79708 1.8924 3.79626 1.96716 3.79626C3.08007 3.79626 3.74288 3.97726 4.09212 4.3112ZM16.6063 13.6809C16.6063 8.30658 20.9288 3.93389 26.3129 3.79789V23.5639C20.9288 23.4279 16.6063 19.0552 16.6063 13.6809Z" fill="url(#paint1_linear)"/>
<path fill-rule="evenodd" clip-rule="evenodd" d="M39.3103 13.6827C39.3103 9.0945 42.4608 5.23634 46.7326 4.12118C45.9207 3.90918 45.0682 3.79626 44.1892 3.79626C38.6857 3.79626 34.2242 8.22249 34.2242 13.6825C34.2242 19.1425 38.6857 23.5688 44.1892 23.5688C45.068 23.5688 45.9202 23.4559 46.732 23.244C42.4605 22.1286 39.3103 18.2706 39.3103 13.6827ZM-24.3787 23.5708C-18.8752 23.5708 -14.4137 19.1445 -14.4137 13.6845C-14.4137 8.22449 -18.8752 3.79827 -24.3787 3.79827C-29.8823 3.79827 -34.3438 8.22449 -34.3438 13.6845C-34.3438 19.1445 -29.8823 23.5708 -24.3787 23.5708ZM4.09212 4.3112C7.19747 5.6282 9.434 9.32654 9.434 13.683C9.434 18.0404 7.19653 21.7394 4.09015 23.0557C3.74039 23.3884 3.07798 23.5688 1.96716 23.5688C-3.53638 23.5688 -7.99787 19.1425 -7.99787 13.6825C-7.99787 8.82395 -4.46516 4.78397 0.19091 3.95286L0.222916 3.9457C0.706661 3.86093 1.20245 3.81078 1.70758 3.79793L1.74346 3.79871C1.81783 3.79708 1.8924 3.79626 1.96716 3.79626C3.08007 3.79626 3.74288 3.97726 4.09212 4.3112ZM16.6063 13.6809C16.6063 8.30658 20.9288 3.93389 26.3129 3.79789V23.5639C20.9288 23.4279 16.6063 19.0552 16.6063 13.6809Z" fill="url(#paint2_linear)"/>
</g>
<defs>
<linearGradient id="paint0_linear" x1="11.0298" y1="60.0198" x2="53.1852" y2="62.4506" gradientUnits="userSpaceOnUse">
<stop stop-color="#FAD9E0"/>
<stop offset="0.75864" stop-color="#4E79C0"/>
</linearGradient>
<linearGradient id="paint1_linear" x1="-16.0126" y1="47.6267" x2="56.9184" y2="57.7056" gradientUnits="userSpaceOnUse">
<stop stop-color="#FAD9E0"/>
<stop offset="0.75864" stop-color="#4E79C0"/>
</linearGradient>
<linearGradient id="paint2_linear" x1="-16.0126" y1="47.6267" x2="56.9184" y2="57.7056" gradientUnits="userSpaceOnUse">
<stop stop-color="#FAD9E0"/>
<stop offset="0.75864" stop-color="#4E79C0"/>
</linearGradient>
</defs>
</svg>
