<svg width="502" height="367" viewBox="0 0 502 367" fill="none" xmlns="http://www.w3.org/2000/svg">
<g clip-path="url(#clip0)">
<path d="M79.3982 78.8957V77.6217H78.1382V74.7797H76.6542V77.6217H73.8962L76.5142 71.2657H74.9882L72.0342 78.4897V78.8957H76.6542V80.5057H78.1382V78.8957H79.3982Z" fill="#221D1E"/>
<path d="M370.924 21.7472V20.4732H369.664V17.6312H368.18V20.4732H365.422L368.04 14.1172H366.514L363.56 21.3412V21.7472H368.18V23.3572H369.664V21.7472H370.924Z" fill="#221D1E"/>
<path d="M265.447 114.972C264.971 114.482 264.383 114.174 263.711 114.062L265.951 111.038V110.632H260.197V111.99H263.641L261.485 114.888V115.294H262.507C263.179 115.294 263.711 115.434 264.075 115.714C264.439 115.994 264.635 116.4 264.635 116.918C264.635 117.45 264.453 117.87 264.103 118.192C263.739 118.514 263.291 118.668 262.745 118.668C262.269 118.668 261.849 118.556 261.513 118.304C261.163 118.066 260.855 117.73 260.575 117.296L259.539 118.024C259.847 118.626 260.267 119.116 260.827 119.48C261.387 119.844 262.031 120.026 262.787 120.026C263.389 120.026 263.949 119.9 264.467 119.648C264.971 119.396 265.391 119.018 265.699 118.542C266.007 118.066 266.161 117.52 266.161 116.904C266.161 116.12 265.923 115.476 265.447 114.972Z" fill="#221D1E"/>
<path d="M128.44 143.639H124.534L126.158 141.917C126.802 141.245 127.278 140.643 127.614 140.125C127.95 139.607 128.118 139.033 128.118 138.403C128.118 137.871 127.978 137.381 127.712 136.947C127.446 136.513 127.082 136.163 126.62 135.911C126.158 135.659 125.64 135.533 125.052 135.533C124.422 135.533 123.876 135.673 123.4 135.953C122.924 136.233 122.574 136.611 122.322 137.059C122.07 137.507 121.944 137.983 121.944 138.487C121.944 138.767 121.972 139.033 122.042 139.285H123.54C123.484 139.005 123.47 138.767 123.47 138.571C123.47 138.095 123.61 137.703 123.904 137.381C124.184 137.059 124.562 136.891 125.038 136.891C125.5 136.891 125.878 137.045 126.158 137.353C126.438 137.661 126.578 138.053 126.578 138.515C126.578 138.907 126.452 139.299 126.228 139.677C125.99 140.055 125.612 140.517 125.108 141.049L121.818 144.591V144.927H128.44V143.639Z" fill="#221D1E"/>
<path d="M347.577 343.885H341.235V345.215H345.575L341.501 353.125H343.111L347.577 344.291V343.885Z" fill="#221D1E"/>
<path d="M411.15 95.9173H407.244L408.868 94.1953C409.512 93.5233 409.988 92.9213 410.324 92.4033C410.66 91.8853 410.828 91.3113 410.828 90.6813C410.828 90.1493 410.688 89.6593 410.422 89.2253C410.156 88.7913 409.792 88.4413 409.33 88.1893C408.868 87.9373 408.35 87.8113 407.762 87.8113C407.132 87.8113 406.586 87.9513 406.11 88.2313C405.634 88.5113 405.284 88.8893 405.032 89.3373C404.78 89.7853 404.654 90.2613 404.654 90.7653C404.654 91.0453 404.682 91.3113 404.752 91.5633H406.25C406.194 91.2833 406.18 91.0453 406.18 90.8493C406.18 90.3733 406.32 89.9813 406.614 89.6593C406.894 89.3373 407.272 89.1693 407.748 89.1693C408.21 89.1693 408.588 89.3233 408.868 89.6313C409.148 89.9393 409.288 90.3313 409.288 90.7933C409.288 91.1853 409.162 91.5773 408.938 91.9553C408.7 92.3333 408.322 92.7953 407.818 93.3273L404.528 96.8693V97.2053H411.15V95.9173Z" fill="#221D1E"/>
<path d="M220.399 292.592C219.923 292.326 219.433 292.186 218.901 292.186C218.747 292.186 218.607 292.2 218.495 292.228L220.721 289.078H218.971L216.661 292.34C216.339 292.802 216.101 293.152 215.947 293.404C215.793 293.656 215.667 293.95 215.555 294.258C215.443 294.566 215.401 294.902 215.401 295.266C215.401 295.882 215.541 296.428 215.835 296.918C216.129 297.408 216.521 297.786 217.025 298.066C217.529 298.346 218.075 298.472 218.663 298.472C219.251 298.472 219.783 298.332 220.287 298.052C220.791 297.772 221.183 297.394 221.491 296.904C221.785 296.428 221.939 295.882 221.939 295.28C221.939 294.706 221.799 294.188 221.519 293.712C221.239 293.236 220.861 292.872 220.399 292.592ZM219.937 296.596C219.587 296.946 219.167 297.114 218.663 297.114C218.145 297.114 217.711 296.946 217.375 296.596C217.025 296.246 216.857 295.812 216.857 295.28C216.857 294.762 217.025 294.328 217.375 293.978C217.711 293.628 218.145 293.446 218.663 293.446C219.167 293.446 219.587 293.628 219.937 293.978C220.287 294.328 220.469 294.762 220.469 295.28C220.469 295.812 220.287 296.246 219.937 296.596Z" fill="#221D1E"/>
<path d="M194.915 207.697C194.439 207.473 193.921 207.361 193.375 207.361C192.955 207.361 192.563 207.403 192.199 207.487V205.317H196.007V203.987H190.743V208.635H192.871C193.543 208.635 194.075 208.789 194.439 209.069C194.803 209.349 194.999 209.755 194.999 210.273C194.999 210.805 194.817 211.239 194.453 211.547C194.089 211.869 193.627 212.023 193.081 212.023C192.577 212.023 192.157 211.911 191.793 211.659C191.429 211.421 191.121 211.085 190.841 210.651L189.805 211.393C190.113 211.995 190.561 212.471 191.121 212.835C191.681 213.199 192.353 213.381 193.123 213.381C193.725 213.381 194.285 213.255 194.817 212.989C195.335 212.737 195.755 212.359 196.063 211.883C196.371 211.407 196.525 210.861 196.525 210.245C196.525 209.629 196.371 209.111 196.077 208.677C195.783 208.243 195.391 207.921 194.915 207.697Z" fill="#221D1E"/>
<path d="M421.83 171.545C421.354 171.321 420.836 171.209 420.29 171.209C419.87 171.209 419.478 171.251 419.114 171.335V169.165H422.922V167.835H417.658V172.483H419.786C420.458 172.483 420.99 172.637 421.354 172.917C421.718 173.197 421.914 173.603 421.914 174.121C421.914 174.653 421.732 175.087 421.368 175.395C421.004 175.717 420.542 175.871 419.996 175.871C419.492 175.871 419.072 175.759 418.708 175.507C418.344 175.269 418.036 174.933 417.756 174.499L416.72 175.241C417.028 175.843 417.476 176.319 418.036 176.683C418.596 177.047 419.268 177.229 420.038 177.229C420.64 177.229 421.2 177.103 421.732 176.837C422.25 176.585 422.67 176.207 422.978 175.731C423.286 175.255 423.44 174.709 423.44 174.093C423.44 173.477 423.286 172.959 422.992 172.525C422.698 172.091 422.306 171.769 421.83 171.545Z" fill="#221D1E"/>
<path d="M325.496 207.697C325.02 207.473 324.502 207.361 323.956 207.361C323.536 207.361 323.144 207.403 322.78 207.487V205.317H326.588V203.987H321.324V208.635H323.452C324.124 208.635 324.656 208.789 325.02 209.069C325.384 209.349 325.58 209.755 325.58 210.273C325.58 210.805 325.398 211.239 325.034 211.547C324.67 211.869 324.208 212.023 323.662 212.023C323.158 212.023 322.738 211.911 322.374 211.659C322.01 211.421 321.702 211.085 321.422 210.651L320.386 211.393C320.694 211.995 321.142 212.471 321.702 212.835C322.262 213.199 322.934 213.381 323.704 213.381C324.306 213.381 324.866 213.255 325.398 212.989C325.916 212.737 326.336 212.359 326.644 211.883C326.952 211.407 327.106 210.861 327.106 210.245C327.106 209.629 326.952 209.111 326.658 208.677C326.364 208.243 325.972 207.921 325.496 207.697Z" fill="#221D1E"/>
<path d="M485.705 102.287H485.187L481.981 103.337L482.345 104.639L484.221 104.037V111.527H485.705V102.287Z" fill="#221D1E"/>
<path d="M75.8303 91.5328C84.5682 91.5328 91.6517 84.4493 91.6517 75.7114C91.6517 66.9735 84.5682 59.89 75.8303 59.89C67.0924 59.89 60.0089 66.9735 60.0089 75.7114C60.0089 84.4493 67.0924 91.5328 75.8303 91.5328Z" stroke="#221D1E" stroke-width="1.6"/>
<path d="M367.356 34.3843C376.094 34.3843 383.177 27.3008 383.177 18.5629C383.177 9.82495 376.094 2.74147 367.356 2.74147C358.618 2.74147 351.535 9.82495 351.535 18.5629C351.535 27.3008 358.618 34.3843 367.356 34.3843Z" stroke="#221D1E" stroke-width="1.6"/>
<path d="M263.293 130.899C272.031 130.899 279.114 123.815 279.114 115.077C279.114 106.339 272.031 99.256 263.293 99.256C254.555 99.256 247.472 106.339 247.472 115.077C247.472 123.815 254.555 130.899 263.293 130.899Z" stroke="#221D1E" stroke-width="1.6"/>
<path d="M125.222 155.954C133.96 155.954 141.043 148.87 141.043 140.132C141.043 131.394 133.96 124.311 125.222 124.311C116.484 124.311 109.401 131.394 109.401 140.132C109.401 148.87 116.484 155.954 125.222 155.954Z" stroke="#221D1E" stroke-width="1.6"/>
<path d="M344.256 364.153C352.994 364.153 360.077 357.069 360.077 348.331C360.077 339.593 352.994 332.51 344.256 332.51C335.518 332.51 328.435 339.593 328.435 348.331C328.435 357.069 335.518 364.153 344.256 364.153Z" stroke="#221D1E" stroke-width="1.6"/>
<path d="M407.932 108.232C416.67 108.232 423.753 101.149 423.753 92.411C423.753 83.6731 416.67 76.5896 407.932 76.5896C399.194 76.5896 392.111 83.6731 392.111 92.411C392.111 101.149 399.194 108.232 407.932 108.232Z" stroke="#221D1E" stroke-width="1.6"/>
<path d="M218.819 309.346C227.557 309.346 234.64 302.262 234.64 293.524C234.64 284.786 227.557 277.703 218.819 277.703C210.081 277.703 202.998 284.786 202.998 293.524C202.998 302.262 210.081 309.346 218.819 309.346Z" stroke="#221D1E" stroke-width="1.6"/>
<path d="M193.433 224.255C202.171 224.255 209.254 217.171 209.254 208.433C209.254 199.695 202.171 192.612 193.433 192.612C184.695 192.612 177.612 199.695 177.612 208.433C177.612 217.171 184.695 224.255 193.433 224.255Z" stroke="#221D1E" stroke-width="1.6"/>
<path d="M420.348 188.103C429.086 188.103 436.169 181.019 436.169 172.281C436.169 163.543 429.086 156.46 420.348 156.46C411.61 156.46 404.527 163.543 404.527 172.281C404.527 181.019 411.61 188.103 420.348 188.103Z" stroke="#221D1E" stroke-width="1.6"/>
<path d="M324.014 224.255C332.752 224.255 339.835 217.171 339.835 208.433C339.835 199.695 332.752 192.612 324.014 192.612C315.276 192.612 308.193 199.695 308.193 208.433C308.193 217.171 315.276 224.255 324.014 224.255Z" stroke="#221D1E" stroke-width="1.6"/>
<path d="M485.693 122.555C494.431 122.555 501.514 115.471 501.514 106.733C501.514 97.9955 494.431 90.912 485.693 90.912C476.955 90.912 469.872 97.9955 469.872 106.733C469.872 115.471 476.955 122.555 485.693 122.555Z" stroke="#221D1E" stroke-width="1.6"/>
<path d="M16.3362 215.898C25.0741 215.898 32.1576 208.814 32.1576 200.076C32.1576 191.338 25.0741 184.255 16.3362 184.255C7.59828 184.255 0.514801 191.338 0.514801 200.076C0.514801 208.814 7.59828 215.898 16.3362 215.898Z" stroke="#221D1E" stroke-width="1.6"/>
<path d="M16.3481 195.631H15.8301L12.6241 196.681L12.9881 197.983L14.8641 197.381V204.871H16.3481V195.631Z" fill="#221D1E"/>
</g>
<defs>
<clipPath id="clip0">
<rect width="502" height="366" fill="white" transform="translate(0 0.725372)"/>
</clipPath>
</defs>
</svg>
