<svg width="705" height="428" viewbox="0 0 705 428" fill="none" xmlns="http://www.w3.org/2000/svg">
<path d="M77.2821 371.2C92.7821 424.247 129.782 439.747 174.782 419.247C191.782 414.247 245.133 378.972 301.282 362.247C371.782 341.247 457.782 321.747 533.782 313.747C620.782 304.589 672.182 305.647 686.782 300.747C732.782 282.747 677.782 162.747 630.782 157.747C609.082 122.747 604.782 126.247 600.782 93.7467C600.782 71.2467 576.282 29.7468 551.282 4.74679C544.282 -2.25323 529.282 -1.75319 501.282 8.24677C416.832 38.4075 382.282 53.7361 284.782 70.2468C238.782 78.0364 169.282 82.7468 149.782 82.7468C130.382 82.7468 60.7821 74.5999 36.4821 86.2999C-0.717892 105.6 -0.443376 151.747 1.78068 173.247C2.38068 179.047 8.28212 195.1 13.3821 210C33.0821 267 77.2821 371.2 77.2821 371.2Z" fill="white"/>
</svg>
