<svg width="150" height="150" viewBox="0 0 150 150" fill="none" xmlns="http://www.w3.org/2000/svg">
<rect width="150" height="150" fill="white"/>
<path d="M12.0485 86.0127C12.0485 86.0127 11.4252 88.3644 11.7878 89.7339C12.1505 91.1033 15.119 97.8585 15.119 97.8585L22.6123 115.204C22.6123 115.204 23.8212 117.688 28.2128 118.997C32.6045 120.306 38.4714 119.811 38.4714 119.811C38.4714 119.811 50.0409 120 62.8381 118.583C75.6354 117.167 87.6771 115.151 96.1771 112.979C104.677 110.807 130.629 102.18 137.933 97.016C138.717 96.1887 140.215 88.2856 140.215 88.2856C140.215 88.2856 133.455 72.4802 120.094 70.8104C118.598 69.8206 116.893 72.2489 116.893 72.2489C116.893 72.2489 93.2274 67.6414 66.9076 72.6148C12.6019 82.881 12.0485 86.0127 12.0485 86.0127Z" fill="white" stroke="#221D1E" stroke-width="1.3" stroke-miterlimit="10"/>
<path d="M18.546 83.3776C18.546 83.3776 14.041 83.7286 14.4037 85.0981C14.7664 86.4675 16.2076 90.8176 16.2076 90.8176L23.7008 108.163C23.7008 108.163 24.9097 110.647 29.3014 111.956C33.6931 113.265 39.56 112.77 39.56 112.77C39.56 112.77 51.1294 112.959 63.9267 111.543C76.7239 110.126 88.7656 108.11 97.2656 105.938C105.766 103.766 132.062 94.3176 139.366 89.1534C140.15 88.326 139.779 87.0077 139.779 87.0077C139.779 87.0077 133.657 74.7715 120.877 66.3093C119.381 65.3195 117.981 65.208 117.981 65.208C117.981 65.208 95.8433 63.0056 69.5235 67.979C15.2178 78.2452 18.546 83.3776 18.546 83.3776Z" stroke="#221D1E" stroke-width="0.5" stroke-miterlimit="10" stroke-dasharray="1.22 1.22"/>
<path d="M24.148 96.2642L14.0727 72.3376C14.0727 72.3376 13.3171 71.9598 12.5615 65.0333C11.806 58.1067 9.41276 49.4178 17.4727 44.1289C25.5326 38.84 36.235 37.5801 42.0283 40.3511C47.8215 43.1221 46.4672 43.94 49.4573 44.6011C52.4474 45.2622 61.924 45.8289 68.095 44.5388C74.266 43.2487 81.6006 41.5789 87.2672 38.0844C94.2108 28.98 106.838 25.3968 115.601 28.6721C119.452 28.9422 135.34 47.4968 135.969 47.8122C135.969 47.8122 140.03 52.5666 139.18 56.8468C138.802 61.6012 138.33 63.048 138.456 63.9302C138.583 64.8123 139.811 66.6067 139.778 69.0302C139.746 71.4536 139.433 76.5234 137.857 77.4678C125.283 87.2636 57.8043 102.112 35.4663 100.055C24.4389 99.0409 24.148 96.2642 24.148 96.2642Z" fill="white" stroke="#221D1E" stroke-width="1.3" stroke-miterlimit="10"/>
<path d="M24.4461 96.8199C24.4461 96.8199 17.9181 70.2413 35.5434 63.7605C47.4037 59.4009 57.3318 64.1534 65.9206 69.0702C67.5337 69.9938 69.3583 70.4831 71.2151 70.4736C77.7129 70.4358 91.872 67.6554 100.232 64.7729C101.84 64.2195 103.179 63.0862 104.014 61.6053C106.536 57.138 111.486 48.2886 126.492 48.2886C139.058 48.2886 139.04 53.653 139.04 53.653" fill="white"/>
<path d="M24.4461 96.8199C24.4461 96.8199 17.9181 70.2413 35.5434 63.7605C47.4037 59.4009 57.3318 64.1534 65.9206 69.0702C67.5337 69.9938 69.3583 70.4831 71.2151 70.4736C77.7129 70.4358 91.872 67.6554 100.232 64.7729C101.84 64.2195 103.179 63.0862 104.014 61.6053C106.536 57.138 111.486 48.2886 126.492 48.2886C139.058 48.2886 139.04 53.653 139.04 53.653" stroke="#221D1E" stroke-width="1.3" stroke-miterlimit="10"/>
<path d="M61.8464 72.553C61.6764 72.604 61.5064 72.655 61.3345 72.706" stroke="#221D1E" stroke-width="0.5" stroke-miterlimit="10"/>
<path d="M60.2898 73.025C52.2167 75.5221 41.5104 79.5926 30.7721 85.7429" stroke="#221D1E" stroke-width="0.5" stroke-miterlimit="10" stroke-dasharray="1.18 1.18"/>
<path d="M30.2962 86.0155C30.1413 86.1043 29.9883 86.195 29.8334 86.2838" stroke="#221D1E" stroke-width="0.5" stroke-miterlimit="10"/>
<path d="M134.367 64.8982C134.189 64.8793 134.012 64.8586 133.834 64.8397" stroke="#221D1E" stroke-width="0.5" stroke-miterlimit="10"/>
<path d="M132.755 64.7222C125.925 63.9912 119.06 63.4302 112.187 63.6701C110.649 63.7229 108.885 64.0459 107.291 63.8684" stroke="#221D1E" stroke-width="0.5" stroke-miterlimit="10" stroke-dasharray="1.18 1.18"/>
<path d="M106.753 63.7865C106.577 63.7525 106.403 63.711 106.233 63.66" stroke="#221D1E" stroke-width="0.5" stroke-miterlimit="10"/>
<path d="M81.4805 74.6977C81.531 74.0391 80.6738 73.4364 79.5658 73.3514C78.4578 73.2664 77.5187 73.7313 77.4682 74.3898C77.4177 75.0484 78.2749 75.6511 79.3828 75.7361C80.4908 75.8211 81.4299 75.3562 81.4805 74.6977Z" stroke="#221D1E" stroke-width="0.5" stroke-miterlimit="10"/>
<path d="M76.0734 77.246C76.1364 76.4251 75.323 75.6934 74.2566 75.6116C73.1903 75.5298 72.2748 76.1289 72.2118 76.9497C72.1488 77.7705 72.9622 78.5022 74.0286 78.584C75.0949 78.6659 76.0104 78.0668 76.0734 77.246Z" stroke="#221D1E" stroke-width="0.5" stroke-miterlimit="10"/>
<path d="M95.0715 71.9859C95.1313 71.3911 94.2355 70.814 93.0707 70.6969C91.9059 70.5798 90.9132 70.9672 90.8534 71.562C90.7936 72.1569 91.6894 72.734 92.8542 72.8511C94.019 72.9681 95.0117 72.5808 95.0715 71.9859Z" stroke="#221D1E" stroke-width="0.5" stroke-miterlimit="10"/>
<path d="M101.724 71.9792C101.778 71.2707 100.946 70.6292 99.8651 70.5462C98.7841 70.4633 97.8638 70.9704 97.8095 71.6789C97.7551 72.3873 98.5873 73.0289 99.6682 73.1118C100.749 73.1948 101.669 72.6877 101.724 71.9792Z" stroke="#221D1E" stroke-width="0.5" stroke-miterlimit="10"/>
<path d="M79.6739 82.2861C79.7343 81.4985 79.0808 80.8062 78.2142 80.7397C77.3476 80.6732 76.5961 81.2578 76.5357 82.0453C76.4753 82.8328 77.1288 83.5252 77.9954 83.5916C78.862 83.6581 79.6135 83.0736 79.6739 82.2861Z" stroke="#221D1E" stroke-width="0.5" stroke-miterlimit="10"/>
<path d="M84.5154 79.1241C84.5674 78.4468 83.9078 77.8439 83.0423 77.7775C82.1767 77.7111 81.4329 78.2063 81.3809 78.8836C81.329 79.5608 81.9885 80.1637 82.8541 80.2301C83.7197 80.2965 84.4635 79.8013 84.5154 79.1241Z" stroke="#221D1E" stroke-width="0.5" stroke-miterlimit="10"/>
<path d="M95.7552 76.1606C95.8131 75.4053 95.026 74.729 93.9971 74.6501C92.9682 74.5711 92.0872 75.1194 92.0292 75.8747C91.9713 76.63 92.7584 77.3062 93.7873 77.3852C94.8162 77.4641 95.6972 76.9158 95.7552 76.1606Z" stroke="#221D1E" stroke-width="0.5" stroke-miterlimit="10"/>
<path d="M102.7 77.2579C102.761 76.461 101.979 75.7511 100.953 75.6724C99.9273 75.5937 99.0462 76.176 98.9851 76.9729C98.924 77.7698 99.7059 78.4796 100.732 78.5583C101.757 78.637 102.639 78.0548 102.7 77.2579Z" stroke="#221D1E" stroke-width="0.5" stroke-miterlimit="10"/>
<path d="M90.7617 63.7606C90.7617 63.7606 84.2129 58.5511 86.2284 47.4066L90.7617 63.7606Z" fill="white"/>
<path d="M90.7617 63.7606C90.7617 63.7606 84.2129 58.5511 86.2284 47.4066" stroke="#221D1E" stroke-width="0.5" stroke-miterlimit="10"/>
<path d="M85.8458 65.4134C85.8458 65.4134 77.5422 58.298 81.949 46.9646L85.8458 65.4134Z" fill="white"/>
<path d="M85.8458 65.4134C85.8458 65.4134 77.5422 58.298 81.949 46.9646" stroke="#221D1E" stroke-width="0.5" stroke-miterlimit="10"/>
<path d="M69.6068 67.3031C69.6068 67.3031 69.0402 59.7475 57.3914 51.6876L69.6068 67.3031Z" fill="white"/>
<path d="M69.6068 67.3031C69.6068 67.3031 69.0402 59.7475 57.3914 51.6876" stroke="#221D1E" stroke-width="0.5" stroke-miterlimit="10"/>
<path d="M74.6303 66.3891C74.6303 66.3891 73.3969 59.4946 63.7012 52.6002L74.6303 66.3891Z" fill="white"/>
<path d="M74.6303 66.3891C74.6303 66.3891 73.3969 59.4946 63.7012 52.6002" stroke="#221D1E" stroke-width="0.5" stroke-miterlimit="10"/>
</svg>
