<svg width="502" height="502" viewBox="0 0 502 502" fill="none" xmlns="http://www.w3.org/2000/svg">
<g clip-path="url(#clip0_1652_129)">
<path d="M69.8444 353.009C76.7004 377.429 107.5 385.013 127.736 371.873C176.164 346.259 293.848 315.575 370.226 304.582C462.263 287.429 485.66 310.579 490.24 272.709C495.21 243.997 479.963 229.836 475.44 224.899C456.09 203.758 455.33 199.094 433.863 196.492C428.55 189.5 424.216 184.836 424.216 184.836C424.216 184.836 417.6 177.57 416.95 167.813C416.3 158.056 409.906 142.77 409.906 142.77C409.906 142.77 385.186 96.5858 368.6 90.4065C319.529 74.9512 255.672 118.019 208.746 121.629C124.718 132.447 16.3299 103.383 17.6178 217.913C19.5627 234.831 61.5637 318.743 69.8444 353.009Z" stroke="#221D1E" stroke-width="4.33333" stroke-miterlimit="10"/>
<path d="M65.3428 339.03C70.6115 309.258 77.2398 277.755 124.184 259.21C162.12 249.596 181.862 244.523 184.028 232.378C196.159 182.734 82.5868 173.504 61.9018 199.367C41.7108 222.615 41.4441 237.621 38.3545 271.908" stroke="#221D1E" stroke-width="4.33333" stroke-miterlimit="10"/>
<path d="M129.011 258.106C129.011 258.106 128.751 257.488 128.276 256.421" stroke="#221D1E" stroke-width="4.33333" stroke-miterlimit="10"/>
<path d="M126.889 253.343C123.572 246.084 116.944 232.372 111.258 225.496" stroke="#221D1E" stroke-width="1.66667" stroke-miterlimit="10" stroke-dasharray="4.07 4.07"/>
<path d="M103.28 223.644C86.7124 225.016 63.5948 222.043 52.4261 231.026C45.3618 236.711 42.3568 244.036 41.1338 248.349" stroke="#221D1E" stroke-width="1.66667" stroke-miterlimit="10" stroke-dasharray="4.07 4.07"/>
<path d="M108.251 224.521C111.883 204.034 117.034 200.67 117.034 200.67C117.034 200.67 147.899 194.679 174.49 205.887" stroke="#221D1E" stroke-width="1.66667" stroke-miterlimit="10" stroke-dasharray="4.07 4.07"/>
<path d="M176.133 206.609C176.693 206.863 177.252 207.123 177.805 207.39" stroke="#221D1E" stroke-width="1.66667" stroke-miterlimit="10" stroke-dasharray="4.07 4.07"/>
<path d="M117.032 200.669C117.032 200.669 117.572 201.001 118.528 201.742" stroke="#221D1E" stroke-width="1.66667" stroke-miterlimit="10" stroke-dasharray="4.07 4.07"/>
<path d="M121.42 204.185C127.515 209.772 138.788 222.684 147.687 247.539" stroke="#221D1E" stroke-width="1.66667" stroke-miterlimit="10" stroke-dasharray="4.07 4.07"/>
<path d="M148.315 249.337C148.517 249.916 148.712 250.495 148.907 251.08" stroke="#221D1E" stroke-width="1.66667" stroke-miterlimit="10" stroke-dasharray="4.07 4.07"/>
<path d="M187.365 178.311C207.328 109.511 348.104 139.107 314.63 215.785C304.463 239.072 263.652 249.603 226.4 237.426C200.485 228.951 179.175 206.535 187.365 178.311Z" stroke="#221D1E" stroke-width="1.66667" stroke-miterlimit="10" stroke-dasharray="4.07 4.07"/>
<path d="M432.997 197.089C432.997 197.089 433.16 194.65 389.903 201.317C294.264 214.379 302.798 110.7 406.51 136.719" stroke="#221D1E" stroke-width="4.33333" stroke-miterlimit="10"/>
<path d="M363.935 165.096C377.945 166.286 404.595 163.242 413.892 165.929" stroke="#221D1E" stroke-width="1.66667" stroke-miterlimit="10" stroke-dasharray="4.07 4.07"/>
<path d="M415.606 166.602C416.246 166.947 416.706 167.35 416.953 167.819" stroke="#221D1E" stroke-width="4.33333" stroke-miterlimit="10"/>
<path d="M386.89 201.751C386.89 201.751 386.44 201.27 385.653 200.392" stroke="#221D1E" stroke-width="1.66667" stroke-miterlimit="10" stroke-dasharray="4.07 4.07"/>
<path d="M383.232 197.657C375.682 189.038 358.718 168.711 354.455 155.298C352.622 149.528 333.719 153.522 325.926 166.694" stroke="#221D1E" stroke-width="1.66667" stroke-miterlimit="10" stroke-dasharray="4.07 4.07"/>
<path d="M325.052 168.309C324.779 168.855 324.532 169.414 324.297 169.993" stroke="#221D1E" stroke-width="1.66667" stroke-miterlimit="10" stroke-dasharray="4.07 4.07"/>
<path d="M83.6143 372.075C83.6143 372.075 83.6467 371.425 83.7443 370.242" stroke="#221D1E" stroke-width="4.33333" stroke-miterlimit="10"/>
<path d="M84.1221 366.593C86.2167 349.473 96.4487 297.65 143.913 289.2C186.305 281.654 225.223 285.232 288.533 273.524C351.845 261.815 423.175 231.724 445.675 229.454C469.495 227.047 482.538 239.328 487.331 245.202" stroke="#221D1E" stroke-width="1.66667" stroke-miterlimit="10" stroke-dasharray="4.07 4.07"/>
<path d="M488.465 246.658C489.162 247.608 489.495 248.186 489.495 248.186" stroke="#221D1E" stroke-width="4.33333" stroke-miterlimit="10"/>
<path d="M58.2892 170.022C90.3299 170.022 116.304 144.048 116.304 112.008C116.304 79.9669 90.3299 53.9928 58.2892 53.9928C26.2485 53.9928 0.274414 79.9669 0.274414 112.008C0.274414 144.048 26.2485 170.022 58.2892 170.022Z" fill="#D9D9D9"/>
<path d="M58.2892 170.022C90.3299 170.022 116.304 144.048 116.304 112.008C116.304 79.9669 90.3299 53.9928 58.2892 53.9928C26.2485 53.9928 0.274414 79.9669 0.274414 112.008C0.274414 144.048 26.2485 170.022 58.2892 170.022Z" fill="url(#paint0_linear_1652_129)"/>
<path d="M58.2897 163.569C29.8447 163.569 6.72754 140.452 6.72754 112.007C6.72754 83.562 29.8447 60.4448 58.2897 60.4448C86.7344 60.4448 109.852 83.562 109.852 112.007C109.852 140.452 86.7344 163.569 58.2897 163.569ZM58.2897 63.02C31.2654 63.02 9.30268 84.9828 9.30268 112.007C9.30268 139.031 31.2654 160.994 58.2897 160.994C85.3137 160.994 107.277 139.031 107.277 112.007C107.277 84.9828 85.2844 63.02 58.2897 63.02Z" fill="#796295"/>
<path d="M116.274 112.008C116.274 144.034 90.3159 170.022 58.2596 170.022C26.2035 170.022 0.274414 144.034 0.274414 112.008C0.274414 79.9811 26.2331 53.9928 58.2892 53.9928C90.3452 53.9928 116.304 79.9515 116.304 112.008H116.274ZM7.0527 112.008C7.0527 140.304 29.9922 163.244 58.2892 163.244C86.5861 163.244 109.526 140.304 109.526 112.008C109.526 83.7106 86.5861 60.7711 58.2892 60.7711C29.9922 60.7711 7.0527 83.7106 7.0527 112.008Z" fill="url(#paint1_linear_1652_129)"/>
<path d="M58.2898 161.026C31.2474 161.026 9.27013 139.049 9.27013 112.007C9.27013 84.9646 31.2474 62.9873 58.2898 62.9873C85.332 62.9873 107.309 84.9646 107.309 112.007C107.309 139.049 85.332 161.026 58.2898 161.026ZM58.2898 65.4355C32.5981 65.4355 11.7183 86.3153 11.7183 112.007C11.7183 137.699 32.5981 158.578 58.2898 158.578C83.9814 158.578 104.861 137.699 104.861 112.007C104.861 86.3153 83.9535 65.4355 58.2898 65.4355Z" fill="url(#paint2_linear_1652_129)"/>
<path d="M58.2897 163.569C29.8447 163.569 6.72754 140.452 6.72754 112.007C6.72754 83.562 29.8447 60.4448 58.2897 60.4448C86.7344 60.4448 109.852 83.562 109.852 112.007C109.852 140.452 86.7344 163.569 58.2897 163.569ZM58.2897 63.02C31.2654 63.02 9.30268 84.9828 9.30268 112.007C9.30268 139.031 31.2654 160.994 58.2897 160.994C85.3138 160.994 107.277 139.031 107.277 112.007C107.277 84.9828 85.2844 63.02 58.2897 63.02Z" fill="url(#paint3_linear_1652_129)"/>
<path d="M45.2775 128.426C42.3771 128.426 39.7057 127.739 37.2632 126.366C34.8513 124.992 32.9278 123.114 31.4929 120.733C30.0884 118.351 29.3862 115.71 29.3862 112.81C29.3862 109.909 30.0884 107.269 31.4929 104.887C32.9278 102.506 34.8513 100.628 37.2632 99.2542C39.7057 97.8803 42.3771 97.1934 45.2775 97.1934C48.0559 97.1934 50.5746 97.8192 52.8339 99.071C55.1237 100.323 56.9251 102.017 58.2379 104.154L54.5742 106.856C53.5056 105.177 52.1928 103.895 50.6357 103.009C49.0786 102.094 47.3078 101.636 45.3233 101.636C43.2778 101.636 41.4154 102.124 39.7362 103.101C38.0875 104.048 36.79 105.376 35.8435 107.085C34.8971 108.795 34.4238 110.703 34.4238 112.81C34.4238 114.917 34.8971 116.825 35.8435 118.534C36.79 120.244 38.0875 121.588 39.7362 122.565C41.4154 123.511 43.2778 123.984 45.3233 123.984C47.3078 123.984 49.0786 123.541 50.6357 122.656C52.1928 121.74 53.5056 120.443 54.5742 118.763L58.2379 121.465C56.9556 123.603 55.1695 125.297 52.8797 126.549C50.6204 127.801 48.0864 128.426 45.2775 128.426Z" fill="#735B42"/>
<path d="M71.2805 128.426C69.4182 128.426 67.739 128.03 66.2429 127.236C64.7469 126.411 63.5715 125.251 62.7166 123.755C61.8618 122.229 61.4343 120.473 61.4343 118.489V105.437H66.1971V118.855C66.1971 120.412 66.6704 121.664 67.6168 122.61C68.5938 123.526 69.8151 123.984 71.2805 123.984C72.685 123.984 73.8604 123.526 74.8068 122.61C75.7533 121.664 76.2265 120.412 76.2265 118.855V105.437H81.0351V118.489C81.0351 120.473 80.6077 122.229 79.7528 123.755C78.898 125.251 77.7225 126.411 76.2265 127.236C74.7611 128.03 73.1124 128.426 71.2805 128.426Z" fill="#735B42"/>
<path d="M85.19 101.515H82.0547V98.7453H85.19V95.5138H88.3061V98.7453H91.4223V101.515H88.3061V104.747H85.19V101.515Z" fill="#735B42"/>
</g>
<defs>
<linearGradient id="paint0_linear_1652_129" x1="58.2891" y1="53.9928" x2="58.2892" y2="170.022" gradientUnits="userSpaceOnUse">
<stop stop-color="#FFFAF2"/>
<stop offset="1" stop-color="#F1DDB7"/>
</linearGradient>
<linearGradient id="paint1_linear_1652_129" x1="0.274414" y1="117.719" x2="116.304" y2="118.76" gradientUnits="userSpaceOnUse">
<stop stop-color="#FFFAF2"/>
<stop offset="1" stop-color="#F1DDB7"/>
</linearGradient>
<linearGradient id="paint2_linear_1652_129" x1="6.72754" y1="70.187" x2="115.781" y2="128.984" gradientUnits="userSpaceOnUse">
<stop stop-color="#DAC5A5"/>
<stop offset="0.380208" stop-color="#AB8F76"/>
<stop offset="1" stop-color="#735B42"/>
</linearGradient>
<linearGradient id="paint3_linear_1652_129" x1="6.72754" y1="70.187" x2="115.781" y2="128.984" gradientUnits="userSpaceOnUse">
<stop stop-color="#DAC5A5"/>
<stop offset="0.380208" stop-color="#AB8F76"/>
<stop offset="1" stop-color="#735B42"/>
</linearGradient>
<clipPath id="clip0_1652_129">
<rect width="501" height="501" fill="white" transform="translate(0.274414 0.872803)"/>
</clipPath>
</defs>
</svg>
