<svg width="150" height="150" viewBox="0 0 150 150" fill="none" xmlns="http://www.w3.org/2000/svg">
<rect width="150" height="150" fill="white"/>
<path d="M4.75849 82.4425C5.13363 85.5706 14.7173 108.007 14.7173 108.007L18.8204 117.776C18.8204 117.776 21.4248 125.55 29.4356 126.137C35.8834 126.723 43.2416 121.168 46.7585 119.605C46.7585 119.605 59.4214 113.692 78.2155 109.249C99.7079 104.169 114.751 104.052 122.959 103.974C141.538 103.796 142.386 105.48 143.957 100.338C144.584 98.2883 146.081 95.7209 143.345 92.204C137.556 84.7618 126.237 74.3653 121.591 62.7477C121.2 61.7708 120.614 59.6215 119.354 58.3632C117.67 56.6829 114.362 56.4954 113.19 56.4954C104.565 56.4954 93.8444 63.2029 68.4463 67.4369C45 71.3446 25.821 70.4478 16.6692 70.7585C4.60218 71.1688 4.17233 77.5579 4.75849 82.4425Z" stroke="#221D1E" stroke-width="1.3" stroke-miterlimit="10"/>
<path d="M5.95874 74.3437C6.33388 77.4718 15.9675 100.961 15.9675 100.961L20.0705 110.73C20.0705 110.73 22.675 118.505 30.6858 119.091C37.1335 119.677 44.4918 114.122 48.0087 112.559C48.0087 112.559 60.6716 106.647 79.4657 102.204C100.958 97.1238 116.001 97.0066 124.209 96.9285C142.788 96.7507 143.636 98.4349 145.207 93.2923M122.841 55.7022C122.45 54.7252 121.864 52.576 120.604 51.3177C118.92 49.6374 115.612 49.4498 114.44 49.4498C105.815 49.4498 95.0946 56.1574 69.6964 60.3914" stroke="#221D1E" stroke-width="0.5" stroke-miterlimit="10" stroke-dasharray="1.22 1.22"/>
<path d="M20.5007 101.085C22.6519 108.558 31.8604 110.629 37.89 106.751C38.4761 106.36 50.0039 99.5217 62.5085 96.0048C75.0132 92.4879 95.5286 87.6032 112.527 86.8217C129.526 86.0401 139.295 86.8217 142.226 85.8448C150.553 82.0875 141.454 57.7777 131.48 57.5139C127.117 50.4761 126.644 52.3538 125.423 45.4C124.289 38.7921 122.537 34.1028 117.218 29.3784C114.678 28.2061 112.138 27.8153 109.598 28.2061C92.5588 32.2623 91.6207 38.7607 63.6865 42.4692C47.926 44.5616 38.6735 42.4692 34.7658 42.4692C30.8581 42.4692 17.1811 41.4923 12.2965 43.8369C4.82884 47.7192 6.05586 56.4549 5.84875 62.2031C6.41146 67.842 20.5007 101.085 20.5007 101.085Z" fill="white" stroke="#221D1E" stroke-width="1.3" stroke-miterlimit="10"/>
<path d="M19.3295 89.5575C19.3295 89.5575 24.0188 78.2251 35.5465 74.9036C47.0743 71.582 51.3727 70.0189 52.545 64.7435C53.7174 59.4681 47.5354 54.6245 39.6496 53.2158C34.1788 52.2389 23.0419 50.6758 17.5711 55.365C14.527 57.9734 11.3187 64.3528 10.928 69.6282L19.3295 89.5575Z" stroke="#221D1E" stroke-width="1.3" stroke-miterlimit="10"/>
<path d="M131.481 57.5143C131.481 57.5143 123.079 57.1235 114.287 58.1004C105.495 59.0773 96.5069 52.825 97.6792 46.5727C98.8515 40.3204 106.081 39.3434 110.379 38.7573C114.678 38.1711 119.345 38.2649 124.242 40.1719" stroke="#221D1E" stroke-width="1.3" stroke-miterlimit="10"/>
<path opacity="0.06" d="M49.8494 59.5929C49.7986 59.507 49.7439 59.4249 49.6853 59.3487C49.7537 59.5988 49.8377 59.8586 49.9022 60.0716C49.8846 59.9134 49.867 59.7531 49.8494 59.5929Z" fill="url(#paint0_linear)" stroke="#221D1E" stroke-width="1.3" stroke-miterlimit="10"/>
<path opacity="0.12" d="M51.3724 54.1919C51.3724 54.1919 51.5678 50.5128 55.5399 47.373C58.0096 45.4211 62.0678 43.5473 66.927 42.4805C66.927 42.4805 72.8648 40.2551 84.2987 41.8631C89.9297 42.6544 91.9949 44.5966 92.9894 45.2042C95.1719 47.1659 98.851 50.9036 83.5465 53.8344C82.1182 54.1079 57.6149 55.0731 56.5501 58.719C50.8194 57.1227 51.3724 54.1919 51.3724 54.1919Z" fill="url(#paint1_linear)"/>
<path opacity="0.06" d="M32.4163 108.605C32.4163 108.605 35.5034 108.32 38.1938 106.669C40.8843 105.018 45.0675 102.98 45.0675 102.98L52.6113 99.5663C65.1863 94.5859 80.5592 91.5066 93.8493 89.0272C108.755 86.325 125.76 86.749 140.832 86.239L142.532 85.8854L143.657 85.268L144.601 83.828L145.228 81.542L145.341 78.1266C145.195 77.4916 144.698 75.5573 144.089 75.3365C144.089 75.3365 142.815 74.4671 142.311 74.174C141.672 73.8008 140.122 73.2928 139.407 73.0994C138.587 72.8786 130.07 72.0834 123.702 72.9724C100.193 76.2588 97.421 78.279 93.437 82.3313C93.2065 82.5658 90.1643 75.9754 93.6324 71.253C85.3774 70.3581 80.612 73.5019 78.2791 74.4534C83.6189 76.3643 84.5861 82.3821 84.5021 83.3591C60.1141 77.6089 48.6704 80.7018 42.3223 82.6596C37.5002 84.1465 31.1912 88.0131 28.5477 95.1877C25.6012 104.007 26.0897 105.205 28.0572 108.493L30.5855 108.882L32.4006 108.654L32.4163 108.605Z" fill="url(#paint2_linear)"/>
<path opacity="0.06" d="M40.4137 63.5667C39.2746 61.6148 35.1227 55.0557 35.4783 54.9228C38.4852 53.8013 42.1702 54.4363 44.6985 54.6747C43.1471 54.0338 41.4453 53.5356 39.6517 53.2152C34.1809 52.2383 23.0439 50.6752 17.5732 55.3644C14.5291 57.9728 11.3208 64.3521 10.9301 69.6275L19.3316 89.5568C19.3316 89.5568 24.0209 78.2245 35.5486 74.9029C39.4876 73.7678 42.7759 72.6169 45.1909 71.6752C43.3288 68.9222 42.0881 66.435 40.4137 63.5667Z" fill="url(#paint3_linear)" stroke="#221D1E" stroke-width="1.3" stroke-miterlimit="10"/>
<path d="M52.6882 55.2129C52.6882 55.2129 52.7156 55.0175 52.823 54.6776" stroke="#221D1E" stroke-width="0.5" stroke-miterlimit="10"/>
<path d="M53.2388 53.6558C54.6045 50.8598 59.2449 45.1468 74.5729 43.6872C85.2917 42.7807 91.1123 45.4926 93.2029 46.7704" stroke="#221D1E" stroke-width="0.5" stroke-miterlimit="10" stroke-dasharray="1.22 1.22"/>
<path d="M93.6671 47.0691C93.9661 47.2742 94.1106 47.3993 94.1106 47.3993" stroke="#221D1E" stroke-width="0.5" stroke-miterlimit="10"/>
<path d="M59.7733 65.7201C59.7733 65.7201 59.9453 65.81 60.2715 65.9624" stroke="#221D1E" stroke-width="0.5" stroke-miterlimit="10"/>
<path d="M61.2933 66.4113C65.1424 68.0213 75.7987 71.6066 87.3245 67.8689C95.3119 64.9108 97.8128 60.2723 98.5553 58.1934" stroke="#221D1E" stroke-width="0.5" stroke-miterlimit="10" stroke-dasharray="1.23 1.23"/>
<path d="M98.7252 57.6621C98.8229 57.3182 98.8503 57.1228 98.8503 57.1228" stroke="#221D1E" stroke-width="0.5" stroke-miterlimit="10"/>
<path d="M145.217 78.6212C145.246 78.4317 145.262 78.248 145.266 78.0702" stroke="#221D1E" stroke-width="0.5" stroke-miterlimit="10"/>
<path d="M145.127 76.9781C142.263 67.1835 96.1809 75.673 93.7992 82.0835C92.1091 83.6056 91.4858 75.204 92.9922 72.1287" stroke="#221D1E" stroke-width="0.5" stroke-miterlimit="10" stroke-dasharray="1.22 1.22"/>
<path d="M93.2755 71.6518C93.3927 71.4897 93.5217 71.3568 93.6585 71.2552" stroke="#221D1E" stroke-width="0.5" stroke-miterlimit="10"/>
<path d="M27.6662 108.285C26.2497 106.483 26.5388 104.609 26.5388 104.609C27.7522 74.4283 66.3662 78.5353 84.24 83.3066C84.5272 83.4004 84.8144 83.2792 84.7402 82.9842C84.1794 80.7353 82.4405 75.7354 77.8314 74.2915" stroke="#221D1E" stroke-width="0.5" stroke-miterlimit="10" stroke-dasharray="1.22 1.22"/>
<path d="M115.525 57.9047C115.396 57.7699 115.269 57.637 115.144 57.5022" stroke="#221D1E" stroke-width="0.5" stroke-miterlimit="10"/>
<path d="M114.392 56.6776C108.433 49.9681 106.667 43.8369 106.667 43.8369C106.667 43.8369 106.276 41.883 103.736 42.2738C101.692 42.5883 99.9573 43.661 98.9764 44.3878" stroke="#221D1E" stroke-width="0.5" stroke-miterlimit="10" stroke-dasharray="1.23 1.23"/>
<path d="M98.5387 44.7316C98.2691 44.9524 98.1206 45.093 98.1206 45.093" stroke="#221D1E" stroke-width="0.5" stroke-miterlimit="10"/>
<path d="M125.813 47.549C125.813 47.549 125.649 47.4553 125.311 47.3185" stroke="#221D1E" stroke-width="0.5" stroke-miterlimit="10"/>
<path d="M124.262 46.9727C122.037 46.3572 117.318 45.7144 109.495 47.6624" stroke="#221D1E" stroke-width="0.5" stroke-miterlimit="10" stroke-dasharray="1.22 1.22"/>
<path d="M108.959 47.7994C108.782 47.8463 108.604 47.8932 108.424 47.942" stroke="#221D1E" stroke-width="0.5" stroke-miterlimit="10"/>
<path d="M44.9259 54.7781C44.9259 54.7781 44.7246 54.7488 44.3768 54.7078" stroke="#221D1E" stroke-width="0.5" stroke-miterlimit="10"/>
<path d="M43.2666 54.5889C41.0646 54.3779 37.235 54.1669 35.3515 54.9738C33.9838 55.7554 32.4208 59.0769 31.8346 61.6169C32.9327 63.9694 36.5492 70.4581 37.9345 72.9258" stroke="#221D1E" stroke-width="0.5" stroke-miterlimit="10" stroke-dasharray="1.23 1.23"/>
<path d="M38.209 73.4141C38.3829 73.7228 38.4806 73.8967 38.4806 73.8967" stroke="#221D1E" stroke-width="0.5" stroke-miterlimit="10"/>
<path d="M35.3517 54.9736L35.633 55.4523" stroke="#221D1E" stroke-width="0.5" stroke-miterlimit="10"/>
<path d="M36.1783 56.3784L44.6366 70.7353" stroke="#221D1E" stroke-width="0.5" stroke-miterlimit="10" stroke-dasharray="1.19 1.19"/>
<path d="M44.9084 71.1988L45.1898 71.6755" stroke="#221D1E" stroke-width="0.5" stroke-miterlimit="10"/>
<path d="M31.7175 61.6328C31.7175 61.6328 31.5202 61.6367 31.1646 61.6543" stroke="#221D1E" stroke-width="0.5" stroke-miterlimit="10"/>
<path d="M30.0113 61.7247C25.8437 62.0276 15.2128 63.2976 11.5142 68.4675" stroke="#221D1E" stroke-width="0.5" stroke-miterlimit="10" stroke-dasharray="1.28 1.28"/>
<path d="M11.1959 68.9521C11.1002 69.1104 11.0103 69.2726 10.9282 69.4367" stroke="#221D1E" stroke-width="0.5" stroke-miterlimit="10"/>
<defs>
<linearGradient id="paint0_linear" x1="46.1987" y1="62.0793" x2="22.8556" y2="77.461" gradientUnits="userSpaceOnUse">
<stop stop-opacity="0.3"/>
<stop offset="1" stop-opacity="0"/>
</linearGradient>
<linearGradient id="paint1_linear" x1="73.9438" y1="55.6522" x2="71.4485" y2="41.501" gradientUnits="userSpaceOnUse">
<stop offset="0.1676" stop-color="white"/>
<stop offset="1" stop-color="#BFBFBF"/>
</linearGradient>
<linearGradient id="paint2_linear" x1="86.7422" y1="98.3126" x2="84.4233" y2="78.8342" gradientUnits="userSpaceOnUse">
<stop stop-opacity="0.3"/>
<stop offset="0.9366" stop-opacity="0"/>
</linearGradient>
<linearGradient id="paint3_linear" x1="42.5485" y1="56.5372" x2="19.2053" y2="71.919" gradientUnits="userSpaceOnUse">
<stop stop-opacity="0.3"/>
<stop offset="1" stop-opacity="0"/>
</linearGradient>
</defs>
</svg>
