<svg width="150" height="150" viewBox="0 0 150 150" fill="none" xmlns="http://www.w3.org/2000/svg">
<rect width="150" height="150" fill="white"/>
<path d="M67.9924 55.222C75.7367 59.4654 92.4642 73.3274 84.4102 92.2815C83.2238 95.0709 80.693 98.5053 78.5246 99.354" stroke="#221D1E" stroke-width="0.5" stroke-miterlimit="10" stroke-dasharray="1.22 1.22"/>
<path d="M110.625 104.61C109.306 104.33 109.776 104.893 105.337 103.204C100.09 101.207 98.743 99.9536 94.5731 101.348C90.4061 102.743 83.2516 104.723 79.3476 105.869C75.4436 107.015 73.3445 107.21 70.5834 107.535C67.8224 107.861 66.4333 108.353 65.7318 108.463C65.0302 108.573 64.6369 107.53 64.719 106.423C64.7982 105.317 64.8887 104.421 65.3753 104.189C65.8619 103.957 69.9045 103.968 75.6841 100.423C86.4087 93.843 84.5529 69.9354 68.5155 57.0409C67.7007 56.3846 67.3103 56.13 67.2764 55.8273C67.2424 55.5246 68.1732 53.6405 69.5084 53.5499C70.8437 53.4622 75.817 54.4043 78.1227 54.475C80.4283 54.5457 83.1101 54.5967 87.099 54.4128C91.0878 54.2261 95.2068 53.8159 95.6566 53.8583C96.3582 53.9234 98.6214 55.0691 98.794 55.8273C98.9863 56.6816 98.1914 59.8388 98.7685 64.0115C99.3513 68.2408 99.9934 72.5578 101.357 77.0898C102.723 81.6218 103.105 82.5215 103.097 82.6261" stroke="#221D1E" stroke-width="0.344708" stroke-miterlimit="10"/>
<path d="M74.9222 100.726C71.9631 101.759 68.7409 101.818 65.9883 100.174C63.8581 98.9013 62.2625 96.8532 61.213 94.6296C60.749 93.6479 60.3813 92.6069 60.1889 91.5375C60.1408 91.2688 59.7306 91.3819 59.7787 91.6507C60.1719 93.8092 61.2102 95.8998 62.5454 97.6226C64.223 99.7868 66.5767 101.411 69.3236 101.807C71.253 102.087 73.2022 101.773 75.0325 101.133C75.2899 101.049 75.1796 100.638 74.9222 100.726Z" fill="#221D1E" stroke="#221D1E" stroke-width="0.6"/>
<path d="M51.3665 115.677C52.4217 110.398 53.4882 105.122 54.5887 99.8546C55.5986 95.0255 56.6058 90.188 57.7883 85.3985C57.9976 84.5555 58.2098 83.7153 58.4502 82.8807C58.5889 82.397 58.7416 81.8481 58.9368 81.4238C59.05 81.1777 58.685 80.9627 58.5691 81.2088C58.0825 82.2612 57.8392 83.4522 57.5563 84.5696C57.0329 86.6319 56.5633 88.7056 56.0994 90.782C54.8942 96.1939 53.7739 101.625 52.6678 107.057C52.0907 109.892 51.5193 112.729 50.9535 115.567C50.9025 115.83 51.3127 115.943 51.3665 115.677Z" fill="#221D1E" stroke="#221D1E" stroke-width="0.5"/>
<path d="M60.37 109.176C61.2328 110.792 62.0419 112.435 62.7944 114.104C63.677 116.059 64.4805 118.059 64.9982 120.147C65.0632 120.413 65.4734 120.3 65.4084 120.034C64.8935 117.955 64.0929 115.96 63.2159 114.011C62.4464 112.3 61.6204 110.616 60.7377 108.964C60.6076 108.721 60.2398 108.936 60.37 109.176Z" fill="#221D1E" stroke="#221D1E" stroke-width="0.5"/>
<path d="M54.7754 96.8644C55.6863 99.651 56.7811 102.404 58.1164 105.015C58.2409 105.258 58.6058 105.043 58.4842 104.8C57.1631 102.22 56.0852 99.5039 55.1856 96.7513C55.1007 96.491 54.6905 96.6042 54.7754 96.8644Z" fill="#221D1E" stroke="#221D1E" stroke-width="0.5"/>
<path d="M110.497 105.012C110.505 106.981 110.12 108.902 109.747 110.828C109.328 112.984 109.003 115.143 108.997 117.343C108.997 117.618 109.422 117.618 109.422 117.343C109.427 115.109 109.77 112.925 110.197 110.735C110.567 108.842 110.932 106.95 110.924 105.012C110.921 104.738 110.497 104.738 110.497 105.012Z" fill="#221D1E" stroke="#221D1E" stroke-width="0.5"/>
<path d="M109.004 70.1535C109.875 72.8127 111.007 75.3786 112.517 77.738C113.584 79.4042 114.843 80.9319 115.963 82.5585C117.097 84.2078 118.045 85.9731 118.351 87.9732C118.685 90.1487 118.334 92.4345 117.409 94.4289C116.229 96.9778 114.164 98.9666 111.646 100.183C111.4 100.302 111.615 100.667 111.861 100.551C114.127 99.456 116.059 97.736 117.312 95.5435C118.416 93.6113 118.979 91.3651 118.885 89.1387C118.798 87.0057 118.057 85.0763 116.942 83.2771C115.901 81.6024 114.628 80.086 113.51 78.4622C111.722 75.868 110.396 73.0306 109.414 70.0375C109.329 69.7829 108.919 69.8932 109.004 70.1535Z" fill="#221D1E" stroke="#221D1E" stroke-width="0.5"/>
<path d="M101.289 53.3352C104.202 53.7256 107.181 54.3168 109.858 55.5701C111.17 56.184 112.438 56.9789 113.374 58.102C113.991 58.8404 114.39 59.7343 114.701 60.6368C115.507 62.982 115.812 65.4998 116.005 67.961C116.211 70.6004 116.248 73.254 116.158 75.9019C116.118 77.0986 116.05 78.2952 115.934 79.4862C115.861 80.2472 115.784 81.0195 115.597 81.7607C115.53 82.0266 115.94 82.1398 116.008 81.8739C116.429 80.2019 116.474 78.3942 116.551 76.6827C116.673 74.0065 116.656 71.319 116.477 68.6456C116.308 66.0825 116.022 63.4686 115.264 61.0045C114.978 60.071 114.616 59.1318 114.064 58.3198C113.298 57.1911 112.177 56.3367 110.995 55.6776C108.047 54.034 104.596 53.3578 101.283 52.9137C101.017 52.8741 101.02 53.2984 101.289 53.3352Z" fill="#221D1E" stroke="#221D1E" stroke-width="0.5"/>
<path d="M90.389 40.3673C90.024 41.8977 89.7015 43.4395 89.5205 45.004C89.297 46.9503 89.3027 48.9108 89.478 50.8599C89.5007 51.1287 89.9109 51.1372 89.9024 50.8599C89.86 49.3804 89.8147 47.898 89.7723 46.4184C89.6336 46.4382 89.495 46.4552 89.3564 46.475C89.6648 47.5727 90.6888 48.4242 91.5517 49.0918C92.8558 50.1046 94.3099 50.9222 95.8093 51.6096C96.0554 51.7228 96.2704 51.3578 96.0243 51.2418C94.6098 50.5912 93.2349 49.8274 91.9873 48.8938C91.1443 48.2629 90.0665 47.4284 89.7666 46.3619C89.7044 46.1355 89.3423 46.1752 89.3507 46.4184C89.3932 47.898 89.4384 49.3804 89.4809 50.8599C89.6223 50.8599 89.7638 50.8599 89.9052 50.8599C89.7355 48.9447 89.727 47.021 89.9363 45.1086C90.1089 43.547 90.4371 42.0081 90.7992 40.4804C90.8614 40.2145 90.4512 40.1014 90.389 40.3673Z" fill="#221D1E" stroke="#221D1E" stroke-width="0.5"/>
<path d="M61.0267 49.4622C61.7651 49.1058 62.5883 48.9077 63.3521 48.6079C64.2631 48.2514 65.1881 47.8497 65.935 47.2019C67.3155 46.0024 68.085 44.1918 68.5857 42.4746C68.8686 41.4958 69.0638 40.4972 69.1968 39.4872C69.2336 39.2185 68.8064 39.2213 68.7724 39.4872C68.5433 41.2384 68.1105 43.0121 67.324 44.602C66.9336 45.3913 66.4442 46.1438 65.802 46.7521C65.0835 47.431 64.1527 47.8412 63.2418 48.2005C62.444 48.5145 61.5869 48.7238 60.8145 49.0973C60.5684 49.2161 60.7834 49.581 61.0267 49.4622Z" fill="#221D1E" stroke="#221D1E" stroke-width="0.5"/>
<path d="M32.1288 114.263C33.4273 110.302 34.0271 106.101 34.5901 101.985C35.2492 97.1757 35.7414 92.3438 36.2874 87.5204C36.5307 85.376 36.7288 83.2515 36.8023 81.0958C36.8815 78.7506 36.9126 76.4025 37.0852 74.0601C37.2408 71.9186 37.5096 69.7771 38.1942 67.7345C38.941 65.5081 39.9255 63.3496 41.2127 61.3835C42.5027 59.4089 44.118 57.6266 46.0587 56.2772C48.2964 54.7213 50.8991 53.7736 53.4027 52.7382C54.0562 52.4694 54.7097 52.1978 55.3632 51.9291C55.6121 51.8272 55.5018 51.4142 55.25 51.5189C52.6955 52.5741 50.0532 53.5274 47.6118 54.8373C45.4816 55.9802 43.6315 57.5361 42.1151 59.4174C39.3201 62.8942 37.4643 67.2706 36.8928 71.6923C36.3101 76.196 36.6156 80.7563 36.1205 85.2657C35.5887 90.1315 35.0653 95.0002 34.4458 99.8547C33.8885 104.223 33.2972 108.647 32.1006 112.893C31.9817 113.315 31.8544 113.734 31.7186 114.147C31.6338 114.41 32.044 114.52 32.1288 114.263Z" fill="#221D1E" stroke="#221D1E" stroke-width="0.5"/>
<path d="M65.2284 104.293C63.4886 104.369 61.217 104.613 58.7557 104.955L58.4276 105.074C58.1023 105.19 57.958 105.569 58.1221 105.874L59.6101 108.638C59.7176 108.839 59.9383 108.958 60.1674 108.932L65.1662 108.406" stroke="#221D1E" stroke-width="1.5" stroke-miterlimit="10"/>
<path d="M87.0995 82.629C89.572 84.0463 90.7432 81.6049 91.7107 79.1154C97.213 83.5201 99.8355 81.0731 99.943 80.0065C99.943 80.0065 100.082 80.4422 100.913 81.3927C101.807 82.414 103.089 82.7365 103.097 82.629C103.106 82.5215 102.721 81.6219 101.357 77.0927C99.9911 72.5607 99.3489 68.2437 98.769 64.0144C98.1947 59.8388 98.9896 56.6817 98.7944 55.8301C98.6247 55.0748 96.3587 53.9291 95.6571 53.8612C95.2073 53.8187 91.0855 54.2318 87.0995 54.4157C83.1106 54.6024 80.4316 54.5486 78.1231 54.4779C75.8175 54.4072 70.8442 53.4651 69.5089 53.5528C68.1736 53.6405 67.2457 55.5246 67.2769 55.8301C67.3108 56.1328 67.6984 56.3874 68.5159 57.0438C84.5562 69.9382 86.412 93.843 75.6846 100.426C69.905 103.971 65.8652 103.959 65.3758 104.191C64.8892 104.423 64.7987 105.32 64.7195 106.426C64.6403 107.532 65.0307 108.576 65.7322 108.466C66.4338 108.356 67.8228 107.863 70.5839 107.538C73.345 107.213 75.4413 107.018 79.3481 105.872C83.2521 104.726 90.4037 102.746 94.5736 101.351C98.7407 99.9565 100.087 101.21 105.338 103.207C109.777 104.896 109.816 104.593 111.137 104.873L111.191 104.896C111.48 104.418 112.269 100.913 111.986 100.63C107.021 95.6649 102.506 82.6573 102.506 82.6573" stroke="#221D1E" stroke-width="0.5" stroke-miterlimit="10" stroke-dasharray="1.22 1.22"/>
<path d="M103.097 82.629C103.106 82.5215 102.721 81.6219 101.357 77.0927C99.9911 72.5607 99.3489 68.2437 98.769 64.0144C98.1947 59.8388 98.9896 56.6817 98.7944 55.8301C98.6247 55.0748 96.3587 53.9291 95.6571 53.8612C95.2073 53.8187 91.0855 54.2318 87.0995 54.4157C83.1106 54.6024 80.4316 54.5486 78.1231 54.4779C75.8175 54.4072 70.8442 53.4651 69.5089 53.5528C68.1736 53.6405 67.2457 55.5246 67.2769 55.8301C67.3108 56.1328 67.6984 56.3874 68.5159 57.0438C84.5562 69.9382 86.412 93.843 75.6846 100.426C69.905 103.971 65.8652 103.959 65.3758 104.191C64.8892 104.423 64.7987 105.32 64.7195 106.426C64.6403 107.532 65.0307 108.576 65.7322 108.466C66.4338 108.356 67.8228 107.863 70.5839 107.538C73.345 107.213 75.4413 107.018 79.3481 105.872C83.2521 104.726 90.4037 102.746 94.5736 101.351C98.7407 99.9565 100.087 101.21 105.338 103.207C109.777 104.896 109.816 104.593 111.137 104.873L111.191 104.896C111.48 104.418 112.269 100.913 111.986 100.63C107.021 95.6649 102.506 82.6573 102.506 82.6573" stroke="#221D1E" stroke-width="1.3" stroke-miterlimit="10" stroke-linecap="round" stroke-linejoin="round"/>
<path d="M67.6642 56.4099C62.292 54.0675 62.8068 54.0732 60.2693 53.1198C58.0061 52.2711 56.5661 51.6969 55.3072 51.7223C54.3114 51.1905 58.6879 48.7632 60.6398 49.561C61.2254 49.8014 62.9059 50.6077 64.3967 51.2442C66.7052 52.2287 69.1268 53.6262 69.1268 53.6262" stroke="#221D1E" stroke-width="1.5" stroke-miterlimit="10"/>
<path d="M95.207 54.113C95.9228 53.0436 96.8195 50.9756 97.4702 51.0011C97.6682 51.0096 99.8494 52.0167 101.204 52.4495C101.386 52.5061 101.366 52.8569 101.258 53.0125L98.8083 56.6279" stroke="#221D1E" stroke-width="1.5" stroke-miterlimit="10"/>
<path d="M89.8437 62.4895C90.904 61.7758 91.594 60.7365 92.6428 61.2954C93.2646 61.6268 93.6633 62.2014 93.6633 62.7833C93.6633 64.6324 90.5 63.4654 89.5033 63.8451C88.7158 64.1451 87.4458 64.5462 86.6118 64.5462C85.396 64.5462 85.2031 63.7996 85.2031 62.7833C85.2031 61.8297 87.1249 61.7521 87.1249 61.7521C87.1249 61.7521 88.7073 63.0681 89.1037 63.4646" stroke="#221D1E" stroke-linecap="round" stroke-linejoin="round"/>
<path d="M89.256 64.3993C89.256 65.4276 89.256 66.456 89.256 67.4843" stroke="#221D1E" stroke-linecap="round" stroke-linejoin="round"/>
<path d="M89.9412 63.8851C91.3473 65.1781 91.9459 65.7608 93.1887 67.2108" stroke="#221D1E" stroke-linecap="round" stroke-linejoin="round"/>
</svg>
