<svg width="151" height="150" viewBox="0 0 151 150" fill="none" xmlns="http://www.w3.org/2000/svg">
<rect width="150" height="150" transform="translate(0.708496)" fill="white"/>
<path d="M69.7084 106.095C70.5964 107.338 71.9431 107.002 74.4741 107.002C78.1895 106.329 92.1752 100.761 110.444 93.2955C127.626 86.2733 139.059 84.0816 139.059 84.0816C138.284 82.66 137.474 81.7049 136.396 80.8173M69.7084 106.095C70.3271 103.822 73.1932 102.991 75.4953 102.123C92.3267 95.777 117.365 86.6914 117.365 86.6914C117.365 86.6914 130.437 82.4021 136.396 80.8173M69.7084 106.095C61.4427 90.5236 43.0261 57.678 41.069 55.1773C39.112 52.6766 39.0758 50.8735 39.3023 50.2846C39.3476 48.7443 39.5742 45.6909 40.1178 45.7996C40.6614 45.9084 52.2136 41.224 57.9217 38.8683C70.1987 35.833 94.8887 29.7625 95.4323 29.7625C96.1118 29.7625 99.9173 30.442 101.291 31.2575C102.665 32.0729 106.984 37.5092 107.664 38.8683C108.344 40.2274 118.433 51.7795 119.896 53.6822C121.359 55.5849 139.059 79.3688 139.059 80.1843C138.595 80.2556 137.648 80.4841 136.396 80.8173" stroke="black"/>
<path d="M58.7455 123.338C59.7972 124.69 63.9285 122.857 68.9638 119.812C72.3017 118.047 83.4826 110.704 87.8175 107.55C91.4139 104.933 97.724 100.922 113.298 92.1981M58.7455 123.338C59.4121 121.915 61.9319 118.619 63.941 117.199C66.4523 115.424 86.1312 103.088 86.1312 103.088M58.7455 123.338C46.1574 110.996 21.7443 82.5372 19.1225 80.7456C16.5007 78.9539 16.0936 75.6903 16.1314 75.0604C15.7087 73.5785 14.922 71.588 16.1314 70.3016C17.3408 69.0152 28.3968 63.9721 33.1251 60.0002C36.3876 58.0015 36.7595 57.5886 41.1312 54.9196" stroke="black"/>
<path d="M18.7768 73.2959C18.7768 73.2959 54.4188 109.592 58.7049 117.703M71.6293 100.043C61.7738 84.0462 55.248 66.7695 43.0906 47.9573" stroke="#221D1E" stroke-width="0.5" stroke-miterlimit="10" stroke-dasharray="1.22 1.22"/>
</svg>
