<svg width="151" height="151" viewBox="0 0 151 151" fill="none" xmlns="http://www.w3.org/2000/svg">
<rect width="150" height="150" transform="translate(0.81604 0.276611)" fill="white"/>
<path d="M30.203 71.0863V93.8696L69.1632 105.447L96.7317 94.7895V72.1827L68.615 82.478L30.203 71.0863Z" stroke="#221D1E" stroke-width="1.3" stroke-miterlimit="10"/>
<path d="M33.2042 69.5531L58.8122 62.3242L97.2892 72.1269" stroke="#221D1E" stroke-width="1.3" stroke-miterlimit="10"/>
<path d="M35.7781 90.3758L42.1522 92.2156V84.3734L35.7781 82.4128V88.787" stroke="#221D1E" stroke-width="1.3" stroke-miterlimit="10"/>
<path d="M68.615 82.4778V105.447" stroke="#221D1E" stroke-width="1.3" stroke-miterlimit="10"/>
<path d="M58.8123 62.3242V74.8215" stroke="#221D1E" stroke-width="1.3" stroke-miterlimit="10"/>
<path d="M109.053 81.7439L114.321 74.8215C120.203 113.168 74.5617 125.294 48.3962 111.58" stroke="#221D1E" stroke-width="1.3" stroke-miterlimit="10"/>
<path d="M121.429 79.3559L114.321 74.8215" stroke="#221D1E" stroke-width="1.3" stroke-miterlimit="10"/>
<path d="M91.77 84.4943L83.3146 87.3189" stroke="#221D1E" stroke-width="1.3" stroke-miterlimit="10"/>
<path d="M110.4 42.5978L92.9965 44.5584L86.8733 59.0163L96.7318 72.1827L110.4 42.5978ZM110.4 42.5978L70.9473 35.2388L58.8123 62.3241L48.3962 49.5759L54.3058 37.9798L70.9473 35.2388" stroke="#221D1E" stroke-width="1.3" stroke-miterlimit="10"/>
<path d="M91.77 90.8684L80.8708 94.7338" stroke="#221D1E" stroke-width="1.3" stroke-miterlimit="10"/>
</svg>
