<svg width="151" height="150" viewBox="0 0 151 150" fill="none" xmlns="http://www.w3.org/2000/svg">
<rect width="150" height="150" transform="translate(0.583496)" fill="white"/>
<path d="M74.9231 64.5335C72.6599 57.5626 83.61 41.3607 98.0977 43.1626C102.372 43.6938 105.796 47.6805 106.891 51.8599C107.566 54.4431 109.292 61.2499 100.312 71.296" stroke="#221D1E" stroke-width="1.3" stroke-miterlimit="10" stroke-linecap="round"/>
<path d="M75.149 64.9762C75.9848 65.9709 77.7211 65.5881 78.5205 64.5647C79.3225 63.5414 79.4471 62.1587 79.5353 60.8593C79.8026 56.9377 80.0025 52.8781 78.6139 49.2013C78.0274 47.6519 73.1402 35.369 63.7603 36.6944C44.7825 39.3791 50.6611 59.5859 51.637 61.8514" stroke="#221D1E" stroke-width="1.3" stroke-miterlimit="10" stroke-linecap="round"/>
<path d="M57.0461 81.9229C58.8084 84.9695 68.4167 100.932 69.0838 103.153C70.3244 101.489 90.4052 81.6963 93.9532 76.8842" stroke="#221D1E" stroke-width="1.3" stroke-miterlimit="10" stroke-linecap="round"/>
<path d="M85.3395 91.2842C89.7958 93.9845 95.1476 85.6648 96.069 84.3602" stroke="#221D1E" stroke-width="1.3" stroke-miterlimit="10" stroke-linecap="round"/>
<path d="M90.1273 94.0131C90.7087 95.6458 90.9163 95.9114 91.438 96.4062C92.676 97.5806 94.8432 97.5702 96.0709 96.3828" stroke="#221D1E" stroke-width="1.3" stroke-miterlimit="10" stroke-linecap="round"/>
<path d="M51.5593 94.711C52.1407 96.3359 52.3483 96.5989 52.87 97.091C54.108 98.2602 56.2752 98.2498 57.5029 97.0676" stroke="#221D1E" stroke-width="1.3" stroke-miterlimit="10" stroke-linecap="round"/>
<path d="M110.423 107.405C107.963 106.439 102.128 105.223 99.377 98.7706C97.5939 94.5886 97.215 89.9587 96.4104 85.4799C95.6058 81.0037 94.3886 76.4311 91.5284 72.9027C90.9808 72.2283 90.3786 71.5981 89.8648 70.8976C89.3275 70.1685 84.0458 63.3565 87.4147 61.0676C91.0561 58.5938 95.1828 65.3668 96.5973 67.1635C98.0092 68.9603 99.2343 70.8299 101.069 72.1892C102.904 73.5485 104.726 74.4521 106.922 73.8375C108.471 73.4027 109.933 71.8689 109.46 70.3248C107.532 70.606 106.372 72.611 105.785 74.4755C105.206 76.3191 104.905 78.2513 104.892 80.186" stroke="#221D1E" stroke-width="1.3" stroke-miterlimit="10" stroke-linecap="round"/>
<path d="M111.024 63.4945C114.38 65.5204 117.255 68.3431 119.35 71.6632C122.41 76.5144 123.746 82.2822 124.245 88.0031C124.743 93.7241 124.455 99.4815 124.535 105.223" stroke="#221D1E" stroke-width="1.3" stroke-miterlimit="10" stroke-linecap="round"/>
<path d="M39.7212 81.876C41.2136 78.7694 50.5623 64.3512 56.0257 62.1639C56.3034 62.0519 56.6071 61.9477 56.8952 62.0311C57.1521 62.1066 57.3416 62.3227 57.5077 62.5336C58.7379 64.0986 59.4932 66.2391 58.7925 68.1061C58.5277 68.8092 58.0787 69.4238 57.6738 70.0565C57.1677 70.8429 56.7265 71.671 56.2982 72.5017C53.843 77.2904 51.873 82.3317 50.4326 87.5188C49.3762 91.3206 48.5924 95.2318 46.9521 98.8175C45.3118 102.403 42.6489 105.728 38.9738 107.14" stroke="#221D1E" stroke-width="1.3" stroke-miterlimit="10" stroke-linecap="round"/>
<path d="M51.5593 85.5659C51.7047 86.3366 54.5596 91.8961 56.6204 93.9767C58.798 96.177 60.96 94.4115 61.6815 93.56" stroke="#221D1E" stroke-width="1.3" stroke-miterlimit="10" stroke-linecap="round"/>
<path d="M26.62 93.1043C29.1272 88.4484 29.3867 82.9618 30.0356 77.7096C30.6844 72.4574 31.9744 66.8875 35.8701 63.3226C38.2423 61.1535 41.3257 59.9739 44.3286 58.8412" stroke="#221D1E" stroke-width="1.3" stroke-miterlimit="10" stroke-linecap="round"/>
</svg>
