<svg id="Слой_1" data-name="Слой 1" xmlns="http://www.w3.org/2000/svg" viewBox="0 0 141.73 141.73"><defs><style>.cls-1{fill:#565555;}</style></defs><title>icon</title><path class="cls-1" d="M68.11,120.44c-13.2,0-15.46-2.17-15.68-2.43l-.12-.14V102C53.92,77,58.56,65.41,59.06,64.22V60.43C57.31,58.62,55.88,47.77,55.33,43a.5.5,0,0,1,1-.11c.89,7.66,2.44,16.29,3.42,16.87l.34.11,0,.36,0,4.33c-.05.11-5,11.41-6.71,37.54v15.38c.65.43,4.25,2.29,18.11,2h0a.48.48,0,0,1,.5.48.5.5,0,0,1-.48.52C70.26,120.43,69.15,120.44,68.11,120.44Z"/><path class="cls-1" d="M73.83,120.44c-1,0-2.15,0-3.34,0a.52.52,0,0,1-.49-.52.5.5,0,0,1,.5-.48h0c13.8.33,17.43-1.5,18.11-2V102C87,75.94,82,64.64,81.92,64.53l0-.21V59.84l.34-.12c1-.56,2.62-9.2,3.59-16.87a.5.5,0,0,1,.56-.43.5.5,0,0,1,.43.56c-.61,4.8-2.16,15.64-3.92,17.46v3.78C83.38,65.41,88,77,89.63,102v15.86l-.12.14C89.29,118.27,87,120.44,73.83,120.44Z"/><path class="cls-1" d="M68.63,50c-9.55-17.84-6.32-23.86-6.18-24.11l.65.37-.32-.19.33.19c0,.06-3.12,6,6.18,23.39Z"/><path class="cls-1" d="M66.56,60.56l-1-.09C66.35,52.05,76,24.33,76.4,23.15l.94.33C77.25,23.77,67.33,52.26,66.56,60.56Z"/><rect class="cls-1" x="51.89" y="106.48" width="25.92" height="1" transform="translate(-42.38 171.41) rotate(-89.78)"/><path class="cls-1" d="M67.57,61.34h-.94v-1c5.78.07,15.6-.63,15.7-.63l.07,1C82.32,60.7,73.45,61.34,67.57,61.34Z"/><path class="cls-1" d="M73,65a47.52,47.52,0,0,1-6.82-.3l.21-1c2.5.53,15.86.13,16,.12l0,1C82.06,64.83,77.32,65,73,65Z"/><rect class="cls-1" x="61.38" y="58.17" width="1" height="4.69" transform="matrix(0.14, -0.99, 0.99, 0.14, -6.54, 113.53)"/><rect class="cls-1" x="59.55" y="63.6" width="3.74" height="1" transform="translate(-7.31 7.91) rotate(-6.96)"/><path class="cls-1" d="M67.65,94.63l-5.2-1.51v-.37c-.21-7.45-.64-31.88,2.4-33a1.86,1.86,0,0,1,1.83.28,1.65,1.65,0,0,1,.27,1.62,11.68,11.68,0,0,0-.28,2.63c0,4-.12,13.73,0,16.39h0c.12,3.55,1,13.14,1,13.24Zm-4.22-2.27,3.1.9c-.2-2.32-.8-9.57-.9-12.57h0c-.09-2.68,0-12.4,0-16.43a13.29,13.29,0,0,1,.3-2.85c.1-.4.06-.62,0-.69s-.34-.13-.83,0C63.59,61.3,63,77.53,63.43,92.36Z"/><path class="cls-1" d="M70.16,103.84l-5.77-.38V103c0-.08,0-7.86.07-9.68l1,0c0,1.54-.06,7.46-.06,9.18l3.61.24c-1.26-10.28-2.44-38.15-2.46-38.44l1,0c0,.29,1.24,29.26,2.53,39Z"/><path class="cls-1" d="M67.86,61l-.66-.36C81.27,35.11,78.75,26.27,78.72,26.19l.72-.23C79.56,26.32,82.14,35.09,67.86,61Z"/><path class="cls-1" d="M70.68,42.07c-.22-.48-5.36-11.76-6.36-18.46l1-.15c1,6.56,6.24,18.08,6.29,18.19Z"/><path class="cls-1" d="M76,25.91c-6.22-1.89-10.56,0-10.61,0l-.3-.69c.19-.08,4.63-2,11.13,0Z"/><path class="cls-1" d="M61.74,60.45a.26.26,0,0,1-.19-.1,10.37,10.37,0,0,1-2.24-5.23.26.26,0,0,1,.23-.27.24.24,0,0,1,.27.23,10,10,0,0,0,2.13,5,.24.24,0,0,1,0,.35A.23.23,0,0,1,61.74,60.45Z"/><path class="cls-1" d="M80.82,85.65a.26.26,0,0,1-.25-.22c-2.56-17.84-5.14-21-5.16-21.07a.26.26,0,0,1,0-.36.25.25,0,0,1,.35,0c.11.12,2.69,3.23,5.29,21.33a.27.27,0,0,1-.22.29Z"/><path class="cls-1" d="M82.38,76.05a.27.27,0,0,1-.25-.2A37.25,37.25,0,0,0,78,64.33a.26.26,0,0,1,.07-.35.26.26,0,0,1,.35.08,37.7,37.7,0,0,1,4.2,11.69.25.25,0,0,1-.19.29Z"/><path class="cls-1" d="M70.5,62.84a18.22,18.22,0,0,1-3.31-.29.26.26,0,0,1-.2-.3.25.25,0,0,1,.3-.19,18.58,18.58,0,0,0,4.58.23.25.25,0,0,1,.28.23.25.25,0,0,1-.23.27S71.32,62.84,70.5,62.84Z"/><path class="cls-1" d="M84.79,61.58l-.1-.49c.06,0,5.9-1.2,12.33-7.92l.37.35C90.83,60.37,85,61.53,84.79,61.58Z"/><path class="cls-1" d="M84.78,65.18l-.19-.36c-.34-.65-.33-1.77-.3-4,0-1.59,0-3.76-.08-6.58l1,0c.11,2.84.09,5,.08,6.63A20.63,20.63,0,0,0,85.37,64,26.84,26.84,0,0,0,97,56.25c-.76-10.3-3.49-19.06-7.69-24.66l-.14-.19c-.45-.62-5.56-3-10.25-4.86l-.12-.05L76,23a18.4,18.4,0,0,0-10.08,0l-2.79,3.5-.12.05c-4.69,1.9-9.8,4.24-10.25,4.86-.09.1-6.74,8.36-8,24.85A26.88,26.88,0,0,0,56.37,64a35.69,35.69,0,0,0,.17-4.29c0-1.71,0-3.83.13-6.36l1,0c-.1,2.51-.12,4.63-.13,6.33,0,2.86,0,4.44-.4,5.13l-.19.36-.39-.11a27.2,27.2,0,0,1-12.7-8.34l-.13-.15,0-.2c1.2-17,7.89-25.25,8.18-25.59.81-1.12,8.66-4.36,10.54-5.13l2.84-3.55.15,0c6.36-1.72,10.8-.06,11,0l.13,0,2.82,3.53c1.88.77,9.73,4,10.56,5.15l.13.18c4.34,5.79,7.15,14.81,7.9,25.39l0,.2-.12.15a27.26,27.26,0,0,1-12.71,8.34Z"/><path class="cls-1" d="M57,61.58c-.25,0-6.05-1.21-12.6-8.06l.36-.35C51.14,59.89,57,61.08,57,61.09Z"/></svg>