<svg width="150" height="150" viewBox="0 0 150 150" fill="none" xmlns="http://www.w3.org/2000/svg">
<g clip-path="url(#clip0)">
<rect width="150" height="150" fill="white"/>
<path d="M89.4019 94.9845C89.3119 95.1379 89.1801 95.2644 89.0253 95.3425C88.98 95.3655 88.9284 95.3884 88.9 95.4318C88.8527 95.503 88.88 95.5967 88.9105 95.6716C89.1318 96.2074 89.5235 96.659 90.0116 96.9416C90.031 97.043 89.9616 97.1483 89.8786 97.2083C89.7956 97.2714 89.6972 97.3064 89.6111 97.3664C89.4592 97.4757 89.3596 97.6632 89.3518 97.8531C89.3497 97.92 89.36 97.987 89.397 98.0403C89.4662 98.1389 89.6 98.1494 89.7086 98.1907C89.7909 98.221 89.8652 98.2745 89.9222 98.3419C90.0101 98.447 90.0634 98.5891 90.1811 98.6554C90.3764 98.766 90.6392 98.6094 90.8439 98.7013C90.7664 98.8486 90.689 98.9927 90.6115 99.14C90.4881 99.3725 90.5747 99.6425 90.6661 99.883C90.7788 100.18 90.8307 100.502 90.814 100.824C90.8102 100.902 90.8049 100.985 90.8448 101.05C90.9278 101.182 91.1321 101.135 91.2638 101.216C91.4497 101.329 91.4037 101.615 91.4564 101.832C91.5752 102.339 92.2602 102.524 92.3525 103.038C92.3674 103.122 92.3681 103.221 92.4315 103.276C92.4825 103.321 92.5572 103.322 92.6193 103.347C92.7992 103.423 92.8205 103.674 92.9234 103.845C92.9879 103.954 93.0884 104.031 93.1859 104.108C93.373 104.255 93.5664 104.404 93.7915 104.479C94.0166 104.554 94.2844 104.544 94.4772 104.391C94.2074 104.45 94.0783 104.812 94.1648 105.079C94.2514 105.345 94.4849 105.526 94.7157 105.67C94.993 105.842 95.2891 105.983 95.598 106.09C95.4286 106.065 95.3205 106.335 95.4299 106.468C95.5378 106.603 95.7558 106.589 95.8983 106.486C95.9122 106.692 95.9337 106.918 96.0821 107.05C96.235 107.186 96.464 107.174 96.6485 107.264C96.957 107.415 97.0658 107.814 97.3239 108.042C97.3579 108.073 97.3997 108.1 97.4449 108.093C97.5011 108.084 97.5389 108.028 97.5904 108.005C97.6873 107.963 97.7893 108.054 97.8337 108.149C97.878 108.244 97.8989 108.36 97.9714 108.433C98.1057 108.57 98.3305 108.5 98.5206 108.471C98.7108 108.441 98.9682 108.558 98.9137 108.751C99.136 109.354 99.7178 109.603 100.306 109.812C100.326 109.694 100.479 109.645 100.584 109.689C100.69 109.734 100.759 109.833 100.839 109.917C101.194 110.294 101.382 110.579 101.826 110.293C102.021 110.453 102.053 110.743 102.149 110.982C102.243 111.222 102.514 111.444 102.727 111.296C102.856 111.154 102.986 111.014 103.115 110.872C103.455 111.025 103.288 111.735 103.654 111.815C103.867 111.862 104.04 111.63 104.15 111.428C104.383 111.36 104.443 111.795 104.67 111.868C104.743 111.892 104.825 111.873 104.9 111.898C105.111 111.965 105.087 112.279 105.178 112.489C105.253 112.662 105.439 112.776 105.623 112.752C105.807 112.729 105.972 112.561 105.987 112.369C106.211 112.468 106.477 112.468 106.705 112.371C106.801 112.566 106.779 112.804 106.837 113.016C106.894 113.228 107.112 113.431 107.303 113.327C107.393 113.278 107.442 113.177 107.511 113.1C107.687 112.899 108.01 112.859 108.216 113.015C108.192 113.202 108.168 113.387 108.144 113.573C108.529 113.77 108.981 113.825 109.407 113.73C109.665 113.838 109.723 114.334 109.999 114.272C110.067 114.257 110.121 114.208 110.185 114.176C110.388 114.068 110.626 114.156 110.842 114.206C111.059 114.257 111.344 114.236 111.444 114.024C111.482 113.94 111.487 113.836 111.55 113.771C111.662 113.658 111.652 113.325 111.716 113.469C111.78 113.613 111.774 113.782 111.839 113.926C111.921 114.107 112.119 114.221 112.314 114.199C112.509 114.174 112.685 114.017 112.736 113.818C112.763 113.717 112.758 113.608 112.796 113.512C112.834 113.416 112.944 113.333 113.032 113.379C113.121 113.424 113.118 113.557 113.15 113.655C113.238 113.93 113.716 113.882 113.77 113.592C113.771 113.919 114.567 114.929 114.88 114.952C115.191 114.973 115.501 114.968 115.812 114.936C115.988 114.918 116.212 114.843 116.226 114.66C116.232 114.585 116.199 114.504 116.235 114.437C116.275 114.37 116.362 114.362 116.435 114.361C116.622 114.359 116.807 114.356 116.994 114.355C117.198 114.352 117.468 114.416 117.467 114.628C117.7 114.781 117.947 114.94 118.201 115.054C118.411 115.039 118.319 114.562 118.529 114.549C118.576 114.547 118.616 114.572 118.656 114.594C119.161 114.878 120.417 115.113 120.607 114.537C120.726 114.695 120.86 114.863 121.049 114.905C121.241 114.948 121.483 114.784 121.443 114.586C121.429 114.519 121.388 114.439 121.435 114.386C121.452 114.366 121.479 114.359 121.504 114.35C121.676 114.298 121.846 114.245 122.017 114.194C122.077 114.175 122.142 114.157 122.198 114.179C122.246 114.197 122.28 114.238 122.312 114.277C122.457 114.443 122.705 114.595 122.878 114.45C122.936 114.402 122.97 114.327 123.035 114.289C123.177 114.205 123.333 114.344 123.484 114.403C123.657 114.47 123.871 114.417 124.003 114.275C124.133 114.132 124.174 113.906 124.099 113.73C124.399 113.843 124.782 113.62 124.85 113.291C124.929 113.343 124.936 113.459 124.98 113.545C125.08 113.738 125.368 113.732 125.537 113.594C125.707 113.455 125.786 113.231 125.858 113.022C126.137 113.161 126.526 112.967 126.605 112.651C126.621 112.583 126.634 112.499 126.697 112.468C126.738 112.447 126.784 112.46 126.829 112.471C127.149 112.554 127.54 112.565 127.769 112.309C127.86 112.207 127.936 112.058 128.067 112.044C128.246 112.025 128.333 112.261 128.487 112.354C128.665 112.463 128.918 112.346 129.019 112.151C129.122 111.957 129.102 111.721 129.038 111.518C129.368 111.218 129.915 111.828 130.266 111.554C130.346 111.491 130.394 111.392 130.432 111.296C130.507 111.108 130.561 110.909 130.591 110.71" stroke="#292929" stroke-width="0.9" stroke-miterlimit="10" stroke-linecap="round" stroke-linejoin="round"/>
<path d="M130.516 110.709C130.605 110.69 130.697 110.67 130.786 110.651C130.745 110.725 130.811 110.818 130.887 110.842C130.965 110.867 131.049 110.855 131.128 110.87C131.2 110.883 131.265 110.921 131.337 110.934C131.508 110.967 131.68 110.859 131.808 110.733C131.937 110.606 132.047 110.454 132.199 110.357C132.334 110.271 132.496 110.232 132.61 110.116C132.723 110.002 132.741 109.763 132.594 109.713C132.724 109.573 132.876 109.423 133.06 109.421C133.258 109.418 133.108 109.479 133.305 109.47C133.531 109.461 133.686 109.232 133.86 109.076C133.944 109.002 134.04 108.942 134.107 108.854C134.246 108.681 134.251 108.41 134.12 108.239C134.297 108.297 134.474 108.354 134.651 108.412C134.678 108.42 134.704 108.428 134.729 108.421C134.76 108.416 134.785 108.388 134.807 108.363C134.922 108.232 135.037 108.103 135.152 107.972C135.216 107.899 135.282 107.819 135.289 107.722C135.3 107.545 135.419 107.484 135.515 107.334C135.564 107.255 135.67 107.24 135.754 107.265C135.837 107.291 135.905 107.351 135.98 107.398C136.06 107.449 135.832 107.374 135.927 107.395C135.966 107.403 136.006 107.409 136.047 107.4C136.104 107.387 136.153 107.342 136.198 107.3C136.297 107.206 136.714 107.222 136.785 107.103C136.855 106.985 136.89 106.836 136.849 106.706C136.805 106.571 136.68 106.447 136.725 106.31C136.771 106.169 136.958 106.145 137.09 106.191C137.222 106.238 137.346 106.329 137.489 106.321C137.745 106.307 137.797 105.947 137.839 105.684C137.85 105.617 137.849 105.547 137.878 105.485C137.936 105.356 138.086 105.311 138.213 105.264C138.789 105.046 138.821 103.581 138.871 102.951C139.062 103.082 139.251 103.211 139.441 103.342C139.717 102.953 139.992 102.565 140.269 102.175C140.419 101.963 140.562 101.637 140.37 101.477C140.664 101.471 140.92 101.22 141.036 100.936C141.152 100.652 141.156 100.336 141.16 100.029C141.739 100.053 142.306 99.5327 142.357 98.9292C142.161 98.7672 141.965 98.6052 141.768 98.4433C141.697 98.3835 141.3 98.1686 141.36 98.0912C141.403 98.0371 141.8 98.1555 141.865 98.1654C142.344 98.2347 142.856 98.074 143.226 97.7376C143.314 97.6574 143.397 97.5631 143.44 97.4498C143.55 97.1596 143.371 96.8453 143.398 96.5373C143.424 96.2557 143.614 96.0191 143.716 95.7553C143.816 95.4899 143.45 94.9981 143.186 94.943C143.48 95.0451 143.748 94.7017 143.866 94.3975C143.945 94.1896 143.694 93.8528 143.651 93.6361C143.609 93.4209 143.43 93.2233 143.215 93.2371C143.665 93.1069 144.166 92.932 144.373 92.4963C144.616 91.9861 144.342 91.3223 144.645 90.8484C144.754 90.6796 144.934 90.5394 144.956 90.3388C144.993 90.0091 144.605 89.8409 144.296 89.7745C144.449 89.4753 144.474 89.1144 144.365 88.8021C144.673 88.8451 144.982 88.8866 145.29 88.9296C145.357 88.5083 145.426 88.0854 145.493 87.6641C145.539 87.3718 145.587 87.0687 145.51 86.7894C145.433 86.5101 145.194 86.2575 144.912 86.2754C145.017 86.3759 145.127 86.1682 145.229 86.0585C145.349 85.9287 145.47 85.8005 145.589 85.6707C145.693 85.5595 145.798 85.4436 145.855 85.304C145.965 85.0325 145.877 84.7329 145.817 84.4522C145.742 84.0966 145.717 83.7259 145.742 83.3587C145.747 83.2856 145.751 83.2047 145.706 83.1498C145.679 83.1185 145.64 83.101 145.6 83.0882C145.385 83.0086 145.119 82.8788 145.147 82.6408C145.177 82.3951 145.489 82.323 145.659 82.1438C145.943 81.8426 145.751 81.3553 145.768 80.9398C145.772 80.8527 145.785 80.7625 145.761 80.6813C145.688 80.4348 145.348 80.3962 145.227 80.1725C145.107 79.9536 145.251 79.6762 145.396 79.4656C145.541 79.2551 145.697 78.9902 145.596 78.759C145.566 78.6902 145.515 78.6322 145.464 78.5773C145.248 78.3451 144.905 78.4482 144.668 78.2361C144.739 77.9564 144.81 77.6737 144.88 77.3941C144.903 77.3071 144.924 77.2123 144.887 77.1342C144.854 77.0592 144.778 77.0196 144.708 76.9801C144.474 76.849 144.259 76.6775 144.077 76.4768C143.998 76.3905 143.925 76.2467 144.008 76.1586C144.049 76.1154 144.111 76.1066 144.166 76.0837C144.347 76.0042 144.402 75.768 144.432 75.5659C144.463 75.3591 144.482 75.118 144.342 74.9752C144.195 74.8261 143.956 74.8599 143.749 74.8504C143.488 74.8389 143.234 74.7434 143.031 74.5783C142.993 74.4862 143.136 74.4375 143.232 74.4025C143.394 74.3447 143.491 74.1509 143.483 73.9734C143.475 73.7958 143.386 73.6363 143.278 73.5016C143.033 73.1991 142.677 72.9969 142.294 72.9408C142.489 72.8475 142.559 72.5351 142.584 72.3158C142.609 72.0966 142.561 71.8782 142.512 71.6645C142.485 71.546 142.774 71.5391 142.747 71.4205C142.598 71.3601 142.498 71.6224 142.339 71.6585C142.203 71.69 142.097 71.5444 142.05 71.4117C142.003 71.279 141.96 71.1198 141.835 71.0643C141.746 71.0247 141.619 71.0392 141.576 70.9485C141.551 70.8954 141.569 70.8317 141.59 70.7743C141.652 70.5958 141.712 70.4157 141.775 70.2372C141.327 70.1152 140.912 69.8752 140.579 69.5455C140.466 69.4341 140.355 69.2681 140.423 69.1177C140.474 69.006 140.604 68.9588 140.685 68.8661C140.817 68.7177 140.794 68.4747 140.688 68.3135C140.581 68.1507 140.407 68.0528 140.241 67.9596C140.103 67.8821 139.945 67.7999 139.791 67.85C139.599 67.9122 139.432 68.1631 139.257 68.0729C139.207 68.0476 139.175 67.999 139.147 67.949C139.001 67.6847 138.989 67.3452 139.114 67.0614C139.152 66.9776 139.199 66.8909 139.183 66.802C139.168 66.7271 139.109 66.6706 139.051 66.6234C138.85 66.4568 138.636 66.3087 138.41 66.1792C138.311 66.1223 138.19 66.0684 138.082 66.1158C138.015 66.1448 137.96 66.2113 137.888 66.2231C137.762 66.2423 137.682 66.0798 137.699 65.946C137.714 65.8138 137.783 65.6899 137.786 65.5576C137.788 65.3179 137.57 65.1433 137.352 65.0668C137.135 64.9902 136.894 64.9649 136.704 64.8341C136.574 64.7428 136.474 64.6065 136.329 64.5415C136.03 64.4098 135.619 64.6259 135.383 64.3983C135.49 64.0645 135.265 63.7326 135.052 63.4693C134.908 63.2906 134.748 62.7834 134.599 62.9674C134.534 63.0494 134.535 63.1693 134.478 63.2591C134.338 63.4899 133.99 63.35 133.821 63.1494C133.651 62.9487 133.465 62.6841 133.209 62.7318" stroke="#292929" stroke-width="0.9" stroke-miterlimit="10" stroke-linecap="round" stroke-linejoin="round"/>
<path d="M130.476 68.1205C130.62 67.9557 130.908 67.9807 131.016 68.1642C131.092 68.2931 131.085 68.4621 131.164 68.588C131.319 68.8277 131.689 68.7688 131.911 68.9457C131.868 68.9695 131.838 69.0145 131.831 69.0658C132.122 69.0938 132.144 69.752 132.341 69.9739C132.582 70.246 132.987 70.3504 133.332 70.2295C133.218 70.4112 133.28 70.6698 133.442 70.7978C133.604 70.9259 133.833 70.9369 134.029 70.8676C134.225 70.7967 134.393 70.6563 134.54 70.5051C134.709 70.8566 134.836 71.2319 134.919 71.6173C134.954 71.7836 134.984 71.9574 135.069 72.1015C135.154 72.2455 135.308 72.36 135.474 72.3342C135.438 72.5316 135.466 72.7521 135.593 72.8965C135.722 73.0425 135.965 73.0822 136.112 72.9491C136.173 72.8953 136.213 72.8201 136.271 72.7603C136.327 72.7019 136.419 72.6619 136.485 72.7047C136.523 72.7276 136.544 72.7701 136.562 72.8094C136.714 73.1442 136.82 73.5042 136.873 73.8744C136.905 74.1025 136.919 74.338 137.009 74.5455C137.101 74.7515 137.297 74.9297 137.519 74.9089C137.448 75.0954 137.396 75.347 137.554 75.4524C137.654 75.5181 137.789 75.4815 137.906 75.4447C138.083 75.3873 138.241 75.369 138.42 75.3101C138.415 75.8684 138.137 76.3189 138.199 76.8717C138.207 76.9442 138.216 77.0167 138.25 77.0789C138.354 77.2668 138.616 77.2569 138.825 77.2224C138.767 77.48 138.709 77.7436 138.726 78.0048C138.742 78.2675 138.846 78.534 139.051 78.679C139.071 78.6928 139.093 78.7065 139.116 78.7112C139.226 78.7287 139.285 78.5602 139.394 78.5339C139.458 78.8001 139.442 79.0882 139.348 79.3515C139.292 79.511 139.206 79.6672 139.212 79.8348C139.221 80.0265 139.35 80.1845 139.472 80.3273C139.505 80.3668 139.543 80.4079 139.592 80.4219C139.647 80.4374 139.701 80.4198 139.756 80.4021C139.858 80.3698 139.961 80.3344 140.064 80.302C139.958 80.5381 139.817 80.7603 139.648 80.9535C139.587 81.0255 139.522 81.0928 139.484 81.1785C139.408 81.3424 139.444 81.5313 139.482 81.7037C139.524 81.8987 139.613 82.1348 139.806 82.1394C139.783 82.2343 139.662 82.2484 139.583 82.3021C139.486 82.3677 139.455 82.5002 139.439 82.6178C139.414 82.7911 139.515 82.6531 139.52 82.8282C139.522 82.8916 139.525 82.958 139.548 83.0156C139.621 83.2018 139.854 83.3048 140.047 83.3305C139.901 83.4772 139.749 83.6329 139.688 83.8331C139.628 84.0333 139.699 84.289 139.888 84.3524C139.871 84.5786 139.589 84.6668 139.449 84.8468C139.344 84.9802 139.324 85.1641 139.314 85.3361C139.303 85.499 139.294 85.6634 139.288 85.8278C139.581 85.8906 139.888 85.8841 140.183 85.8095C140.001 86.1144 139.761 86.384 139.48 86.5945C139.43 86.6318 139.376 86.6691 139.347 86.7277C139.324 86.7743 139.321 86.8286 139.319 86.8814C139.299 87.26 139.266 87.646 139.121 87.998C139.029 88.2266 138.89 88.4322 138.787 88.6592C138.684 88.8832 138.615 89.1362 138.678 89.3706C138.562 89.3983 138.447 89.4396 138.336 89.4915C138.26 89.5271 138.185 89.5717 138.133 89.6407C138.066 89.7307 138.05 89.8513 138.049 89.963C138.049 90.0973 138.069 90.2363 138.137 90.3485C138.218 90.479 138.355 90.5601 138.49 90.6276C138.621 90.6905 138.756 90.746 138.893 90.7909C138.862 90.854 138.792 90.8866 138.726 90.8921C138.66 90.8976 138.595 90.8774 138.532 90.8618C138.292 90.804 138.043 90.7974 137.797 90.7969C137.728 90.7964 137.654 90.7973 137.596 90.839C137.539 90.8808 137.509 90.9515 137.483 91.0192C137.451 91.1019 137.418 91.1937 137.449 91.2739C137.464 91.3163 137.497 91.3498 137.528 91.3817C137.696 91.5582 137.862 91.7331 138.03 91.9095C138.059 91.9399 138.089 91.9734 138.109 92.0113C138.132 92.0628 138.136 92.1216 138.136 92.179C138.135 92.348 138.421 92.6265 138.378 92.7906C138.349 92.9036 138.288 93.1913 138.19 93.2629C138.118 93.3167 137.841 93.2027 137.744 93.1838C137.586 93.1538 137.425 93.1329 137.264 93.124C137.218 93.1206 137.168 93.1187 137.128 93.138C137.07 93.1647 137.036 93.2248 137.009 93.2819C136.887 93.5299 136.807 93.8008 136.773 94.0737C136.768 94.1174 136.763 94.1642 136.779 94.205C136.793 94.2399 136.818 94.2657 136.843 94.2916C137.035 94.4893 137.227 94.6871 137.418 94.8848C137.301 94.9759 137.184 95.064 137.067 95.1551C137.041 95.1745 137.016 95.1939 137 95.2209C136.968 95.2705 136.968 95.3338 136.972 95.3927C136.978 95.5814 136.984 95.7701 136.99 95.9588C136.782 95.8786 136.585 95.7668 136.411 95.6266C136.308 95.7223 136.203 95.8286 136.172 95.9671C136.14 96.1148 136.199 96.2631 136.25 96.4024C136.359 96.7051 136.418 97.0753 136.228 97.3423C135.979 97.2558 135.73 97.1677 135.479 97.0796C135.441 97.0657 135.402 97.0534 135.363 97.0591C135.325 97.0633 135.29 97.0856 135.26 97.1095C135.02 97.2886 134.873 97.5953 134.885 97.8972C134.896 98.1976 135.066 98.4827 135.32 98.6251C135.242 98.6984 135.14 98.7987 135.063 98.872C134.877 98.7075 134.678 98.5625 134.464 98.437C134.455 98.4309 134.445 98.4263 134.433 98.4262C134.421 98.4261 134.408 98.435 134.399 98.444C134.329 98.5008 134.256 98.5605 134.209 98.6401C134.136 98.7693 134.142 98.9278 134.153 99.0758C134.158 99.1633 134.165 99.2494 134.172 99.3385C134.178 99.4397 134.177 99.5604 134.098 99.6201C134.07 99.6425 134.035 99.6528 134.003 99.6631C133.728 99.7453 133.845 100.674 133.571 100.758C133.515 100.774 133.455 100.795 133.424 100.846C133.368 100.941 133.44 101.087 133.361 101.162C133.322 101.147 133.288 101.121 133.262 101.086C133.024 101.321 132.642 101.265 132.414 101.511C132.237 101.699 132.221 102.027 132.378 102.223C132.457 102.321 132.583 102.422 132.547 102.55C132.519 102.649 132.403 102.695 132.305 102.681C132.208 102.665 132.124 102.607 132.035 102.565C131.787 102.447 131.486 102.451 131.234 102.575C130.982 102.7 130.784 102.946 130.711 103.224C130.577 103.219 130.44 103.213 130.311 103.256C130.182 103.299 130.061 103.403 130.035 103.542C130.031 103.567 130.029 103.593 130.015 103.616C129.975 103.676 129.89 103.649 129.823 103.637C129.649 103.602 129.775 103.828 129.676 103.986C129.578 104.145 129.853 104.443 129.838 104.628C129.821 104.818 129.814 105.017 129.72 105.184C129.674 105.265 129.612 105.333 129.548 105.399C129.304 105.647 129.032 105.867 128.738 106.048C128.591 106.139 128.388 106.216 128.27 106.096C128.206 106.03 128.191 105.928 128.141 105.849C128.011 105.644 127.676 105.702 127.529 105.903C127.383 106.104 127.383 106.378 127.427 106.62C127.448 106.745 127.48 106.884 127.414 106.994C127.39 107.036 127.353 107.069 127.314 107.096C127.228 107.154 127.12 107.188 127.025 107.152C126.894 107.105 126.832 106.953 126.717 106.872C126.601 106.791 126.443 106.794 126.315 106.863C126.188 106.931 125.833 106.939 125.779 107.076C125.646 107.022 125.501 106.972 125.358 107.009C124.986 107.102 124.893 107.69 124.524 107.805C124.409 107.84 124.287 107.822 124.169 107.825C123.926 107.827 123.681 107.916 123.484 108.071C123.455 108.093 123.426 108.119 123.41 108.152C123.354 108.271 123.473 108.428 123.398 108.535C123.323 108.642 123.169 108.572 123.062 108.51C122.781 108.346 122.415 108.302 122.13 108.475C122.004 108.551 121.892 108.723 121.976 108.845C122.032 108.927 122.166 108.959 122.16 109.062C122.154 109.145 122.06 109.183 121.982 109.198C121.612 109.269 121.225 109.241 120.872 109.116C120.652 109.039 120.437 108.924 120.205 108.934C120.046 108.941 119.872 109.028 119.835 109.188C119.83 109.21 119.827 109.234 119.814 109.252C119.784 109.298 119.721 109.288 119.668 109.283C119.41 109.255 119.148 109.501 119.148 109.771C119.003 109.551 118.276 108.829 118.046 108.711C117.818 108.741 117.591 108.772 117.363 108.802C117.379 109.098 117.347 109.398 117.276 109.687C117.117 109.76 116.947 109.606 116.882 109.443C116.817 109.279 116.798 109.086 116.683 108.957C116.523 108.773 116.213 108.79 116.02 108.95C115.829 109.111 115.743 109.377 115.741 109.631C115.13 109.131 113.758 108.753 113.061 108.385C112.861 108.279 112.841 108.527 112.63 108.623C112.527 108.67 112.433 108.784 112.326 108.755C112.219 108.725 112.198 108.582 112.141 108.485C112.01 108.257 111.598 108.346 111.552 108.613C111.655 108.319 111.298 108.029 111.012 108.128C110.725 108.225 110.567 108.564 110.558 108.874C110.282 108.99 110.005 108.721 109.902 108.439C109.799 108.157 109.776 107.833 109.589 107.603C109.402 107.371 109.083 107.29 108.787 107.315C108.699 107.602 108.612 107.891 108.522 108.18C108.31 108.098 108.189 107.87 108.099 107.653C108.009 107.437 107.922 107.202 107.731 107.072C107.542 106.944 107.219 107.001 107.161 107.235C107 107.211 107.026 106.967 106.98 106.805C106.906 106.531 106.538 106.459 106.29 106.595C106.044 106.732 105.894 107 105.757 107.253C105.631 106.905 105.579 106.528 105.605 106.152C105.362 106.026 105.019 106.162 104.913 106.429C104.87 106.537 104.842 106.682 104.733 106.714C104.681 106.729 104.629 106.711 104.582 106.691C104.102 106.493 104.219 105.717 104.308 105.18C104.217 105.015 103.963 105.025 103.819 105.155C103.676 105.284 103.614 105.482 103.561 105.669C103.509 105.385 103.456 105.096 103.313 104.851C103.172 104.606 102.921 104.41 102.642 104.421C102.66 104.577 102.679 104.741 102.624 104.89C102.57 105.039 102.417 105.166 102.271 105.13C102.113 105.091 102.043 104.893 102.058 104.723C102.07 104.552 102.14 104.388 102.146 104.218C102.161 103.771 101.656 103.418 101.256 103.596C101.297 103.364 101.181 103.116 100.983 103.011C100.785 102.907 100.517 102.955 100.356 103.123C100.286 103.194 100.222 103.293 100.125 103.293C100.059 103.292 100.005 103.243 99.9569 103.195C99.7847 103.023 99.6111 102.852 99.4375 102.679C99.4885 102.53 99.5367 102.36 99.5877 102.211C99.6047 102.161 99.6217 102.108 99.6071 102.06C99.5953 102.021 99.5639 101.992 99.5324 101.966C99.3975 101.853 99.2382 101.77 99.0696 101.721C99.013 101.818 98.9563 101.919 98.8997 102.016C98.8537 102.098 98.776 102.192 98.6917 102.164C98.6075 102.133 98.6054 102.013 98.6198 101.921C98.6455 101.734 98.6652 101.535 98.5942 101.362C98.5232 101.189 98.3326 101.06 98.16 101.128C98.0646 101.165 97.996 101.25 97.9155 101.311C97.835 101.375 97.7185 101.415 97.6375 101.354C97.7433 101.154 97.8491 100.954 97.9548 100.755C97.9778 100.711 98.0008 100.665 98.0058 100.615C98.0108 100.559 97.9886 100.506 97.9618 100.457C97.8056 100.18 97.4732 100.055 97.3124 99.7821C97.2678 99.7063 97.2383 99.6215 97.1845 99.5516C97.0517 99.374 96.7758 99.34 96.5966 99.4774C96.4588 99.1729 96.4708 98.8169 96.4283 98.4815C96.3843 98.1447 96.2469 97.7829 95.9461 97.6597C95.8212 97.8005 95.6051 97.8395 95.4489 97.7506C95.4997 97.4432 95.7751 97.1663 95.7036 96.8684C95.6555 96.6704 95.4678 96.5526 95.2966 96.4546C95.5194 96.3312 95.5148 95.9735 95.3534 95.7851C95.1905 95.5951 94.9345 95.5296 94.6935 95.4733C94.7284 95.2653 94.7633 95.0574 94.7967 94.8509C94.8093 94.7816 94.819 94.7093 94.806 94.6412C94.7871 94.5551 94.7273 94.4852 94.6766 94.4123C94.3769 93.9707 94.4302 93.3555 94.596 92.8302C94.6115 92.779 94.6286 92.7233 94.6079 92.6748C94.5857 92.6218 94.5285 92.5972 94.4743 92.5787C94.2396 92.4952 94.0034 92.4133 93.7686 92.3299C93.8899 92.2705 93.9381 92.0883 93.9498 91.9511C93.9615 91.8139 93.9385 91.6749 93.9442 91.5376C93.9518 91.3415 94.0228 91.1489 94.1403 90.9914C94.2288 90.8744 94.3504 90.7668 94.3682 90.6205C94.3828 90.4984 94.3189 90.3817 94.2305 90.304C94.1421 90.2263 94.0308 90.1832 93.9225 90.14C93.9311 90.0088 94.0376 89.9101 94.1244 89.8127C94.2874 89.6284 94.3994 89.3955 94.4407 89.1513C94.1456 88.6962 93.4496 88.7402 93.0801 88.3494C93.1992 88.3639 93.3243 88.3786 93.4408 88.3388C93.5574 88.299 93.6609 88.1882 93.6529 88.0613C93.6503 88.007 93.6281 87.951 93.6512 87.9014C93.6742 87.8548 93.7302 87.8386 93.7786 87.8179C93.9574 87.7379 94.0543 87.5108 94.0091 87.3188C93.9639 87.1268 93.7961 86.9835 93.6092 86.9488C93.57 86.9425 93.5248 86.936 93.507 86.8997C93.4951 86.8785 93.4969 86.8498 93.4986 86.8242C93.5133 86.6809 93.5266 86.5392 93.5413 86.3959C93.548 86.3236 93.5577 86.2452 93.6049 86.1897C93.6445 86.1418 93.7051 86.1211 93.7551 86.0868C93.9221 85.9705 93.9603 85.7294 94.0929 85.572C94.2087 85.4371 94.4072 85.3377 94.4087 85.1596C94.4085 84.9891 93.807 85.1049 93.6535 85.0523C93.7708 84.7364 94.1328 84.5688 94.2441 84.2498C94.2627 84.1926 94.2753 84.1294 94.2531 84.0733C94.2324 84.0188 94.1844 83.9822 94.1394 83.9487C93.8964 83.7776 93.6197 83.6577 93.329 83.5964C93.4658 83.4708 93.2805 83.2489 93.3062 83.062C93.3239 82.9309 93.4228 82.8306 93.4961 82.7225C93.6703 82.4674 93.7181 82.1509 93.8277 81.8606C93.8462 81.8124 93.8662 81.7658 93.9012 81.7284C93.9773 81.6505 94.0949 81.6545 94.1963 81.6267C94.3944 81.5755 94.5512 81.4063 94.6418 81.2154C94.7324 81.0245 94.7659 80.812 94.7993 80.6055C94.5889 80.4981 94.3693 80.4088 94.1435 80.3405C94.2751 80.1123 94.555 80.0255 94.7197 79.8217C94.8234 79.6927 94.8776 79.5196 94.8593 79.355C94.6201 79.267 94.3685 79.2151 94.1136 79.2025C94.3718 79.0024 94.7001 78.904 95.0152 78.9322C95.0635 78.9357 95.1163 78.9436 95.1557 78.9138C95.1891 78.8899 95.203 78.8493 95.2185 78.8102C95.2725 78.6582 95.3266 78.5092 95.3806 78.3573C95.4038 78.2896 95.4301 78.2128 95.405 78.1477C95.3843 78.0962 95.3378 78.0612 95.2928 78.0306C95.0797 77.884 94.8681 77.7389 94.655 77.5923C94.8523 77.2785 95.2086 77.0747 95.281 76.7101C95.3219 76.5082 95.2285 76.3067 95.2227 76.0999C95.2149 75.7543 95.4528 75.4545 95.6753 75.1907C95.6982 75.1652 95.721 75.1367 95.7529 75.1204C95.8089 75.0922 95.8737 75.1063 95.9326 75.1023C96.0836 75.0914 96.2038 74.9642 96.3059 74.8458C96.5619 74.5521 96.8301 74.2254 96.85 73.8347C96.8551 73.7547 96.8468 73.6732 96.87 73.5964C96.9118 73.4655 97.0318 73.3804 97.1351 73.2907C97.2673 73.1756 97.3847 73.0393 97.478 72.8876C97.5437 72.781 97.5975 72.6623 97.6001 72.537C97.6026 72.4118 97.5433 72.2815 97.4335 72.2338C97.571 72.2154 97.7142 72.2362 97.839 72.293C97.9233 72.1353 98.0061 71.976 98.0904 71.8182C98.1103 71.7807 98.1302 71.7431 98.1321 71.7024C98.1406 71.5832 98.0144 71.5158 97.9305 71.4397C97.7253 71.2523 97.7497 70.8602 97.9759 70.6885C98.1411 70.7865 98.3572 70.7505 98.53 70.6584C98.7028 70.5662 98.8474 70.421 98.9978 70.291C99.2197 70.1027 99.4655 69.9387 99.6395 69.7017C99.8135 69.4647 99.8962 69.1259 99.7489 68.8817C99.82 69.0362 100.089 68.9509 100.229 68.8555C100.37 68.7585 100.459 68.6023 100.581 68.4796C100.785 68.273 101.063 68.1727 101.31 68.0223C101.554 67.8719 101.79 67.6218 101.775 67.332C102.012 67.4456 102.31 67.4194 102.533 67.2658C102.756 67.1122 102.9 66.8387 102.899 66.5641C102.834 66.5439 102.849 66.4309 102.91 66.3951C102.97 66.3594 103.044 66.3766 103.113 66.3893C103.367 66.4366 103.634 66.4132 103.882 66.3216C103.976 66.2862 104.073 66.2357 104.12 66.144C104.19 66.0043 104.119 65.8166 104.213 65.6966C104.423 65.8372 104.707 65.6056 104.786 65.3542C104.865 65.1029 104.844 64.825 104.954 64.5845C105.079 64.8753 105.371 65.0542 105.674 65.1186C105.977 65.183 106.293 65.1478 106.602 65.1127C106.697 65.1029 106.796 65.0901 106.879 65.041C107.149 64.8833 107.107 64.4574 106.946 64.1904C107.266 64.3545 107.647 64.5191 107.973 64.3483C108.093 64.2844 108.191 64.1811 108.314 64.1262C108.485 64.0477 108.695 64.0751 108.836 64.1939C108.915 63.9305 108.999 63.6565 109.175 63.4467C109.352 63.2369 109.649 63.1096 109.888 63.2187C110.064 63.3001 110.168 63.4851 110.301 63.6295C110.434 63.774 110.657 63.8784 110.819 63.7605C111.013 63.6203 110.948 63.3134 110.859 63.0924C111.015 63.0439 111.175 63.1085 111.328 63.1581C111.876 63.3316 112.491 63.2929 113.027 63.0529C113.113 63.0128 113.271 63.0458 113.218 63.1284C113.34 63.2803 113.597 63.2613 113.768 63.1616C113.852 63.1125 113.92 63.0331 114.011 63.0066C114.176 62.9582 114.327 63.0877 114.481 63.1614C114.76 63.2965 115.155 63.2047 115.294 62.9086C115.413 63.0468 115.532 63.1867 115.65 63.325C115.682 63.3629 115.716 63.401 115.76 63.4209C115.817 63.4486 115.885 63.4416 115.95 63.4436C116.135 63.4497 116.314 63.5251 116.5 63.5221C116.687 63.5206 116.902 63.3956 116.907 63.2025C116.997 63.2063 117.055 63.2928 117.12 63.3552C117.269 63.5013 117.497 63.5318 117.703 63.4882C117.907 63.4461 118.095 63.339 118.278 63.2334C118.372 63.3836 118.478 63.5429 118.645 63.5941C118.827 63.6484 119.029 63.555 119.212 63.6018C119.396 63.6455 119.529 63.8443 119.509 64.0403" stroke="#292929" stroke-width="0.9" stroke-miterlimit="10" stroke-linecap="round" stroke-linejoin="round"/>
<path d="M89.3472 94.9979C88.7527 94.9805 88.2422 94.4019 88.2738 93.7841C88.3703 93.7787 88.4684 93.7748 88.559 93.7382C88.9292 93.5903 88.9496 93.002 88.6842 92.7103C88.4189 92.4185 88.0023 92.3466 87.6167 92.2905C87.5871 92.0941 87.5704 91.8605 87.7116 91.7215C87.8419 91.5934 88.0567 91.5983 88.1807 91.467C88.2954 91.3449 88.2939 91.1425 88.2173 90.9956C88.1407 90.8486 88.0092 90.7463 87.8808 90.6472C88.0724 90.4464 88.2771 90.1648 88.1639 89.9179C88.0721 89.721 87.3629 89.8319 87.3819 89.6095C87.4043 89.3434 87.8542 89.1572 87.7112 88.9428C87.6666 88.8755 87.5811 88.8576 87.5113 88.8213C87.2897 88.7058 87.2252 88.4079 87.2507 88.1482C87.2762 87.8884 87.367 87.6354 87.3613 87.3754C87.3512 86.9099 87.0376 86.4247 87.2651 86.0156C87.5047 86.03 87.8337 85.9658 87.8451 85.7168C87.8529 85.5332 87.667 85.4227 87.5466 85.2909C87.363 85.0886 87.3269 84.7567 87.4612 84.5072C87.5956 84.2577 87.8879 84.1091 88.1537 84.1564C87.8082 83.9621 87.655 83.4736 87.8216 83.0935C87.9406 82.8221 88.1993 82.5985 88.2017 82.3027C88.2038 82.0412 88.0031 81.8434 87.8397 81.6491C87.6778 81.4563 87.5385 81.1733 87.668 80.9471C87.7328 80.834 87.8532 80.765 87.9149 80.6487C88.1251 80.2597 87.5296 79.7925 87.7414 79.405C87.9168 79.0842 88.4419 79.2162 88.6746 78.9348C88.857 78.7152 88.7538 78.3906 88.6954 78.1146C88.637 77.8386 88.7149 77.4438 88.9875 77.4227C89.0452 77.4185 89.1089 77.4299 89.1544 77.3914C89.2014 77.3513 89.2004 77.2781 89.1947 77.2158C89.1662 76.9011 89.133 76.5817 89.1947 76.2709C89.2564 75.96 89.438 75.6517 89.7208 75.5249C90.013 75.3949 89.8288 74.8813 89.5291 74.7963C89.812 74.6632 90.0074 74.3721 90.1064 74.0678C90.2054 73.7635 90.2221 73.4383 90.2387 73.1193C90.3274 73.1278 90.4161 73.1332 90.5048 73.1418C90.608 72.6974 90.7113 72.2561 90.8146 71.8118C90.9654 71.8363 91.124 71.8626 91.2723 71.8124C91.4206 71.7623 91.5526 71.6139 91.5336 71.4565C91.5132 71.2882 91.3397 71.1841 91.3037 71.0187C91.2288 70.6663 91.7844 70.4903 91.8745 70.1361C91.9018 70.0289 91.881 69.9167 91.8788 69.8046C91.8629 69.2767 92.2968 68.7635 92.8063 68.71C92.9178 68.2144 93.0561 67.6707 93.4571 67.3688C93.6983 67.1871 94.0275 67.098 94.1621 66.8236C94.2112 66.7259 94.2277 66.614 94.2845 66.521C94.3965 66.3398 94.6631 66.2844 94.824 66.4134C94.9238 66.0157 95.1245 65.6515 95.322 65.2935C95.3884 65.1726 95.4548 65.0518 95.5227 64.9325C95.6017 64.7899 95.6933 64.635 95.8401 64.5739C96.1041 64.4625 96.3652 64.7028 96.5455 64.9206C96.7536 64.6141 96.7203 64.1157 96.6579 63.754C96.7291 63.6161 96.8932 63.538 97.0361 63.5703C97.1791 63.6027 97.2916 63.7421 97.2965 63.8947C97.4448 63.6593 97.4162 63.3571 97.476 63.0852C97.5343 62.8116 97.7889 62.5211 98.0324 62.6274C98.1456 62.6766 98.2116 62.797 98.3201 62.857C98.4921 62.9534 98.7421 62.8403 98.7982 62.643C98.859 62.4349 98.7414 62.1615 98.9029 62.0243C98.964 61.9734 99.0451 61.9617 99.123 61.9467C99.4676 61.8795 99.7945 61.6938 100.036 61.425C100.12 61.4599 100.202 61.4964 100.285 61.5298C100.409 61.3611 100.304 61.0971 100.42 60.9238C100.466 60.8572 100.538 60.8142 100.607 60.7743C100.99 60.5548 101.386 60.3293 101.817 60.2721C101.969 60.2531 102.123 60.2528 102.269 60.2042C102.597 60.0948 102.802 59.7603 102.981 59.4519C103.179 59.5781 103.35 59.7492 103.481 59.948C103.578 59.6732 103.674 59.3969 103.771 59.1222C103.795 59.0555 103.821 58.9841 103.871 58.9347C103.934 58.8729 104.021 58.8549 104.105 58.8401C104.378 58.7878 104.654 58.7356 104.927 58.6834C105.08 58.6535 105.256 58.6316 105.367 58.7384C105.403 58.7714 105.429 58.8167 105.47 58.8404C105.587 58.9052 105.722 58.7662 105.759 58.6311C105.794 58.4975 105.786 58.3449 105.868 58.2334C106.036 57.9998 106.393 58.1459 106.658 58.0609C106.79 58.0184 106.898 57.9181 107.014 57.8381C107.339 57.6135 107.735 57.5483 108.116 57.486C108.409 57.4386 108.779 57.4292 108.914 57.6981C109.067 57.4083 109.276 57.2278 109.429 56.938C109.445 57.1109 109.658 57.1889 109.82 57.1436C109.984 57.0967 110.115 56.9732 110.261 56.8826C110.629 56.6599 111.114 56.6732 111.455 56.922C112.073 56.5083 112.965 56.6495 113.409 57.2292C113.373 56.8475 113.788 56.5816 114.151 56.4896C114.476 56.4082 114.887 56.4209 115.038 56.7226C115.069 56.782 115.086 56.8491 115.127 56.9008C115.25 57.0482 115.496 56.9615 115.637 56.8194C115.778 56.6774 115.887 56.4899 116.07 56.4213C116.301 56.3361 116.553 56.4923 116.67 56.7112C116.785 56.9285 116.795 57.1901 116.804 57.4408C116.89 57.1582 116.977 56.8756 117.063 56.5961C117.47 56.5636 117.879 56.7351 118.141 57.0486C118.197 57.1145 118.258 57.1928 118.344 57.1888C118.498 57.1823 118.528 56.9397 118.658 56.8489C118.865 56.7074 119.11 57.0348 119.35 56.9776C119.442 56.955 119.513 56.8793 119.595 56.8318C119.807 56.7074 120.075 56.7734 120.269 56.9167C120.462 57.0568 120.602 57.2619 120.764 57.4392C120.826 57.5082 120.9 57.5773 120.993 57.5843C121.147 57.5964 121.259 57.437 121.386 57.34C121.571 57.1983 121.839 57.188 122.025 57.3141C122.212 57.4417 122.308 57.6963 122.253 57.9262" stroke="#292929" stroke-width="0.9" stroke-miterlimit="10" stroke-linecap="round" stroke-linejoin="round"/>
<path d="M122.148 58.1687C124.746 58.9202 127.288 59.844 129.829 60.7694C130.088 60.8634 130.349 60.9589 130.595 61.087C130.809 61.1978 131.011 61.3333 131.209 61.4688C131.87 61.9148 132.531 62.3608 133.19 62.8083" stroke="#292929" stroke-width="0.5" stroke-miterlimit="10" stroke-linecap="round" stroke-linejoin="round"/>
<path d="M121.742 58.5685C122.814 58.8388 123.788 59.3933 124.814 59.8049C126.232 60.377 127.746 60.6759 129.178 61.2061C130.608 61.7331 131.951 62.4898 133.15 63.4384" stroke="#292929" stroke-width="0.5" stroke-miterlimit="10" stroke-linecap="round" stroke-linejoin="round"/>
<path d="M121.262 59.7726C121.817 60.0013 122.336 60.306 122.873 60.5751C123.284 60.7793 123.704 60.9618 124.124 61.1443C124.811 61.441 125.496 61.7378 126.183 62.0345C126.673 62.2472 127.166 62.4598 127.666 62.6476C128.125 62.8226 128.591 62.9759 129.05 63.1541C130.228 63.6136 131.339 64.2283 132.447 64.843" stroke="#292929" stroke-width="0.5" stroke-miterlimit="10" stroke-linecap="round" stroke-linejoin="round"/>
<path d="M121.555 59.1876C122.26 59.5561 122.967 59.9262 123.702 60.2312C124.638 60.6203 125.613 60.9054 126.564 61.251C127.191 61.4804 127.807 61.7361 128.423 61.9918C128.924 62.1998 129.424 62.4094 129.925 62.6175C130.938 63.0383 131.97 63.4718 132.79 64.2118" stroke="#292929" stroke-width="0.5" stroke-miterlimit="10" stroke-linecap="round" stroke-linejoin="round"/>
<path d="M120.975 60.4409C121.912 60.8129 122.849 61.188 123.786 61.56C123.983 61.6379 124.177 61.7158 124.366 61.8107C124.526 61.8914 124.679 61.9845 124.837 62.0699C125.101 62.2153 125.372 62.3436 125.644 62.4719C126 62.6399 126.355 62.8094 126.712 62.9773C127.948 63.5619 129.184 64.1465 130.44 64.6862C130.976 64.9163 131.519 65.1387 131.998 65.4727" stroke="#292929" stroke-width="0.5" stroke-miterlimit="10" stroke-linecap="round" stroke-linejoin="round"/>
<path d="M120.702 61.1313C122.565 61.8378 124.5 62.3581 126.296 63.2197C128.101 64.0846 129.749 65.2859 131.639 65.9397" stroke="#292929" stroke-width="0.5" stroke-miterlimit="10" stroke-linecap="round" stroke-linejoin="round"/>
<path d="M120.441 61.6479C122.115 62.4011 122.521 62.5726 124.262 63.152C124.519 63.2382 125.994 63.9275 126.244 64.037C126.504 64.1512 127.381 64.5647 127.629 64.7037C129 65.4669 129.852 65.7962 131.223 66.5593" stroke="#292929" stroke-width="0.5" stroke-miterlimit="10" stroke-linecap="round" stroke-linejoin="round"/>
<path d="M120.167 62.0723C121.368 62.6908 122.573 63.3094 123.827 63.8117C125.15 64.3409 126.062 64.5897 127.727 65.4472C128.083 65.6307 128.751 66.0207 129.092 66.2352C129.31 66.3724 130.655 66.8988 130.888 67.0097" stroke="#292929" stroke-width="0.5" stroke-miterlimit="10" stroke-linecap="round" stroke-linejoin="round"/>
<path d="M119.89 62.6193C120.253 62.8495 120.631 63.0519 121.02 63.2279C121.577 63.48 122.157 63.6778 122.719 63.9191C123.217 64.1333 123.701 64.3833 124.183 64.6316C126.244 65.6916 128.319 66.733 130.474 67.5836" stroke="#292929" stroke-width="0.5" stroke-miterlimit="10" stroke-linecap="round" stroke-linejoin="round"/>
<path d="M133.702 62.4803C132.813 64.3831 131.681 66.1702 130.349 67.7798C130.31 67.8277 130.266 67.8772 130.208 67.8907C130.154 67.9043 130.099 67.8805 130.048 67.8567C128.95 67.3495 127.892 66.7508 126.772 66.2995C125.53 65.8005 124.214 65.483 123.021 64.8753C122.345 64.5304 121.707 64.0924 120.977 63.8809C120.538 63.7543 120.068 63.71 119.662 63.4949C119.591 63.457 119.576 63.3261 119.653 63.3002C119.987 62.3285 120.626 61.4838 120.968 60.5152C121.035 60.3258 121.089 60.1301 121.172 59.944C121.235 59.7982 121.316 59.6603 121.384 59.5161C121.509 59.2478 121.591 58.9605 121.702 58.6874C121.815 58.4128 121.962 58.1447 122.19 57.9598C122.346 57.835 122.488 57.7288 122.676 57.7692C123.532 57.9491 124.328 58.3308 125.152 58.6162C126.86 59.2063 128.712 59.3881 130.316 60.2248C131.467 60.8258 132.508 61.9568 133.702 62.4803Z" stroke="#292929" stroke-width="1.3" stroke-miterlimit="10" stroke-linecap="round" stroke-linejoin="round"/>
<g opacity="0.96">
<path opacity="0.96" d="M64.7098 92.7919C62.6395 91.895 60.8106 90.4084 59.5077 88.5606" stroke="#221D1E" stroke-width="1.3" stroke-miterlimit="10" stroke-linecap="round" stroke-linejoin="round"/>
<path opacity="0.96" d="M67.6099 80.5639C69.5731 81.5598 71.4636 82.7179 73.2472 84.0186C73.325 84.0758 73.4099 84.1408 73.4417 84.2317" stroke="#221D1E" stroke-width="1.3" stroke-miterlimit="10" stroke-linecap="round" stroke-linejoin="round"/>
<path opacity="0.96" d="M64.0601 92.5745C64.9362 91.4361 65.9494 90.4103 66.9581 89.387C67.1561 89.1862 67.3563 88.9841 67.5542 88.7833C68.3105 88.0167 69.0667 87.2501 69.8933 86.5593C70.135 86.3582 70.373 85.9456 70.6038 85.7299C70.916 85.4378 71.2066 85.327 71.4832 85.0017C71.8717 84.5485 72.4293 84.1702 72.8165 83.7147" stroke="#221D1E" stroke-width="0.256579" stroke-miterlimit="10" stroke-linecap="round" stroke-linejoin="round"/>
<path opacity="0.96" d="M63.3064 92.1764C64.1825 91.038 65.1957 90.0122 66.2044 88.9889C66.4023 88.7881 66.6026 88.586 66.8005 88.3851C67.5568 87.6185 68.313 86.852 69.1396 86.1612C69.3813 85.96 69.6311 85.7632 69.8596 85.5487C70.1718 85.2567 70.4506 84.9301 70.7295 84.6036C71.118 84.1504 71.5052 83.695 71.8936 83.2418" stroke="#221D1E" stroke-width="0.256579" stroke-miterlimit="10" stroke-linecap="round" stroke-linejoin="round"/>
<path opacity="0.96" d="M62.615 91.5752C63.4911 90.4368 64.5043 89.411 65.513 88.3877C65.711 88.1869 65.9112 87.9848 66.1091 87.784C66.8654 87.0174 67.6216 86.2508 68.4482 85.56C68.6899 85.3588 68.9397 85.162 69.1682 84.9475C69.4804 84.6555 69.7593 84.3289 70.0381 84.0024C70.4266 83.5492 70.8138 83.0938 71.2022 82.6406" stroke="#221D1E" stroke-width="0.256579" stroke-miterlimit="10" stroke-linecap="round" stroke-linejoin="round"/>
<path opacity="0.96" d="M61.8295 91.0482C62.7056 89.9097 63.7189 88.884 64.7275 87.8607C64.9255 87.6598 65.1257 87.4578 65.3237 87.2569C66.0799 86.4903 66.8362 85.7237 67.6628 85.033C67.9044 84.8318 68.1542 84.635 68.3828 84.4205C68.6949 84.1284 68.9738 83.8019 69.2526 83.4754C69.6411 83.0222 70.0283 82.5667 70.4168 82.1135" stroke="#221D1E" stroke-width="0.256579" stroke-miterlimit="10" stroke-linecap="round" stroke-linejoin="round"/>
<path opacity="0.96" d="M61.1919 90.497C62.068 89.3585 63.0812 88.3328 64.0899 87.3095C64.2879 87.1086 64.4881 86.9066 64.6861 86.7057C65.4423 85.9391 66.1986 85.1725 67.0252 84.4818C67.2668 84.2806 67.5166 84.0838 67.7452 83.8693C68.0573 83.5773 68.3362 83.2507 68.615 82.9242C69.0035 82.471 69.294 82.1498 69.6812 81.6943" stroke="#221D1E" stroke-width="0.256579" stroke-miterlimit="10" stroke-linecap="round" stroke-linejoin="round"/>
<path opacity="0.96" d="M60.4462 89.8491C61.3223 88.7106 61.826 88.4375 62.8347 87.4142C63.0326 87.2134 63.7758 86.4334 63.976 86.2313C64.7323 85.4648 65.5386 84.7528 66.3652 84.0621C66.6068 83.8609 66.8567 83.6641 67.0852 83.4496C67.3974 83.1575 67.7765 82.6656 68.0531 82.3403C68.4415 81.8871 68.5734 81.7367 68.9618 81.2835" stroke="#221D1E" stroke-width="0.256579" stroke-miterlimit="10" stroke-linecap="round" stroke-linejoin="round"/>
<path opacity="0.96" d="M59.8069 89.1874C60.683 88.049 61.8381 87.1772 62.8468 86.1539C63.0448 85.953 63.6872 85.4995 63.8852 85.2986C64.6415 84.532 65.2989 83.9388 66.1255 83.2481C66.3671 83.0469 66.627 82.7394 66.8556 82.5249C67.1678 82.2329 68.0806 81.2323 68.3595 80.9058" stroke="#221D1E" stroke-width="0.256579" stroke-miterlimit="10" stroke-linecap="round" stroke-linejoin="round"/>
<path opacity="0.96" d="M41.594 45.0233C41.6873 45.0984 41.7506 45.2044 41.8104 45.3093C41.8569 45.3951 41.9022 45.4787 41.9465 45.5657" stroke="#221D1E" stroke-width="0.256579" stroke-miterlimit="10" stroke-linecap="round" stroke-linejoin="round"/>
<path opacity="0.96" d="M41.9445 45.5669C42.75 47.1496 43.0012 48.9334 43.3986 50.6526" stroke="#221D1E" stroke-width="0.7" stroke-miterlimit="10" stroke-linecap="round" stroke-linejoin="round"/>
<path opacity="0.96" d="M55.7214 58.481C56.2181 56.8586 57.4703 55.6214 58.6323 54.4011C59.933 53.0324 61.1719 51.6037 62.34 50.1199C62.4017 50.0397 62.4678 49.9512 62.4701 49.8477C62.4712 49.7419 62.4048 49.6464 62.3342 49.5648" stroke="#221D1E" stroke-width="0.7" stroke-miterlimit="10" stroke-linecap="round" stroke-linejoin="round"/>
<path opacity="0.96" d="M49.7869 54.4306C49.7838 53.4007 49.8681 52.3759 50.0312 51.3669C50.1189 50.8226 50.2332 50.2842 50.3209 49.7398C50.7537 47.0561 50.5876 44.1682 51.821 41.7751" stroke="#221D1E" stroke-width="0.7" stroke-miterlimit="10" stroke-linecap="round" stroke-linejoin="round"/>
<path opacity="0.96" d="M62.9883 70.8865C65.1544 70.1708 67.3624 69.5698 69.602 69.0919C70.5083 68.8986 71.4222 68.7245 72.3494 68.6397C73.405 68.5437 74.4771 68.5645 75.5278 68.4272C76.5786 68.29 77.6304 67.9769 78.4207 67.3" stroke="#221D1E" stroke-width="0.7" stroke-miterlimit="10" stroke-linecap="round" stroke-linejoin="round"/>
<path opacity="0.96" d="M27.7382 92.0274C29.8684 89.4667 29.6712 87.6155 32.5737 86.673C33.2492 86.4528 33.2567 86.4721 33.9182 86.2099C34.5492 85.9613 35.1566 85.6641 35.7628 85.3646C36.5625 84.969 37.0904 84.7354 37.8912 84.3421" stroke="#221D1E" stroke-width="0.7" stroke-miterlimit="10" stroke-linecap="round" stroke-linejoin="round"/>
<path opacity="0.96" d="M36.7315 87.1514C36.6856 89.713 36.6481 92.3227 37.3997 94.8084C37.809 96.1616 38.4447 97.4419 39.1256 98.6976" stroke="#221D1E" stroke-width="0.7" stroke-miterlimit="10" stroke-linecap="round" stroke-linejoin="round"/>
<path opacity="0.96" d="M45.5442 96.3864C49.3809 94.9139 49.1862 89.8496 51.2997 86.3686" stroke="#221D1E" stroke-width="0.7" stroke-miterlimit="10" stroke-linecap="round" stroke-linejoin="round"/>
<path opacity="0.96" d="M52.406 102.617C52.2315 102.036 52.1177 101.934 52.0181 101.702C51.931 101.504 51.8606 101.288 51.6994 101.141" stroke="#221D1E" stroke-width="0.7" stroke-miterlimit="10" stroke-linecap="round" stroke-linejoin="round"/>
<path opacity="0.96" d="M57.7213 87.3783C57.747 87.4258 57.7715 87.4709 57.7972 87.5184C59.2726 90.1962 61.5171 92.4277 62.9121 95.1461" stroke="#221D1E" stroke-width="0.7" stroke-miterlimit="10" stroke-linecap="round" stroke-linejoin="round"/>
<path opacity="0.96" d="M25.7889 96.8515C25.6618 96.7626 25.5064 96.7241 25.3574 96.7026C24.826 96.6225 22.4644 96.1641 21.9841 96.3778" stroke="#221D1E" stroke-width="0.7" stroke-miterlimit="10" stroke-linecap="round" stroke-linejoin="round"/>
<path opacity="0.96" d="M29.3429 63.9901C29.4636 63.4688 29.583 62.9452 29.7036 62.4239C29.7459 62.2431 29.7892 62.0589 29.8805 61.8984C30.0456 61.6101 30.3454 61.43 30.6317 61.2573C32.3556 60.2056 33.6235 58.092 34.9707 56.5987C37.8697 58.2533 41.5866 59.7507 44.8115 59.3114C45.7339 59.1854 46.6645 58.9613 47.421 58.443C48.7203 57.5515 49.2973 55.9586 49.8028 54.46C51.4424 55.9908 53.5223 57.2127 55.5173 58.2293C55.6143 58.279 55.7196 58.333 55.77 58.4313C55.8216 58.5319 55.8025 58.6475 55.7819 58.7551C55.4586 60.5465 55.7563 62.4484 56.478 64.1729C57.2008 65.894 58.3328 67.4428 59.6614 68.7828C60.5819 69.7098 61.6673 70.5797 62.9415 70.8006C63.619 70.9183 64.0672 71.5346 64.3444 72.1645C64.6217 72.7945 64.6575 73.4911 64.7202 74.1673C64.8287 75.3592 63.3657 76.3045 63.8158 77.4311C64.2682 78.5564 66.6476 79.8673 67.6162 80.6134C66.4132 82.119 64.986 83.6264 63.548 84.9088C63.1594 85.254 62.7614 85.5925 62.3634 85.931C61.517 86.6501 60.6719 87.3713 59.8255 88.0903C59.6042 88.2805 59.3555 88.3014 59.509 88.563C59.3261 88.1448 58.8747 88.1208 58.4697 87.902C58.2964 87.8089 58.1137 87.7414 57.9514 87.6307C57.6867 87.4498 57.5074 87.1729 57.333 86.9051C57.0772 86.509 56.825 86.1138 56.5693 85.7177C56.0043 84.8375 55.8072 87.0018 54.7988 86.7536C54.129 86.5908 52.7458 85.5814 52.177 85.9337C51.6082 86.2859 51.4968 86.1505 51.0463 86.6403C50.3985 86.3457 49.7272 86.1047 49.0407 85.9275C48.7961 85.8643 47.5504 87.5392 47.3108 87.5932C44.7796 88.1532 46.7861 85.1919 43.2647 85.2893C41.7728 85.3296 39.3325 84.7853 37.8867 84.3448C38.1925 83.9656 38.6432 83.8644 38.7736 83.3933C39.1192 82.1334 37.3638 82.378 36.9309 81.1105C36.7794 80.6695 36.5318 79.5822 36.2323 79.2185C35.6334 78.4912 34.7863 77.5273 33.9556 77.0893C33.3214 76.7551 33.8344 74.2734 33.2933 73.7982C32.2667 72.8965 31.6481 73.2056 30.6227 72.3062C31.448 71.7477 31.5157 71.6408 31.6596 70.6451C31.7855 69.7615 31.2798 68.8988 31.0129 68.0294C30.7911 67.3022 30.7337 66.5442 30.5358 65.8128C30.339 65.0778 29.9999 64.3879 29.3429 63.9901Z" stroke="#221D1E" stroke-width="1.3" stroke-miterlimit="10" stroke-linecap="round" stroke-linejoin="round"/>
<path opacity="0.96" d="M78.3583 70.9689C78.7571 70.3786 80.8754 68.7069 81.1605 69.847C81.3647 70.6656 81.4523 71.8836 81.2268 72.6751C80.8975 73.8356 79.5965 74.2605 80.2963 75.2925C80.5296 75.6365 80.9407 75.8287 81.1976 76.157C81.8146 76.9446 81.3003 78.0389 80.7775 78.8425C79.862 80.2479 79.5169 81.3848 78.6014 82.7901C78.2809 83.2824 78.5233 83.6916 77.9492 83.8509C77.4469 83.9918 76.2949 84.0231 75.7668 83.9763C75.4417 83.948 74.241 84.3477 73.736 84.1978C73.534 84.1378 73.3847 84.1428 73.3742 84.1719C73.0971 85.003 71.4639 85.7746 70.5748 86.6951C68.6389 88.7033 66.7031 90.7115 64.7694 92.7185C65.1962 94.7345 64.442 96.7392 63.6994 98.6089C63.1499 99.994 62.3416 101.581 60.8317 101.707C60.1611 101.764 59.496 101.502 58.8342 101.337C57.4397 100.992 56.6401 103.673 55.03 104.239C54.5664 104.403 52.6421 102.605 52.5378 102.65C52.1841 102.801 52.6574 102.962 52.3903 103.192C51.9326 103.776 51.6546 102.951 50.542 103.686C49.9549 104.074 49.4454 107.01 48.744 107.145C47.5663 107.371 44.7325 106.71 43.5625 106.961C42.9313 107.096 42.8963 107.291 42.2453 107.313C41.576 107.34 39.9543 108.149 39.3239 107.892C36.4912 106.748 36.8176 105.706 34.9008 105.001C34.7541 104.946 34.5867 104.852 33.6974 105.25C33.3713 105.397 33.1385 105.415 32.779 105.356C32.3744 105.289 32.0354 104.842 31.6404 104.717C28.4107 103.697 26.1027 100.594 22.8753 99.5738C22.248 99.3762 21.5829 99.2546 21.0284 98.8948C20.4914 98.546 20.1091 98.008 19.7422 97.4822C18.9276 96.3194 18.1141 95.1532 17.2995 93.9904C16.8191 93.304 16.3626 92.2949 16.9694 91.77C15.3946 90.2509 14.8459 87.7837 15.6506 85.8452C14.8874 86.0545 14.2092 85.262 13.7748 84.574C12.8478 83.1069 11.9196 81.6375 10.9903 80.1716C10.4128 79.2573 9.81097 78.2714 9.82756 77.2133C9.84065 76.3265 9.91601 75.1342 10.2268 74.3168C10.8214 72.767 11.2353 72.5601 10.775 70.9189C10.4673 69.8232 9.84593 67.2435 10.2637 66.2191C10.4423 65.7832 11.9592 64.727 11.9721 64.2495C11.9721 64.2495 12.2841 62.8792 12.9904 61.8533C13.3534 61.3262 13.6329 60.6398 13.8274 60.0229C13.605 58.9336 12.3706 56.8996 12.1941 55.1512C12.0625 53.852 14.6001 52.1721 15.1972 51.0417C17.0637 47.4988 18.6623 47.2078 23.2285 46.9676C23.2285 46.9676 23.6668 44.3803 23.4498 43.0747C23.3924 42.7317 23.3193 42.3651 23.4585 42.0558C23.5602 41.8283 23.764 41.6652 23.9733 41.5283C25.5363 40.5142 27.8233 40.7004 29.3022 41.9618C30.006 40.1715 32.0986 39.4548 33.9688 38.9317C35.6489 38.4621 37.9301 38.2334 38.7892 39.8016C39.4943 38.4987 40.9276 37.8005 42.2796 37.1785C43.0461 36.8242 43.8388 36.4645 44.6968 36.4406C45.5547 36.4167 46.5061 36.8185 46.8771 37.6052C48.2526 35.442 51.3887 34.9573 53.8969 35.8534C56.4052 36.7496 58.4039 38.7111 60.1957 40.7059C62.4763 39.8346 65.3906 40.7736 66.8355 42.8454C66.873 44.0789 67.6228 45.3001 68.7262 45.9176C69.6279 45.8612 70.3724 46.7113 70.7258 47.5571C71.0792 48.403 71.2265 49.343 71.7799 50.0834C72.4549 50.9887 74.004 52.1156 74.7228 52.9884C75.4942 53.9261 75.1563 55.3456 75.6503 56.4454C76.4698 58.2747 78.1335 58.1793 79.1567 59.9099C80.0495 61.4218 79.8526 62.3469 80.1106 64.0569C80.3121 65.3826 83.3641 66.4515 80.4562 69.3404" stroke="#221D1E" stroke-width="1.3" stroke-miterlimit="10" stroke-linecap="round" stroke-linejoin="round"/>
<path opacity="0.96" d="M30.3856 43.3998C31.7274 43.0932 33.239 43.4718 34.3214 44.39C34.8082 43.8542 35.4481 43.3904 36.1904 43.3795C36.8717 43.3695 37.507 43.7381 38.1352 44.0288C39.0633 44.4578 40.0556 44.741 41.0621 44.8616C41.2468 44.8842 41.4452 44.9052 41.5939 45.0233" stroke="#221D1E" stroke-width="1.3" stroke-miterlimit="10" stroke-linecap="round" stroke-linejoin="round"/>
<path opacity="0.96" d="M41.593 45.0267C42.6775 44.2078 43.19 43.4389 43.5996 42.1355C43.8886 41.2131 43.5117 39.8013 44.1406 39.0746C44.5158 38.6402 46.2674 38.351 46.8074 38.1342C47.0116 38.0527 46.7883 37.5922 46.7419 37.3719" stroke="#221D1E" stroke-width="1.3" stroke-miterlimit="10" stroke-linecap="round" stroke-linejoin="round"/>
<path opacity="0.96" d="M72.968 80.0054C72.7963 79.8881 72.7745 79.6486 72.8035 79.4488C72.968 78.3454 74.0155 77.6577 74.9729 77.1005C75.4748 76.808 75.9744 76.5166 76.4775 76.2263C77.0616 75.8862 77.6703 75.5211 77.9839 74.9244C78.4303 74.0715 78.1467 73.0095 78.1867 72.0322C78.2308 70.9708 78.6648 69.9873 79.1537 69.0618C79.3634 68.6616 79.5892 68.2587 79.6801 67.8119C79.771 67.3652 79.7069 66.8534 79.3951 66.4994C78.9447 65.9867 78.1807 65.9684 77.5104 65.9286C76.8412 65.891 76.0437 65.6922 75.7986 65.0623" stroke="#221D1E" stroke-width="1.3" stroke-miterlimit="10" stroke-linecap="round" stroke-linejoin="round"/>
<path opacity="0.96" d="M77.4275 75.6556C77.7408 76.3683 78.0687 77.1023 78.6273 77.6528C78.9208 77.9408 79.2686 78.1672 79.582 78.4327C79.8955 78.6982 80.1867 79.0196 80.303 79.4066" stroke="#221D1E" stroke-width="1.3" stroke-miterlimit="10" stroke-linecap="round" stroke-linejoin="round"/>
<path opacity="0.96" d="M63.1459 64.1549C64.1222 63.1258 65.423 62.4526 66.7652 61.9528C68.1062 61.4507 69.5087 61.1053 70.8585 60.6248C71.1425 60.5234 71.4286 60.415 71.7313 60.3911C72.2071 60.3524 72.6852 60.5227 73.1286 60.7207C73.9958 61.1126 74.867 61.6952 75.2078 62.5771C75.4745 63.2684 75.3735 64.0362 75.5798 64.7455C75.7524 65.3387 76.4594 65.5107 76.9781 65.8636" stroke="#221D1E" stroke-width="1.3" stroke-miterlimit="10" stroke-linecap="round" stroke-linejoin="round"/>
<path opacity="0.96" d="M39.1255 98.6975C39.3276 99.0702 39.5329 99.4381 39.7395 99.8083C39.8152 99.9426 39.8981 100.085 40.0351 100.159C40.1615 100.225 40.3073 100.219 40.4463 100.217C41.3438 100.207 42.2574 100.442 43.0564 100.891C43.2966 101.027 43.5328 101.183 43.7952 101.262C44.2888 101.413 44.8073 101.275 45.2954 101.156C46.4929 100.869 47.7268 100.709 48.9684 100.676C49.2797 100.668 49.6004 100.666 49.885 100.55C50.476 100.308 50.7509 99.6565 50.9888 99.0657C51.6567 97.4031 51.183 97.92 52.0742 96.373" stroke="#221D1E" stroke-width="1.3" stroke-miterlimit="10" stroke-linecap="round" stroke-linejoin="round"/>
<path opacity="0.96" d="M14.5358 67.6845C15.4762 66.6807 15.8991 65.4286 16.0104 64.0385C16.2965 64.2428 16.7315 64.4307 16.9354 64.1652C17.006 64.0744 17.0214 63.952 17.0336 63.8343C17.1498 62.7982 17.3007 61.7344 17.8477 60.8621C17.9667 60.6719 18.1043 60.4891 18.1823 60.2773C18.2372 60.1307 18.2618 59.9712 18.2981 59.8171C18.4326 59.262 18.7288 58.7682 19.002 58.2694C19.119 58.054 19.2366 57.8236 19.2157 57.5748C19.1948 57.3261 18.7728 56.5963 20.0665 56.4004" stroke="#221D1E" stroke-width="1.3" stroke-miterlimit="10" stroke-linecap="round" stroke-linejoin="round"/>
<path opacity="0.96" d="M22.4543 80.315C20.5593 80.3343 18.4992 80.1946 16.9909 78.9813C17.2729 78.6121 17.2388 78.0695 17.0346 77.6337C16.8305 77.1979 16.4785 76.8452 16.1349 76.5025C16.2301 76.1177 16.7415 75.9398 16.7963 75.5448C16.8167 75.3993 16.7705 75.2548 16.7198 75.1128C16.0476 73.2533 14.559 71.7312 13.9369 69.8562C13.7529 69.3013 13.9915 67.8656 14.5326 67.6833" stroke="#221D1E" stroke-width="1.3" stroke-miterlimit="10" stroke-linecap="round" stroke-linejoin="round"/>
<path opacity="0.96" d="M23.3502 87.7345C22.7522 88.5235 22.1519 89.3136 21.5539 90.1025C21.4944 90.1815 21.4306 90.2687 21.4351 90.3686C21.4386 90.4398 21.4718 90.5065 21.5061 90.5697C22.0948 91.6446 22.8754 92.6153 23.3961 93.7212C23.7598 94.4943 24.0088 95.347 24.5998 95.9735C25.0096 96.4059 25.549 96.6892 26.0429 97.0234C26.6555 97.4364 27.2114 97.9387 27.6855 98.5058C28.2409 99.1691 28.6962 99.9334 29.3939 100.449C29.6331 100.627 29.9024 100.773 30.1955 100.807C30.7611 100.874 31.2573 100.517 31.7874 100.347C32.1775 100.22 32.5962 100.195 33.0085 100.147C34.2797 100.001 35.5163 99.6459 36.6571 99.1034" stroke="#221D1E" stroke-width="1.3" stroke-miterlimit="10" stroke-linecap="round" stroke-linejoin="round"/>
<path opacity="0.96" d="M30.5811 43.361C29.9793 43.55 28.8314 44.3273 29.0685 45.3736C29.1561 45.7615 29.2541 46.1526 29.2511 46.5458C29.2457 47.215 28.7385 47.7619 28.6362 48.4194C28.5614 48.9012 28.7087 49.4263 28.5294 49.8771C28.5082 49.9296 28.4812 49.9822 28.4339 50.0136C28.3214 50.0864 28.1682 50.0087 28.0329 50.0178" stroke="#221D1E" stroke-width="1.3" stroke-miterlimit="10" stroke-linecap="round" stroke-linejoin="round"/>
<path opacity="0.96" d="M36.5691 99.1569C36.5886 99.085 36.6676 99.0421 36.7435 99.0419C36.8194 99.0417 36.8927 99.0691 36.966 99.0966C37.2782 99.2196 37.6074 99.3363 37.9376 99.3092C38.1624 99.2925 38.3768 99.2084 38.6022 99.2089C38.8976 99.2095 39.1806 99.3541 39.4485 99.4924" stroke="#221D1E" stroke-width="1.3" stroke-miterlimit="10" stroke-linecap="round" stroke-linejoin="round"/>
<path opacity="0.96" d="M22.4424 88.6535C22.188 87.9849 22.1166 87.255 22.234 86.5659C22.2531 86.4503 22.2789 86.3253 22.2236 86.2179C22.114 85.9997 21.8078 86.0225 21.5697 85.9821C21.1257 85.9072 20.7637 85.4606 20.7882 85.0206C20.8043 84.743 20.949 84.4979 21.0884 84.2646C21.3781 83.7802 21.6723 83.2933 22.0351 82.8628C22.483 82.3306 23.0629 81.8262 23.12 81.1231C23.1452 80.8084 23.0108 80.4312 22.705 80.3253" stroke="#221D1E" stroke-width="1.3" stroke-miterlimit="10" stroke-linecap="round" stroke-linejoin="round"/>
<path opacity="0.96" d="M28.6214 49.2339C28.0829 49.2863 26.4477 49.5153 26.1366 49.9441C25.8795 50.2998 25.8979 50.7866 25.9278 51.2351C25.9582 51.6687 25.9875 52.0999 26.0158 52.5347C26.0252 52.6815 26.0326 52.8353 25.9632 52.9606C25.8742 53.1199 25.6811 53.1896 25.5024 53.2426C24.7305 53.4683 23.9307 53.6156 23.12 53.6781C22.2027 53.7488 21.1841 53.7459 20.5215 54.3565C20.8849 54.741 21.6988 54.9163 21.6861 55.4317C21.6727 55.9621 20.8069 55.9932 20.3678 56.2722C20.2744 56.3316 20.1764 56.3935 20.0653 56.4041C19.8557 56.4271 19.6621 56.2749 19.4998 56.132" stroke="#221D1E" stroke-width="1.3" stroke-miterlimit="10" stroke-linecap="round" stroke-linejoin="round"/>
<path opacity="0.96" d="M70.957 60.6444C71.3269 60.2218 71.6258 59.7382 71.843 59.2171C71.9866 58.8675 72.093 58.4708 71.9657 58.1014C71.8741 57.8355 71.6715 57.618 71.4561 57.4309C70.1276 56.2691 68.2916 55.9875 66.6252 55.4474C66.2707 55.3327 65.9157 55.2008 65.6229 54.9679C65.5722 54.9282 65.5247 54.8838 65.5009 54.8237C65.4644 54.7295 65.5024 54.6271 65.5397 54.5396C65.6218 54.346 65.7094 54.1466 65.8599 54.0036C66.1474 53.7308 66.5942 53.7194 66.994 53.6751C67.6388 53.6031 68.2644 53.4041 68.8244 53.0947C68.8569 52.0337 68.0877 51.0246 68.148 49.9662C68.1718 49.5412 68.3296 49.137 68.35 48.711C68.372 48.2665 68.2435 47.8248 68.1472 47.3831C67.9982 46.704 67.8266 45.8268 67.8324 45.1369" stroke="#221D1E" stroke-width="1.3" stroke-miterlimit="10" stroke-linecap="round" stroke-linejoin="round"/>
<path opacity="0.96" d="M28.6216 49.2338C28.0831 49.2862 26.4479 49.5152 26.1368 49.944C25.8796 50.2997 25.8981 50.7865 25.9279 51.235C25.9584 51.6685 25.9877 52.0998 26.0159 52.5346C26.0254 52.6814 26.0328 52.8352 25.9634 52.9605C25.8744 53.1198 25.6813 53.1894 25.5026 53.2425C24.7307 53.4682 23.9309 53.6154 23.1202 53.678C22.2029 53.7487 21.1842 53.7458 20.5217 54.3563C20.8851 54.7409 21.699 54.9162 21.6863 55.4316C21.6728 55.962 20.8071 55.9931 20.368 56.272C20.2746 56.3315 20.1766 56.3934 20.0655 56.404C19.8559 56.427 19.6623 56.2748 19.5 56.1319C19.0348 55.7266 18.2947 55.2833 18.0781 54.7168C17.872 54.1857 17.8129 53.5485 17.7771 52.9921C17.703 51.8312 17.8838 50.6664 18.3259 49.6114" stroke="#221D1E" stroke-width="0.5" stroke-miterlimit="10" stroke-linecap="round" stroke-linejoin="round"/>
<path opacity="0.96" d="M29.6426 69.3393C27.9787 68.8417 26.2256 68.8746 24.5207 69.0128C22.8171 69.1533 21.1169 69.3972 19.3989 69.3117C17.6809 69.2262 15.906 68.777 14.5362 67.6844C15.4765 66.6807 15.8994 65.4285 16.0107 64.0384C16.2968 64.2427 16.7319 64.4306 16.9357 64.1652C17.0063 64.0743 17.0218 63.952 17.0339 63.8343C17.1501 62.7981 17.301 61.7343 17.848 60.862C17.967 60.6718 18.1046 60.4891 18.1827 60.2773C18.2376 60.1306 18.2622 59.9711 18.2984 59.817C18.4329 59.2619 18.7292 58.7681 19.0023 58.2693C19.1193 58.0539 19.2369 57.8235 19.216 57.5748" stroke="#221D1E" stroke-width="0.7" stroke-miterlimit="10" stroke-linecap="round" stroke-linejoin="round"/>
<path opacity="0.96" d="M35.087 79.2461C33.6478 79.0387 32.2138 79.337 30.7974 79.576C28.0503 80.0397 25.2593 80.2876 22.4541 80.3152C20.5591 80.3345 18.499 80.1948 16.9907 78.9815C17.2727 78.6123 17.2386 78.0697 17.0345 77.6339C16.8303 77.1981 16.4783 76.8454 16.1347 76.5027C16.23 76.1179 16.7414 75.9399 16.7961 75.545C16.8166 75.3994 16.7704 75.255 16.7197 75.113C16.0475 73.2534 14.5588 71.7314 13.9367 69.8564C13.7527 69.3015 13.9913 67.8658 14.5325 67.6834" stroke="#221D1E" stroke-width="0.7" stroke-miterlimit="10" stroke-linecap="round" stroke-linejoin="round"/>
</g>
</g>
<defs>
<clipPath id="clip0">
<rect width="150" height="150" fill="white"/>
</clipPath>
</defs>
</svg>
