<svg width="150" height="150" viewBox="0 0 150 150" fill="none" xmlns="http://www.w3.org/2000/svg">
<rect width="150" height="150" fill="white"/>
<path d="M56.0268 65.9058C55.8673 69.3216 56.1996 72.764 57.0103 76.0868" stroke="#221D1E" stroke-width="1.3" stroke-miterlimit="10" stroke-linecap="round"/>
<path d="M56.7717 75.5153C59.3502 86.002 65.8629 89.4045 70.5281 90.7071C71.6046 90.9995 73.6781 90.84 74.7812 90.6406C75.5255 90.5077 76.23 90.202 76.9078 89.8697C81.573 87.6235 85.8262 84.2476 88.0856 79.7153C90.1059 75.6615 90.3983 71.0495 90.6508 66.5571" stroke="#221D1E" stroke-width="1.3" stroke-miterlimit="10" stroke-linecap="round"/>
<path d="M71.3253 73.9734C72.3089 74.5981 73.6911 74.5981 74.688 73.9867" stroke="#221D1E" stroke-width="1.3" stroke-miterlimit="10" stroke-linecap="round"/>
<path d="M71.252 82.8339C72.2355 83.4586 73.6178 83.4586 74.6146 82.8472" stroke="#221D1E" stroke-width="1.3" stroke-miterlimit="10" stroke-linecap="round"/>
<path d="M66.567 78.4393C68.4676 79.1438 73.9569 80.9248 79.2999 78.2665" stroke="#221D1E" stroke-width="1.3" stroke-miterlimit="10" stroke-linecap="round"/>
<path d="M78.7021 66.278C79.7787 67.7533 81.9984 68.4045 83.7794 67.7666C84.63 67.4609 85.7066 67.1419 86.4642 66.6102" stroke="#221D1E" stroke-width="1.3" stroke-miterlimit="10" stroke-linecap="round"/>
<path d="M77.4524 62.2241C78.6486 61.3734 80.0707 60.7753 81.5726 60.6823C83.0613 60.5893 84.6296 61.0146 85.7062 61.9848" stroke="#221D1E" stroke-width="1.3" stroke-miterlimit="10" stroke-linecap="round"/>
<path d="M67.5369 66.5571C66.4603 68.0324 64.2407 68.6837 62.4597 68.0457C61.6091 67.74 60.5325 67.421 59.7749 66.8893" stroke="#221D1E" stroke-width="1.3" stroke-miterlimit="10" stroke-linecap="round"/>
<path d="M68.7865 61.945C67.5903 61.0944 66.1682 60.4963 64.6663 60.4033C63.1777 60.3102 61.6093 60.7355 60.5327 61.7058" stroke="#221D1E" stroke-width="1.3" stroke-miterlimit="10" stroke-linecap="round"/>
<path d="M91.0009 64.2272C94.3272 64.2272 94.9701 66.2912 95.3157 67.7266C95.4486 68.2716 95.5018 68.8431 95.4752 69.4013C95.4087 71.2754 94.2391 75.7279 90.6372 75.0102" stroke="#221D1E" stroke-width="1.3" stroke-miterlimit="10" stroke-linecap="round"/>
<path d="M56.0269 65.9058C53.1826 64.4172 51.6541 68.0191 51.5744 69.4944C51.5478 70.0526 51.5877 70.6241 51.7073 71.1691C52.106 73.0032 55.0035 76.3526 56.4655 75.7944" stroke="#221D1E" stroke-width="1.3" stroke-miterlimit="10" stroke-linecap="round"/>
<path d="M90.6607 65.966C90.6607 59.2282 89.848 57.2852 87.3286 53.7845C84.8092 50.2838 80.6555 47.9865 76.5836 48.5491" stroke="#221D1E" stroke-width="1.3" stroke-miterlimit="10" stroke-linecap="round"/>
<path d="M73.9038 39.2957C74.2494 41.9141 74.3823 44.559 74.2893 47.1907" stroke="#221D1E" stroke-width="1.3" stroke-miterlimit="10" stroke-linecap="round"/>
<path d="M93.5347 64.7627C99.5024 54.5285 92.4315 35.4823 76.2163 36.3063" stroke="#221D1E" stroke-width="1.3" stroke-miterlimit="10" stroke-linecap="round"/>
<path d="M72.9563 35.8087C67.0285 33.1638 42.8985 40.1738 51.8097 66.8161" stroke="#221D1E" stroke-width="1.3" stroke-miterlimit="10" stroke-linecap="round"/>
<path d="M72.0025 48.0558C67.8424 48.0159 63.895 50.1026 61.0506 52.9336C58.1931 55.7779 56.0133 61.1609 56.0133 65.5469" stroke="#221D1E" stroke-width="1.3" stroke-miterlimit="10" stroke-linecap="round"/>
<path d="M90.6372 75.3292C93.6995 84.3007 104.356 89.0855 106.776 98.2431" stroke="#221D1E" stroke-width="1.3" stroke-miterlimit="10" stroke-linecap="round"/>
<path d="M56.4784 76.3925C55.5584 79.4893 53.8289 82.4266 51.4186 84.9918C49.3947 87.1583 46.9108 89.0323 44.7581 91.119C42.6054 93.2057 40.7287 95.5981 40.2687 98.2431" stroke="#221D1E" stroke-width="1.3" stroke-miterlimit="10" stroke-linecap="round"/>
<path d="M76.6282 104.414C78.0769 102.7 80.2567 101.53 82.5826 101.237" stroke="#221D1E" stroke-width="1.3" stroke-miterlimit="10" stroke-linecap="round"/>
<path d="M69.6102 104.414C68.1615 102.7 65.9817 101.53 63.6558 101.237" stroke="#221D1E" stroke-width="1.3" stroke-miterlimit="10" stroke-linecap="round"/>
<path d="M110.454 108.711C105.706 100.313 96.3998 102.459 87.6041 99.0227C84.9991 98.2385 82.4524 96.4645 81.2165 88.4788" stroke="#221D1E" stroke-width="1.3" stroke-miterlimit="10" stroke-linecap="round"/>
<path d="M35.0887 108.685C39.8373 100.286 49.1434 102.433 57.9391 98.9961C60.5441 98.2119 63.1535 97.4152 64.4844 88.3837" stroke="#221D1E" stroke-width="1.3" stroke-miterlimit="10" stroke-linecap="round"/>
<path d="M104.299 64.6458C110.373 64.6458 111.25 72.7135 111.25 72.7135C111.25 65.4964 118.055 64.6458 118.055 64.6458C111.17 64.6458 111.17 55.9667 111.17 55.9667C111.17 65.0445 104.299 64.6458 104.299 64.6458Z" stroke="#221D1E" stroke-width="1.3" stroke-miterlimit="10" stroke-linejoin="round"/>
<path d="M28.1411 79.9601C32.5139 79.9601 32.7797 85.8879 32.7797 85.8879C32.7797 79.9601 37.3253 79.9601 37.3253 79.9601C32.9126 79.9601 32.7398 73.5803 32.7398 73.5803C32.7266 79.9202 28.1411 79.9601 28.1411 79.9601Z" stroke="#221D1E" stroke-width="1.3" stroke-miterlimit="10" stroke-linejoin="round"/>
<path d="M116.452 88.1877C120.121 88.1877 120.344 93.1623 120.344 93.1623C120.344 88.1877 124.159 88.1877 124.159 88.1877C120.456 88.1877 120.311 82.8339 120.311 82.8339C120.3 88.1543 116.452 88.1877 116.452 88.1877Z" stroke="#221D1E" stroke-width="1.3" stroke-miterlimit="10" stroke-linejoin="round"/>
</svg>
