<svg width="150" height="150" viewBox="0 0 150 150" fill="none" xmlns="http://www.w3.org/2000/svg">
<rect width="150" height="150" fill="white"/>
<path d="M22.8987 81.8585C22.4905 80.5673 22.1926 79.2548 22.0977 77.9446C21.9764 76.2554 22.2257 74.5641 22.5148 72.896C22.9693 70.2628 23.4261 67.8624 24.7853 65.5021C25.7032 63.9124 26.6521 62.3714 28.19 61.2707C28.8255 60.8156 29.4434 60.3711 29.7369 60.0641C30.0303 59.7572 31.8419 58.2458 32.067 58.0977C32.2921 57.9495 34.1036 56.6328 34.5935 56.3725C39.5627 53.7371 45.3307 52.23 50.9419 51.5674C55.0793 51.0784 59.2541 51.0615 63.4157 51.0488C65.5715 51.0424 67.7273 51.0403 69.8831 50.9726C71.8381 50.9112 73.7269 50.5196 75.6533 50.4688C78.9543 50.382 82.1119 51.1017 85.3776 51.1885C87.1892 51.1885 89.0074 51.2816 90.819 51.3324C92.3062 51.3748 94.0119 51.0213 95.455 51.3875C95.6757 51.4425 96.9246 51.5124 97.4078 51.6521C97.8932 51.7918 99.0076 51.7346 99.2878 51.7918C99.5658 51.8468 102.064 52.1537 102.328 52.1961C102.593 52.2384 104.325 52.6406 105.369 52.9899C106.413 53.337 109.012 53.8662 109.35 53.9636C109.687 54.061 110.495 54.2282 111.627 54.6452C112.759 55.0622 116.122 56.4826 116.4 56.6074C116.678 56.7323 118.191 57.3441 119.409 58.5549C120.628 59.7657 122.507 61.4337 122.507 61.4337C122.507 61.4337 124.226 63.1864 125.299 65.0089C126.371 66.8315 126.254 67.2358 126.343 67.8602C126.431 68.4868 127.018 68.6942 127.15 69.1409C127.283 69.5854 127.355 70.4618 127.428 70.6861C127.501 70.9084 128.207 72.2017 127.958 72.6886C127.708 73.1755 127.649 73.4676 127.781 73.8147C127.914 74.1619 127.898 74.636 127.737 74.9006C127.576 75.1652 127.971 75.7918 127.942 76.0839C127.914 76.376 127.677 78.7003 127.677 78.9924C127.677 79.2845 127.737 80.9821 127.399 81.5389C127.062 82.0956 127.428 82.5824 127.077 83.1666C126.726 83.7509 126.711 84.642 126.387 85.2665C126.064 85.8931 126.02 86.5048 125.447 87.4933C124.873 88.4819 125.169 88.5792 124.579 89.5932C123.993 90.6092 123.346 91.6655 122.554 92.4445C121.762 93.2235 120.541 94.5443 120.409 94.6417C120.277 94.7391 118.088 96.4494 115.314 97.5629C113.948 98.092 113.463 97.9799 112.891 98.1323C112.32 98.2847 111.32 98.6466 110.952 98.7017C110.583 98.7567 110.012 98.6043 109.498 98.8689C108.983 99.1335 108.602 98.8414 108.264 98.9663C107.927 99.0912 107.397 99.3007 106.927 99.2732C106.457 99.2457 105.722 99.0933 105.488 99.1483C105.254 99.2034 104.696 98.9959 104.475 98.8837C104.255 98.7715 103.476 99.106 103.081 98.9811C102.684 98.8562 102.024 98.8012 101.598 98.7863C101.172 98.7715 100.938 98.4794 100.629 98.4519C100.32 98.4244 99.0429 98.3545 97.7366 97.728C96.4303 97.1014 94.0649 96.0853 93.1249 95.5583C92.1849 95.0312 87.5731 92.5673 87.1186 92.3175C83.4844 90.3171 78.9543 87.7897 74.6471 88.0882C73.3717 88.1771 72.1316 88.5284 70.9092 88.8883C67.3279 89.9446 64.4726 91.475 61.2929 93.3145C58.142 95.137 54.7086 96.4431 51.2487 97.6137C49.8343 98.092 48.3956 98.5408 46.9039 98.6826C45.8845 98.78 44.8562 98.7313 43.8324 98.6847C39.3376 98.4731 34.4854 98.1069 31.0321 95.0439C30.1076 94.2226 29.2117 93.2912 28.2121 92.0381C27.2125 90.7849 25.9349 89.1021 24.9663 86.9747C24.2226 85.3469 23.457 83.6218 22.8987 81.8585Z" stroke="#221D1E" stroke-miterlimit="10" stroke-linecap="round" stroke-linejoin="round"/>
<path d="M131.399 81.8192C131.399 81.8192 131.025 83.1449 130.944 83.5783C130.863 84.0117 130.613 85.8148 130.469 86.3108C130.323 86.8068 129.704 89.5393 128.937 90.7607C128.172 91.9821 127.489 93.1409 127.489 93.1409C127.489 93.1409 127.014 93.7829 125.998 94.8374C124.983 95.8919 123.762 97.2176 123.762 97.2176C123.762 97.2176 120.534 99.7021 117.986 100.778C115.439 101.853 113.785 102.309 113.537 102.414C113.289 102.518 112.895 102.724 111.984 102.745C111.073 102.766 109.272 103.118 107.761 102.972C106.25 102.826 104.366 102.703 103.084 102.476C101.802 102.249 98.4279 101.234 97.0813 100.801C95.7348 100.365 95.2805 99.7856 93.8946 99.0416C92.5086 98.2953 90.1284 97.1365 89.6301 96.8677C85.3935 94.5732 81.1522 91.7573 76.1762 91.5603C73.161 91.4397 70.2152 92.3459 67.4967 93.5836C65.2393 94.6103 63.2901 96.0912 61.1069 97.2408C59.2042 98.242 57.3431 99.3174 55.4357 100.309C52.476 101.851 49.3635 102.699 46.0539 103.067C40.7789 103.654 35.1702 103.028 30.5164 100.333C25.5822 97.4749 22.7106 92.1466 20.5761 87.0293C15.9431 75.9255 18.9537 63.1136 28.6646 56.0448C37.2237 49.8126 47.3772 47.2632 57.9155 47.2169C61.3109 47.203 64.8546 47.2285 68.3055 47.1589C71.7032 47.0894 75.182 46.5772 78.5541 46.7765C84.8836 47.1497 91.2293 47.5321 97.5541 47.7499C98.7547 47.7917 102.231 48.1022 103.682 48.5773C105.13 49.0525 106.414 48.9505 107.636 49.3422C108.857 49.7338 112.563 50.8115 112.997 50.8533C113.432 50.895 116.804 51.8892 117.467 52.3435C118.13 52.7978 120.054 53.8963 121.131 54.7446C122.207 55.5928 123.159 56.0285 124.008 57.1665C124.856 58.3045 127.463 60.5618 127.899 61.431C128.335 62.3001 130.217 65.0117 131.127 67.8694C131.665 69.1116 131.623 70.1059 131.623 70.1059C131.623 70.1059 131.934 74.1223 132.017 74.8246C132.101 75.5292 131.832 79.3996 131.811 79.5642C131.79 79.7287 131.811 81.4693 131.396 81.7381" stroke="#221D1E" stroke-width="1.3" stroke-miterlimit="10" stroke-linecap="round" stroke-linejoin="round"/>
<path d="M59.0941 51.4173C59.0813 51.6019 59.0228 51.7756 58.9514 51.9313C58.8801 52.0869 58.7884 52.2245 58.6891 52.3439C58.4879 52.5792 58.2485 52.7457 57.9963 52.8217C58.1033 52.7167 58.2103 52.6262 58.3122 52.5249C58.414 52.4235 58.5134 52.3222 58.6076 52.21C58.7018 52.1014 58.7884 51.9783 58.8725 51.8516C58.9565 51.7141 59.0304 51.5766 59.0941 51.4173Z" fill="#221D1E" stroke="#221D1E" stroke-width="0.6" stroke-linecap="round" stroke-linejoin="round"/>
<path d="M60.2726 51.4899C60.2701 52.0871 60.2397 52.6771 60.2117 53.2671C60.1813 53.8571 60.1483 54.4434 60.1382 55.0371C60.0899 54.7439 60.0773 54.4434 60.0696 54.1466C60.062 53.8498 60.0722 53.5494 60.0849 53.2526C60.1179 52.659 60.1711 52.069 60.2726 51.4899Z" fill="#221D1E" stroke="#221D1E" stroke-width="0.6" stroke-linecap="round" stroke-linejoin="round"/>
<path d="M66.4882 51.2008C66.524 51.8053 66.5291 52.4061 66.5342 53.0106V53.9119C66.5342 54.2123 66.5342 54.5127 66.5521 54.8131C66.4831 54.5236 66.4576 54.2195 66.4371 53.9191C66.4167 53.6187 66.409 53.3146 66.4065 53.0106C66.4039 52.4061 66.4243 51.8017 66.4882 51.2008Z" fill="#221D1E" stroke="#221D1E" stroke-width="0.6" stroke-linecap="round" stroke-linejoin="round"/>
<path d="M68.3728 51.1092C68.4289 51.9526 68.4545 52.7923 68.4851 53.632L68.5284 54.8917C68.5361 55.1016 68.5437 55.3115 68.5591 55.5215C68.5693 55.7314 68.5871 55.9377 68.6228 56.144C68.5055 55.7531 68.4723 55.3224 68.4315 54.9061C68.3932 54.4863 68.3754 54.0628 68.3601 53.6429C68.332 52.7959 68.3294 51.9526 68.3728 51.1092Z" fill="#221D1E" stroke="#221D1E" stroke-width="0.6" stroke-linecap="round" stroke-linejoin="round"/>
<path d="M71.1769 51.2431C71.1973 51.5797 71.2431 51.8946 71.3272 52.1914C71.3679 52.3398 71.4189 52.481 71.4775 52.6185C71.5335 52.7597 71.6073 52.8864 71.6761 53.0239C71.4647 52.8611 71.2992 52.5787 71.2075 52.2566C71.1209 51.9344 71.098 51.5652 71.1769 51.2431Z" fill="#221D1E" stroke="#221D1E" stroke-width="0.6" stroke-linecap="round" stroke-linejoin="round"/>
<path d="M90.9367 52.8961C90.4332 54.2242 89.9297 55.5465 89.4826 56.9089C89.245 57.5786 89.0355 58.2712 88.8261 58.9582C88.6126 59.6451 88.4273 60.3492 88.2339 61.0533C88.4555 59.5707 88.8502 58.151 89.3014 56.7829C89.539 56.1075 89.7807 55.432 90.0546 54.7794C90.3245 54.1383 90.6145 53.4972 90.9367 52.8961Z" fill="#221D1E" stroke="#221D1E" stroke-width="0.6" stroke-linecap="round" stroke-linejoin="round"/>
<path d="M23.1439 80.3099C23.3368 80.3572 23.5209 80.4087 23.7094 80.458C23.8957 80.5095 24.0819 80.5589 24.2682 80.6297C24.1674 80.6362 24.0688 80.6297 23.9702 80.619C23.8715 80.6083 23.7751 80.5868 23.6787 80.5611C23.5844 80.5332 23.4902 80.5031 23.4003 80.4602C23.3083 80.4194 23.2206 80.3743 23.1439 80.3099Z" fill="#221D1E" stroke="#221D1E" stroke-width="0.6" stroke-linecap="round" stroke-linejoin="round"/>
<path d="M127.556 82.0423C127.152 82.1082 126.766 82.1802 126.371 82.2491C125.981 82.3211 125.59 82.39 125.2 82.4889C125.411 82.4979 125.618 82.4889 125.825 82.4739C126.031 82.4589 126.233 82.429 126.435 82.393C126.633 82.354 126.83 82.3121 127.019 82.2521C127.212 82.1952 127.395 82.1322 127.556 82.0423Z" fill="#221D1E" stroke="#221D1E" stroke-width="0.6" stroke-linecap="round" stroke-linejoin="round"/>
<path d="M23.7256 82.0544C23.7804 82.1315 23.8549 82.1937 23.9338 82.2473C24.0105 82.303 24.0916 82.3501 24.1771 82.3908C24.348 82.4723 24.5233 82.543 24.7074 82.5966C24.8893 82.6544 25.0756 82.6973 25.2619 82.7423L25.8296 82.858C25.7331 82.8602 25.6345 82.8537 25.5381 82.8516L25.2466 82.8237C25.0537 82.798 24.8609 82.7573 24.6724 82.6994C24.4861 82.6416 24.302 82.5666 24.1332 82.4637C23.9689 82.3587 23.8045 82.2323 23.7256 82.0544Z" fill="#221D1E" stroke="#221D1E" stroke-width="0.6" stroke-linecap="round" stroke-linejoin="round"/>
<path d="M126.337 84.4785C126.222 84.5863 126.066 84.673 125.901 84.7479C125.74 84.8257 125.57 84.8915 125.391 84.9484C125.033 85.0621 124.665 85.1609 124.28 85.2357C123.898 85.3165 123.508 85.3763 123.117 85.4392L121.928 85.6008C122.13 85.6038 122.337 85.5948 122.539 85.5918L123.15 85.5529C123.554 85.517 123.958 85.4601 124.353 85.3793C124.743 85.2985 125.129 85.1938 125.483 85.0501C125.827 84.9035 126.172 84.7269 126.337 84.4785Z" fill="#221D1E" stroke="#221D1E" stroke-width="0.6" stroke-linecap="round" stroke-linejoin="round"/>
<path d="M52.1766 56.066C52.2988 55.9357 52.3982 55.7728 52.5051 55.6172C52.6096 55.4615 52.714 55.3023 52.8159 55.143C53.0196 54.8208 53.2259 54.5023 53.4246 54.1766C53.6232 53.8508 53.8168 53.5178 54.0027 53.1776C54.1836 52.8337 54.3619 52.4826 54.4714 52.0772C54.4128 52.5079 54.2473 52.8952 54.0817 53.2608C53.9111 53.6264 53.7175 53.9666 53.5188 54.296C53.3151 54.6218 53.1062 54.9403 52.8846 55.2407C52.6605 55.5339 52.444 55.8488 52.1766 56.066Z" fill="#221D1E" stroke="#221D1E" stroke-width="0.6" stroke-linecap="round" stroke-linejoin="round"/>
<path d="M74.2816 88.1454C74.4625 88.0285 74.6059 87.8717 74.7288 87.7014C74.8585 87.5345 74.9643 87.3543 75.0633 87.1707C75.2579 86.8001 75.4252 86.4129 75.5584 86.0157C75.7086 85.6251 75.8212 85.2179 75.9407 84.814L76.2718 83.5922C76.2479 83.8025 76.2172 84.0128 76.1865 84.2231L76.067 84.8473C75.9714 85.2613 75.8588 85.6719 75.7188 86.0724C75.572 86.473 75.4047 86.8669 75.1794 87.2341C74.9507 87.5913 74.681 87.9584 74.2816 88.1454Z" fill="#221D1E" stroke="#221D1E" stroke-width="0.6" stroke-linecap="round" stroke-linejoin="round"/>
<path d="M72.1411 88.6126C72.4006 88.4991 72.5884 88.2888 72.7522 88.0752C72.9127 87.8549 73.0561 87.6212 73.1824 87.3809C73.4384 86.8969 73.6364 86.3828 73.8583 85.8721C73.8105 86.1458 73.7422 86.4162 73.6569 86.6832C73.5715 86.9503 73.4623 87.2073 73.336 87.4577C73.2028 87.7047 73.0492 87.9484 72.8546 88.1587C72.66 88.3589 72.4279 88.5659 72.1411 88.6126Z" fill="#221D1E" stroke="#221D1E" stroke-width="0.6" stroke-linecap="round" stroke-linejoin="round"/>
<path d="M67.3924 89.4404C67.645 89.3069 67.9181 89.2301 68.181 89.1366C68.4472 89.0432 68.7135 88.9564 68.973 88.8596C69.2358 88.7661 69.4919 88.6626 69.7411 88.5424C69.864 88.4824 69.9835 88.4123 70.0859 88.3255C70.1917 88.2453 70.2771 88.1352 70.3009 87.995C70.3214 88.1352 70.2395 88.2787 70.1439 88.3822C70.0449 88.489 69.9254 88.5725 69.8059 88.6526C69.5636 88.8062 69.2973 88.9163 69.031 89.0164C68.7647 89.1099 68.4916 89.1934 68.2151 89.2568C67.942 89.3269 67.6655 89.3736 67.3924 89.4404Z" fill="#221D1E" stroke="#221D1E" stroke-width="0.6" stroke-linecap="round" stroke-linejoin="round"/>
<path d="M76.8726 88.1285C76.9477 87.9749 77.016 87.8481 77.0672 87.7079C77.0945 87.6412 77.115 87.5711 77.1389 87.4976L77.2071 87.2673C77.2891 87.4175 77.2891 87.6044 77.2276 87.7647C77.1628 87.9249 77.0399 88.0717 76.8726 88.1285Z" fill="#221D1E" stroke="#221D1E" stroke-width="0.6" stroke-linecap="round" stroke-linejoin="round"/>
<path d="M80.0476 88.5993C79.7676 88.4925 79.5355 88.2922 79.358 88.0519C79.1873 87.8116 79.0814 87.5011 79.1361 87.2107C79.1804 87.3509 79.2214 87.4811 79.2863 87.6046C79.3511 87.7248 79.416 87.8449 79.4979 87.9551C79.655 88.1821 79.8461 88.3857 80.0476 88.5993Z" fill="#221D1E" stroke="#221D1E" stroke-width="0.6" stroke-linecap="round" stroke-linejoin="round"/>
<path d="M84.1099 89.9545C83.6252 89.7843 83.1985 89.4538 82.8878 89.0432C82.7342 88.8363 82.6045 88.6093 82.5225 88.3656C82.4303 88.1253 82.3962 87.8716 82.3928 87.6179C82.4679 87.8582 82.5328 88.0952 82.6454 88.3155C82.7478 88.5358 82.8741 88.7495 83.0244 88.9431C83.3179 89.337 83.69 89.6708 84.1099 89.9545Z" fill="#221D1E" stroke="#221D1E" stroke-width="0.6" stroke-linecap="round" stroke-linejoin="round"/>
<path d="M39.6136 97.9291C39.155 97.8143 38.7185 97.6135 38.326 97.348C37.9371 97.0826 37.5886 96.7454 37.3465 96.3472C37.5262 96.4979 37.695 96.6557 37.8784 96.7956C38.0618 96.9355 38.2416 97.0754 38.4323 97.201C38.6194 97.3337 38.8175 97.4521 39.012 97.574L39.6136 97.9291Z" fill="#221D1E" stroke="#221D1E" stroke-width="0.6" stroke-linecap="round" stroke-linejoin="round"/>
<path d="M43.2272 97.8969C42.9264 97.7749 42.6439 97.6242 42.3798 97.4449C42.2514 97.3516 42.1193 97.2584 42.0056 97.1472C41.8919 97.036 41.7708 96.9176 41.7048 96.7705C41.8295 96.8709 41.9616 96.9534 42.0937 97.0395C42.2257 97.122 42.3578 97.2117 42.4862 97.3014C42.6146 97.3911 42.7466 97.4808 42.8677 97.5812C42.9924 97.678 43.1208 97.7749 43.2272 97.8969Z" fill="#221D1E" stroke="#221D1E" stroke-width="0.6" stroke-linecap="round" stroke-linejoin="round"/>
<path d="M48.1832 98.0691C48.0255 98.0691 47.8751 98.0189 47.7357 97.9543C47.5926 97.8897 47.4642 97.8001 47.3505 97.696C47.2404 97.5884 47.1377 97.4701 47.0643 97.3337C46.9873 97.201 46.9323 97.0575 46.9066 96.9105C47.0937 97.1508 47.2661 97.3732 47.4789 97.5669C47.6843 97.7606 47.9154 97.9256 48.1832 98.0691Z" fill="#221D1E" stroke="#221D1E" stroke-width="0.6" stroke-linecap="round" stroke-linejoin="round"/>
<path d="M51.617 97.2701C51.4959 97.2881 51.3712 97.2737 51.2538 97.2486C51.1327 97.2234 51.0227 97.1767 50.9163 97.1192C50.7072 97.0007 50.5201 96.8282 50.4174 96.6127C50.5238 96.6737 50.6155 96.7384 50.7145 96.7959C50.8099 96.8534 50.9053 96.9109 51.0043 96.9648C51.2024 97.0725 51.4005 97.1659 51.617 97.2701Z" fill="#221D1E" stroke="#221D1E" stroke-width="0.6" stroke-linecap="round" stroke-linejoin="round"/>
<path d="M33.4402 96.7941C33.2802 96.7341 33.1904 96.5734 33.1224 96.4298C33.0545 96.2798 33.0172 96.1212 32.9931 95.9605C32.9471 95.639 32.969 95.3133 33.0435 95.0026C33.0523 95.1633 33.0479 95.3219 33.0589 95.4783C33.0676 95.6348 33.0786 95.7912 33.1027 95.9455C33.1246 96.0998 33.1553 96.2519 33.2013 96.3998C33.2233 96.4748 33.2539 96.5455 33.2912 96.6141C33.3263 96.6827 33.3745 96.747 33.4402 96.7941Z" fill="#221D1E" stroke="#221D1E" stroke-width="0.6" stroke-linecap="round" stroke-linejoin="round"/>
<path d="M25.0002 85.5261C25.18 85.6076 25.3421 85.7128 25.5043 85.8158L25.741 85.9768C25.8221 86.0283 25.8944 86.0884 25.9887 86.1185C25.8857 86.1313 25.7892 86.0863 25.6994 86.0476C25.6095 86.009 25.524 85.9575 25.443 85.9038C25.283 85.7965 25.1296 85.6763 25.0002 85.5261Z" fill="#221D1E" stroke="#221D1E" stroke-width="0.6" stroke-linecap="round" stroke-linejoin="round"/>
<path d="M123.666 89.3268C123.289 89.4407 122.949 89.5876 122.609 89.7314L122.113 89.9562C121.943 90.0282 121.792 90.1121 121.594 90.1541C121.81 90.1721 122.012 90.1091 122.201 90.0552C122.389 90.0012 122.568 89.9293 122.738 89.8543C123.073 89.7045 123.395 89.5366 123.666 89.3268Z" fill="#221D1E" stroke="#221D1E" stroke-width="0.6" stroke-linecap="round" stroke-linejoin="round"/>
<path d="M99.2988 52.8793C99.1619 53.0969 99.0491 53.3316 98.9403 53.5662C98.8356 53.8067 98.7309 54.0471 98.6382 54.299C98.4368 54.7913 98.2636 55.3064 98.0461 55.8045C98.0783 55.5125 98.1387 55.232 98.2032 54.9573C98.2717 54.6825 98.3603 54.4134 98.461 54.1559C98.5617 53.8983 98.6785 53.6521 98.8155 53.4289C98.9524 53.2171 99.1055 52.9995 99.2988 52.8793Z" fill="#221D1E" stroke="#221D1E" stroke-width="0.6" stroke-linecap="round" stroke-linejoin="round"/>
<path d="M23.2784 72.2766C23.331 72.1757 23.4209 72.0985 23.5129 72.0319C23.605 71.9633 23.708 71.9139 23.8132 71.871C23.9184 71.8302 24.028 71.798 24.1398 71.7787L24.3085 71.7551C24.3655 71.7529 24.4225 71.7486 24.4795 71.7508C24.2669 71.828 24.0565 71.8903 23.8548 71.9718C23.754 72.0105 23.6554 72.0556 23.5568 72.1028C23.4603 72.1521 23.3661 72.2058 23.2784 72.2766Z" fill="#221D1E" stroke="#221D1E" stroke-width="0.6" stroke-linecap="round" stroke-linejoin="round"/>
<path d="M127.274 70.8236C127.164 70.6827 126.976 70.5748 126.783 70.4819C126.59 70.3859 126.374 70.317 126.154 70.2571C125.933 70.2001 125.703 70.1551 125.469 70.1282L125.115 70.0952C124.996 70.0922 124.877 70.0862 124.757 70.0892C125.203 70.1971 125.644 70.284 126.066 70.3979C126.278 70.4519 126.484 70.5148 126.691 70.5808C126.893 70.6497 127.091 70.7247 127.274 70.8236Z" fill="#221D1E" stroke="#221D1E" stroke-width="0.6" stroke-linecap="round" stroke-linejoin="round"/>
<path d="M24.0425 68.9849C24.0688 68.9076 24.1258 68.8475 24.1806 68.7917C24.2375 68.7359 24.3055 68.6887 24.3734 68.6501C24.5137 68.5728 24.6715 68.5234 24.8337 68.5256C24.7635 68.5685 24.6934 68.5986 24.6276 68.635L24.4282 68.7424C24.3625 68.7767 24.2989 68.8175 24.2332 68.8561C24.1696 68.8969 24.1038 68.9355 24.0425 68.9849Z" fill="#221D1E" stroke="#221D1E" stroke-width="0.6" stroke-linecap="round" stroke-linejoin="round"/>
<path d="M125.673 66.2266C125.618 66.1187 125.499 66.0348 125.384 65.9569C125.264 65.8789 125.122 65.813 124.98 65.759C124.686 65.6511 124.355 65.5822 124.015 65.5852C124.162 65.6451 124.309 65.6871 124.447 65.738L124.865 65.8879C125.002 65.9359 125.136 65.9928 125.273 66.0468C125.407 66.1037 125.544 66.1577 125.673 66.2266Z" fill="#221D1E" stroke="#221D1E" stroke-width="0.6" stroke-linecap="round" stroke-linejoin="round"/>
<path d="M132.412 72.2357L141.009 74.5608C141.398 74.665 141.952 75.2202 142.01 75.4522C142.686 78.1891 142.209 82.0573 141.718 83.5222C141.573 83.9627 140.727 84.6222 139.964 84.4371L132.033 82.7089" stroke="#221D1E" stroke-width="1.3" stroke-miterlimit="10" stroke-linecap="round" stroke-linejoin="round"/>
<path d="M133.596 72.7179C133.596 72.7179 134.622 76.4818 133.247 82.9278" stroke="#221D1E" stroke-width="0.4" stroke-miterlimit="10" stroke-linecap="round" stroke-linejoin="round"/>
<path d="M134.88 73.096C134.88 73.096 135.905 76.8599 134.53 83.306" stroke="#221D1E" stroke-width="0.4" stroke-miterlimit="10" stroke-linecap="round" stroke-linejoin="round"/>
<path d="M136.042 73.401C136.042 73.401 137.067 77.1649 135.692 83.611" stroke="#221D1E" stroke-width="0.4" stroke-miterlimit="10" stroke-linecap="round" stroke-linejoin="round"/>
<path d="M137.31 73.5727C137.31 73.5727 138.336 77.3366 136.961 83.7826" stroke="#221D1E" stroke-width="0.4" stroke-miterlimit="10" stroke-linecap="round" stroke-linejoin="round"/>
<path d="M138.306 73.9222C138.306 73.9222 139.331 77.6861 137.956 84.1321" stroke="#221D1E" stroke-width="0.4" stroke-miterlimit="10" stroke-linecap="round" stroke-linejoin="round"/>
<path d="M139.384 74.1255C139.384 74.1255 140.41 77.8894 139.034 84.3355" stroke="#221D1E" stroke-width="0.4" stroke-miterlimit="10" stroke-linecap="round" stroke-linejoin="round"/>
<path d="M140.493 74.2686C140.493 74.2686 141.518 78.0325 140.143 84.4785" stroke="#221D1E" stroke-width="0.4" stroke-miterlimit="10" stroke-linecap="round" stroke-linejoin="round"/>
<path d="M18.0639 72.2357L9.46739 74.5608C9.07863 74.665 8.52464 75.2202 8.46632 75.4522C7.79085 78.1891 8.26708 82.0573 8.7579 83.5222C8.90368 83.9627 9.74924 84.6222 10.5122 84.4371L18.4429 82.7089" stroke="#221D1E" stroke-width="1.3" stroke-miterlimit="10" stroke-linecap="round" stroke-linejoin="round"/>
<path d="M16.8799 72.7179C16.8799 72.7179 15.8546 76.4818 17.2298 82.9278" stroke="#221D1E" stroke-width="0.4" stroke-miterlimit="10" stroke-linecap="round" stroke-linejoin="round"/>
<path d="M15.5965 73.096C15.5965 73.096 14.5711 76.8599 15.9464 83.306" stroke="#221D1E" stroke-width="0.4" stroke-miterlimit="10" stroke-linecap="round" stroke-linejoin="round"/>
<path d="M14.4346 73.401C14.4346 73.401 13.4092 77.1649 14.7845 83.611" stroke="#221D1E" stroke-width="0.4" stroke-miterlimit="10" stroke-linecap="round" stroke-linejoin="round"/>
<path d="M13.1659 73.5727C13.1659 73.5727 12.1406 77.3366 13.5158 83.7826" stroke="#221D1E" stroke-width="0.4" stroke-miterlimit="10" stroke-linecap="round" stroke-linejoin="round"/>
<path d="M12.1705 73.9222C12.1705 73.9222 11.1451 77.6861 12.5204 84.1321" stroke="#221D1E" stroke-width="0.4" stroke-miterlimit="10" stroke-linecap="round" stroke-linejoin="round"/>
<path d="M11.0922 74.1255C11.0922 74.1255 10.0668 77.8894 11.4421 84.3355" stroke="#221D1E" stroke-width="0.4" stroke-miterlimit="10" stroke-linecap="round" stroke-linejoin="round"/>
<path d="M9.98354 74.2686C9.98354 74.2686 8.95818 78.0325 10.3334 84.4785" stroke="#221D1E" stroke-width="0.4" stroke-miterlimit="10" stroke-linecap="round" stroke-linejoin="round"/>
</svg>
