<svg id="Слой_1" data-name="Слой 1" xmlns="http://www.w3.org/2000/svg" viewBox="0 0 141.73 141.73"><defs><style>.cls-1{fill:#565555;}</style></defs><title>icon</title><path class="cls-1" d="M92.75,103.05a.43.43,0,0,1-.43-.43,17.76,17.76,0,0,0-2.41-7.69.43.43,0,0,1,.76-.42,18.12,18.12,0,0,1,2.51,8.11.43.43,0,0,1-.43.43Z"/><path class="cls-1" d="M89.65,100a.43.43,0,0,1-.43-.37,20.13,20.13,0,0,0-2.24-6,.44.44,0,0,1,.77-.41,21.1,21.1,0,0,1,2.33,6.26.44.44,0,0,1-.37.49Z"/><path class="cls-1" d="M59,114.81l-.12,0a20.73,20.73,0,0,1-6.1-2.7.43.43,0,0,1,.51-.7A20.46,20.46,0,0,0,59.09,114a.44.44,0,0,1,.3.54A.43.43,0,0,1,59,114.81Z"/><path class="cls-1" d="M71.38,46.18a.43.43,0,0,1,0-.86,17.8,17.8,0,0,0,7.57-2.79.44.44,0,0,1,.46.74,18.39,18.39,0,0,1-8,2.91Z"/><path class="cls-1" d="M73.58,49.41h0A9.43,9.43,0,0,1,69,48.35a.43.43,0,0,1-.15-.59.45.45,0,0,1,.6-.15,8.78,8.78,0,0,0,4.16.94.43.43,0,1,1,0,.86Z"/><path class="cls-1" d="M72.6,115a.52.52,0,0,1-.21,0,.56.56,0,0,1-.34-.68,37.64,37.64,0,0,0-.28-6,.58.58,0,1,1,1.15-.1c.18,2.16.45,5.88.22,6.48A.57.57,0,0,1,72.6,115Z"/><path class="cls-1" d="M73.68,119a.69.69,0,0,1-.72-.48l-.43-1.87-.43,1.87a.73.73,0,0,1-.83.48c-.07,0-7.12-1-15.09-2.72a12.44,12.44,0,0,1-7.68-4.88,8.33,8.33,0,0,1-1-7.82c1.54-4.11,2.69-6.91,3.53-8.9a.78.78,0,0,1,.92-.37.57.57,0,0,1,.46.74c-.83,2-2,4.77-3.51,8.87a7.39,7.39,0,0,0,.92,6.92,11,11,0,0,0,6.8,4.31c6.44,1.43,12.26,2.31,14.23,2.59l1-4.43a.78.78,0,0,1,1.44,0l1,4.43c2-.28,7.8-1.16,14.23-2.59a11,11,0,0,0,6.8-4.31,7.39,7.39,0,0,0,.92-6.92c-1.45-3.89-2.7-7-3.5-8.9a.57.57,0,0,1,.46-.74.77.77,0,0,1,.92.37c.8,1.92,2.06,5,3.52,8.93a8.33,8.33,0,0,1-1,7.82,12.44,12.44,0,0,1-7.68,4.88c-8,1.77-15,2.71-15.09,2.72Z"/><path class="cls-1" d="M53.73,88.86a.71.71,0,0,1-.72-.5.62.62,0,0,1,.61-.67,153,153,0,0,1,37.71,0,.62.62,0,0,1,.61.67.73.73,0,0,1-.83.49,150.82,150.82,0,0,0-37.26,0Z"/><path class="cls-1" d="M72.39,94.72a143.1,143.1,0,0,1-19.85-1.4.76.76,0,0,1-.47-.24.48.48,0,0,1-.12-.45L53,88.16a.74.74,0,0,1,.84-.47,131.18,131.18,0,0,0,37.23,0,.73.73,0,0,1,.84.45L93.1,92.6a.5.5,0,0,1-.11.45.72.72,0,0,1-.48.24A144.58,144.58,0,0,1,72.39,94.72ZM53.52,92.27a140.57,140.57,0,0,0,38,0l-.87-3.31a133.21,133.21,0,0,1-36.34,0Z"/><path class="cls-1" d="M72.53,82c-13.11,0-21.39-2.09-21.73-2.18a.59.59,0,0,1-.5-.66c0-.16,3.63-16.29,1-32.23a.49.49,0,0,1,.08-.35c4.14-6.48,7.76-12.09,7.8-12.14a.73.73,0,0,1,.53-.31.82.82,0,0,1,.62.16A62.24,62.24,0,0,0,72.53,41.6a61.94,61.94,0,0,0,12.24-7.35.82.82,0,0,1,.62-.16.73.73,0,0,1,.53.31c0,.06,4.18,6.42,7.67,13.18a.49.49,0,0,1,0,.31c-3,16,1.07,31.06,1.11,31.21a.57.57,0,0,1-.48.68C93.92,79.87,85.65,82,72.53,82ZM51.84,78.81a100,100,0,0,0,20.69,2,99.49,99.49,0,0,0,20.67-2c-.7-2.84-3.71-16.46-1-30.93-2.78-5.36-6-10.45-7.1-12.25a61.73,61.73,0,0,1-12.22,7.15.88.88,0,0,1-.64,0A61.73,61.73,0,0,1,60,35.63c-1.08,1.67-4,6.19-7.25,11.28C55.11,61.37,52.44,75.9,51.84,78.81Z"/><path class="cls-1" d="M59.79,35.25h0a.65.65,0,0,1-.71-.59l.3-12.21a.68.68,0,0,1,.74-.58.67.67,0,0,1,.71.6l-.3,12.21A.66.66,0,0,1,59.79,35.25Z"/><path class="cls-1" d="M66.74,36.63h0A.63.63,0,0,1,66,36c.26-4-2-10.93-6.32-13a.52.52,0,0,1-.23-.81.84.84,0,0,1,1-.19,12.35,12.35,0,0,1,5.43,6.29,17.5,17.5,0,0,1,1.57,7.82A.68.68,0,0,1,66.74,36.63Z"/><path class="cls-1" d="M85.28,35.25a.67.67,0,0,1-.73-.57l-.3-12.21a.74.74,0,0,1,1.45,0L86,34.66a.65.65,0,0,1-.71.59Z"/><path class="cls-1" d="M78.32,36.63a.68.68,0,0,1-.73-.56,17.64,17.64,0,0,1,1.57-7.82A12.44,12.44,0,0,1,84.59,22a.85.85,0,0,1,1,.19.53.53,0,0,1-.24.81c-4.31,2.12-6.58,9-6.31,13a.65.65,0,0,1-.69.61Z"/></svg>