<svg width="34" height="34" viewbox="0 0 34 34" fill="none" xmlns="http://www.w3.org/2000/svg">
<path d="M9.76903 21.3759C12.5465 24.134 15.6972 23.9532 15.6972 23.9532H17.1288C17.1288 23.9532 17.5631 23.9066 17.7834 23.6791C17.9853 23.4692 17.9792 23.0786 17.9792 23.0786C17.9792 23.0786 17.9486 21.2534 18.8418 20.9794C19.7166 20.717 20.8484 22.7462 22.0414 23.5275C22.9468 24.1165 23.632 23.9882 23.632 23.9882L26.8194 23.9474C26.8194 23.9474 28.4896 23.8482 27.7004 22.6004C27.6331 22.4955 27.2416 21.6733 25.3267 19.9823C23.3261 18.2097 23.5953 18.4954 26.0058 15.4341C27.474 13.5682 28.0613 12.4311 27.8778 11.9413C27.7004 11.4749 26.6237 11.5973 26.6237 11.5973L23.0264 11.6206C23.0264 11.6206 22.7572 11.5856 22.5614 11.6964C22.3656 11.8072 22.2433 12.0638 22.2433 12.0638C22.2433 12.0638 21.6743 13.5099 20.9157 14.7344C19.3128 17.3234 18.6766 17.4633 18.4135 17.3C17.8079 16.9268 17.9547 15.7956 17.9547 14.991C17.9547 12.4778 18.3523 11.434 17.1777 11.16C16.7862 11.0725 16.4986 11.0084 15.5014 11.0025C14.2167 10.9909 13.1338 11.0084 12.5159 11.2941C12.106 11.4865 11.794 11.9122 11.9837 11.9355C12.2223 11.9647 12.7606 12.0754 13.0421 12.4428C13.4091 12.9209 13.3969 13.9938 13.3969 13.9938C13.3969 13.9938 13.611 16.9502 12.9014 17.3175C12.418 17.5683 11.7512 17.0551 10.3257 14.7052C9.59161 13.504 9.041 12.1687 9.041 12.1687C9.041 12.1687 8.937 11.918 8.74735 11.7897C8.51487 11.6265 8.19674 11.5798 8.19674 11.5798L4.78299 11.6031C4.78299 11.6031 4.26909 11.6148 4.07944 11.8305C3.90814 12.0113 4.0672 12.402 4.0672 12.402C4.0672 12.402 6.7407 18.3671 9.76903 21.3759Z" fill="white"/>
</svg>
