<svg width="34" height="34" viewbox="0 0 34 34" fill="none" xmlns="http://www.w3.org/2000/svg">
<path d="M14.5574 12.1389C13.9795 11.7816 13.2388 12.2135 13.2388 12.9136V21.3339C13.2388 22.0376 13.9806 22.4634 14.5574 22.1097L21.3819 17.9056C21.9493 17.5556 21.9482 16.7063 21.3831 16.3551L14.5574 12.1389ZM14.983 19.7472V14.5026L19.233 17.1285L14.983 19.7472Z" fill="white"/>
<path d="M26.1445 6.6234C20.734 5.7922 13.1757 5.7922 7.76286 6.6234C5.59771 6.95541 3.89187 8.71405 3.51977 10.9972C2.82674 15.235 2.82674 19.0133 3.51977 23.2499C3.89187 25.5343 5.59771 27.2917 7.76286 27.6237C10.4745 28.0399 13.7211 28.248 16.9665 28.248C20.2061 28.248 23.4445 28.0411 26.1457 27.6249C28.3085 27.2929 30.0132 25.5355 30.3876 23.2511C31.0806 19.0133 31.0806 15.2338 30.3876 10.996C30.0155 8.71405 28.3097 6.95541 26.1445 6.6234V6.6234ZM28.6678 22.9504C28.4201 24.4613 27.3038 25.6233 25.8887 25.8398C20.6351 26.6469 13.2862 26.6469 8.01867 25.8386C6.60238 25.6209 5.48492 24.4601 5.2384 22.9492C4.57095 18.8666 4.57095 15.3817 5.2384 11.2967C5.48608 9.78584 6.60238 8.62624 8.01984 8.40731C10.6501 8.00434 13.8025 7.80225 16.9525 7.80225C20.1049 7.80225 23.2573 8.00434 25.8875 8.40731C27.3038 8.62504 28.4213 9.78584 28.6678 11.2967C29.3353 15.3817 29.3353 18.8666 28.6678 22.9504Z" fill="white"/>
</svg>
