<svg width="90" height="90" viewBox="0 0 90 90" fill="none" xmlns="http://www.w3.org/2000/svg">
<path d="M44.7314 1.20581C68.6691 1.20581 88.084 20.7621 88.084 44.8972C88.084 69.0325 68.6691 88.5886 44.7314 88.5886C20.7939 88.5884 1.37892 69.0324 1.37891 44.8972C1.37891 20.7622 20.7939 1.20599 44.7314 1.20581Z" fill="white" stroke="#E0B370" stroke-width="1.48106"/>
<path d="M56.7256 23.7861C57.3209 23.4795 58.0286 23.4797 58.624 23.7852L58.75 23.8545L59.3594 24.2168C62.4227 26.005 65.7197 27.4803 69.0225 28.541C69.8686 28.8128 70.4619 29.5997 70.4619 30.5078V36.2666C70.4619 43.3295 67.4072 48.0296 64.834 50.7236C63.3787 52.2473 61.8701 53.3512 60.627 54.0791C60.0057 54.4429 59.4401 54.7178 58.9707 54.9062C58.5555 55.073 58.0733 55.2314 57.6758 55.2314C57.2782 55.2314 56.7952 55.073 56.3799 54.9062C55.9106 54.7178 55.3456 54.4427 54.7246 54.0791C53.4815 53.3513 51.9728 52.2472 50.5176 50.7236H50.5166C47.9435 48.0295 44.8896 43.3295 44.8896 36.2666V30.5088C44.8897 29.5999 45.4838 28.8125 46.332 28.542L47.0029 28.3223C50.3447 27.2023 53.5053 25.7316 56.6006 23.8564L56.7256 23.7861Z" fill="white" stroke="white" stroke-width="2.22158" stroke-linecap="round" stroke-linejoin="round"/>
<path d="M65.9924 40.1565C65.9924 51.9367 60.9135 59.7271 56.6526 64.1882C51.8164 69.2518 46.6457 71.5 45.4965 71.5C44.3473 71.5 39.1762 69.2518 34.3399 64.1882C30.0791 59.727 25 51.9367 25 40.1565V30.0486C25 29.318 25.4787 28.6749 26.1747 28.453C32.6285 26.395 38.6946 23.6273 44.6191 20.0383C45.1583 19.7116 45.8348 19.7113 46.3746 20.037C52.1778 23.5395 58.4885 26.4177 64.8198 28.4511C65.5148 28.6743 65.9924 29.3168 65.9924 30.0468V40.1565Z" fill="white"/>
<path d="M65.9924 40.1565C65.9924 51.9367 60.9135 59.7271 56.6526 64.1882C51.8164 69.2518 46.6457 71.5 45.4965 71.5C44.3473 71.5 39.1762 69.2518 34.3399 64.1882C30.0791 59.727 25 51.9367 25 40.1565V30.0486C25 29.318 25.4787 28.6749 26.1747 28.453C32.6285 26.395 38.6946 23.6273 44.6191 20.0383C45.1583 19.7116 45.8348 19.7113 46.3746 20.037C52.1778 23.5395 58.4885 26.4177 64.8198 28.4511C65.5148 28.6743 65.9924 29.3168 65.9924 30.0468V40.1565Z" fill="#F8EEDE"/>
<path d="M65.9924 40.1565C65.9924 51.9367 60.9135 59.7271 56.6526 64.1882C51.8164 69.2518 46.6457 71.5 45.4965 71.5C44.3473 71.5 39.1762 69.2518 34.3399 64.1882C30.0791 59.727 25 51.9367 25 40.1565V30.0486C25 29.318 25.4787 28.6749 26.1747 28.453C32.6285 26.395 38.6946 23.6273 44.6191 20.0383C45.1583 19.7116 45.8348 19.7113 46.3746 20.037C52.1778 23.5395 58.4885 26.4177 64.8198 28.4511C65.5148 28.6743 65.9924 29.3168 65.9924 30.0468V40.1565Z" stroke="#E0B370" stroke-width="1.48" stroke-linecap="round" stroke-linejoin="round"/>
<path d="M49.7345 41.5244C49.7345 41.668 49.8509 41.7844 49.9945 41.7844H58.538C58.6816 41.7844 58.798 41.9008 58.798 42.0444V49.3926C58.798 49.5362 58.6816 49.6526 58.538 49.6526H49.9945C49.8509 49.6526 49.7345 49.769 49.7345 49.9126V58.459C49.7345 58.6026 49.6181 58.719 49.4745 58.719H42.1263C41.9827 58.719 41.8663 58.6026 41.8663 58.459V49.9126C41.8663 49.769 41.7499 49.6526 41.6063 49.6526H33.058C32.9144 49.6526 32.798 49.5362 32.798 49.3926V42.0444C32.798 41.9008 32.9144 41.7844 33.058 41.7844H41.6063C41.7499 41.7844 41.8663 41.668 41.8663 41.5244V32.979C41.8663 32.8354 41.9827 32.719 42.1263 32.719H49.4745C49.6181 32.719 49.7345 32.8354 49.7345 32.979V41.5244Z" fill="white"/>
<path d="M49.9945 41.7844V42.5244H58.538V41.7844V41.0444H49.9945V41.7844ZM58.798 42.0444H58.058V49.3926H58.798H59.538V42.0444H58.798ZM58.538 49.6526V48.9126H49.9945V49.6526V50.3926H58.538V49.6526ZM49.7345 49.9126H48.9945V58.459H49.7345H50.4745V49.9126H49.7345ZM49.4745 58.719V57.979H42.1263V58.719V59.459H49.4745V58.719ZM41.8663 58.459H42.6063V49.9126H41.8663H41.1263V58.459H41.8663ZM41.6063 49.6526V48.9126H33.058V49.6526V50.3926H41.6063V49.6526ZM32.798 49.3926H33.538V42.0444H32.798H32.058V49.3926H32.798ZM33.058 41.7844V42.5244H41.6063V41.7844V41.0444H33.058V41.7844ZM41.8663 41.5244H42.6063V32.979H41.8663H41.1263V41.5244H41.8663ZM42.1263 32.719V33.459H49.4745V32.719V31.979H42.1263V32.719ZM49.7345 32.979H48.9945V41.5244H49.7345H50.4745V32.979H49.7345ZM49.4745 32.719V33.459C49.2094 33.459 48.9945 33.2441 48.9945 32.979H49.7345H50.4745C50.4745 32.4267 50.0268 31.979 49.4745 31.979V32.719ZM41.8663 32.979H42.6063C42.6063 33.2441 42.3914 33.459 42.1263 33.459V32.719V31.979C41.574 31.979 41.1263 32.4267 41.1263 32.979H41.8663ZM41.6063 41.7844V42.5244C42.1586 42.5244 42.6063 42.0767 42.6063 41.5244H41.8663H41.1263C41.1263 41.2593 41.3412 41.0444 41.6063 41.0444V41.7844ZM32.798 42.0444H33.538C33.538 42.3095 33.3231 42.5244 33.058 42.5244V41.7844V41.0444C32.5057 41.0444 32.058 41.4921 32.058 42.0444H32.798ZM33.058 49.6526V48.9126C33.3231 48.9126 33.538 49.1275 33.538 49.3926H32.798H32.058C32.058 49.9449 32.5057 50.3926 33.058 50.3926V49.6526ZM41.8663 49.9126H42.6063C42.6063 49.3603 42.1586 48.9126 41.6063 48.9126V49.6526V50.3926C41.3412 50.3926 41.1263 50.1777 41.1263 49.9126H41.8663ZM42.1263 58.719V57.979C42.3914 57.979 42.6063 58.1939 42.6063 58.459H41.8663H41.1263C41.1263 59.0113 41.574 59.459 42.1263 59.459V58.719ZM49.7345 58.459H48.9945C48.9945 58.1939 49.2094 57.979 49.4745 57.979V58.719V59.459C50.0268 59.459 50.4745 59.0113 50.4745 58.459H49.7345ZM49.9945 49.6526V48.9126C49.4422 48.9126 48.9945 49.3603 48.9945 49.9126H49.7345H50.4745C50.4745 50.1777 50.2596 50.3926 49.9945 50.3926V49.6526ZM58.798 49.3926H58.058C58.058 49.1275 58.2729 48.9126 58.538 48.9126V49.6526V50.3926C59.0903 50.3926 59.538 49.9449 59.538 49.3926H58.798ZM58.538 41.7844V42.5244C58.2729 42.5244 58.058 42.3095 58.058 42.0444H58.798H59.538C59.538 41.4921 59.0903 41.0444 58.538 41.0444V41.7844ZM49.9945 41.7844V41.0444C50.2596 41.0444 50.4745 41.2593 50.4745 41.5244H49.7345H48.9945C48.9945 42.0767 49.4422 42.5244 49.9945 42.5244V41.7844Z" fill="#E0B370"/>
</svg>
