<svg width="90" height="90" viewBox="0 0 90 90" fill="none" xmlns="http://www.w3.org/2000/svg">
<circle cx="45.0703" cy="44.4944" r="44.4317" fill="white"/>
<circle cx="45.0703" cy="44.7112" r="43.6911" stroke="#E0B370" stroke-width="1.48106"/>
<path d="M46.1704 67.4414C45.3978 67.4727 43.8525 67.4414 42.8889 67.1071C41.8046 66.7309 40.4347 64.8267 40.6486 63.7248C41.0199 61.8069 44.3355 61.4472 45.7796 61.5398C47.2236 61.6325 48.5263 61.9959 49.5739 62.7696C49.9656 63.0587 50.1662 63.339 50.2227 63.7876C50.3933 65.1556 49.8496 65.9866 48.5505 66.7021C47.785 67.1238 47.0742 67.4121 46.1704 67.4414Z" fill="#F8EEDE"/>
<path d="M39.144 63.0076C40.4692 63.7481 42.1256 64.4886 45.4385 64.4886C48.0888 64.4886 50.7391 63.5013 51.733 63.0076" stroke="#E0B370" stroke-width="1.18484" stroke-linecap="round"/>
<path d="M42.1051 66.7102C42.8067 67.0805 43.6836 67.4507 45.4375 67.4507C46.8406 67.4507 48.2437 66.957 48.7699 66.7102" stroke="#E0B370" stroke-width="1.18484" stroke-linecap="round"/>
<path d="M42.848 57.0833C43.3937 57.4535 44.0757 57.8238 45.4399 57.8238C46.5312 57.8238 47.6225 57.3301 48.0317 57.0833" stroke="#E0B370" stroke-width="1.18484" stroke-linecap="round"/>
<path d="M41.6478 7.91114C42.645 7.3896 43.7128 6.92257 44.8512 6.77649C47.1579 6.48384 49.4141 7.5452 51.2478 8.84439C52.688 9.8697 54.078 11.279 53.9473 12.9351C53.9269 13.1914 53.8668 13.4566 53.7057 13.658C53.3226 14.1341 52.5674 14.1525 51.9325 14.1247C49.8374 14.0423 47.7523 13.9601 45.6668 13.8868C43.8436 13.8135 41.5368 14.0788 39.784 13.6396C38.4445 13.3101 38.1824 11.9012 38.5655 10.7665C38.8473 9.91519 40.5295 7.91114 41.6478 7.91114Z" fill="#F8EEDE"/>
<path d="M24.0039 30.7026C24.5105 29.4138 23.5547 27.7596 24.4815 26.6991C25.1602 25.9222 27.6445 25.6389 27.998 24.6884C28.3134 23.8473 28.2369 22.9057 28.4854 22.0466C29.0299 20.1821 29.1447 18.4181 30.9125 17.4765C33.3875 16.1513 37.716 15.4838 40.4488 14.7437C43.1819 14.0031 46.1535 13.8479 48.8291 14.7712C49.9948 15.173 51.0843 15.7674 52.1544 16.3616C53.9604 17.3576 55.7572 18.3538 57.5632 19.3502C59.6366 20.4929 61.7579 21.6811 63.2582 23.4635C64.1467 24.5145 64.7871 25.7669 65.1214 27.0741C65.3506 27.979 65.4368 28.9111 65.5322 29.8344C65.6949 31.6075 65.8669 33.3716 66.0292 35.1447C66.2202 37.1832 66.4115 39.2122 66.5356 41.2507C66.5738 41.8719 66.5166 42.64 65.9338 42.9142C65.7139 43.0147 65.4562 43.0239 65.2076 43.0055C63.3537 42.8958 61.7293 41.7351 60.5254 40.3732C59.3212 39.0111 58.4134 37.439 57.2381 36.0588C54.8586 33.2802 51.5047 31.4523 48.1984 29.7338C47.1665 29.1944 46.1153 28.655 44.9686 28.39C43.0479 27.9423 41.0319 28.2986 39.1305 28.7922C36.0151 29.5965 32.7664 30.8946 30.7216 33.3899C29.1927 35.2637 26.2014 43.1336 23.3925 39.2397C22.1789 37.5946 23.2966 32.4941 24.0039 30.7026Z" fill="#F8EEDE"/>
<path d="M25.2281 38.0655C26.9854 33.4663 31.1298 29.6729 36.8679 29.6681C37.9271 29.6675 37.9287 28.2019 36.8679 28.2029C30.3799 28.2083 25.6339 32.4606 23.6408 37.6761C23.2989 38.5705 24.8882 38.9548 25.2281 38.0655Z" fill="#E0B370"/>
<path d="M41.4375 28.3932C39.7057 26.7294 39.4953 24.7539 40.8899 22.8016C41.7298 21.6256 43.0565 20.4217 44.5172 20.0624C45.485 19.8244 45.0749 18.3638 44.1049 18.6021C42.0298 19.1125 40.127 20.9064 39.1325 22.7003C37.789 25.1251 38.3712 27.572 40.3404 29.464C41.0525 30.1482 42.1504 29.0785 41.4375 28.3932Z" fill="#E0B370"/>
<path d="M42.8801 28.703C42.2206 24.0249 48.1937 20.6731 51.931 20.092C52.8814 19.9441 52.4777 18.4389 51.5324 18.586C46.8107 19.3197 40.6422 23.4941 41.4349 29.1182C41.5747 30.1093 43.0189 29.6879 42.8801 28.703Z" fill="#E0B370"/>
<path d="M45.5699 29.246C48.6586 25.5923 53.9479 24.7143 58.4116 25.5694C62.749 26.4003 67.1783 29.175 67.2755 34.1342C67.2944 35.1103 68.7828 35.1135 68.7639 34.1342C68.5372 22.5568 50.7344 20.8183 44.5173 28.1722C43.8947 28.909 44.9432 29.9876 45.5699 29.246Z" fill="#E0B370"/>
<path d="M52.6961 30.7609C59.9943 28.9541 67.8719 36.8408 68.6959 43.7511C68.8136 44.7362 70.36 44.7482 70.2409 43.7511C69.295 35.8203 60.6491 27.1844 52.2855 29.2549C51.3199 29.4938 51.7286 31.0002 52.6961 30.7609Z" fill="#E0B370"/>
<path d="M22.1762 45.5145C19.9141 40.1862 19.8582 34.2982 23.462 29.6655C26.3293 25.9794 30.2695 24.0152 34.7402 23.8525C35.6731 23.8182 35.6771 22.2449 34.7402 22.2791C29.6915 22.463 25.1667 24.7706 22.0461 29.0718C18.3074 34.2239 18.4735 40.5424 20.9214 46.3088C21.3113 47.2277 22.5645 46.429 22.1762 45.5145Z" fill="#E0B370"/>
<path d="M24.5649 27.3596C23.8311 25.0056 25.8191 22.2101 27.3434 20.4549C28.3845 19.2564 29.6302 18.2556 30.993 17.4403C33.953 15.6688 37.3999 14.7335 40.8205 14.3894C47.6793 13.6992 55.3892 15.0578 60.9609 19.3008C63.9355 21.5655 65.9892 24.6773 66.5291 28.3882C66.6705 29.3606 68.1569 28.9473 68.0166 27.9808C66.9066 20.3538 59.9009 15.723 52.9107 13.8461C45.5134 11.8596 36.5748 12.1421 29.9356 16.2871C28.3192 17.2958 26.861 18.5486 25.6939 20.0533C24.0315 22.1966 22.2102 24.9838 23.0774 27.7669C23.3702 28.7064 24.8598 28.3055 24.5649 27.3596Z" fill="#E0B370"/>
<path d="M34.0168 70.4128C35.613 75.3822 34.0168 79.6432 33.2188 83.0018" stroke="#E0B370" stroke-width="1.48106" stroke-linecap="round"/>
<path d="M51.9731 47.8023C53.8339 50.2334 56.964 49.3334 59.1421 47.8934C60.0286 47.3079 60.8536 48.7327 59.9729 49.3147C56.9079 51.341 52.9811 51.8062 50.5516 48.6332C49.908 47.7926 51.3371 46.9718 51.9731 47.8023Z" fill="#E0B370"/>
<path d="M50.3501 45.4018C52.6982 43.7265 55.7784 42.9525 58.1736 44.999C58.975 45.6836 60.1446 44.5246 59.3377 43.8349C56.3849 41.3122 52.5316 41.8314 49.5191 43.9805C48.6643 44.5908 49.4854 46.0189 50.3501 45.4018Z" fill="#E0B370"/>
<path d="M40.055 48.8674C37.626 52.0403 33.7009 51.5764 30.6337 49.5489C29.7539 48.9673 30.5772 47.5413 31.4646 48.1279C33.6398 49.5653 36.7714 50.4693 38.6336 48.0364C39.2688 47.2067 40.6991 48.0255 40.055 48.8674Z" fill="#E0B370"/>
<path d="M41.1163 43.3651C38.1056 41.2171 34.2506 40.6974 31.2981 43.2197C30.4917 43.9088 31.6604 45.0683 32.4618 44.3838C34.8529 42.3411 37.9386 43.1121 40.2854 44.7866C41.1492 45.4028 41.9721 43.9759 41.1163 43.3651Z" fill="#E0B370"/>
<path d="M36.2373 13.8281C35.1631 8.92922 41.0442 6.31779 44.957 5.97737C47.8639 5.72448 50.5284 6.49125 52.8793 8.22864C55.0373 9.82329 57.345 12.5862 55.6684 15.3018C55.1866 16.0814 56.412 16.7961 56.8916 16.0192C58.6135 13.2305 57.1876 10.2562 55.0212 8.18499C52.4428 5.71992 49.0637 4.35073 45.5018 4.51988C40.4478 4.75977 33.5254 8.07071 34.871 14.2058C35.0669 15.0988 36.4333 14.7211 36.2373 13.8281Z" fill="#E0B370"/>
<path d="M23.8261 45.9633C26.9634 45.4501 28.6646 42.4035 30.0677 39.926C30.9681 38.3365 31.8833 36.7554 32.8134 35.1829C33.9912 33.1917 35.0874 31.3732 37.6594 31.2146C38.6497 31.1537 38.6569 29.6241 37.6594 29.6856C34.1652 29.9012 32.738 32.264 31.1273 35.0013C30.143 36.6744 29.1782 38.3584 28.2255 40.0495C27.1639 41.9334 25.7522 44.1063 23.4143 44.4889C22.4326 44.6495 22.8491 46.1233 23.8261 45.9633Z" fill="#E0B370"/>
<path d="M57.2747 37.0927C59.2319 38.4241 60.8054 40.6619 62.1922 42.4948C63.096 43.6895 63.8322 45.2457 65.2977 45.895C66.2442 46.3144 67.0746 44.9752 66.1217 44.5528C64.4684 43.8204 63.3416 41.3246 62.2356 39.9814C61.0031 38.4841 59.7364 36.8646 58.0987 35.7509C57.2426 35.1685 56.4261 36.5157 57.2747 37.0927Z" fill="#E0B370"/>
<path d="M27.2969 46.7158C27.2969 66.7101 38.7751 74.8559 45.4398 74.8559C52.1045 74.8559 65.0638 61.8966 65.0638 47.8266" stroke="#E0B370" stroke-width="1.48106" stroke-linecap="round"/>
<path d="M56.9166 70.4128C55.9293 73.969 55.9293 80.1862 56.9166 83.7423" stroke="#E0B370" stroke-width="1.48106" stroke-linecap="round"/>
<path d="M25.8141 46.3457C23.2227 45.9755 21.0007 54.1213 26.5551 57.0834" stroke="#E0B370" stroke-width="1.48106" stroke-linecap="round"/>
<path d="M65.8037 46.3457C68.3951 45.9755 70.6171 54.1213 65.0627 57.0834" stroke="#E0B370" stroke-width="1.48106" stroke-linecap="round"/>
<path d="M30.3628 52.3694C31.598 50.7128 33.6567 52.3694 35.7153 51.7068C38.3005 50.8746 40.2444 52.6927 40.2444 54.6887C40.2444 56.014 37.774 56.3453 34.4801 57.008C31.1863 57.6706 29.1276 54.026 30.3628 52.3694Z" fill="#FFE4E4"/>
<path d="M60.1228 52.7691C58.8876 51.1124 56.8289 52.7691 54.7703 52.1064C52.1851 51.2743 50.2412 53.0924 50.2412 55.0884C50.2412 56.4137 52.7116 56.745 56.0055 57.4077C59.2993 58.0703 61.358 54.4257 60.1228 52.7691Z" fill="#FFE4E4"/>
</svg>
