<svg width="93" height="93" viewBox="0 0 93 93" fill="none" xmlns="http://www.w3.org/2000/svg">
<circle cx="44.793" cy="45.4304" r="44.4317" fill="white"/>
<circle cx="44.793" cy="45.3474" r="43.6911" stroke="#E0B370" stroke-width="1.48106"/>
<path d="M45.8928 68.3774C45.1202 68.4087 43.5749 68.3774 42.6113 68.0431C41.527 67.6669 40.1571 65.7628 40.371 64.6608C40.7423 62.7429 44.0579 62.3832 45.502 62.4759C46.946 62.5685 48.2487 62.932 49.2963 63.7057C49.688 63.9947 49.8886 64.275 49.9451 64.7236C50.1157 66.0916 49.572 66.9226 48.273 67.6381C47.5074 68.0598 46.7967 68.3481 45.8928 68.3774Z" fill="#F8EEDE"/>
<path d="M38.8684 63.9436C40.1936 64.6841 41.85 65.4247 45.1629 65.4247C47.8132 65.4247 50.4635 64.4373 51.4574 63.9436" stroke="#E0B370" stroke-width="1.18484" stroke-linecap="round"/>
<path d="M41.8311 67.6462C42.5326 68.0165 43.4095 68.3868 45.1634 68.3868C46.5665 68.3868 47.9696 67.8931 48.4958 67.6462" stroke="#E0B370" stroke-width="1.18484" stroke-linecap="round"/>
<path d="M42.5703 58.0193C43.116 58.3896 43.798 58.7598 45.1622 58.7598C46.2535 58.7598 47.3448 58.2661 47.754 58.0193" stroke="#E0B370" stroke-width="1.18484" stroke-linecap="round"/>
<path d="M41.3702 8.84717C42.3674 8.32563 43.4353 7.8586 44.5736 7.71253C46.8803 7.41988 49.1365 8.48124 50.9702 9.78043C52.4104 10.8057 53.8004 12.215 53.6697 13.8711C53.6494 14.1274 53.5892 14.3927 53.4281 14.5941C53.045 15.0701 52.2898 15.0885 51.655 15.0607C49.5598 14.9784 47.4747 14.8961 45.3893 14.8229C43.566 14.7496 41.2592 15.0148 39.5064 14.5756C38.1669 14.2461 37.9048 12.8372 38.2879 11.7025C38.5697 10.8512 40.2519 8.84717 41.3702 8.84717Z" fill="#F8EEDE"/>
<path d="M23.7262 31.6389C24.2328 30.3501 23.277 28.6959 24.2038 27.6353C24.8824 26.8585 27.3668 26.5752 27.7203 25.6247C28.0357 24.7836 27.9592 23.842 28.2077 22.9829C28.7522 21.1184 28.867 19.3544 30.6348 18.4127C33.1098 17.0876 37.4383 16.4201 40.1711 15.6799C42.9042 14.9394 45.8758 14.7842 48.5514 15.7075C49.7171 16.1093 50.8066 16.7037 51.8767 17.2979C53.6827 18.2939 55.4794 19.2901 57.2855 20.2865C59.3589 21.4292 61.4802 22.6174 62.9804 24.3998C63.869 25.4508 64.5094 26.7032 64.8437 28.0104C65.0729 28.9152 65.1591 29.8474 65.2545 30.7707C65.4172 32.5438 65.5892 34.3079 65.7515 36.081C65.9425 38.1195 66.1338 40.1485 66.2578 42.187C66.2961 42.8082 66.2389 43.5763 65.6561 43.8504C65.4362 43.951 65.1784 43.9602 64.9299 43.9418C63.076 43.8321 61.4516 42.6714 60.2477 41.3095C59.0435 39.9474 58.1357 38.3753 56.9604 36.9951C54.5809 34.2165 51.227 32.3886 47.9207 30.6701C46.8888 30.1306 45.8376 29.5913 44.6909 29.3262C42.7702 28.8786 40.7542 29.2349 38.8528 29.7284C35.7374 30.5328 32.4887 31.8309 30.4439 34.3262C28.9149 36.2 25.9237 44.0698 23.1147 40.176C21.9012 38.5309 23.0189 33.4304 23.7262 31.6389Z" fill="#F8EEDE"/>
<path d="M24.9525 39.0013C26.7098 34.4021 30.8541 30.6087 36.5923 30.6039C37.6515 30.6033 37.6531 29.1377 36.5923 29.1387C30.1043 29.1441 25.3583 33.3964 23.3651 38.6119C23.0233 39.5063 24.6126 39.8906 24.9525 39.0013Z" fill="#E0B370"/>
<path d="M41.1599 29.3293C39.4281 27.6654 39.2177 25.69 40.6123 23.7376C41.4522 22.5617 42.7789 21.3577 44.2396 20.9984C45.2074 20.7604 44.7973 19.2998 43.8273 19.5381C41.7522 20.0485 39.8494 21.8424 38.8549 23.6363C37.5114 26.0611 38.0936 28.5081 40.0628 30.4C40.7749 31.0843 41.8728 30.0145 41.1599 29.3293Z" fill="#E0B370"/>
<path d="M42.6044 29.639C41.945 24.9609 47.918 21.6091 51.6553 21.028C52.6058 20.8802 52.2021 19.3749 51.2568 19.5221C46.535 20.2557 40.3666 24.4301 41.1593 30.0542C41.2991 31.0453 42.7432 30.624 42.6044 29.639Z" fill="#E0B370"/>
<path d="M45.2958 30.182C48.3845 26.5283 53.6738 25.6503 58.1376 26.5054C62.4749 27.3364 66.9043 30.1111 67.0015 35.0702C67.0204 36.0463 68.5088 36.0495 68.4898 35.0702C68.2631 23.4929 50.4604 21.7543 44.2432 29.1082C43.6207 29.845 44.6691 30.9237 45.2958 30.182Z" fill="#E0B370"/>
<path d="M52.4185 31.6969C59.7167 29.8901 67.5943 37.7768 68.4183 44.6871C68.536 45.6723 70.0824 45.6842 69.9633 44.6871C69.0174 36.7563 60.3715 28.1205 52.0079 30.1909C51.0423 30.4298 51.4511 31.9362 52.4185 31.6969Z" fill="#E0B370"/>
<path d="M21.9005 46.4506C19.6385 41.1222 19.5826 35.2342 23.1863 30.6015C26.0537 26.9154 29.9939 24.9513 34.4646 24.7885C35.3975 24.7542 35.4015 23.1809 34.4646 23.2152C29.4158 23.3991 24.8911 25.7067 21.7704 30.0079C18.0318 35.1599 18.1979 41.4784 20.6457 47.2448C21.0356 48.1638 22.2888 47.365 21.9005 46.4506Z" fill="#E0B370"/>
<path d="M24.2872 28.2956C23.5534 25.9416 25.5414 23.1461 27.0657 21.391C28.1068 20.1925 29.3525 19.1916 30.7153 18.3763C33.6753 16.6048 37.1222 15.6695 40.5428 15.3254C47.4015 14.6353 55.1115 15.9938 60.6832 20.2368C63.6578 22.5015 65.7115 25.6133 66.2514 29.3242C66.3928 30.2966 67.8792 29.8833 67.7389 28.9169C66.6289 21.2898 59.6232 16.6591 52.633 14.7822C45.2357 12.7957 36.2971 13.0781 29.6578 17.2232C28.0415 18.2319 26.5833 19.4846 25.4161 20.9893C23.7537 23.1326 21.9325 25.9199 22.7996 28.7029C23.0924 29.6424 24.582 29.2415 24.2872 28.2956Z" fill="#E0B370"/>
<path d="M33.7428 71.3489C35.339 76.3182 33.7428 80.5793 32.9447 83.9378" stroke="#E0B370" stroke-width="1.48106" stroke-linecap="round"/>
<path d="M51.6955 51.1225C53.5563 48.6914 56.6864 49.5914 58.8645 51.0314C59.751 51.6169 60.576 50.1921 59.6954 49.6101C56.6303 47.5838 52.7035 47.1186 50.274 50.2916C49.6304 51.1322 51.0595 51.953 51.6955 51.1225Z" fill="#E0B370"/>
<path d="M50.0761 46.3379C52.4241 44.6625 55.5044 43.8885 57.8996 45.9351C58.701 46.6197 59.8706 45.4606 59.0637 44.7709C56.1108 42.2482 52.2575 42.7674 49.2451 44.9165C48.3902 45.5268 49.2114 46.9549 50.0761 46.3379Z" fill="#E0B370"/>
<path d="M52.7953 49.0211C52.7586 49.5631 52.7029 50.1068 52.7379 50.6487C52.8312 52.1077 53.8092 52.2372 54.0792 52.2954C54.3491 52.3536 54.6511 52.3164 54.8658 52.1423C54.9569 52.068 55.0282 51.9728 55.0948 51.8757C55.7401 50.936 55.9907 49.734 55.7743 48.615" fill="#E0B370"/>
<path d="M52.314 49.4285C52.2118 50.8558 52.1014 52.7446 53.8741 53.0947C55.9451 53.5029 56.3272 50.3008 56.1015 48.9127C56.0167 48.3913 55.2233 48.6124 55.3078 49.1316C55.4406 49.9477 55.2597 52.6742 53.8918 52.2541C52.7581 51.9061 53.0728 50.3265 53.1368 49.4285C53.1748 48.9 52.3515 48.9021 52.314 49.4285Z" fill="#E0B370"/>
<path d="M39.7792 49.6773C37.3501 46.5043 33.425 46.9683 30.3578 48.9957C29.478 49.5774 30.3014 51.0034 31.1887 50.4168C33.3639 48.9793 36.4956 48.0754 38.3577 50.5083C38.9929 51.3379 40.4232 50.5192 39.7792 49.6773Z" fill="#E0B370"/>
<path d="M40.8386 44.3012C37.8279 42.1531 33.9729 41.6334 31.0204 44.1557C30.214 44.8449 31.3827 46.0043 32.1841 45.3198C34.5752 43.2772 37.6609 44.0481 40.0077 45.7226C40.8715 46.3389 41.6944 44.912 40.8386 44.3012Z" fill="#E0B370"/>
<path d="M37.1869 49.0211C37.2235 49.5632 37.2792 50.1073 37.2443 50.6488C37.151 52.1077 36.1729 52.2372 35.903 52.2958C35.633 52.3536 35.3311 52.3165 35.1168 52.1423C35.0253 52.068 34.954 51.9728 34.8873 51.8762C34.242 50.9364 33.9914 49.7339 34.2079 48.615" fill="#E0B370"/>
<path d="M36.8464 48.8139C36.9105 49.7119 37.2252 51.2914 36.0915 51.6395C34.7236 52.0595 34.5427 49.3332 34.6755 48.517C34.7598 47.9986 33.9669 47.7759 33.8822 48.2981C33.6557 49.6883 34.0374 52.8888 36.1092 52.48C37.8819 52.1304 37.7713 50.2417 37.6693 48.8139C37.6317 48.2888 36.8085 48.2846 36.8464 48.8139Z" fill="#E0B370"/>
<path d="M35.9617 14.7641C34.8874 9.86526 40.7685 7.25382 44.6813 6.9134C47.5882 6.66051 50.2528 7.42729 52.6037 9.16467C54.7617 10.7593 57.0693 13.5223 55.3927 16.2378C54.911 17.0175 56.1363 17.7322 56.616 16.9553C58.3378 14.1666 56.9119 11.1923 54.7455 9.12103C52.1671 6.65595 48.788 5.28676 45.2262 5.45592C40.1722 5.69581 33.2498 9.00675 34.5953 15.1418C34.7913 16.0349 36.1577 15.6571 35.9617 14.7641Z" fill="#E0B370"/>
<path d="M23.5484 46.8994C26.6857 46.3861 28.3869 43.3395 29.79 40.862C30.6903 39.2725 31.6056 37.6915 32.5357 36.119C33.7135 34.1277 34.8097 32.3093 37.3817 32.1507C38.372 32.0898 38.3792 30.5601 37.3817 30.6217C33.8875 30.8372 32.4603 33.2001 30.8496 35.9374C29.8653 37.6104 28.9005 39.2944 27.9478 40.9855C26.8862 42.8695 25.4745 45.0423 23.1366 45.4249C22.1549 45.5855 22.5713 47.0593 23.5484 46.8994Z" fill="#E0B370"/>
<path d="M56.9992 38.0288C58.9564 39.3602 60.5299 41.598 61.9167 43.4309C62.8205 44.6255 63.5567 46.1817 65.0222 46.831C65.9687 47.2504 66.7991 45.9112 65.8462 45.4889C64.1929 44.7565 63.0661 42.2606 61.9601 40.9174C60.7276 39.4202 59.4609 37.8007 57.8231 36.687C56.967 36.1045 56.1506 37.4517 56.9992 38.0288Z" fill="#E0B370"/>
<circle cx="32.981" cy="55.0574" r="0.740528" fill="#E0B370"/>
<circle cx="37.3895" cy="58.0054" r="0.740528" fill="#E0B370"/>
<circle cx="30.3538" cy="56.1682" r="1.11079" fill="#E0B370"/>
<circle cx="33.6855" cy="60.241" r="0.740528" fill="#E0B370"/>
<circle cx="0.740528" cy="0.740528" r="0.740528" transform="matrix(-1 0 0 1 57.3815 54.3167)" fill="#E0B370"/>
<circle cx="0.740528" cy="0.740528" r="0.740528" transform="matrix(-1 0 0 1 54.4188 57.2788)" fill="#E0B370"/>
<circle cx="0.740528" cy="0.740528" r="0.740528" transform="matrix(-1 0 0 1 35.9049 37.2847)" fill="#E0B370"/>
<circle cx="0.740528" cy="0.740528" r="0.740528" transform="matrix(-1 0 0 1 38.1265 34.3225)" fill="#E0B370"/>
<circle cx="0.740528" cy="0.740528" r="0.740528" transform="matrix(-1 0 0 1 50.7167 34.3225)" fill="#E0B370"/>
<circle cx="0.740528" cy="0.740528" r="0.740528" transform="matrix(-1 0 0 1 58.8619 58.0195)" fill="#E0B370"/>
<path d="M27.0193 47.6519C27.0193 67.6461 38.4975 75.7919 45.1622 75.7919C51.827 75.7919 64.7862 62.8327 64.7862 48.7626" stroke="#E0B370" stroke-width="1.48106" stroke-linecap="round"/>
<path d="M56.6411 71.3489C55.6537 74.905 55.6537 81.1222 56.6411 84.6784" stroke="#E0B370" stroke-width="1.48106" stroke-linecap="round"/>
<path d="M25.5384 47.2817C22.947 46.9115 20.7249 55.0573 26.2794 58.0194" stroke="#E0B370" stroke-width="1.48106" stroke-linecap="round"/>
<path d="M65.5279 47.2817C68.1193 46.9115 70.3414 55.0573 64.7869 58.0194" stroke="#E0B370" stroke-width="1.48106" stroke-linecap="round"/>
<path d="M77.7356 59.5271C78.3309 59.2205 79.0386 59.2207 79.634 59.5261L79.76 59.5955L80.3694 59.9578C83.4327 61.746 86.7297 63.2212 90.0325 64.282C90.8786 64.5537 91.4719 65.3407 91.4719 66.2488V72.0076C91.4719 79.0704 88.4172 83.7705 85.844 86.4646C84.3887 87.9883 82.8801 89.0922 81.637 89.8201C81.0157 90.1838 80.4501 90.4587 79.9807 90.6472C79.5655 90.8139 79.0833 90.9723 78.6858 90.9724C78.2882 90.9724 77.8052 90.814 77.3899 90.6472C76.9206 90.4588 76.3557 90.1837 75.7346 89.8201C74.4915 89.0922 72.9828 87.9881 71.5276 86.4646H71.5266C68.9535 83.7705 65.8997 79.0704 65.8997 72.0076V66.2498C65.8997 65.3409 66.4938 64.5534 67.342 64.283L68.0129 64.0632C71.3547 62.9432 74.5153 61.4725 77.6106 59.5974L77.7356 59.5271Z" fill="white" stroke="white" stroke-width="2.22158" stroke-linecap="round" stroke-linejoin="round"/>
<path d="M90.3608 72.0076C90.3608 78.7181 87.4677 83.1558 85.0405 85.697C82.2856 88.5814 79.3402 89.8621 78.6855 89.8621C78.0309 89.8621 75.0853 88.5814 72.3304 85.697C69.9032 83.1557 67.01 78.7181 67.01 72.0076V66.2498C67.01 65.8336 67.2827 65.4673 67.6792 65.3409C71.3555 64.1686 74.811 62.5921 78.1858 60.5476C78.4929 60.3615 78.8783 60.3613 79.1857 60.5469C82.4915 62.542 86.0863 64.1815 89.6928 65.3398C90.0887 65.467 90.3608 65.833 90.3608 66.2488V72.0076Z" fill="white" stroke="#E0B370" stroke-width="1.48106" stroke-linecap="round" stroke-linejoin="round"/>
<path d="M75.7236 76.6043C75.1608 75.8439 74.7254 74.6339 74.8434 73.5427C74.9613 72.4515 75.7649 73.3992 76.3335 72.9307C76.9021 72.4621 76.9431 70.8545 77.858 70.5349C78.7729 70.2154 79.9926 70.3752 80.45 70.6946C80.9075 71.0139 81.5173 71.014 82.1271 72.4515C82.737 73.889 79.8401 72.771 78.4679 73.2501C77.0957 73.7293 76.3513 77.1722 75.7236 76.6043Z" fill="#F8EEDE"/>
<path d="M75.7223 70.4148C75.775 70.6407 75.7882 70.808 75.7223 70.8635C74.7874 71.65 72.2821 68.9939 71.9743 69.6705C71.6665 70.3472 75.0574 71.4854 74.7285 72.0595C74.3995 72.6336 74.4658 74.0645 74.0103 74.1706C73.0471 74.3951 70.3937 74.1706 70.5476 74.6817C70.7015 75.1928 72.4199 74.6817 73.2407 74.6817C74.0616 74.6817 74.395 74.8373 74.7285 75.7702C74.9109 76.2806 75.0774 76.6723 75.2313 76.964M75.7223 70.4148C75.5658 69.7444 74.9502 68.4419 75.2446 68.2505C75.9069 67.8196 75.6933 69.0809 76.0358 69.6705M75.7223 70.4148C75.8543 70.9801 76.2269 72.0595 75.9069 72.465M76.0358 69.6705C76.1569 69.8789 76.2873 70.0192 76.4266 70.0039C76.96 69.945 77.135 69.9256 78.0735 69.6705C78.574 69.652 79.6332 69.1372 79.8657 67.226C79.9295 66.7015 79.9938 65.4237 80.4469 65.5593C80.8575 65.6822 79.8172 69.6705 80.4469 70.0039C81.0766 70.3372 81.9969 70.8372 82.2875 71.3928C82.5782 71.9484 83.111 72.2817 83.6438 72.0595C84.1766 71.8372 85.5548 70.6183 85.775 71.3928C85.9398 71.9723 83.7407 72.2261 83.3047 73.0039C82.7591 73.9774 81.1573 74.0196 78.6216 74.1706C77.1833 74.2563 76.6396 77.9012 76.0298 77.6882C75.4199 77.4752 74.4442 80.1799 74.2002 79.9243C73.9752 79.6886 74.8293 77.9747 75.2313 76.964M76.0358 69.6705C76.2295 70.0039 76.5665 70.4148 76.758 70.4148M75.4199 76.2507C75.4599 76.3345 75.3741 76.6048 75.2313 76.964" stroke="#E0B370" stroke-width="0.684539" stroke-linecap="round"/>
<ellipse cx="79.0775" cy="75.4863" rx="0.609848" ry="0.638889" stroke="#E0B370" stroke-width="0.684539" stroke-linecap="round"/>
<ellipse cx="81.8215" cy="75.167" rx="0.609848" ry="0.638889" stroke="#E0B370" stroke-width="0.684539" stroke-linecap="round"/>
<ellipse cx="82.1293" cy="78.3612" rx="0.304924" ry="0.319444" stroke="#E0B370" stroke-width="0.684539" stroke-linecap="round"/>
<ellipse cx="83.3475" cy="76.4447" rx="0.304924" ry="0.319444" stroke="#E0B370" stroke-width="0.684539" stroke-linecap="round"/>
<ellipse cx="80.4524" cy="77.2431" rx="0.457386" ry="0.479167" stroke="#E0B370" stroke-width="0.684539" stroke-linecap="round"/>
<ellipse cx="85.7862" cy="77.0834" rx="0.304924" ry="0.319444" stroke="#E0B370" stroke-width="0.684539" stroke-linecap="round"/>
<ellipse cx="79.3835" cy="79.9584" rx="0.304924" ry="0.319444" stroke="#E0B370" stroke-width="0.684539" stroke-linecap="round"/>
<ellipse cx="82.7385" cy="81.2362" rx="0.304924" ry="0.319444" stroke="#E0B370" stroke-width="0.684539" stroke-linecap="round"/>
<ellipse cx="78.0121" cy="77.882" rx="0.457386" ry="0.479167" stroke="#E0B370" stroke-width="0.684539" stroke-linecap="round"/>
<ellipse cx="76.0304" cy="79.639" rx="0.304924" ry="0.319444" stroke="#E0B370" stroke-width="0.684539" stroke-linecap="round"/>
</svg>
